<svg width="1439" height="683" viewBox="0 0 1439 683" fill="none" xmlns="http://www.w3.org/2000/svg">
<g clip-path="url(#clip0_340_6823)">
<path d="M1439 0H0V683H1439V0Z" fill="#C31B1C"/>
<path d="M0.000164457 242.461V0H1439V113.422C1431.08 113.445 1422.33 116.18 1414.73 116.695C1403.87 117.432 1410.01 110.719 1406.94 107.246C1405.55 105.669 1395.53 101.876 1392.19 98.9779C1388.18 95.4974 1385.76 89.9446 1380.15 87.9491C1379.06 82.3211 1386.26 78.5617 1384.57 72.916C1383.37 68.9242 1374.39 67.6602 1373.27 60.3569C1372.55 55.6961 1374.69 43.8899 1370.38 41.0584C1368.9 40.0878 1366.98 40.4779 1365.82 39.0362L1375.65 30.8592C1369.81 23.8885 1362.46 13.6043 1352.23 18.8812C1346.03 22.0767 1344.31 26.2999 1353.48 25.487C1355.33 26.7185 1342.01 29.3953 1341.92 30.0592C1341.96 34.1283 1345.03 38.5524 1345.22 42.4431C1345.32 44.6077 1344.33 46.5478 1344.4 48.8606C1344.79 61.5934 1347.61 69.2784 1333.75 76.0297C1345.32 82.3059 1338.09 90.0208 1332.93 97.798C1336.87 99.0202 1339.6 92.1744 1342.77 95.7456C1341.59 101.225 1328.85 106.304 1324.06 106.675C1320.09 106.983 1317.24 103.935 1313.33 106.981C1312.78 110.462 1314.37 113.596 1314.04 117.131C1313.36 124.382 1307.53 124.059 1302.06 125.732C1301.19 126 1300.55 125.197 1300.84 126.993C1301.21 129.291 1308.72 135.549 1310.99 136.578C1314.93 138.361 1318.41 138.289 1322.68 138.112C1338.14 137.472 1354.58 134.148 1369.78 131.764C1378.35 130.418 1386.15 129.303 1394.8 130.891C1399.89 131.825 1407.77 136.382 1412.09 135.455C1414.08 135.026 1418.37 130.727 1417.26 129.013L1390.49 118.343C1390.54 117.099 1394.27 116.677 1395.04 116.684C1405.5 116.787 1423.14 129.338 1430.99 127.193C1433.91 126.394 1434.69 122.573 1439 125.751V136.436C1432.78 138.295 1425.44 139.671 1419.44 141.956C1418.4 142.353 1417.03 142.44 1416.8 143.825C1424.1 144.42 1432.22 142.34 1439 145.477V186.572C1434.05 184.505 1430.34 188.606 1425.44 188.267C1418.82 187.808 1416.3 180.288 1415.98 174.631C1415.59 167.57 1421.6 159.448 1411.9 156.538C1409.45 155.801 1406.88 156.006 1404.41 156.527C1397.5 157.986 1386.69 169.532 1381.27 158.389C1375.62 146.788 1388.23 131.365 1363.35 140.551C1362.7 141.223 1367.87 145.845 1368.61 147.206C1370.71 151.077 1371.26 155.007 1370.19 159.299C1369.36 162.613 1368.11 166.082 1364.42 164.564C1356.75 161.409 1359.07 154.658 1358.4 148.368C1356.84 133.794 1349.24 140.474 1339.81 142.089C1334.56 142.989 1328.41 142.298 1323.08 144.689C1322.22 145.873 1326.35 153.97 1326.35 155.75V176.709C1343.03 178.994 1333.18 157.859 1336.64 149.603C1337.08 148.563 1340.5 145.76 1341.69 145.648C1345.78 145.262 1349.09 154.085 1348.56 157.351C1348.1 160.142 1344.18 161.453 1342.57 163.744C1335.3 174.051 1352.7 192.807 1333.25 196.344L1289.34 201.374C1289.73 202.788 1295.56 205.475 1296.33 205.475H1309.49C1311.32 205.475 1315.89 202.776 1317.3 206.297H1273.31C1269.83 206.297 1273.69 198.317 1270.03 197.242L1238.36 184.918L1244.12 181.627C1242.01 175.64 1236.92 173.856 1230.96 173.417C1230.5 171.523 1231.32 172.068 1232 171.538C1233.96 170.007 1236.76 169.394 1238.35 167.257C1236.62 164.999 1233.05 163.527 1233.43 160.275C1238.43 159.773 1243.18 161.866 1248.04 162.517C1248.94 162.637 1250.88 163.426 1250.69 161.925C1238.49 157.172 1227.43 147.734 1214 146.398C1198.85 144.889 1184.13 151.696 1169.29 152.878C1168.78 154.788 1169.75 154.254 1170.34 154.758C1172.25 156.404 1178.52 159.693 1179.04 161.688C1176.94 167.984 1178.39 175.248 1177.46 181.181C1176.45 187.719 1166.04 187.473 1160.51 189.711C1154.9 191.978 1150.31 196.065 1145.02 198.883C1144.98 196.389 1150.72 193.904 1151.11 192.645C1151.45 191.576 1150.71 189.913 1149.97 189.879C1148.46 189.81 1128.67 205.469 1124.91 206.733L1124.49 209.597L1133.11 206.704C1125.46 213.416 1118.62 222.45 1110.92 228.91C1109.74 229.899 1102.96 234.877 1102.18 234.994C1096.9 235.792 1105.45 227.03 1104.33 226.027C1097.68 226.486 1090.74 224.613 1084.22 224.345C1066.49 223.618 1048.31 228.174 1030.73 230.125C1024.31 230.837 997.552 231.346 994.188 233.876C991.518 235.882 992.529 240.491 993.318 243.277C982.625 243.637 976.336 245.027 965.969 241.445C948.304 235.341 930.874 223.628 913.549 217.403C898.764 212.091 890.261 216.898 876.106 216.199C869.747 215.885 864.074 212.775 857.892 215.996C855.94 217.013 855.031 218.912 853.468 219.794C851.777 220.748 820.72 224.773 816.111 225.194C802.078 226.476 799.697 220.708 790.461 212.217C760.15 205.237 734.315 204.549 703.857 210.799C700.274 211.534 687.669 213.567 685.549 215.294C682.647 217.658 684.882 231.783 685.653 235.623C685.875 236.728 685.819 237.086 684.569 236.696C682.184 235.951 673.008 226.864 672.219 226.86L670.152 230.953L665.528 227.726L661.128 230.952L657.006 217.804V230.133C647.045 232.862 634.991 233.493 624.487 233.46C620.198 233.446 616.1 232.187 611.34 232.569C607.307 232.893 603.634 234.847 599.446 234.242V220.681C599.446 220.416 602.115 218.417 602.567 216.403C604.303 208.668 600.798 194.749 612.599 194.794C613.798 198.522 610.268 215.837 612.546 217.45C615.204 220.232 623.807 212.142 624.111 210.806C624.399 209.544 622.408 208.215 621.663 208.768C620.392 209.713 618.838 217.434 614.618 213.705L617.728 196.631C620.189 194.877 627.404 194.916 627.404 198.489V219.448C628.529 219.483 628.995 219.721 629.911 218.902C636.159 213.313 625.349 196.625 637.255 193.519C652.666 189.5 636.435 215.616 640.483 220.762C641.676 222.279 645.004 223.577 645.498 220.684C646.087 217.233 644.861 203.552 647.955 201.709C649.455 200.815 651.407 203.629 651.235 200.984C651.037 197.93 648.738 193.914 648.397 190.659L643.85 189.859C644.94 185.031 641.273 184.997 638.92 182.048C630.004 170.876 648.234 157.937 640.471 144.333C638.198 140.349 637.322 150.252 634.815 150.406L628.232 140.129C621.157 139.657 611.614 138.077 605.984 143.381C598.939 150.019 603.595 160.856 602.632 169.619C602.054 174.89 599.733 180.611 596.162 184.521L600.265 183.288C599.283 192.703 598.579 202.206 597.811 211.648C597.551 214.845 598.157 218.286 597.73 221.43C597.42 223.709 590.156 239.138 589.168 239.158L580.123 227.683C577.069 233.834 577.564 241.84 568.201 239.166C567.039 238.027 571.868 230.006 568.627 230.967L550.111 241.24C552.803 246.31 561.478 243.608 559.985 252.324L570.658 244.105C570.196 250.974 567.621 257.822 573.565 263.01C573.88 263.089 578.806 259.619 578.908 259.311C580.616 254.194 572.861 260.745 571.489 259.713C572.631 253.82 574.119 249.264 578.914 245.299C591.394 247.773 584.46 264.595 574.361 265.478C566.337 266.179 563.389 261.518 560.789 254.796L559.567 262.188C558.386 264.666 548.051 266.124 545.989 265.073C544.329 264.227 544.066 260.921 543.762 259.079C542.344 250.487 540.138 233.074 540.38 224.767C540.557 218.693 546.227 215.943 551.561 218.41C554.361 219.705 556.854 229.154 561.193 228.491C563.591 228.125 559.962 222.749 561.175 220.276C561.866 218.865 567.125 216.662 568.77 215.529C569.496 215.029 570.296 215.662 569.84 213.699L522.154 210.397L527.068 200.124L520.511 203.006L522.97 197.663L521.751 197.263C514.602 203.942 504.703 209.288 497.874 216.14C493.645 220.384 494.176 222.389 491.727 226.023C491.694 226.071 490.989 226.773 490.905 226.845C489.391 228.141 484.181 229.549 482.062 229.923C476.791 230.856 470.058 230.985 464.956 229.358C461.22 228.166 458.432 225.346 454.733 224.378C451.828 236.049 441.943 227.109 435.633 224.969C421.311 220.112 418.709 229.121 408.266 229.139C402.019 229.151 398.799 224.925 393.855 223.166C384.285 219.761 372.896 222.08 364.28 226.848C361.832 224.488 369.649 219.959 365.505 220.254C362.506 220.467 359.336 221.737 356.05 221.1C356.654 222.772 357.238 225.096 357.31 226.834C357.335 227.441 358.512 227.958 356.47 227.668C348.692 226.561 335.625 212.705 331.401 223.974C333.934 226.583 337.364 225.066 339.994 223.551L344.514 238.786L360.162 242.469C360.406 244.613 360.129 243.767 358.96 244.128C355.486 245.2 351.833 244.899 348.245 244.934L338.782 246.57H359.75C359.99 246.57 363.517 248.623 363.898 249C365.984 251.061 370.141 273.574 369.21 274.519C355.478 274.912 342.334 272.958 328.607 274.619C313.666 276.427 299.81 282.421 285.338 286.018C284.809 283.899 287.26 283.831 288.656 283.195C302.167 277.034 317.602 272.869 331.381 267.118V252.324L312.473 254.798L319.043 255.616C319.972 256.402 315.61 260.399 314.945 260.963C309.017 265.999 303.438 266.826 296.024 264.66L300.105 269.113C286.949 283.853 276.295 263.524 262.51 261.547C255.891 260.597 256.322 264.815 251.677 265.941C246.291 267.246 242.323 267.147 243.309 260.63C231.307 257.088 227.335 270.689 219.928 276.967L223.661 283.547C212.79 287.692 202.495 286.716 191.148 286.81C188.531 286.831 186.006 287.735 182.934 287.709C172.923 287.624 164.558 284.425 154.211 284.415C144.947 284.406 135.656 285.002 126.637 282.738C126.125 288.643 126.388 295.428 125.801 301.218C124.985 309.272 122.939 315.868 123.35 324.232C125.014 358.025 126.824 388.741 124.157 422.86C123.518 431.041 121.34 439.342 120.842 447.492C120.068 460.169 122.652 473.022 121.698 485.744H90.4515L90.4578 484.116C91.586 484.273 94.5629 481.679 94.5629 481.223V449.58H79.3507C77.2929 449.58 75.8581 453.041 75.6354 454.907C75.0171 460.091 74.9089 476.221 75.6042 481.269C75.898 483.402 77.1725 483.88 77.2949 485.744H48.1038C46.9301 485.022 46.9689 484.105 46.8285 482.909C45.559 472.095 47.9321 459.459 47.8634 448.518C51.9062 441.703 62.8364 442.195 66.776 448.998L69.8839 456.971L72.4312 443.077L102.794 440.942L99.9494 438.854C92.9214 440.21 73.015 435.019 67.7952 438.026C65.6642 439.254 65.7141 442.213 62.7539 442.807C58.1026 443.741 53.8604 441.911 49.3365 441.354L51.5811 436.005C44.489 430.303 48.8076 423.325 50.0757 416.209C50.4771 413.957 49.937 411.511 50.3539 409.09C51.1828 404.278 59.6777 392.639 59.2736 390.104C56.0573 387.321 51.8632 386.528 47.6926 386.294V372.321C46.4825 372.178 46.2082 374.471 46.1237 375.271C45.415 381.982 48.2659 387.718 39.058 388.759C34.2711 389.3 16.9898 388.946 14.395 384.645C13.2243 382.704 13.7013 364.702 15.2758 362.522C17.3819 359.607 26.4093 356.539 27.8345 361.398C29.7182 367.82 18.1448 380.429 18.9194 383.382C19.0499 383.879 20.2265 384.884 20.9544 384.645C27.8207 379.468 28.4624 367.022 37.8202 365.737C38.0702 363.761 30.8937 364.812 32.8981 362.474C33.6533 361.593 39.077 359.54 39.9113 357.511C40.566 355.919 38.6224 353.811 39.8553 351.76L48.9575 348.517L49.3409 339.441L29.3236 340.399C27.0453 342.675 26.6293 345.826 24.5252 348.754C21.2808 353.268 16.3757 356.127 10.69 355.875C10.1437 355.474 14.4524 344.795 14.6537 342.923C15.1208 338.581 11.2615 335.363 18.1135 333.221C17.6985 328.653 16.0851 330.158 13.6717 328.671C9.97239 326.394 9.58728 320.389 9.87565 316.432L13.9881 320.944L10.6834 303.278C8.63947 303.614 7.01044 304.732 4.93232 303.71C2.44975 302.488 3.06096 297.556 0 297.528V252.324C3.71607 253.905 5.3743 257.998 9.29162 259.885C17.1615 263.677 23.0622 260.948 29.4678 270.129C32.7578 274.844 34.5611 277.401 38.1847 281.964C40.9567 285.454 39.4126 289.045 46.4425 287.645C52.3723 286.465 48.9543 274.711 54.6744 272.275C59.669 276.072 63.6613 271.928 67.89 271.279C73.586 270.404 79.6449 271.895 85.0727 272.083C100.163 272.605 115.23 273.073 130.313 273.674C133.709 273.012 134.135 268.42 134.033 265.474H106.486C104.094 265.474 100.018 278.42 96.4748 264.63C79.9394 262.771 63.0821 263.829 46.5479 262.09C41.559 261.566 40.9972 258.567 45.5945 258.035C61.0836 256.241 78.5389 259.279 94.1179 259.755C100.005 259.935 105.945 259.56 111.827 259.712C112.019 258.278 109.961 258.94 108.961 258.899C98.8512 258.481 88.6257 258.587 78.5623 257.221C70.0948 258.889 43.2938 253.408 37.3956 258.056C34.8356 260.073 35.3078 264.682 30.2075 263.703L0.000164457 242.461ZM1062.19 114.864C1059.87 117.273 1052.41 112.654 1053.46 109.064C1054.38 105.861 1060.39 108.403 1059.06 99.9067C1058.64 97.2674 1056.24 95.3629 1057.87 92.0469C1059.38 88.9709 1068.17 88.9265 1068.97 84.2753C1059.82 75.2517 1049.32 76.2108 1039.74 83.8414L1043.49 110.96C1046.66 111.387 1044.82 105.774 1047.18 104.398C1048.4 104.412 1049.93 111.906 1049.74 113.058C1049.37 115.261 1036.97 121.023 1034.83 123.3C1034.49 123.665 1033.81 123.995 1033.77 124.507C1038.79 135.741 1044.53 132.338 1053.75 132.262C1063.32 132.183 1072.41 136.741 1076.18 123.664C1071.25 120.797 1067.39 117.312 1066.58 111.296C1065.81 105.642 1068.96 94.0226 1061.58 92.873C1059.42 97.7591 1065.75 111.164 1062.19 114.864ZM102.78 128.232C97.1225 125.471 93.9243 118.216 86.3422 121.651L87.9839 124.098L78.1193 127.405C80.2063 129.941 83.5381 130.733 85.9581 133.119C91.7669 138.847 95.13 147.991 94.5713 156.161L98.6036 151.707L94.5955 132.378L102.302 129.912L102.78 128.232ZM1217.81 140.549L1163.53 147.123L1163.53 149.582L1217.81 143.008L1217.81 140.549ZM1073.91 161.093H1091.58C1094.25 161.093 1099.87 155.057 1099.05 152.015C1098.21 150.846 1076.39 144.939 1073.48 144.668C1062.69 143.662 1056.07 146.882 1046.1 148.504C1035.4 150.244 1024.63 151.534 1013.88 152.882C1015.27 155.71 1016.39 159.655 1015.09 162.721C1013.49 166.494 1001.69 169.247 1002.37 172.177C1008.3 176.266 1014.5 178.593 1021.73 178.389C1037.99 177.93 1053.89 172.017 1071.02 172.607C1074.35 172.722 1094.4 176.636 1094.3 171.378C1092.34 166.892 1091.8 169.358 1089.25 169.031C1084.45 168.417 1080.07 165.076 1075.71 162.949C1074.6 162.405 1073.46 163.479 1073.91 161.093ZM90.4432 152.87V148.768H89.6376V152.87H90.4432ZM83.051 177.531H103.608L107.368 165.199C106.29 163.468 98.7806 161.943 96.786 160.323C95.5248 159.299 95.7474 157.409 95.2716 157.097C94.0915 156.323 90.8833 158.151 90.0405 154.509L88.8622 159.094C83.9333 159.016 72.5145 161.544 71.6229 167.391C71.1296 170.627 87.3275 174.98 90.4513 173.429C89.4649 176.52 82.7837 173.953 83.051 177.531ZM1058.29 209.584C1059.92 209.584 1061.35 208.725 1062.29 207.429C1064.45 204.449 1064.75 186.789 1064.02 182.894C1063.39 179.572 1058.58 177.24 1055.81 179.581L1054.93 182.026L1058.29 209.584ZM1041.85 211.227C1048.08 207.276 1047.42 193.736 1046.81 186.945C1046.37 182.053 1041.51 178.105 1038.47 181.975C1035.91 185.235 1041.37 206.073 1041.85 211.227ZM1024.58 213.694C1032.72 209.263 1031.64 195.107 1030.13 187.18C1028.92 180.841 1022.54 183.43 1022.06 186.176L1024.58 213.694ZM121.694 191.507C105.968 187.696 91.1531 188.528 75.2054 188.249C71.1764 188.179 67.5574 186.806 62.9799 187.469C56.7045 188.377 53.3697 194.52 53.4475 200.54L122.52 204.649C123.507 200.986 118.867 199.054 118.38 195.98L121.694 191.507ZM583.814 217.799L593.682 187.394C589.096 188.665 575.759 205.284 578.408 208.799C579.054 209.656 581.512 209.414 582.051 210.945L583.814 217.799ZM1304.15 194.804L1282.77 188.219C1282.72 190.064 1282.18 190.022 1283.8 190.896C1288.76 193.581 1296.97 194.432 1302.26 197.133L1303.3 197.254L1304.15 194.804ZM665.237 226.023C666.728 225.448 667.981 221.692 668.18 220.288C668.819 215.783 654.681 200.161 651.653 195.629C655.483 206.051 664.906 214.402 665.237 226.023ZM126.63 210.417C122.777 209.899 117.602 207.962 113.847 207.92C110.223 207.879 106.789 210.224 103.962 210.355C96.9903 210.677 83.9403 207.648 76.0571 207.124C72.3743 206.879 65.9719 207.966 63.8393 207.75C61.6967 207.533 60.2964 204.433 56.3444 204.596C51.9352 204.779 46.9002 210.916 47.6891 215.337C54.9122 216.964 60.4553 211.788 66.9831 211.196C78.6284 210.139 95.7948 213.42 108.097 213.728C113.632 213.867 123.572 215.345 126.63 210.417ZM288.622 246.562L275.059 215.342L257.376 251.492L267.698 252.426L276.297 230.953C278.87 228.766 282.207 237.659 282.076 239.533C281.964 240.607 273.997 240.35 276.287 242.452L288.622 246.562ZM71.9502 216.187C69.8548 218.013 67.6027 220.201 67.4855 223.211C67.3786 225.959 68.3097 237.079 69.1341 239.522C69.5839 240.855 69.9212 241.615 71.128 242.446C75.6329 239.368 76.3089 234.993 76.5035 229.759C76.6973 224.548 76.5937 219.382 71.9502 216.187ZM90.1564 217.044C82.6784 222.192 86.8961 231.822 86.4951 239.429C94.9499 249.469 95.1126 228.135 94.6137 223.096C94.3149 220.078 93.1842 218.189 90.1564 217.044ZM109.107 217.94C108.616 217.983 105.552 219.503 105.242 219.851C103.945 221.309 104.127 235.863 104.63 238.563C105.956 245.682 112.017 244.317 112.685 236.328C112.976 232.848 113.998 217.508 109.107 217.94ZM322.34 251.506L323.636 219.396C319.863 218.761 314.36 217.886 310.447 217.77C307.178 217.673 301.926 217.192 299.331 219.056C294.488 222.536 297.944 229.385 297.712 233.802C297.471 238.373 293.417 243.872 295.604 249.047L302.597 252.323C303.811 244.304 305.094 233.421 315.55 239.546L314.109 251.506L322.34 251.506ZM92.9184 310.679H84.6956V333.692H92.9184V310.679ZM70.7167 353.418H107.72V351.774H86.3402L99.503 350.127L99.0733 347.651C93.341 349.592 71.5905 349.654 68.212 353.197C67.53 353.912 66.4124 356.085 66.5593 357.069C71.9886 361.256 76.839 359.632 83.047 359.179C82.5644 360.793 80.0994 360.408 78.8946 362.003C78.0748 363.089 77.5607 365.663 77.3899 367.074C76.9567 370.653 76.6616 389.68 77.452 392.301C78.5582 395.969 95.8059 398.226 96.9782 390.762C97.647 386.504 97.0223 360.783 98.7191 359.219C101.081 359.243 103.43 358.939 105.72 358.367C107.101 358.023 108.119 359.19 107.715 356.709L73.565 355.091L70.7167 353.418Z" fill="white"/>
<path d="M491.729 226.023C493.53 224.823 501.439 221.384 503.846 220.465C506.418 219.482 513.668 216.982 515.986 216.982H528.32C528.463 216.982 529.616 218.092 529.554 218.626H518.042C520.711 228.86 524.279 238.082 515.575 246.563C520.919 247.678 533.568 243.934 537.344 248.236C539.555 250.754 538.272 256.027 538.607 259.302C538.964 262.786 541.983 273.028 537.201 274.409C534.025 275.326 531.532 269.992 527.422 269.598C522.787 269.154 510.741 276.864 510.626 267.553C510.586 264.299 514.98 247.559 514.366 246.524C506.07 240.815 494.696 236.988 490.906 226.845L491.729 226.023Z" fill="white"/>
<path d="M1439 457.799C1433.73 457.417 1426.86 457.718 1426.63 464.343L1417.57 463.119L1412.61 475.816L1402.04 472.542L1402.36 470.078L1406.97 468.932L1407.79 467.25C1407.26 461.633 1400.16 443.883 1401.3 439.492C1402.61 434.452 1413.13 435.325 1415.63 433.211C1418.89 430.455 1416.02 416.301 1415.21 412.131L1409.4 411.776C1411.52 420.84 1410.16 424.598 1400.08 421.698C1399.25 421.17 1398.09 418.119 1397.94 417.06C1395.37 398.496 1397.19 377.51 1396.23 358.768C1395.36 341.597 1390.96 323.128 1390.45 306.193C1390.31 301.514 1392.94 295.95 1392.74 293.952C1392.5 291.501 1389.28 286.53 1388.85 281.489C1387.53 265.837 1385.81 240.748 1387.16 225.572C1388.31 212.572 1406.4 222.002 1413.5 224.389C1413.74 227.046 1406.05 222.595 1408.57 225.621C1413.56 227.162 1418.37 229.157 1423.38 226.833L1421.76 221.125C1426.41 218.783 1429.64 222.187 1434.07 222.744C1434.52 224.713 1433.7 224.072 1432.99 224.565C1428.92 227.409 1424.48 228.476 1425.06 234.555C1426.16 245.95 1432.81 237.193 1439 235.885V265.474C1436.89 264.657 1433.33 262.134 1431.16 262.245C1430.24 262.293 1425.12 265.408 1424.68 266.263C1424.44 266.732 1422.52 276.035 1422.53 276.594C1422.58 280.596 1429.68 290.068 1425.48 294.288C1421.72 298.061 1408.12 293.657 1402.83 293.425C1403 294.693 1405.68 295.272 1406.76 295.648C1410.79 297.055 1423.33 298.954 1425.48 300.772C1428.8 303.596 1423.8 305.851 1424.32 308.419C1424.65 310.024 1428.23 313.446 1428.33 315.183L1418.45 317.263L1425.33 319.816C1427.65 321.43 1427.44 323.094 1426.66 325.471L1421.44 322.308L1415.98 326.73L1420.08 332.855L1414.35 336.568C1419.41 338.701 1420.88 338.994 1420.09 345.202L1401.17 346.431C1401.15 347.123 1403.71 347.208 1404.49 348.051C1407.57 351.395 1405.86 373.771 1407.67 379.22C1429.92 383.046 1407.03 386.901 1406.95 389.991C1408.09 391.726 1411.48 392.791 1412.28 394.528C1414.22 398.721 1408.39 400.118 1416.8 403.962C1423.74 407.134 1431.53 407.005 1439 406.841V438.895L1438.14 436.908C1437.85 431.971 1438.11 417.669 1436.06 414.305C1433.26 409.722 1421.16 409.443 1420.55 416.577C1420.17 421.031 1422.38 434.367 1421.13 437.053C1418.99 441.619 1412.25 438.443 1409.12 440.469C1399.38 464.156 1425.99 453.999 1439 454.511V457.799ZM1421.73 248.214H1409.81C1408.64 248.214 1407.91 251.331 1409.38 252.756C1410.26 253.606 1417.53 255.929 1418.74 255.678L1421.73 248.214Z" fill="white"/>
<path d="M1439 116.71V121.641C1431.66 121.208 1421.94 125.658 1416.8 118.362L1439 116.71Z" fill="white"/>
<path d="M1439 204.654V220.27L1434.89 222.732L1435.6 207.231C1434.97 206.257 1425.14 204.584 1424.2 202.196L1439 204.654Z" fill="white"/>
<path d="M899.58 383.006C899.297 376.42 897.859 369.79 899.59 363.285C900.769 363.09 900.739 364.735 900.972 365.58C901.935 369.073 904.479 387.104 905.882 388C907.92 389.301 911.317 388.86 913.441 387.815C914.966 383.401 912.468 370.69 915.402 367.582C917.541 365.316 924.199 369.004 926.702 369.86C926.719 368.268 929.786 362.295 931.646 364.099L932.827 386.35C935.032 387.403 940.442 388.322 942.347 386.711C944.449 384.935 942.354 367.046 943.157 362.865C943.506 361.044 944.62 360.916 946.052 360.034C952.87 365.635 946.523 382.003 952.739 386.237C954.892 387.703 959.722 384.813 960.647 382.812C963.052 377.612 958.301 368.895 964.945 365.072C966.195 366.482 968.793 366.949 969.838 368.259C972.154 371.165 971.454 377.333 974.401 379.718L976.881 362.455L979.339 362.454L981.027 385.428C984.451 385.038 991.596 387.262 992.476 382.572C993.735 375.851 991.489 365.976 992.615 358.876L993.827 357.622L996.607 357.521L999.482 383.012C1000.66 385.472 1009.76 386.07 1010.57 381.75C1011.32 377.683 1010.88 370.785 1011.42 366.167C1011.93 361.858 1014.95 349.114 1013.47 346.016C1013 345.048 1011.06 343.956 1010 343.725C974.21 346.561 938.244 347.979 902.467 350.96C896.932 351.421 891.389 352.064 886.024 353.43C884.362 348.201 884.121 344.29 890.32 342.928C903.75 339.979 922.595 341.034 936.985 339.435C949.467 338.048 958.272 335.359 971.565 336.123C980.506 336.637 1002.77 342.637 1008.84 334.817C1009.82 333.555 1012.14 326.363 1011.38 325.505C1008.35 325.432 1005.59 323.468 1002.71 323.077C997.413 322.359 992.65 323.99 987.998 323.863C986.755 323.829 985.582 324.404 985.927 322.607C992.769 316.979 1002.35 319.652 1010.59 318.071L1010.53 314.846C1006.76 314.063 1003.36 313.892 999.494 313.978C972.782 314.572 944.301 319.759 917.294 320.575C913.531 320.689 908.656 320.861 904.998 320.466C904.204 320.38 901.904 320.107 902.052 318.907C923.946 315.414 946.149 314.803 968.233 313.136C976.432 312.517 984.713 311.267 992.918 310.687C997.144 310.389 1009.82 312.353 1011.25 307.645C1012.59 303.222 1011.16 298.672 1006.81 296.787C1004.07 295.604 999.304 296.252 999.077 292.603C1003.3 292.057 1007.52 289.64 1009.76 286.032L998.259 283.149C1002.52 279.885 1007.58 277.676 1011.97 274.664C1012.75 274.13 1014.19 273.792 1013.88 272.47C1013.74 271.892 1008.94 269.303 1008.12 269.102C1005.2 268.389 986.025 278.945 985.908 276.558C986.754 270.958 987.937 263.852 994.776 263.156C996.833 262.947 998.35 263.917 1000.27 263.862C1010.9 263.56 1007.83 254.688 1011.06 252.379C1013.39 250.712 1018.68 251.793 1021.68 251.494C1041.52 249.519 1061.3 245.886 1081.31 246.574L1081.31 249.033L1071.44 250.671C1079.91 253.524 1084.02 257.071 1093.68 255.237C1103.94 253.288 1104.73 245.695 1110.51 240.004C1114.93 235.643 1122.17 233.006 1126.94 229.31C1136.46 221.935 1142.62 214.744 1154.48 209.16C1157.89 207.553 1161.76 207.234 1164.29 205.823C1166.13 204.798 1167.27 202.377 1169.54 201.202C1173.46 199.169 1177.31 199.837 1181.54 199.639L1184.08 192.686C1186.67 191.052 1189.93 195.76 1192.27 196.893C1201.57 201.408 1205.57 193.172 1209.87 193.177C1216.06 193.185 1231.83 198.026 1238.71 199.786C1246.94 201.894 1256.54 204.306 1264.49 206.891C1278.74 211.523 1281.97 228.42 1285 241.461C1286.41 247.534 1288.16 251.875 1285.22 258.075C1283.33 258.547 1283.87 257.708 1283.35 257.039C1277.71 249.818 1272.66 241.998 1267.1 234.696C1264.87 232.695 1261.66 233.986 1259.11 232.821C1257.83 232.239 1253.53 226.689 1250.62 224.863C1240.52 218.52 1215.65 217.823 1203.38 217.764C1196.91 217.732 1188.26 217.501 1182.22 219.63C1177.99 221.122 1175.01 224.181 1171.26 225.935C1162.57 229.993 1156.47 229.314 1149.56 237.942C1148.16 239.688 1147.7 242.291 1146.23 243.653C1144.8 244.972 1141.6 245.707 1139.74 247.033C1129.62 254.261 1133.51 268.041 1121.61 273.282C1130.33 279.708 1123.57 288.171 1124.07 296.706L1131.82 292.564C1135.64 298.478 1130.69 300.956 1125.3 301.642C1122.53 301.995 1118.13 300.395 1116.66 303.269C1121.97 304.804 1122.06 312.622 1123.25 317.255C1125.27 317.513 1124.55 317.237 1124.97 316.107C1125.88 313.656 1126.01 310.702 1126.96 308.229L1129.82 307.394L1131.4 331.985C1125.3 333.3 1115.35 334.805 1114.25 326.651C1113.71 322.637 1115.82 317.915 1111.14 315.785L1078.84 313.971C1078.5 315.827 1078.93 315.283 1079.89 315.806C1082.74 317.355 1087.2 317.866 1090.33 318.937L1090.35 321.352L1080.49 324.642C1082.44 324.498 1096.48 328.921 1092.29 331.23L1083.77 332.878L1090.36 339.026L1083.78 342.749L1084.29 344.445L1088.69 347.253L1081.5 352.152L1083.72 359.486L1055.41 368.231C1053.69 368.319 1054.34 368.228 1054.16 367.006C1053.28 360.939 1054.67 347.71 1051.58 343.271C1047.7 337.714 1043.51 341.57 1038.97 341.119C1037.81 341.004 1036.61 340.574 1037.73 339.457C1041.87 337.961 1048.91 338.876 1050.08 333.7C1052.02 333.646 1052.89 335.554 1054.75 335.987C1059.37 337.06 1066.28 336.49 1061.6 330.786C1056.45 324.516 1030.77 327.411 1024.57 333.285C1036.06 338.696 1037.43 350.66 1038.54 361.973L1033.7 370.247L1038.62 382.954C1040.06 384.014 1056.9 378.958 1060.99 379.894C1064.82 380.772 1066.78 385.61 1068.99 388.331C1071.75 391.734 1079.09 395.711 1071.43 399.028C1067.83 400.588 1063.62 400.626 1059.93 399.444V420.403C1059.93 425.807 1045.19 423.811 1041.44 424.114C1033.86 424.726 1028.65 427.296 1022.1 430.686L1024.98 433.146L1013.87 432.739C1011.21 430.21 1010.55 421.439 1007.53 420.169C1003.48 418.457 988.73 418.557 985.132 421.258C979.54 425.455 984.398 460.492 984.28 468.487L980.16 468.488L976.863 417.529C974.743 417.286 975.561 417.536 975.206 418.723C971.264 431.88 974.971 449.204 973.406 462.962C972.413 467.404 964.304 468.69 963.72 462.327C962.889 453.285 963.942 443.946 962.795 434.476C962.097 428.709 959.061 413.844 955.858 409.356C953.875 406.576 941.942 406.821 939.832 409.677C936.849 413.713 935.388 436.89 935.772 442.583C936.369 451.446 940.038 461.343 940.612 469.809C940.668 470.636 941.176 472.447 939.473 471.764C934.534 469.783 938.122 460.076 933.701 456.981L932.493 467.303C928.402 466.157 920.516 468.174 917.632 464.606C912.489 458.245 920.238 430.849 917.039 421.034C914.814 414.208 906.455 413.185 900.407 414.646L911.178 422.033L911.089 424.926C905.67 424.547 901.641 420.857 897.118 418.754C894.906 417.726 889.7 417.175 888.283 415.673C886.046 413.302 886.876 402.732 890.946 402.732H913.559C914.144 398.352 916.289 395.077 910.796 393.532C905.508 392.045 903.05 395.812 900.765 387.986C900.105 385.724 901.074 384.531 899.58 383.006C899.9 390.426 902.769 398.015 892.178 396.159C892.88 392.724 890.665 388.929 890.677 385.837C890.693 381.946 896.634 379.997 899.58 383.006ZM1232.61 201.366H1189.85V202.188H1232.61V201.366ZM1052.45 281.011C1052.79 278.879 1052.18 275.805 1049.65 275.339C1044.51 274.392 1035.8 276.816 1030.32 276.99C1035.4 282.846 1045.55 284.2 1052.45 281.011ZM1040.19 312.323C1042.55 310.96 1049.17 312.697 1049.2 309.525C1049.22 306.935 1047.83 302.443 1047.6 299.574C1047.14 293.831 1049.88 282.021 1040.19 287.255V312.323ZM1011.41 397.8C1011.71 394.668 1013.88 390.708 1010.01 388.925C1000.84 387.398 987.591 390.41 978.949 388.742C975.853 388.144 976.027 384.867 973.998 383.022C969.193 391.586 973.27 401.417 975.24 410.128C978.025 407.72 978.833 403.966 981.783 401.473C982.862 400.561 987.822 397.8 988.798 397.8L1011.41 397.8ZM962.893 398.618C961.925 395.661 961.05 391.592 957.599 391.178C951.696 390.469 935.575 390.963 929.767 392.22C926.923 392.836 925.814 395.738 925.064 398.252C925.904 400.877 928.805 401.735 931.182 401.959C940.668 402.853 953.102 398.376 962.893 398.618ZM1054.99 420.814C1055.05 420.28 1053.9 419.17 1053.76 419.17H1038.96C1038.81 419.17 1037.66 420.28 1037.72 420.814H1054.99Z" fill="white"/>
<path d="M740.88 326.295C746.023 324.195 747.63 323.462 748.188 317.578C748.833 310.783 747.349 305.286 742.116 300.812C740.519 299.447 737.932 299.789 738.41 297.533L748.282 295.88L745.813 292.605C757.899 288.096 769.672 290.998 781.99 292.589L777.885 289.71L779.944 287.671C791.501 287.242 802.926 286.636 814.509 286.81C817.308 286.852 819.295 287.871 822.606 287.573C829.14 286.987 825.502 283.199 828.906 280.721C838.319 273.87 861.465 277.729 872.446 279.45C873.282 282.385 868.662 280.502 868.34 282.724C878.512 285.698 877.795 282.662 880.388 274.479C890.961 275.751 902.041 275.028 912.129 278.822C913.7 279.413 923.384 283.772 921.78 286.013L918.5 287.655C919.541 288.077 924.09 288.914 923.419 290.53C923.134 291.217 918.869 295.179 917.944 295.746C914.725 297.72 912.632 297.04 909.673 298.164C904.919 299.97 903.921 304.762 896.871 303.112C895.426 302.774 894.107 301.127 893.411 301.081C891.438 300.948 888.729 305.604 886.454 306.228C883.984 306.906 881.648 304.284 879.469 304.21C878.012 304.161 870.012 306.889 869.995 307.801C872.723 310.282 873.744 314 870.433 316.476L851.888 319.72H864.634L865.464 321.364C861.519 324.493 859.47 329.067 859.25 334.084C859.113 337.208 860.118 339.604 860.145 342.288C860.548 382.29 862.333 422.286 861.72 462.353C861.654 466.66 863.285 472.876 859.267 476.27C851.444 482.88 832.255 480.008 822.714 479.973L819.002 476.287C830.499 475.606 832.31 473.395 833.015 462.359C833.559 453.844 833.144 437.038 832.172 428.603C831.149 419.723 817.908 423.005 816.703 427.151L817.349 470.132L814.153 470.034L812.409 462.733L801.764 468.141C797.774 467.24 798.289 463.071 798.41 459.816C798.734 451.072 799.739 441.63 798.386 432.785C796.703 421.777 784.442 426.305 777.044 427.783L776.343 428.727C776.582 438.589 776.978 448.361 777.025 458.244C777.044 462.156 779.116 467.086 775.854 470.821C769.19 468.426 760.003 468.682 758.951 459.873C756.87 442.461 767.128 417.53 737.124 428.156C736.451 429.092 736.653 434.441 736.736 436.054C737.034 441.858 738.46 449.263 738.478 454.92C738.488 457.943 736.748 462.255 733.693 463.355C730.104 464.647 724.369 465.056 722.586 460.88C719.91 454.61 723.44 436.492 721.949 428.64C721.252 424.972 715.533 423.451 715.356 422.734C712.929 412.872 720.595 412.598 724.448 408.088C728.652 403.165 724.598 400.749 723.2 396.979C717.023 380.325 721.034 381.297 735.938 375.61L735.121 396.982L757.325 395.335V378.486L773.766 373.147L775.412 395.339L797.621 393.687C794.193 380.865 798.794 370.729 813.245 372.317L813.245 376.427L816.529 374.795L814.89 393.689L829.687 392.869V355.884L733.178 361.568C731.34 360.712 731.168 358.34 733.227 357.686C737.452 356.344 743.796 356.42 748.646 355.016C753.826 353.517 758.153 350.521 763.702 349.517C774.553 347.555 787.019 348.799 797.995 346.809L827.495 346.876C829.297 346.458 829.585 337.953 827.231 336.561C823.062 334.095 819.85 339.266 816.88 339.448C814.851 339.573 810.567 337.605 806.214 337.771C784.721 338.594 761.477 342.47 739.642 343.543C738.096 343.619 731.523 344.335 733.464 341.486L828.046 333.697V329.578C798.71 330.215 769.544 335.338 740.144 334.44L740.572 331.33L778.701 327.109C778.893 325.674 776.836 326.337 775.835 326.295C770.854 326.089 765.151 326.075 760.17 326.261C754.667 326.467 736.654 330.547 735.147 322.576C734.313 318.163 736.106 313.429 735.95 309.039L740.88 310.679L740.88 326.295ZM819.828 321.363C822.131 319.15 827.387 318.478 828.025 315.182C828.798 311.184 828.681 295.241 823.407 294.302C816.544 293.081 819.997 317.514 819.828 321.363ZM806.76 295.978C806.08 296.772 807.86 314.5 808.337 316.813C808.631 318.233 809.317 318.837 810.364 319.705C815.538 314.86 813.261 310.114 813.167 304.519C813.078 299.188 816.704 293.004 806.76 295.978ZM799.262 297.529C796.929 297.389 793.676 295.482 792.257 298.357C790.694 301.522 795.613 315.367 796.013 319.697L798.379 319.671C798.12 318.682 799.262 317.281 799.262 316.843L799.262 297.529ZM785.986 320.419C785.482 317.317 786.915 313.78 786.927 311.09C786.933 309.937 786.139 301.042 785.971 300.539C785.033 297.745 778.793 297.043 778.668 302.006C778.532 307.423 782.023 315.585 781.999 321.368L785.986 320.419ZM752.491 300.909C753.386 307.985 751.878 318.039 757.737 322.993C761.439 323.017 761.053 306.628 760.439 303.868C759.434 299.351 756.094 299.64 752.491 300.909ZM772.949 300.816C769.75 299.617 765.808 299.128 765.671 303.652C765.503 309.16 768.617 317.209 768.845 323.008C769.471 323.567 772.949 321.396 772.949 320.953V300.816ZM818.997 322.194L798.036 323.837L791.043 325.465C798.56 325.357 806.969 325.559 814.401 324.577C815.887 324.381 818.439 323.86 818.997 322.194ZM787.502 395.527C786.81 395.634 785.974 396.793 784.837 396.946C778.23 397.83 773.273 396.656 768.852 403.144C775.936 410.037 785.81 405.087 794.573 405.853C802.017 402.277 790.431 395.071 787.502 395.527ZM829.594 395.434C822.524 396.548 810.573 393.591 809.062 403.031C810.902 404.323 813.013 405.974 815.303 406.073C816.465 406.123 826.252 404.576 827.464 404.209C830.88 403.176 830.763 398.098 829.594 395.434ZM757.209 399.563C755.921 397.498 734.477 398.408 731.492 401.156C725.901 406.304 734.528 410.366 739.617 410.133C741.668 410.039 755.558 407.251 756.515 406.442C757.957 405.223 757.33 401.453 757.209 399.563Z" fill="white"/>
<path d="M705.109 485.744C703.91 485.485 687.375 470.109 687.38 468.883C691.152 463.513 700.686 458.694 703.766 453.169C705.761 449.59 707.54 438.517 704.165 435.73C695.231 428.353 686.882 428.926 675.866 428.674L673.482 416.262L661.935 415.055C661.218 410.307 668.375 411.774 670.162 408.493L652.076 405.189C653.344 401.609 656.592 399.758 655.859 395.319C655.465 392.935 649.388 382.83 647.656 380.434C642.391 373.152 634.634 368.554 626.589 364.925C625.371 366.463 633.493 381.393 632.328 384.65C632.088 384.983 628.001 380.813 626.992 380.829C626.488 380.837 625.758 381.989 624.698 381.988C621.588 381.986 619.7 378.431 617.947 382.991L615.48 380.561L610.556 385.466L606.434 379.733C604.38 381.986 601.43 384.582 598.191 384.712C595.626 384.815 594.093 383.263 591.66 382.982C587.913 382.548 584.604 383.948 580.934 383.886C576.007 383.804 564.148 383.179 559.761 381.988C554.852 380.654 533.643 362.792 530.821 358.312C529.712 356.552 529.695 355.863 529.512 353.868C528.484 342.643 528.935 321.553 530.446 310.341C530.693 308.503 536.953 292.504 537.789 291.782C539.878 291.443 539.063 291.953 539.498 292.924C541.23 296.792 540.76 301.499 546.394 301.717C551.085 301.898 557.797 297.94 563.078 296.931C570.262 295.559 581.913 293.949 589.177 293.43C595.79 292.957 612.007 291.926 617.95 292.597C620.865 292.926 623.41 294.891 625.386 295.026C627.593 295.175 631.023 293.636 633.581 293.436C637.057 293.165 650.038 293.102 653.236 293.49C659.212 294.215 664.478 299.598 670.984 298.359L662.769 310.277C677.028 315.486 671.349 301.628 672.654 294.669C673.782 288.656 685.847 290.553 690.299 290.123L707.169 288.491L707.11 291.719L701.415 293.409C710.691 295.469 707.183 306.927 707.126 313.517C706.699 362.039 708.149 410.505 708 459.019C708.961 469.731 711.945 469.309 717.027 476.297C718.619 478.485 721.176 483.555 719.088 485.744L705.109 485.744ZM631.514 304.926V327.117L639.211 326.368C641.829 322.926 639.69 319.362 639.664 316.018C639.612 309.21 643.055 302.22 631.514 304.926ZM656.141 304.149C653.558 304.404 648.593 302.723 647.959 306.157C647.522 308.523 647.615 320.094 648.137 322.421C649.264 327.452 653.667 327.917 656.228 323.463C658.335 319.799 656.64 308.721 656.141 304.149ZM617.551 304.93C613.36 311.495 612.012 322.503 619.511 327.084C626.257 321.58 626.568 308.044 617.551 304.93ZM582.177 306.98V325.062C582.177 326.594 587.644 330.322 589.775 325.26C590.662 323.153 590.892 308.895 589.998 307.382C588.912 305.544 582.829 304.885 582.177 306.98ZM605.908 305.863C603.352 305.912 598.418 304.446 597.8 307.801C597.442 309.743 597.482 321.569 597.971 323.248C599.047 326.945 603.887 329.354 606.371 324.587C608.532 320.439 606.879 318.632 606.806 315.16C606.739 311.951 608.299 309.402 605.908 305.863ZM565.732 328.761C570.043 329.961 574.566 329.628 574.717 324.172C574.775 322.062 574.801 317.26 574.696 315.288C574.316 308.145 573.699 305.518 565.732 306.569L565.732 328.761ZM686.331 306.706C682.466 308.005 682.605 328.237 690.942 326.984C696.223 326.19 698.759 308.323 693.438 306.73C692.126 306.337 687.58 306.286 686.331 306.706ZM589.578 352.596H609.724C612.901 352.596 607.923 347.713 604.829 347.624L589.578 352.596ZM715.288 480.114L706.618 475.142C704.953 474.979 704.148 477.509 703.849 478.725L714.111 484.129L715.288 480.114Z" fill="white"/>
<path d="M1324.29 401.088C1324.06 401.03 1320.66 398.382 1320.6 398.153C1322.77 390.555 1331.02 392.686 1337.04 391.636L1325.63 388.654C1325.23 386.724 1325.89 384.698 1325.35 382.766C1324.63 380.198 1318.87 377.092 1321.34 373.507C1322.32 372.084 1324.4 372.121 1324.7 370.687C1318.36 370.106 1317.99 362.32 1314.87 357.901L1314.94 302.156C1315.55 300.372 1320.71 300.372 1322.64 299.967C1324.06 299.672 1325.09 300.874 1324.7 298.354L1300.85 302.463C1299.98 301.591 1302.53 290.408 1302.27 288.169C1302.08 286.528 1299.63 284.387 1299.02 282.516C1298 279.429 1297.69 267.654 1297.53 263.453C1297.15 252.857 1297.74 242.136 1297.73 231.535L1300.42 229.332C1306.72 233.779 1309.86 229.234 1315.84 227.436C1319.41 226.363 1323.18 225.812 1326.86 225.302C1341.91 223.218 1357.41 223.542 1372.39 221.916L1369.11 223.964L1376.86 229.291L1377.81 237.583L1374.87 239.573C1376.63 241.358 1378.52 242.73 1378.93 245.383C1380.54 255.832 1381.15 271.505 1381.47 282.289C1382.12 303.621 1373.46 293.712 1360.61 293.737C1352.14 293.754 1343.37 298.103 1334.56 296.71L1334.57 299.169L1377.69 296.755C1382.6 297.314 1384.18 303.201 1381.49 306.831C1378.96 310.258 1364.04 306.535 1359.66 306.504C1356.2 306.481 1334.78 310.707 1332.67 312.268C1329.26 314.789 1332.81 322.179 1337.26 321.249C1339.25 320.833 1340.88 318.028 1343.61 318.895C1343.78 332.799 1351.3 346.372 1350.18 360.391C1349.81 364.977 1345.62 372.226 1353.03 373.186C1357.45 373.759 1369.02 373.839 1370.58 368.452L1368.1 324.422C1366.33 319.051 1353.57 323.561 1349.81 323.045C1348.4 322.852 1347.48 322.06 1347.73 320.546L1383.09 318.071L1386.37 417.526H1348.14C1347.76 417.526 1344.45 413.456 1342.43 412.542C1337 410.087 1324.35 412.553 1322.62 408.497C1320.73 404.078 1333.83 403.191 1336.38 402.479C1337.24 402.24 1338.87 402.281 1338.68 401.088C1334.68 400.427 1327.85 401.989 1324.29 401.088ZM1371.57 252.334C1360.86 247.884 1342.92 241.69 1338.68 257.25C1348.6 255.416 1359.67 255.703 1369.47 253.925C1370.46 253.747 1371.42 253.473 1371.57 252.334ZM1361.7 287.665V268.351C1361.7 268.027 1360.84 262.4 1360.71 261.944C1359.21 256.54 1350.19 259.619 1350.19 261.776V288.487L1361.7 287.665ZM1371.57 411.773H1350.19V413.416H1371.57V411.773Z" fill="white"/>
<path d="M175.971 374.787V401.088H209.685V374.787C212.831 373.38 214.212 379.672 215.1 379.748L230.242 376.431V401.088H263.133L262.315 377.256C270.796 379.617 277.576 381.943 284.513 374.787V401.91H321.515C317.059 397.11 314.137 393.181 315.304 386.247C315.531 384.902 317.139 379.729 317.816 378.898C319.584 376.725 329.738 380.206 329.738 384.239V406.841L297.669 408.493C297.978 409.98 299.283 410.027 300.513 410.163C308.246 411.013 316.722 410.877 324.411 411.755C325.466 411.875 326.766 412.028 327.626 412.651C331.152 415.207 329.337 432.242 325.212 435.604L324.81 429.028C319.377 428.728 314.289 428.046 308.779 428.219C304.328 428.358 295.656 429.082 291.863 431.037C289.15 432.436 287.238 435.786 285.129 436.635C283.03 437.48 279.512 436.668 278.855 438.602L281.233 453.688L284.513 452.046V475.881H261.489C261.628 465.337 261.317 454.757 261.451 444.205C261.496 440.674 264.034 435.431 259.043 433.532C251.258 430.57 241.362 433.824 233.272 433.943C232.73 434.076 231.064 438.899 231.064 439.306V477.525H208.451C207.278 476.803 207.316 475.886 207.176 474.69C206.259 466.882 207.119 454.964 207.183 446.67C207.2 444.456 208.218 442.628 208.007 440.232C207.704 436.802 205.546 432.928 201.828 432.365C196.498 431.559 185.83 430.979 180.864 432.691C177.333 433.908 176.326 440.14 175.985 443.43C175.588 447.263 175.297 452.596 175.115 456.532C174.767 464.038 175.445 471.658 175.144 479.164L163.064 475.22C156.334 471.751 159.484 462.322 159.559 456.6C159.772 440.388 159.9 424.222 160.381 408.108C160.556 402.274 159.199 385.906 161.277 381.88C162.918 378.701 172.277 375.976 175.971 374.787Z" fill="white"/>
<path d="M370.03 434.785C368.365 436.713 365.927 428.429 365.909 427.39C363.382 427.336 363.077 430.182 360.556 430.657C356.261 431.467 349.956 430.143 345.397 430.638L342.016 415.109L337.645 415.693L335.622 413.662L336.926 341.713C335.952 333.631 327.367 332.379 321.505 327.537C316.954 323.778 312.147 318.151 308.367 313.546C310.085 311.575 315.511 313.271 316.574 311.077C317.519 309.125 308.851 308.942 308.38 306.92C309.48 301.401 317.714 297.93 322.872 297.607C326.833 297.359 330.766 299.39 334.487 297.804C337.721 296.425 334.545 290.812 342.446 290.093C351.642 289.257 360.747 292.272 370.013 290.146L372.507 304.098L377.38 297.066C382.14 293.151 391.617 295.976 397.615 295.914C423.832 295.643 453.323 290.843 478.558 301.241C481.579 302.485 484.958 304.245 487.61 306.169L479.405 309.456C472.86 314.186 478.131 332.269 475.283 339.445H375.375L374.939 336.543L384.005 334.522L370.03 333.692L370.03 434.785ZM384.535 307.452C378.107 309.757 378.335 326.942 383.198 329.159C390.845 332.646 390.404 317.979 389.808 313.512C389.46 310.901 386.977 308.477 384.535 307.452ZM406.211 330.404V313.555C406.211 309.734 401.873 305.502 398.18 308.414C395.279 310.7 401.754 317.535 401.931 319.434C402.14 321.671 397.076 328.53 397.987 329.574L406.211 330.404ZM421.012 308.213L413.607 309.037C412.592 313.279 418.384 317.432 418.456 320.936C418.535 324.757 414.837 327.667 412.789 330.396L421.012 331.226V308.213ZM436.636 308.213C421.471 310.201 434.196 315.537 434.214 321.773C434.226 325.728 430.184 327.404 428.413 330.396L436.636 330.404L436.636 308.213ZM453.907 309.031C449.557 309.097 445.428 307.697 444.354 313.118C444.119 314.309 444.626 326.965 444.882 328.326C445.528 331.769 448.947 331.53 451.735 331.109L452.967 329.879L453.907 309.031ZM468.705 329.993V310.267C457.135 303.872 461.74 324.567 462.034 330.746C462.825 331.848 468.235 331.516 468.705 329.993ZM374.137 329.578C372.915 324.009 373.541 318.376 373.319 312.725C373.28 311.728 373.939 309.667 372.507 309.862L370.856 329.586L374.137 329.578Z" fill="white"/>
<path d="M864.273 232.491C864.869 233.405 869.918 234.646 871.247 239.138C872.383 242.983 869.513 253.027 872.147 253.854C889.042 255.683 906.123 256.254 923.011 258.082C931.377 258.987 940.421 261.644 948.517 262.177C953.112 262.479 957.715 261.327 961.585 261.436C966.84 261.585 972.404 266.285 977.693 266.301L971.748 274.734L970.631 282.826C965.69 284.487 956.899 288.377 955.533 280.641C955.042 277.857 956.092 275.264 954.873 272.26C954.422 271.148 949.644 266.26 948.506 265.473C941.699 260.765 935.552 266.843 928.774 266.946C924.574 267.01 918.444 265.066 913.963 264.66C885.252 262.055 858.097 256.448 829.392 262.304L819.822 264.644L860.531 262.128L876.192 264.605L876.552 267.114L819.817 269.588L820.647 273.685L734.303 281.908C734.192 280.49 734.037 279.301 735.687 278.778C739.106 277.695 747.252 276.838 751.275 276.277C770.059 273.655 789.207 273.492 807.953 270.464C809.817 269.741 812.108 267.602 811.995 265.463C785.763 270.023 759.132 271.942 732.656 274.511L732.778 271.347C735.36 270.639 737.874 269.281 740.534 268.829C753.524 266.619 769.553 266.963 783.124 265.372C797.624 263.673 812.039 261 826.409 258.501C837.243 250.349 829.02 235.607 840.929 226.988C849.86 220.525 856.988 224.354 864.918 229.804L864.273 232.491ZM818.992 264.661H816.533V265.466H818.992V264.661Z" fill="white"/>
<path d="M448.145 378.074C451.503 379.099 463.705 380.836 465.464 382.544C469.708 386.665 464.064 400.975 473.272 402.684C479.196 403.783 485.975 402.706 491.724 405.207C485.525 411.94 475.401 409.101 467.477 407.654C465.663 409.568 469.031 411.443 470.802 411.728C475.903 412.547 486.225 410.264 490.063 413.024C494.231 416.022 491.538 425.156 492.549 429.854H472.403C472.192 429.854 469.078 431.639 468.743 431.95C464.5 435.885 467.023 458.176 466.253 464.803C465.166 474.164 453.559 469.347 447.323 473.415V435.196C447.323 429.01 431.348 430.48 426.852 429.765L423.477 402.731H448.145V378.074ZM427.592 410.942L449.283 412.364L453.063 409.717C451.911 408.153 450.565 407.385 448.57 407.583L427.592 410.942Z" fill="white"/>
<path d="M404.563 402.731C397.567 395.249 399.287 384.785 401.282 375.608C403.169 373.662 404.097 381.828 404.573 382.191C410.275 380.263 416.246 383.215 420.187 377.252V469.716C419.664 470.588 419.035 470.737 418.107 470.925C412.464 472.064 405.433 472.276 399.629 472.593V436.018C399.629 434.069 396.242 430.676 394.285 430.676H373.316C372.853 426.25 371.177 416.002 374.968 413.012C379.453 409.474 397.691 413.802 403.569 411.2C405.087 410.529 405.456 407.376 403.324 407.63L377.857 409.289C375.074 408.302 372.777 405.765 373.316 402.731L404.563 402.731Z" fill="white"/>
<path d="M327.268 359.984C317.782 363.328 310.872 365.393 300.553 364.917C252.731 362.71 204.523 363.071 156.678 361.603C153.602 361.509 131.011 362.298 130.715 360.365C131.165 356.026 131.92 350.969 136.958 350.179C166.518 350.841 196.241 349.507 225.677 349.269C251.07 349.064 276.842 350.184 302.181 351.782C311.046 352.341 320.541 353.925 327.268 359.984Z" fill="white"/>
<path d="M509.817 429.854C506.273 426.418 502.182 440.974 498.305 440.539V383.006C499.522 382.821 499.398 384.429 499.697 385.304C500.747 388.371 503.335 400.438 504.45 401.931C505.481 403.31 508.207 402.612 509.817 402.732V345.61C509.817 345.09 512.968 343.475 513.067 341.539C513.148 339.942 509.676 330.815 509.125 327.397C508.074 320.871 507.134 308.578 509.452 302.506C510.353 300.145 513.388 298.561 514.012 295.946C529.376 301.021 519.236 307.402 519.022 316.008C518.983 317.591 519.731 321.228 520.054 323.049C520.65 326.418 523.881 333.634 523.866 335.764C523.838 339.483 515.179 343.5 515.597 349.671C518.466 355.262 517.726 361.086 523.369 364.94L522.895 449.09C523.686 456.468 509.817 455.989 509.817 450.813V429.854Z" fill="white"/>
<path d="M718.68 224.79C717.404 214.596 708.606 219.872 702.238 216.567L721.057 214.611L724.493 239.116L727.721 239.177C728.327 238.594 728.324 224.675 728.629 222.399C728.741 221.563 729.159 218.708 730.591 219.455C732.589 220.499 733.884 235.528 735.533 238.347C739.325 232.714 739.607 223.663 736.401 217.762C735.191 215.535 733 214.438 732.662 212.056C741.136 209.673 748.923 210.326 757.512 211.455C762.502 212.11 773.819 213.844 778.126 215.507C782.812 217.317 788.276 223.864 784.084 228.525C780.367 232.657 753.977 243.807 747.637 245.514C742.091 247.008 736.738 247.686 731.018 248.21C730.731 245.147 735.399 247.407 734.299 243.287L705.527 246.566C706.046 244.139 707.783 242.727 708.577 240.171C710.42 234.244 708.826 227.793 711.29 221.919C712.41 221.714 712.536 223.389 712.704 224.18C713.794 229.317 714.173 235.541 714.564 240.822L718.68 240.817C718.227 235.738 719.299 229.737 718.68 224.79Z" fill="white"/>
<path d="M643.028 450.402L646.407 435.287L651.662 429.049C655.825 436.505 654.377 445.77 654.506 454.135C654.657 463.939 656.742 466.878 649.946 475.81C641.293 487.183 631.387 489.681 625.75 474.239L621.648 479.169V425.334L623.35 424.428C627.845 428.261 632.047 423.167 634.837 423.603C637.369 423.998 643.028 429.49 643.028 431.91L643.028 450.402Z" fill="white"/>
<path d="M490.053 367.375C488.24 367.365 486.605 366.604 484.773 366.531C451.896 365.211 414.903 369.443 382.79 366.553C379.414 366.25 375.409 365.702 373.937 362.237C372.467 358.778 374.503 354 378.65 354.24C408.416 355.724 441.299 352.54 470.746 355.075C477.283 355.638 484.463 358.308 490.944 359.585L490.053 367.375Z" fill="white"/>
<path d="M532.839 464.382L535.304 462.746C533.431 462.524 530.665 460.292 531.247 458.318C531.853 456.264 535.884 456.962 535.316 454.932C535.192 454.49 530.634 451.918 530.426 447.458C530.219 443.047 534.187 441.288 534.411 440.015C534.551 439.219 532.144 436.329 531.615 434.781C529.229 427.795 531.345 420.545 531.622 413.404C539.863 414.776 537.329 418.077 538.964 423.326C540.585 428.529 547.739 429.179 552.203 427.598L553.014 428.166C552.768 437.188 556.558 446.37 553.451 454.973C552.714 457.014 550.477 459.432 550.258 460.843C549.984 462.608 551.093 467.644 550.964 470.576C550.872 472.657 549.956 484.958 549.341 485.385C541.166 488.14 537.415 480.535 531.555 476.712L536.018 468.754L532.839 464.382Z" fill="white"/>
<path d="M390.998 281.913C390.684 281.833 389.518 280.475 389.765 280.277L393.876 278.633C388.545 278.326 383.114 277.739 377.827 276.996C376.606 276.825 375.779 277.022 374.98 275.748C381.002 268.65 391.374 269.933 399.627 271.237L388.943 272.872H469.527V273.694H434.991L451.034 275.329L493.377 276.982L492.14 281.913L390.998 281.913Z" fill="white"/>
<path d="M719.493 270.416C719.352 271.628 716.55 272.362 715.56 272.633C712.71 273.413 709.849 273.818 706.865 273.599C694.882 272.723 690.644 256.522 680.342 271.074C676.699 270.466 675.228 269.775 675.026 265.907C674.869 262.898 676.047 250.626 677.539 248.6C679.968 245.301 681.769 248.123 680.168 240.964C682.163 240.247 683.845 238.164 686.137 238.348C687.521 238.459 688.597 239.697 689.665 239.844C693.486 240.371 696.105 237.913 700.878 241.759C707.102 246.775 703.876 255.02 704.683 261.791C705.526 268.861 714.076 268.641 719.493 270.416Z" fill="white"/>
<path d="M663.585 243.283C658.044 245.412 661.598 254.664 657.861 259.341C655.642 262.117 644.584 263.785 640.972 263.83C633.681 263.92 625.749 259.944 618.76 264.618C617.265 264.484 617.666 255.532 612.846 254.137C611.527 253.756 607.72 254.355 607.66 253.547C608.063 248.525 612.783 244.471 617.521 243.606C624.745 242.286 624.371 255.358 624.936 260.146C625.418 264.233 627.05 259.348 627.529 258.644C630.769 253.877 633.565 248.837 636.941 244.163C642.514 246.495 649.141 249.389 654.846 245.643C656.528 244.539 657.169 242.185 658.373 241.771C660.898 240.902 665.883 242.12 668.794 241.605C671.463 248.456 673.711 261.429 663.585 263.008L663.585 243.283Z" fill="white"/>
<path d="M529.551 364.924C530.426 365.129 531.164 364.119 532.03 364.498C532.512 364.71 539.295 370.218 540.25 371.078C544.696 375.08 549.207 379.713 550.038 385.952C550.423 388.848 549.817 391.794 550.304 394.727C551.849 404.033 559.167 404.099 541.889 405.205C542.27 407.392 546.849 404.308 545.996 407.663H534.073C532.876 407.663 529.551 402.166 529.551 400.676V364.924Z" fill="white"/>
<path d="M324.808 341.914V344.373C316.454 344.218 308.052 344.58 299.69 344.41C258.958 343.583 217.906 342.048 177.237 341.055C162.707 340.7 148.131 341.82 133.67 340.28C131.378 333.369 140.589 336.898 144.278 337.013C183.992 338.253 223.869 339.175 263.509 340.301C283.935 340.881 304.454 340.579 324.808 341.914Z" fill="white"/>
<path d="M129.098 413.416C136.458 412.544 148.363 408.931 154.177 415.06C158.418 419.531 155.481 429.555 155.377 435.163C155.119 449.021 155.166 462.868 154.585 476.707H152.125L151.122 436.196C149.058 430.39 129.098 433.767 129.098 428.622V413.416Z" fill="white"/>
<path d="M1083.77 452.046C1081.11 458.694 1086.33 470.576 1081.69 475.855C1081.29 476.316 1077.84 478.347 1077.6 478.347H1059.93V461.498C1059.93 461.013 1061.3 455.534 1061.64 454.997C1062.09 454.305 1065.71 452.046 1066.09 452.046H1083.77Z" fill="white"/>
<path d="M718.673 281.086C712.201 280.716 705.845 280.115 699.32 280.235C654.059 281.065 609.06 287.731 563.633 284.421C562.226 284.319 560.914 284.508 559.98 283.141C567.909 281.101 576.152 282.234 584.268 281.946C605.317 281.198 626.527 281.162 647.584 280.302C662.519 279.693 705.269 274.035 716.603 278.644C717.871 279.16 718.998 279.28 718.673 281.086Z" fill="white"/>
<path d="M1009.66 479.061C1005.69 480.375 1001.3 476.577 997.81 476.647C995.156 476.7 994.218 479.888 992.914 478.343C990.428 475.396 990.14 460.415 990.87 456.583C991.887 451.247 1008.31 451.303 1010.95 455.38C1013.34 459.08 1011.37 460.914 1011.4 463.964C1011.42 465.565 1012.3 467.062 1012.27 468.858C1012.24 470.022 1010.1 478.775 1009.66 479.061Z" fill="white"/>
<path d="M1131.27 361.441C1128.52 364.199 1109.36 362.262 1106.35 357.546C1105.1 355.643 1110.06 352.825 1110.89 351.363L1106 347.17L1108.46 343.158L1104.33 335.34C1110.18 335.236 1116.46 338.472 1120.69 342.408C1122.04 343.672 1131.44 354.871 1131.86 355.919C1132.49 357.503 1132.49 360.215 1131.27 361.441Z" fill="white"/>
<path d="M870.801 426.567V376.02L875.296 370.698C882.092 373.214 879.696 394.981 879.812 401.533C879.879 405.325 881.199 408.575 880.594 412.934C879.869 418.16 874.834 423.421 870.801 426.567Z" fill="white"/>
<path d="M1409.35 163.605C1409.49 169.11 1412.04 177.529 1410.87 182.702C1408.98 190.985 1394.98 188.059 1388.88 187.353C1387.22 175.294 1395.87 161.292 1409.35 163.605Z" fill="white"/>
<path d="M373.32 484.922H359.752C358.173 484.922 355.33 478.599 356.044 476.703C350.727 480.412 350.127 489.369 342.035 483.559L342.157 471.853C349.922 470.862 356.911 462.711 362.241 472.595L368.389 468.062L373.32 484.922Z" fill="white"/>
<path d="M1362.53 177.527C1381.09 176.463 1367.02 197.272 1355.34 192.524C1350.04 190.369 1349.44 182.293 1348.14 177.506L1361.29 168.765C1362.03 168.759 1363.79 169.885 1364.23 170.486C1366.93 174.128 1361.29 176.461 1362.53 177.527Z" fill="white"/>
<path d="M307.54 327.942L307.54 330.401C306.037 330.346 304.49 330.539 302.981 330.438C254.668 327.189 205.792 329.332 157.436 326.328C155.089 326.183 152.86 325.244 150.473 325.47L150.475 323.011L307.54 327.942Z" fill="white"/>
<path d="M981.807 323.016C981.434 324.241 977.561 324.557 976.454 324.641C951.915 326.509 926.92 329.068 902.452 330.397C898.223 330.626 891.674 331.188 888.074 329.168C918.792 323.603 950.578 319.022 981.807 323.016Z" fill="white"/>
<path d="M642.972 400.333L643.031 402.728C636.879 402.952 630.646 402.451 624.491 402.698C617.965 402.959 610.532 404.144 604.005 404.407C599.114 404.604 596.255 404.474 592.045 401.896C591.812 401.561 595.777 397.431 596.736 397.147C602.213 395.52 613.478 398.06 619.657 396.905L621.232 398.62C628.026 388.412 628.415 396.847 632.664 398.706C635.836 400.093 639.739 398.795 642.972 400.333Z" fill="white"/>
<path d="M632.344 170.137L623.299 170.951L625.76 167.677L611.844 161.835C611.923 154.258 619.853 149.353 626.937 150.454C634.783 151.673 631.8 164.493 632.344 170.137Z" fill="white"/>
<path d="M471.993 343.555L471.997 346.839L429.606 346.881C417.998 346.237 405.911 345.306 394.322 345.166C389.325 345.106 381.996 346.778 377.844 346.013C376.422 345.751 375.546 345.139 375.785 343.555L471.993 343.555Z" fill="white"/>
<path d="M522.146 458.636L521.627 460.333C520.477 460.384 517.161 463.396 518.041 464.368C524.26 463.503 524.926 472.397 522.576 475.893C522.13 476.556 507.908 481.386 507.355 480.808C508.607 473.689 506.707 466.432 514.736 463.141L510.655 459.031C514.841 454.657 517.564 456.143 522.146 458.636Z" fill="white"/>
<path d="M484.332 286.847V289.306C483.36 290.328 468.529 288.519 465.86 288.454C439.083 287.796 412.374 287.521 385.648 286.019L385.649 283.56L484.332 286.847Z" fill="white"/>
<path d="M1228.49 182.454L1213.77 181.559C1212.91 173.58 1207.85 164.421 1206.86 156.803C1206.73 155.761 1205.85 155.659 1207.53 154.534C1210.22 159.186 1222.16 166.446 1224.02 170.157C1224.83 171.78 1221.98 173.857 1222.88 176.938C1223.56 179.283 1227.6 180.119 1228.49 182.454Z" fill="white"/>
<path d="M1086.24 230.962C1085.92 232.468 1084.62 232.482 1083.39 232.629C1055.07 236.002 1026.51 237.783 998.258 241.635L998.25 238.355C1027.66 236.833 1056.62 229.527 1086.24 230.962Z" fill="white"/>
<path d="M595.332 244.101L595.338 250.676L601.055 249.061L606.493 262.955L604.684 265.427L596.555 258.906C594.161 257.907 595.882 264.112 595.338 264.657L588.763 264.645C588.394 257.633 584.362 243.471 595.332 244.101Z" fill="white"/>
<path d="M194.045 368.217C197.491 374.137 198.965 391.966 196.109 397.792C194.675 400.719 189.647 398.878 189.136 397.19C187.295 391.111 188.361 379.265 190.401 373.186C190.714 372.254 192.326 366.973 194.045 368.217Z" fill="white"/>
<path d="M559.977 404.375C557.835 401.335 562.268 398.127 564.874 397.353C567.544 396.56 582.081 396.572 584.608 397.426C585.441 397.708 589.572 401.057 589.563 401.499C588.923 402.153 585.443 404.375 585.057 404.375H559.977Z" fill="white"/>
<path d="M247.257 371.599C248.374 371.306 248.808 371.503 249.578 372.31C251.464 374.285 251.519 396.727 249.588 398.638C248.282 399.931 245.921 399.785 244.55 398.697C242.815 397.32 243.141 383.979 243.363 380.915C243.56 378.181 244.031 372.444 247.257 371.599Z" fill="white"/>
<path d="M242.381 282.112C243.014 282.715 243.399 284.783 244.589 286.068C249.147 290.991 256.591 289.701 262.415 289.803C263.58 289.824 267.701 289.717 268.063 290.944C254.291 292.656 231.978 295.611 226.953 278.633C227.584 278.155 241.628 281.395 242.381 282.112Z" fill="white"/>
<path d="M1374.86 216.164L1374.87 219.444L1312.77 225.233L1310.74 223.144L1374.86 216.164Z" fill="white"/>
<path d="M422.656 485.744L427.179 477.541C428.346 477.524 429.186 485.039 435.316 483.329L437.41 477.067L448.546 475.868L448.514 482.46L453.081 485.744L422.656 485.744Z" fill="white"/>
<path d="M1226.03 306.572C1227.96 317.006 1208.38 320.409 1206.41 312.561C1204.8 306.156 1222.04 305.483 1226.03 306.572Z" fill="white"/>
<path d="M300.666 374.035C302.065 373.8 303.987 376.418 304.227 377.682C304.636 379.846 304.509 394.626 303.82 396.141C303.332 397.212 301.345 398.367 300.545 399.421C295.796 396.341 296.618 391.806 296.805 386.665C296.912 383.746 297.392 374.587 300.666 374.035Z" fill="white"/>
<path d="M1224.38 295.897C1224.85 297.783 1224.01 297.243 1223.35 297.766C1219.03 301.158 1211.34 302.417 1208.71 307.357C1201.69 304.887 1204.33 296.57 1210.4 293.829C1216.04 291.282 1219.16 294.159 1224.38 295.897Z" fill="white"/>
<path d="M876.147 441.377C877.501 442.642 878.22 444.395 878.796 446.109C879.993 449.665 882.557 463.048 879.031 464.785C867.554 470.44 873.68 441.359 876.147 441.377Z" fill="white"/>
<path d="M157.058 401.91C153.858 408.592 137.043 410.352 131.763 407.882C127.653 405.959 130.537 401.91 131.978 401.91H157.058Z" fill="white"/>
<path d="M401.278 476.703C396.732 489.22 388.054 483.815 378.258 482.452C376.441 480.917 385.097 476.703 386.065 476.703H401.278Z" fill="white"/>
<path d="M330.558 281.09L330.555 277.806C346.623 277.512 362.58 279.406 378.677 279.445L379.896 281.09H330.558Z" fill="white"/>
<path d="M138.966 397.389C138.383 399.462 134.312 400.131 133.976 397.419C133.045 389.902 134.935 381.233 134.957 373.657L138.966 371.499C137.753 378.182 140.595 391.595 138.966 397.389Z" fill="white"/>
<path d="M308.352 443L300.959 443.835L307.525 446.691C305.66 448.084 301.114 448.824 298.902 448.823C293.842 448.82 284.317 441.683 290.681 440.543C292.565 440.205 305.522 440.22 306.98 440.681C308.065 441.023 308.577 441.873 308.352 443Z" fill="white"/>
<path d="M729.28 485.651L723.314 485.629L722.086 484.397L722.792 469.303C732.468 468.031 730.619 479.351 729.28 485.651Z" fill="white"/>
<path d="M261.489 481.634C260.579 483.455 260.921 485.306 258.625 485.757C255.105 486.448 237.929 486.258 233.913 485.8C231.912 485.572 232.013 483.414 231.887 481.634H261.489Z" fill="white"/>
<path d="M703.057 236.711L697.406 236.601L694.828 223.558L703.516 224.326L703.057 236.711Z" fill="white"/>
<path d="M620.003 392.869H559.977V394.513H620.003V392.869Z" fill="white"/>
<path d="M1411.03 433.131C1407.68 432.852 1404.78 435.058 1401.67 433.052C1392.06 426.862 1413.75 416.192 1411.03 433.131Z" fill="white"/>
<path d="M1417.61 220.28C1417.8 221.746 1415.77 221.078 1414.85 220.989C1407.78 220.297 1397.26 218.4 1390.3 216.744C1389.48 216.549 1387.83 216.502 1388.02 215.348C1398.73 210.932 1407.89 216.399 1417.61 220.28Z" fill="white"/>
<path d="M328.048 454.56C328.721 457.382 330.499 471.239 326.191 470.844C317.863 470.08 324.288 459.747 324.024 454.558L328.048 454.56Z" fill="white"/>
<path d="M928.366 269.589L927.065 272.786C922.287 271.679 917.269 271.891 912.445 271.11C909.092 270.567 903.402 270.611 902.875 266.301L928.366 269.589Z" fill="white"/>
<path d="M205.571 482.456V485.744H179.258L179.259 484.111C180.627 484.353 183.101 482.456 183.78 482.456H205.571Z" fill="white"/>
<path d="M1076.38 402.733C1076.33 404.351 1076.97 406.87 1075 407.527C1072.16 408.474 1063.31 409.671 1062.54 405.488C1063.58 398.568 1071.57 403.869 1076.38 402.733Z" fill="white"/>
<path d="M882.309 267.943L882.318 263.833C887.307 264.909 892.471 264.883 897.536 265.463C898.969 265.628 900.199 265.116 901.209 266.707C895.359 272.179 889.027 267.854 882.309 267.943Z" fill="white"/>
<path d="M318.224 476.703L314.113 476.694C315.361 469.304 315.419 461.296 315.762 453.693C316.529 453.341 318.224 454.422 318.224 454.922V476.703Z" fill="white"/>
<path d="M629.866 175.891L624.923 184.928C617.085 176.715 617.075 173.118 629.866 175.891Z" fill="white"/>
<path d="M501.585 466.84C495.993 462.612 497.525 450.621 502.407 446.293L501.585 466.84Z" fill="white"/>
<path d="M156.236 377.253V397.39L154.991 398.614L153.77 398.622V377.253H156.236Z" fill="white"/>
<path d="M1323.06 418.348L1323.05 415.064L1337.86 414.242L1337.9 417.046C1337.82 417.336 1335.19 418.348 1334.98 418.348H1323.06Z" fill="white"/>
<path d="M1403.64 485.744C1402.09 484.396 1409.71 480.299 1411.46 480.337C1413.55 480.383 1415.47 482.366 1416.38 484.112C1417.22 484.544 1415.66 485.744 1415.56 485.744H1403.64Z" fill="white"/>
<path d="M1420.67 468.655C1422.18 468.2 1430.79 468.022 1430.76 469.717C1426.74 474.939 1423.09 475.499 1418.46 470.538C1419.13 469.859 1419.69 468.952 1420.67 468.655Z" fill="white"/>
<path d="M490.895 325.473C483.422 322.526 484.72 319.501 487.624 313.146C489.48 313.811 491.288 324.957 490.895 325.473Z" fill="white"/>
<path d="M793.507 484.922H778.295L777.078 483.689L778.295 482.456H792.274L793.507 484.922Z" fill="white"/>
<path d="M532.02 242.461V230.133C537.904 232.14 537.211 239.851 532.02 242.461Z" fill="white"/>
<path d="M1074.73 413.425L1073.9 417.531L1064.82 415.365L1064.86 412.598L1074.73 413.425Z" fill="white"/>
<path d="M734.301 471.771C735.511 471.908 736.25 474.714 736.532 475.707C737.501 479.126 737.886 482.174 737.585 485.747L734.301 485.744V471.771Z" fill="white"/>
<path d="M339.6 478.342L333.938 475.486L338.375 468.487C339.925 471.519 339.648 475.038 339.6 478.342Z" fill="white"/>
<path d="M561.616 474.241L561.487 484.377C555.89 490.38 557.893 474.354 561.616 474.241Z" fill="white"/>
<path d="M958.787 446.3C958.476 447.797 957.171 447.827 955.939 447.966C952.43 448.364 945.407 448.599 943.164 445.479L958.787 446.3Z" fill="white"/>
<path d="M791.86 476.703H777.059V478.347H791.86V476.703Z" fill="white"/>
<path d="M952.203 439.721C952.351 441.76 952.413 441.135 950.971 441.342C948.683 441.67 946.257 441.582 943.984 442.174C945.547 439.125 949.386 439.685 952.203 439.721Z" fill="white"/>
<path d="M136.494 483.281L136.504 485.741L130.748 485.74C130.136 482.951 135.04 484.288 136.494 483.281Z" fill="white"/>
<path d="M569.841 485.74L565.738 485.74C565.516 481.921 567.714 481.513 569.838 484.523L569.841 485.74Z" fill="white"/>
<path d="M1348.14 91.2314H1366.23L1367.46 93.275C1367.21 94.3143 1348.62 100.133 1347.29 99.9539C1342.84 99.3553 1344.53 92.8352 1348.14 91.2314Z" fill="white"/>
<path d="M1359.65 44.4053C1360.11 44.4079 1365.48 50.7497 1365.62 51.4732C1365.97 53.2823 1362.47 62.8157 1360.38 63.2465C1353.25 62.4796 1355.44 44.3818 1359.65 44.4053Z" fill="white"/>
<path d="M1372.4 85.4775C1377.83 87.0844 1380.49 88.8101 1381.89 94.5139C1383.08 99.4216 1377.95 97.5548 1375.24 96.1996C1369.88 93.5253 1371.55 90.4987 1372.4 85.4775Z" fill="white"/>
<path d="M311.631 221.097L316.44 228.087L311.247 233.47C303.543 229.179 303.774 224.633 311.631 221.097Z" fill="white"/>
<path d="M335.621 413.663L333.938 484.783L373.319 484.922L370.029 422.047L335.621 413.663Z" fill="white"/>
<path d="M539.872 291.652H528.957V408.511L545.997 407.663L553.161 404.288C553.161 404.288 560.641 394.629 558.011 387.117C555.381 379.606 550.353 366.017 550.353 366.017L565.72 350.082L559.813 302.276L617.95 292.596L539.872 291.652Z" fill="white"/>
<path d="M707.877 423.576V465.515L710.491 473.416L716.632 479.982V483.689L711.436 485.973H653.806L636.016 485.083L651.663 429.049L661.938 415.056L675.014 412.365L689.235 410.143L707.877 423.576Z" fill="white"/>
<path d="M679.006 290.442L650.105 293.304C650.105 293.304 658.057 299.286 658.293 299.444C658.529 299.601 659.553 313.136 659.553 313.136L665.851 320.14L674.197 315.24L678.212 303.299L681.833 297.24L679.006 290.442Z" fill="white"/>
<path d="M777.059 476.703L777.075 484.922H793.504L792.271 482.456L791.86 476.703H777.059Z" fill="white"/>
<path d="M1011.41 397.8V485.651H1078.79L1083.77 471.915L1076.44 462.652L1083.77 452.046L1073.9 417.532L1074.73 413.425L1067.76 406.074L1067.13 393.667L1052.54 390.853H1025.25L1011.41 397.8Z" fill="white"/>
<path d="M1010.01 388.925V254.443H1031.18L1018.95 308.239L1020.6 358.463L1022.06 383.023L1010.01 388.925Z" fill="white"/>
<path d="M828.371 300.096V476.702L849.21 475.134C849.21 475.134 857.044 415.425 855.174 412.597C853.304 409.77 841.917 301.489 841.917 301.489L828.371 300.096Z" fill="white"/>
<path d="M1386.98 227.807L1403.64 485.744H1439V240.109L1431.6 247.281L1417.63 238.85L1386.98 227.807Z" fill="white"/>
<path d="M1398.03 485.744L1396.14 381.599L1412.99 408.984L1416.63 456.231L1420.47 485.744H1398.03Z" fill="white"/>
<path d="M1313.4 294.25L1317.81 311.507C1317.81 311.507 1337.83 303.008 1338.68 302.878C1339.54 302.749 1377.96 302.878 1377.96 302.878L1374.86 285.949L1355.95 291.417L1330.48 288.488L1313.4 294.25Z" fill="white"/>
<path d="M1310.74 223.144L1313.4 232.869L1363.47 228.007L1369.11 223.964L1374.87 219.444L1371.53 218.849L1310.74 223.144Z" fill="white"/>
<path d="M1348.14 403.79L1345.68 410.128L1349.3 414.243L1374.87 413.417L1377.96 405.149L1348.14 403.79Z" fill="white"/>
<path d="M1186.49 205.169L1189.85 197.254L1204.52 198.47L1216.23 197.254L1247.27 205.169L1230.26 207.687L1199.08 209.584L1186.49 205.169Z" fill="white"/>
<path d="M514.012 295.946L523.826 300.096L522.894 449.09L518.919 451.241L514.012 349.245L517.996 336.011L514.012 313.146V295.946Z" fill="white"/>
<path d="M53.446 364.984L30.7395 380.496L24.4411 385.516L15.9384 383.68V364.984L6.80573 354.056L0 349.245V279.433L35.4633 309.056L64.4357 326.739L57.1926 354.056L67.477 367.586L53.446 364.984Z" fill="white"/>
<path d="M560.747 211.36L536.177 217.799V234.443L537.942 249.143L526.106 256.897L516.029 248.398L513.405 241.448L497.659 228.357L487.609 224.79L501.858 196.356C501.858 196.356 527.613 184.411 528.959 184.927C530.305 185.444 562.847 201.497 562.847 201.497L560.747 211.36Z" fill="white"/>
<path d="M42.5585 387.938L51.9438 384.904L52.9935 371.5L46.4852 365.598L37.9258 375.587V385.354L42.5585 387.938Z" fill="white"/>
<path d="M817.35 470.132V485.651H798.301V461.918L805.649 449.852L815.516 461.078L817.35 470.132Z" fill="white"/>
<path d="M819.004 476.286H814.887V485.651H861.6L861.848 471.14L857.086 464.96L838.367 475.951L829.058 476.703L819.004 476.286Z" fill="white"/>
<path d="M775.852 470.821V485.651H758.828V459.4L766.386 456.042L775.414 470.626L775.852 470.821Z" fill="white"/>
<path d="M1386.32 417.116L1323.05 415.063L1321.51 485.743H1386.98L1386.32 417.116Z" fill="white"/>
<path d="M1383.09 318.071L1399.2 316.865L1420.47 485.743H1370.64L1376.54 360.115L1377.96 324.703L1383.09 318.071Z" fill="white"/>
<path d="M1374.87 216.165L1388.03 215.349L1395.56 219.649L1397.64 313.293L1391.2 316.866L1371.57 307.996C1371.57 307.996 1372.92 263.874 1372.76 262.93C1372.61 261.986 1374.87 245.617 1374.87 245.617L1361.71 224.37L1365.84 220.699L1374.87 216.165Z" fill="white"/>
<path d="M522.721 427.161L525.228 484.922H507.355L508.442 470.846L518.92 467.754L515.591 464.96L516.292 459.032V449.292L522.721 427.161Z" fill="white"/>
<path d="M447.324 473.415V484.783H465.799L466.255 464.803L458.014 454.671L447.324 473.415Z" fill="white"/>
<path d="M420.189 462.705V485.083H399.352L399.981 468.55L411.948 461.078L420.189 462.705Z" fill="white"/>
<path d="M399.632 467.373L399.352 478.342L391.531 484.783L402.133 485.082L407.487 479.859L403.918 468.549L399.632 467.373Z" fill="white"/>
<path d="M261.487 475.881L260.078 482.456L257.008 486.212H284.406V475.881L273.305 458.796L261.487 475.881Z" fill="white"/>
<path d="M231.064 477.524L233.863 482.456L238.115 486.211H158.758V468.487L173.635 476.707L182.61 481.634H198.436L209.3 476.707L224.416 475.868L231.064 477.524Z" fill="white"/>
<path d="M364.281 226.848L514.013 245.748L511.087 215.342L432.202 202.596L386.913 200.763L364.281 226.848Z" fill="white"/>
<path d="M853.468 219.793L899.441 214.874L888.073 202.021L855.175 200.447L843.07 213.694L853.468 219.793Z" fill="white"/>
<path d="M530.414 408.511L534.096 417.639L535.312 454.931L518.918 462.705C518.918 462.705 518.975 409.455 518.918 408.511C518.861 407.567 518.738 349.244 518.738 349.244V305.585L523.825 300.096L528.956 291.652L541.356 341.5L530.414 408.511Z" fill="white"/>
<path d="M509.816 402.732L508.484 306.412L527.679 329.69L523.825 357.115L509.816 402.732Z" fill="white"/>
<path d="M509.818 429.855L507.355 484.922L523.348 474.241C523.348 474.241 522.277 450.497 521.79 449.689C521.304 448.881 509.818 429.855 509.818 429.855Z" fill="white"/>
<path d="M559.976 394.513L556.258 390.884L558.011 387.117L581.609 392.869L591.292 391.199C591.292 391.199 600.976 393.664 601.212 393.691C601.449 393.717 615.305 390.815 615.305 390.815L620.002 392.869V394.513L619.657 396.905L605.306 397.809L595.544 395.369L590.741 394.512L585.939 395.605L582.737 397.099L559.976 394.513Z" fill="white"/>
<path d="M134.243 491.715C133.928 491.715 127.84 485.315 127.84 485.315L134.243 473.563L143.586 486.211L140.122 493.184L134.243 491.715Z" fill="#C31B1C"/>
<path d="M576.336 489.407C576.336 489.407 573.029 473.436 572.557 473.08C572.085 472.724 559.411 469.727 559.411 469.727L554.68 480.743L555.551 490.823L571.297 492.082L576.336 489.407Z" fill="#C31B1C"/>
<path d="M952.275 458.56L943.161 451.241L938.332 438.251L943.983 427.161L956.282 436.84L959.746 449.688L956.597 458.56H952.275Z" fill="#C31B1C"/>
<path d="M309.024 436.736C309.024 436.736 297.792 435.199 297.372 435.076C296.952 434.952 286.77 439.883 286.77 439.883C286.77 439.883 288.052 452.264 288.566 453.209C289.079 454.153 299.366 473.774 299.891 473.984C300.416 474.193 310.283 481.416 311.753 481.634C313.223 481.853 321.516 482.676 323.72 480.743C325.924 478.81 329.878 472.912 329.738 472.504C329.598 472.095 330.963 466.102 330.753 465.164C330.543 464.226 328.693 454.46 328.988 453.624C329.283 452.789 325.609 446.703 324.245 446.703C322.88 446.703 316.81 442.612 316.171 442.507C315.532 442.402 309.024 436.736 309.024 436.736Z" fill="#C31B1C"/>
<path d="M536.497 217.799C536.497 217.799 536.576 214.298 530.12 217.76C523.664 221.223 520.279 220.672 517.917 228.226C515.555 235.781 520.353 235.816 512.327 238.142C504.302 240.467 498.305 245.381 498.305 245.381L509.887 250.811L514.012 249.316C514.012 249.316 515.319 244.14 517.996 242.872C520.673 241.604 523.358 241.998 523.866 238.614C524.373 235.23 519.816 232.397 523.866 228.62C527.916 224.843 536.497 224.921 536.497 224.921L539.174 219.728L536.497 217.799Z" fill="#C31B1C"/>
<path d="M550.535 241.004L549.827 233.522C549.827 233.522 552.137 227.623 546.993 231.925C541.849 236.227 534.816 241.666 533.242 242.461C531.667 243.257 526.523 247.874 526.523 247.874L533.557 256.897C533.557 256.897 540.8 245.565 545.104 247.769C549.407 249.972 558.54 242.461 558.54 242.461L550.535 241.004Z" fill="#C31B1C"/>
<path d="M536.496 224.921L526.523 247.873L540.485 239.689L546.468 233.521L536.496 224.921Z" fill="#C31B1C"/>
<path d="M50.3711 213.458V256.582L59.8106 257.522L58.349 210.625L50.3711 213.458Z" fill="#C31B1C"/>
<path d="M60.3401 254.168C60.3401 254.168 67.3674 253.434 67.4753 252.804C67.5832 252.175 77.7656 254.168 77.7656 254.168L111.738 259.142L95.82 259.791L69.7877 257.522L58.454 257.387L57.9258 251.021L60.3401 254.168Z" fill="#C31B1C"/>
<path d="M90.4437 152.87L90.0409 155.331V160.157L81.5469 161.416L89.6381 148.769H90.4437V152.87Z" fill="#C31B1C"/>
<path d="M1079.42 171.725C1079.65 173.377 1080.6 225.859 1080.6 225.859H1093.12L1090.28 171.725H1079.42Z" fill="#C31B1C"/>
<path d="M1093.11 178.633L1096.18 225.859H1100.44L1093.11 178.633Z" fill="#C31B1C"/>
<path d="M1185.38 144.477C1185.38 144.477 1178.41 129.31 1189.85 124.903C1201.29 120.496 1209.48 122.7 1216.88 128.365C1224.28 134.031 1233.73 149.583 1233.73 149.583L1214.52 140.549L1216.23 143.199L1185.38 144.477Z" fill="#C31B1C"/>
<path d="M1416.8 117.663L1427.9 103.498L1439 101.609V114.594L1416.8 117.663Z" fill="#C31B1C"/>
<path d="M1394.15 218.849L1408.57 225.621L1418.69 225.859C1418.69 225.859 1418.79 222.226 1418.69 222.354C1418.58 222.481 1405.07 219.658 1405.07 219.658L1395.93 217.978L1394.15 218.849Z" fill="#C31B1C"/>
<path d="M1282.8 190.214C1282.8 190.214 1288.73 201.444 1289.35 201.374C1289.96 201.303 1311.62 201.366 1311.62 201.366L1303.83 194.706L1282.8 190.214Z" fill="#C31B1C"/>
<path d="M776.344 428.727V486.495H795.046V475.305L776.344 428.727Z" fill="#C31B1C"/>
<path d="M1011.41 439.658V485.651L992.018 487.125L983.762 474.14L986.124 453.446L996.044 440.916L1011.41 439.658Z" fill="#C31B1C"/>
<path d="M242.069 260.32L257.71 250.811L268.91 249.399L266.299 266.549L248.349 273.002L235.438 269.067L242.069 260.32Z" fill="#C31B1C"/>
<path d="M284.089 244.044L274.484 252.323L275.179 267.476L287.711 261.201L298.423 267.28L309.296 256.897L302.04 250.811L297.946 242.872L294.957 248.923L284.089 244.044Z" fill="#C31B1C"/>
<path d="M314.538 247.947L313.215 254.7L326.447 256.162L331.381 252.426L340.314 246.305L362.348 245.748L361.561 237.433L343.138 231.138L320.621 240.738L314.538 247.947Z" fill="#C31B1C"/>
<path d="M686.351 214.826L673.723 221.379L668.18 220.288L677.265 227.203L687.186 222.639L686.351 214.826Z" fill="#C31B1C"/>
<path d="M1439 486H0V683H1439V486Z" fill="black"/>
</g>
<defs>
<clipPath id="clip0_340_6823">
<rect width="1439" height="683" fill="white"/>
</clipPath>
</defs>
</svg>
