<svg width="1439" height="588" viewBox="0 0 1439 588" fill="none" xmlns="http://www.w3.org/2000/svg">
<mask id="mask0_326_2837" style="mask-type:alpha" maskUnits="userSpaceOnUse" x="0" y="0" width="1439" height="298">
<rect width="1439" height="298" fill="#D9D9D9"/>
</mask>
<g mask="url(#mask0_326_2837)">
<path d="M1365.05 90.727H1382.26V64.0649C1382.26 54.1176 1384.72 46.4533 1389.63 41.072C1394.71 35.6907 1403.97 33 1417.41 33H1448.14V47.9209H1419.38C1412.82 47.9209 1408.24 49.3886 1405.61 52.3239C1403.15 55.0961 1401.93 59.0913 1401.93 64.3095V90.727H1462.4V64.0649C1462.4 54.1176 1464.86 46.4533 1469.77 41.072C1474.86 35.6907 1484.12 33 1497.55 33H1530V47.9209H1499.52C1492.96 47.9209 1488.46 49.3886 1486 52.3239C1483.54 55.0961 1482.31 59.0913 1482.31 64.3095V90.727H1530V105.648H1482.31V211.562H1462.4V105.648H1401.93V211.562H1382.26V105.648H1365.05V90.727Z" fill="#C31B1C"/>
<path d="M1201.07 90.727H1218.28V64.0649C1218.28 54.1176 1220.74 46.4533 1225.66 41.072C1230.74 35.6907 1240 33 1253.44 33H1284.17V47.9209H1255.4C1248.85 47.9209 1244.26 49.3886 1241.64 52.3239C1239.18 55.0961 1237.95 59.0913 1237.95 64.3095V90.727H1298.42V64.0649C1298.42 54.1176 1300.88 46.4533 1305.8 41.072C1310.88 35.6907 1320.14 33 1333.58 33H1366.03V47.9209H1335.54C1328.99 47.9209 1324.48 49.3886 1322.02 52.3239C1319.56 55.0961 1318.34 59.0913 1318.34 64.3095V90.727H1366.03V105.648H1318.34V211.562H1298.42V105.648H1237.95V211.562H1218.28V105.648H1201.07V90.727Z" fill="#C31B1C"/>
<path d="M1037.09 90.727H1054.3V64.0649C1054.3 54.1176 1056.76 46.4533 1061.68 41.072C1066.76 35.6907 1076.02 33 1089.46 33H1120.18V47.9209H1091.42C1084.87 47.9209 1080.28 49.3886 1077.66 52.3239C1075.2 55.0961 1073.97 59.0913 1073.97 64.3095V90.727H1134.44V64.0649C1134.44 54.1176 1136.9 46.4533 1141.82 41.072C1146.9 35.6907 1156.16 33 1169.6 33H1202.05V47.9209H1171.56C1165.01 47.9209 1160.5 49.3886 1158.04 52.3239C1155.58 55.0961 1154.36 59.0913 1154.36 64.3095V90.727H1202.05V105.648H1154.36V211.562H1134.44V105.648H1073.97V211.562H1054.3V105.648H1037.09V90.727Z" fill="#C31B1C"/>
<path d="M723.777 90.727H740.986V64.0649C740.986 54.1176 743.444 46.4533 748.36 41.072C753.441 35.6907 762.701 33 776.139 33H806.868V47.9209H778.106C771.551 47.9209 766.962 49.3886 764.339 52.3239C761.881 55.0961 760.652 59.0913 760.652 64.3095V90.727H821.127V64.0649C821.127 54.4438 823.585 46.861 828.501 41.3166C833.582 35.7722 842.842 33 856.28 33H921.18V47.9209H858.247C851.691 47.9209 847.185 49.3886 844.726 52.3239C842.268 55.0961 841.039 59.0913 841.039 64.3095V90.727H921.18V229.418C921.18 239.529 918.803 247.193 914.051 252.411C909.298 257.793 900.53 260.483 887.747 260.483H872.751V245.562H884.059C890.615 245.562 895.122 244.095 897.58 241.16C900.202 238.224 901.513 234.147 901.513 228.929V105.648H841.039V211.562H821.127V105.648H760.652V211.562H740.986V105.648H723.777V90.727Z" fill="#C31B1C"/>
<path d="M559.805 90.727H577.013V64.0649C577.013 54.1176 579.471 46.4533 584.388 41.072C589.468 35.6907 598.728 33 612.167 33H642.896V47.9209H614.133C607.578 47.9209 602.989 49.3886 600.367 52.3239C597.909 55.0961 596.679 59.0913 596.679 64.3095V90.727H657.154V64.0649C657.154 54.1176 659.612 46.4533 664.529 41.072C669.609 35.6907 678.869 33 692.308 33H724.757V47.9209H694.274C687.719 47.9209 683.212 49.3886 680.754 52.3239C678.295 55.0961 677.066 59.0913 677.066 64.3095V90.727H724.757V105.648H677.066V211.562H657.154V105.648H596.679V211.562H577.013V105.648H559.805V90.727Z" fill="#C31B1C"/>
<path d="M252.953 90.727H270.161V64.0649C270.161 54.1176 272.62 46.4533 277.536 41.072C282.617 35.6907 291.876 33 305.315 33H336.044V47.9209H307.282C300.726 47.9209 296.137 49.3886 293.515 52.3239C291.057 55.0961 289.828 59.0913 289.828 64.3095V90.727H350.302V64.0649C350.302 54.1176 352.761 46.4533 357.677 41.072C362.758 35.6907 372.017 33 385.456 33H417.906V47.9209H387.423C380.867 47.9209 376.36 49.3886 373.902 52.3239C371.444 55.0961 370.215 59.0913 370.215 64.3095V90.727H417.906V105.648H370.215V211.562H350.302V105.648H289.828V211.562H270.161V105.648H252.953V90.727Z" fill="#C31B1C"/>
<path d="M88.9805 90.727H106.189V64.0649C106.189 54.1176 108.647 46.4533 113.564 41.072C118.644 35.6907 127.904 33 141.342 33H172.071V47.9209H143.309C136.754 47.9209 132.165 49.3886 129.543 52.3239C127.084 55.0961 125.855 59.0913 125.855 64.3095V90.727H186.33V64.0649C186.33 54.1176 188.788 46.4533 193.705 41.072C198.785 35.6907 208.045 33 221.483 33H253.933V47.9209H223.45C216.895 47.9209 212.388 49.3886 209.929 52.3239C207.471 55.0961 206.242 59.0913 206.242 64.3095V90.727H253.933V105.648H206.242V211.562H186.33V105.648H125.855V211.562H106.189V105.648H88.9805V90.727Z" fill="#C31B1C"/>
<path d="M-75 90.727H-57.7918V64.0649C-57.7918 54.1176 -55.3335 46.4533 -50.4169 41.072C-45.3364 35.6907 -36.0767 33 -22.638 33H8.09092V47.9209H-20.6713C-27.2268 47.9209 -31.8157 49.3886 -34.4379 52.3239C-36.8962 55.0961 -38.1253 59.0913 -38.1253 64.3095V90.727H22.3491V64.0649C22.3491 54.1176 24.8074 46.4533 29.7241 41.072C34.8046 35.6907 44.0642 33 57.503 33H89.9527V47.9209H59.4696C52.9141 47.9209 48.4072 49.3886 45.9489 52.3239C43.4906 55.0961 42.2614 59.0913 42.2614 64.3095V90.727H89.9527V105.648H42.2614V211.562H22.3491V105.648H-38.1253V211.562H-57.7918V105.648H-75V90.727Z" fill="#C31B1C"/>
</g>
<path d="M390.152 483.831H375.796V461.477C375.796 453.136 373.745 446.71 369.644 442.199C365.405 437.687 357.68 435.431 346.469 435.431H320.833V447.941H344.828C350.297 447.941 354.125 449.171 356.313 451.632C358.364 453.957 359.389 457.307 359.389 461.682V483.831H308.938V461.477C308.938 453.273 306.887 446.916 302.785 442.404C298.547 437.755 290.822 435.431 279.611 435.431H225.468V501.674C221.229 494.701 215.35 489.642 207.83 486.497C200.174 483.216 191.082 481.575 180.554 481.575C163.463 481.575 150.133 485.609 140.562 493.675C130.855 501.742 126.001 515.346 126.001 534.487C126.001 553.629 130.855 567.233 140.562 575.3C150.133 583.366 163.463 587.4 180.554 587.4C191.492 587.4 200.857 585.691 208.651 582.273C216.307 578.718 222.186 573.249 226.288 565.866V585.144H241.875V496.341H292.326V585.144H308.938V496.341H359.389V585.144H375.796V496.341H390.152V483.831ZM292.326 461.477V483.831H241.875V447.531H277.97C283.439 447.531 287.199 448.693 289.25 451.017C291.301 453.342 292.326 456.828 292.326 461.477ZM142.613 539.41V529.565C142.613 516.85 146.236 507.689 153.482 502.084C160.729 496.478 170.71 493.675 183.425 493.675C197.098 493.675 207.557 496.478 214.803 502.084C221.913 507.689 225.468 516.85 225.468 529.565V539.41C225.468 551.578 221.845 560.602 214.598 566.481C207.352 572.223 196.961 575.095 183.425 575.095C170.573 575.095 160.592 572.223 153.482 566.481C146.236 560.602 142.613 551.578 142.613 539.41Z" fill="#C31B1C"/>
<path d="M552.844 483.831H567.2V461.477C567.2 453.136 569.251 446.71 573.352 442.199C577.591 437.687 585.316 435.431 596.527 435.431H622.163V447.941H598.168C592.699 447.941 588.871 449.171 586.683 451.632C584.632 453.957 583.607 457.307 583.607 461.682V483.831H634.058V461.477C634.058 453.273 636.109 446.916 640.211 442.404C644.449 437.755 652.174 435.431 663.385 435.431H717.528V501.674C721.767 494.701 727.646 489.642 735.166 486.497C742.822 483.216 751.914 481.575 762.442 481.575C779.533 481.575 792.863 485.609 802.434 493.675C812.141 501.742 816.995 515.346 816.995 534.487C816.995 553.629 812.141 567.233 802.434 575.3C792.863 583.366 779.533 587.4 762.442 587.4C751.504 587.4 742.139 585.691 734.345 582.273C726.689 578.718 720.81 573.249 716.708 565.866V585.144H701.121V496.341H650.67V585.144H634.058V496.341H583.607V585.144H567.2V496.341H552.844V483.831ZM650.67 461.477V483.831H701.121V447.531H665.026C659.557 447.531 655.797 448.693 653.746 451.017C651.695 453.342 650.67 456.828 650.67 461.477ZM800.383 539.41V529.565C800.383 516.85 796.76 507.689 789.514 502.084C782.267 496.478 772.286 493.675 759.571 493.675C745.899 493.675 735.439 496.478 728.193 502.084C721.083 507.689 717.528 516.85 717.528 529.565V539.41C717.528 551.578 721.151 560.602 728.398 566.481C735.644 572.223 746.035 575.095 759.571 575.095C772.423 575.095 782.404 572.223 789.514 566.481C796.76 560.602 800.383 551.578 800.383 539.41Z" fill="#C31B1C"/>
</svg>
