<svg width="1439" height="687" viewBox="0 0 1439 687" fill="none" xmlns="http://www.w3.org/2000/svg">
<path d="M0 0H1439V686.609H0V0Z" fill="#C31B1C"/>
<path d="M124.578 10.2786H1318.54V676.33H124.578V10.2786Z" fill="black"/>
<path d="M1318.53 10.2786H124.575V676.33H1318.53V10.2786ZM1328.81 686.609H114.297V0H1328.81V686.609Z" fill="white"/>
<path d="M1318.54 117.381V127.66H124.988V117.381H1318.54Z" fill="#C31B1C"/>
<path d="M1265.5 257.992L1265.5 268.271L178.438 268.271L178.438 257.992L1265.5 257.992Z" fill="#C31B1C"/>
<path d="M1265.5 333.231V343.51H178.438V333.231H1265.5Z" fill="#C31B1C"/>
<path d="M1265.5 411.76V422.038H178.438V411.76H1265.5Z" fill="#C31B1C"/>
<path d="M1265.5 487.821V498.1H178.438V487.821H1265.5Z" fill="#C31B1C"/>
<path d="M1265.5 563.06V573.339H178.438V563.06H1265.5Z" fill="#C31B1C"/>
</svg>
