<?xml version="1.0" encoding="UTF-8"?>
<svg id="Layer_8" data-name="Layer 8" xmlns="http://www.w3.org/2000/svg" viewBox="0 0 3499.9871 2133.4808">
  <defs>
    <style>
      .cls-1 {
        fill: #fff;
      }

      .cls-2 {
        fill: #c31b1c;
      }
    </style>
  </defs>
  <rect class="cls-2" width="3499.9871" height="2133.4808"/>
  <path class="cls-1" d="M562.8694,1016.7447s-17.8059,9.3191-24.4442,13.1489c-6.6383,3.8298-22.0325,10.1476-22.0325,10.1476l-16.2434,7.1084-2.1496,24.8504-21.3617,104.1915-41.3617,6.8936-23.7447-110.2979-11.234-926.5532,114.1277-58.2128,76.3725,109.9787s-35.0108,210.1915-35.0108,215.5532,5.3617,517.7872,7.6596,518.5532-.5771,84.6383-.5771,84.6383Z"/>
  <rect x="294.9146" width="25.2766" height="1904.869"/>
  <rect x="315.7869" y="1879.9754" width="2879.2979" height="24.8936"/>
  <rect x="3169.9997" width="25.0851" height="1887.236"/>
  <g>
    <path class="cls-1" d="M3169.9997,0v1880H319.9997V0h2850ZM553.9997,1020V145l-3-3h-74c-.8079,0-12.338,3.2309-14.0994,3.9185-20.6864,8.0748-16.8593,33.9689-16.8909,52.0914l-14.7354.269-2.9866,2.9955,1.584,15.8525,16.1283.8731v100l11.9995.02c-15.2565,13.4262-11.6581,30.2714-12.2789,48.7007l-2.9959,2.9999-14.7343.2696-.0254,16.8586,18.035,1.1512v100c2.493.8601,13.4583-2.5972,12.0129,2.9799-.3549,1.3696-3.2846,1.2693-4.6743,3.4571-9.8654,15.5321-7.3518,27.9128-7.329,45.5728l-16.1378.8632c-2.9676,2.0702-2.9948,16.1649-.0001,18.2538l16.1283.8731v100l11.9995.02c-15.2565,13.4262-11.6581,30.2714-12.2789,48.7007l-2.9959,2.9999-14.7343.2696-.0254,16.8586,18.035,1.1512v100c2.493.8601,13.4583-2.5972,12.0129,2.9799-.3549,1.3696-3.2846,1.2693-4.6743,3.4571-9.8654,15.5321-7.3518,27.9128-7.329,45.5728l-16.1378.8632c-2.9676,2.0702-2.9948,16.1649-.0001,18.2538l16.1283.8731v100l11.9995.02c-15.2565,13.4262-11.6581,30.2714-12.2789,48.7007l-2.9959,2.9999-14.7343.2696-.0254,16.8586,18.035,1.1512v100h26v-100h26v204h248l-31.9991-205.9804c5.841-4.9498,21.0219,31.0478,24.0005,34.9789,3.4495,4.5527,10.7101,11.4708,15.9587,14.0209-18.1299-19.3497-31.7424-44.8193-35.9484-71.0111l7.063,1.5492c3.0399-1.3915,3.027-3.365,2.8735-6.3459-.8179-15.8834-18.1295-45.3922-22.9341-61.2258-6.9475-22.8952-4.5269-45.1885.975-67.9762-3.9375-1.0245-3.8653,1.6263-5.6212,3.3587-9.3861,9.2604-15.8381,21.6141-25.3116,30.6879-27.0503,25.9088-67.7129,45.5578-101.0139,62.9861-2.7532,1.4409-18.9998,10.1227-20.0424,8.9576ZM1002.0252,252.0149l-3.0172,5.9513c-14.8601-5.2132-63.1401-45.245-75.8325-44.0813-.8529.0782-3.4937,7.7233-14.3861,7.9157-12.7728.2257-20.698-1.9197-35.2426.7467-57.9358,10.6211-117.3498,32.1869-164.1771,67.8227-22.5568,17.1658-24.9037,30.3082-39.6912,52.3088-8.5449,12.713-40.4911,49.7106-35.4078,64.0719.9691,2.738,5.2924,2.5946,5.8133,4.6418,1.6543,6.5022-4.3356,12.2326,1.2642,20.1037,2.7344,3.8435,5.9095,2.5416,7.6746,4.3995,11.2957,11.8899,10.0415,12.3624,13.038,26.6968.2885,1.3803,3.2093,1.3086,4.2726,4.1333,2.9432,7.8187,6.6973,54.3448,7.6412,66.2964.3402,4.3075-.0779,8.6742.0152,12.968-2.9908,3.1512-19.1742-16.0253-23.56,3.4337-2.693,11.9487,3.621,58.6821,6.2008,72.9452,3.4012,18.8044,12.8498,69.5214,40.228,57.8346l2.7265,3.212c4.5294,25.7805,4.1592,54.2782,12.903,79.0959,3.2025,9.0896,9.76,17.3151,12.1503,25.8497,8.1563,29.1216.5146,66.5884,3.277,96.723,3.0149,32.8893,34.9617,57.5608,60.0665,74.9132-2.6402-7.0348-2.3053-12.9725,6.1215-15.211,10.8036,2.7367,24.0581,36.1013,41.6261,30.8967l4.4112-17.5467c9.1491-1.6646,29.9698-4.1237,33.9627-12.9223,5.5933-12.3251-1.6995-8.04-7.4187-13.9119-13.8154-14.1841,4.9489-23.6011,18.3901-23.3682,5.0508.0875,8.0428,3.6278,12.1062,4.0703,14.9685,1.6298,52.8067-26.6262,64.8466-36.9764,14.3456-12.3324,40.278-34.5147,51.9261-48.0739,14.5548-16.9427,14.8105-25.6066,21.0364-44.9636,4.3366-13.4829,9.6004-25.2182,12.4673-39.5327,3.8414-19.1805,3.9655-39.3564,8.5357-58.4434-5.7223-1.0937-3.2137,1.5383-4.5237,4.3671-5.2181,11.268-6.7844,37.2899-10.3389,51.7495-1.6326,6.6416-8.3268,10.231-3.1036,17.8531l-6.0279.0358,3.9994,5.9588c-9.9196-.978-6.8923,6.73-10.2592,12.761-5.4536,9.7689-21.2139,29.8268-28.6296,39.3704-3.1997,4.1178-19.1729,15.8477-24.1059,16.0816-3.282.1556-9.7876-2.7117-10.7216-2.0182-.7104.5275-1.1315,4.3236-3.1523,5.8912-3.1059,2.4094-7.8943,3.2653-10.0343,6.031-2.1753,2.8114-1.629,7.858-5.1238,10.8764-6.5013,5.6149-29.7732,7.5073-38.3877,6.6214-10.2466-1.0537-17.6066-9.5303-28.4546-7.5267-3.2878.6072-5.5164,3.3863-10.0167,4.0272-13.937,1.9848-35.5574-2.841-46.1494-12.0577-2.3386-2.035-12.7432-14.8142-13.0636-17.0804l.3709-2.7064c25.2795-13.5113-5.7562-29.3932-14.2597-41.2608-8.4678-11.8177-11.9261-26.3682-.0113-36.9692-3.9326-.001-7.6478.9564-11.0283-1.993-2.8763-2.5096-12.8764-31.1087-17.368-38.6302-10.4678-17.5293-40.0763-43.2803-44.6676-61.3324-1.9137-7.5243-4.6396-32.7406-.7393-38.8669,8.4562-13.2822,22.6242-2.3485,32.925.6814,2.6384.7761,27.7412,8.1409,23.9021.1185l-6.7342-4.2543c-.0797-19.1705,38.3502-.7195,35.7213-23.7545,13.217-2.7362,9.9901,8.7815,12.332,11.6571,1.1937,1.4657,11.5886,1.0224,13.6109,5.34-3.8378,5.1784-8.81,15.0816-4.9012,21.0612.9319,1.4256,4.6802,1.3741,5.0976,3.3118.8904,4.1334-3.9636,17.3438-3.5068,23.396.3309,4.3838,3.4869,8.0145,3.4157,14.1436-.1485,12.7721-9.5432,29.2972-8.2129,42.1571,1.102,10.6528,23.8873,19.3385,14.292,32.1784-3.1615,4.2306-10.8933-1.4191-10.1263,6.7582,8.536-3.114,20.1705-3.1592,28.0603-6.9288,4.7828-2.2852,7.0559-8.7709,11.2464-8.7129,4.8695.0674,5.5539,6.5026,10.6711,5.6405-5.285-9.7436,16.0648-34.5382,24.0207-27.9818.5439.4482-4.9309,9.0728,4.5557,7.6024,11.2608-1.7454,18.6718-16.7067,2.4889-17.7502-12.6029-.8127-19.6645,7.2666-35.1154,3.1973-4.3599-1.1482-28.8284-22.1328-30.5343-25.6215-3.2169-6.5787,12.9921-27.9138,14.4092-38.6033,1.1329-8.5456-.7241-44.289-1.8167-53.8314-1.4833-12.9549-22.9926-35.2392-35.8746-38.1252-14.0518-3.1481-42.0164-4.651-57.0197-4.9639-9.9423-.2073-19.0884,1.304-28.8522,1.8421-1.0744-2.7014-2.3498-5.7543-2.2852-8.7153.3498-16.0293,2.8806-30.7231,4.0142-46.0592,1.2143-16.4267-.8673-45.4905,6.7047-59.2952,7.0538-12.8601,41.9893-29.7937,56.5298-31.4702,24.3911-2.8123,63.6946,7.6137,82.7359.7367,5.2901-1.9106,10.0154-6.8625,13.9555-8.0452,25.6823-7.7085,60.362,11.2855,84.63,6.6191,4.0667-.782,8.1025-4.5345,12.7171-4.8711,6.6979-.4886,12.5556,3.6651,18.0054,4.7543,7.1235,1.4238,7.9567-5.9228,16.3947,5.9365,11.7993,16.5833,6.4856,35.3971,21.3024,52.6986,2.7407,3.2003,10.1717,7.0698,10.8523,9.3093.9677,3.1838-1.581,6.6991-1.1874,9.3948,2.3246,15.9185,6.1796,36.2175,7.4504,52.1806,2.4986,31.3847-4.591,63.5511-2.051,95.0613,3.5803.0018,2.9395-6.9697,6.9343-7.3953,2.9989-.3195,13.4674,6.0478,19.0352,3.395.9526-10.2973-9.5161-11.4946-16.1284-15.2083,3.015-20.3701,12.4521-38.9952,17.1592-58.7608,12.0033-50.4039,10.1638-143.5423-1.8775-194.1645-2.9418-12.3674-14.9212-13.2646-19.0556-19.0374-3.3072-4.6178,2.3074-8.4525-3.9326-9.6859l1.8153-7.0644c-13.2405.8893-10.7737-18.1784-15.9459-21.229-2.2688-1.3382-6.665,1.4324-10.5141.8456-7.8772-1.201-17.6075-14.0901-28.5247-16.804-1.698-.4221-5.4741,1.9774-6.8672,1.0775-2.7432-1.7722-.1936-14.6873-4.093-15.9436ZM2935.9997,214h-1618c.1428,4.8606-1.518,10.7609,3,14h1615v-14ZM2935.9997,364h-1616l.3148,12.6908,2.6852,3.3092h1613v-16ZM1321.9997,518l.3148,12.6908,2.6852,3.3092h1608c4.4821-3.5811,4.6718-12.1298,0-16h-1611ZM1033.7332,559.7461c3.814-16.3747-18.1698-17.881-29.2054-23.2744l-75.4873,3.5691c-10.6989,7.5717-28.835,21.292-25.1217,36.6293l20.0743,3.3439-1.9868,7.9719,13.9833-.0063-9.9751-3.9546c6.241.1061,12.0419-7.2251,16.9764-8.0619,5.7411-.9736,2.8273,11.2825,6.226,12.1651,14.6293-1.4007,23.3358,7.0965,29.8841-10.0957l8.8658,4.967-3.9626,4.9762c2.6016,3.401,30.3311-.6339,35.9857-2.0009,6.48-9.6083-37.214-21.9457-33.986-25.9512,7.5998-4.6373,10.3937,1.3444,15.1477,2.0187,3.9374.5585,7.6439-1.9864,11.6351-1.8654,6.563.1991,13.5131,4.3973,20.9465-.4309ZM1109.9782,577.9979c.284-6.3333,6.4507-17.8736-2.9368-19.9812l-11.0417,13.9635c6.7417-1.1784,9.2768,2.5585,13.9785,6.0176ZM943.9895,600.0203h-3.9796v1.9593h3.9796v-1.9593ZM949.9895,602.0203h-3.9796v1.9593h3.9796v-1.9593ZM2935.9997,670h-1614l.3148,12.6908,2.6852,3.3092h1611v-16ZM949.9893,758.0104c-11.333,1.8069-22.0592-3.5849-32.919-4.0789-12.2766-.5584-24.0541.6337-36.0615-.3414-24.1594-1.962-27.2345-3.1818-52.2178.2013-9.1541,1.2396-19.8329-2.7039-26.753,5.2081,5.5317,8.5812,19.0909,9.4559,23.6991,18.266,5.6021,10.7101-7.6556,23.5664,13.4541,26.543,7.3364,1.0345,24.3998,2.3975,31.8085,2.3774,4.6739-.0127,25.3306-2.2196,28.5234-3.6624,5.4463-2.4611,6.9919-9.0205,6.4748-14.5134-14.0184.3569-30.6472,4.3599-44.547,1.5384-5.9086-1.1994-28.4819-14.6214-19.5025-20.6024,9.8539-3.9012,22.2279,1.1807,31.0472,1.0487,10.8371-.1622,24.8469-4.9735,36.0363-5.9624,10.3666-.9162,21.6467.866,31.9895-.0237,3.6999-.3183,10.5609-.7563,8.9678-5.9982ZM2935.9997,824h-1616c.1428,4.8606-1.518,10.7609,3,14h1613v-14ZM1251.9997,1016c-56.4645-25.1857-118.1003-40.7874-166.9512-80.0488-12.9507-10.5921-16.3304-29.0857-33.0292-35.9504,16.185,41.0658,2.6065,85.9199-2.6159,128.404-4.8268,39.2661-8.5119,80.1729-13.6587,120.3401-5.4598,42.609-13.6181,84.7849-19.745,127.255h233l3-3v-257ZM1319.9997,978l.3148,12.6908,2.6852,3.3092h1610c4.4821-3.5811,4.6718-12.1298,0-16h-1613ZM819.9997,1276h114l-13.8804-126.894c9.7419-23.2553,4.1891-44.159,22.8661-65.1205,14.6255-16.4144,12.2128-6.3846,19.9705,2.0672,3.8729,4.2195,35.5484,33.167,38.0835,33.9177,2.8004.8293,3.5539-.1885,2.9323-2.9323-26.2937-38.1028-42.7279-83.4-86.9519-105.0581-1.6857-.0457.121,13.1672-4.0696,17.9703-10.4921,12.0256-52.0985,9.9019-67.6894,13.9606-8.7071-.7587-11.7489-5.2559-16.2314-11.8198-15.4948,11.182-29.3334,25.4275-36.7425,43.2553l-.2873,2.627c19.9557,3.9307,26.8008,26.7798,33.4904,43.5363,2.6406,6.6143,13.5944,35.1726,14.1517,40.0195,1.4177,12.329-10.2417,50.7662-13.0122,66.1006-2.8851,15.9694-5.5717,32.1503-6.6298,48.3702ZM897.9898,1018.0203h-5.9802v1.9594h5.9802v-1.9594ZM2935.9997,1114h-1615c-4.4821,3.5811-4.6718,12.1298,0,16h1615v-16ZM1320.9997,1258c-3.509,0-5.0311,13.639,0,16h1612c4.4821-3.5811,4.6718-12.1298,0-16h-1612Z"/>
    <path class="cls-1" d="M834.0086,648.0058c-.4539-12.8706-2.3069-27.9823,12.9427-32.0104,7.7553,1.5353,2.2618,37.5476-12.9427,32.0104Z"/>
    <rect class="cls-1" x="766.0099" y="556.0105" width="5.9796" height="3.9791"/>
    <path class="cls-1" d="M527.9997,484h-51c-.6117,0-2.8464,2.7455-5,2v-98h53l3,3v93Z"/>
    <path class="cls-1" d="M527.9997,826h-51c-.6117,0-2.8464,2.7455-5,2v-98h53l3,3v93Z"/>
    <polygon class="cls-1" points="527.9997 218 527.9997 311 524.9997 314 471.9997 314 471.9997 218 527.9997 218"/>
    <polygon class="cls-1" points="527.9997 902 527.9997 995 524.9997 998 471.9997 998 471.9997 902 527.9997 902"/>
    <polygon class="cls-1" points="527.9997 560 527.9997 653 524.9997 656 471.9997 656 471.9997 560 527.9997 560"/>
    <path class="cls-1" d="M527.9997,332v35l-3,3h-53v-29c0-2.0097,6.9903-9,9-9h47Z"/>
    <path class="cls-1" d="M527.9997,674v35l-3,3h-53v-29c0-2.0097,6.9903-9,9-9h47Z"/>
    <path class="cls-1" d="M527.9997,198h-56v-29c0-1.8291,10.7402-9,13-9h40l3,3v35Z"/>
    <path class="cls-1" d="M527.9997,540h-56v-29c0-1.8291,10.7402-9,13-9h40l3,3v35Z"/>
    <path class="cls-1" d="M527.9997,882h-56v-29c0-1.8291,10.7402-9,13-9h40l3,3v35Z"/>
    <path class="cls-1" d="M527.9997,1016c5.2973,25.0169-12.7839,21.8517-27.8504,31.1496-2.1519,1.328-2.5473,5.5197-5.4606,6.5398-5.5922,1.9581-16.2855-.7212-22.689.3106v-29c0-2.0097,6.9903-9,9-9h47Z"/>
  </g>
  <polygon class="cls-1" points="2928.7231 1288.2766 2928.7231 133.2128 3028.2976 421.2128 3020.638 1208.617 2928.7231 1288.2766"/>
  <polygon class="cls-1" points="1321.9997 179 1321.9997 1297.4681 1284.9784 1019.9797 1303.489 332 1292.638 213.86 1321.9997 179"/>
  <path class="cls-1" d="M927.7869,597l15.1915-1.9533s11.3617.2553,13.1489.9767c1.7872.7213,3.5745,10.8064,3.5745,10.8064l-12.2553,5.7447-17.8723-5.234-1.7872-10.3404Z"/>
  <polygon class="cls-1" points="752.8295 559.9895 766.0099 556.0105 778.2976 556.0105 787.1061 559.9895 770.8295 559.9895 741.7231 564.2553 752.8295 559.9895"/>
  <polygon class="cls-1" points="971.2231 571.867 974.5742 571.867 975.771 576.1755 971.9412 578.5213 969.6912 576.367 971.4625 574.3564 971.2231 571.867"/>
  <polygon class="cls-1" points="968.3029 578.8564 969.6912 579.5745 966.1007 582.0638 964.0422 581.3457 965.1912 580.1968 966.8667 579.8138 968.3029 578.8564"/>
  <polygon class="cls-1" points="959.4465 580.867 961.9359 580.867 960.9784 582.0638 958.872 582.0638 959.4465 580.867"/>
  <polygon class="cls-1" points="762.9784 593.7447 767.9571 595.0467 765.4678 600.0203 759.5316 596.8825 762.9784 593.7447"/>
  <path class="cls-2" d="M1071.6593,581.4654l29.8723-11.6569,7.6216-11.0293-6.6642-.7625s-9.5745,2.2173-14.9362,5.6641-15.1277,11.5133-15.1277,11.5133l-.766,6.2713Z"/>
  <path class="cls-2" d="M1054.0294,683.7662s4.4171,2.4678,9.7788,3.8082,13.4043-7.6596,16.2766-15.8936,9.383-21.2553,9.383-21.2553c0,0-3.8298,20.4894-7.0851,26.8085-3.2553,6.3191-12.2553,13.5957-12.2553,13.5957,0,0-8.6293.4585-11.8723-.9574s-4.2256-.9574-4.2256-.9574v-5.1487Z"/>
  <path class="cls-2" d="M723.208,1068.4596s8.3695,21.3682,15.6314,31.399,22.4794,26.801,22.4794,26.801c0,0-23.7447-13.5319-26.0426-18.383s-10.4274-19.9876-13.7872-28.5957-6.6383-17.1064-6.6383-17.1064v-9.1915l8.3573,15.0767Z"/>
  <polygon class="cls-1" points="876.9784 1011.9799 902.5103 1003.5957 910.4252 1015.0851 902.5103 1024.7872 878.5103 1029.8936 876.9784 1011.9799"/>
  <polygon class="cls-2" points="497.9997 1109.0426 497.9997 1048.0213 503.7149 1045.5893 505.489 1067 501.7444 1105.0851 497.9997 1109.0426"/>
</svg>