<?xml version="1.0" encoding="UTF-8"?>
<svg id="Layer_5" data-name="Layer 5" xmlns="http://www.w3.org/2000/svg" viewBox="0 0 3500 1662">
  <defs>
    <style>
      .cls-1 {
        fill: #fff;
      }

      .cls-2 {
        fill: #c31b1c;
      }
    </style>
  </defs>
  <rect class="cls-2" width="3500" height="1662"/>
  <g>
    <path class="cls-1" d="M0,590V0h3500v276c-19.2612.0554-40.5499,6.7107-59.0328,7.9644-26.415,1.7917-11.4902-14.5424-18.9377-22.9939-3.3824-3.8385-27.7582-13.0678-35.8805-20.1195-9.7551-8.4694-15.6421-21.9814-29.2766-26.8372-2.6708-13.6951,14.8552-22.8432,10.7416-36.5814-2.9085-9.7135-24.7539-12.7893-27.4854-30.561-1.7432-11.3414,3.4509-40.0704-7.0395-46.9605-3.5963-2.362-8.27-1.4128-11.0798-4.921l23.9185-19.8976c-14.2217-16.9624-32.0913-41.9878-56.9813-29.1472-15.0728,7.776-19.2512,18.0527,3.0533,16.0744,4.4819,2.9967-27.8928,9.5105-28.1299,11.1261.1142,9.9016,7.58,20.6671,8.0227,30.1348.2463,5.2672-2.155,9.9881-1.9818,15.616.9534,30.9839,7.8083,49.6843-25.9021,66.113,28.1383,15.2723,10.5615,34.0457-2.0084,52.9704,9.605,2.9741,16.2309-13.6843,23.9506-4.9941-2.8764,13.3344-33.8649,25.6926-45.5253,26.5965-9.6551.7484-16.5823-6.6695-26.087.7426-1.3424,8.4713,2.5414,16.0971,1.7356,24.699-1.6529,17.6451-15.8342,16.8603-29.1452,20.9309-2.1267.6504-3.673-1.3033-2.9641,3.0689.9063,5.5897,19.1652,20.8177,24.689,23.3224,9.5713,4.3401,18.053,4.1643,28.433,3.7344,37.6017-1.5573,77.5909-9.646,114.5441-15.4492,20.8468-3.2738,39.8166-5.9873,60.8618-2.1241,12.3838,2.2732,31.5401,13.3614,42.0461,11.1061,4.8549-1.0422,15.2826-11.5039,12.5857-15.6764l-65.1099-25.962c.1261-3.0277,9.191-4.0557,11.0751-4.0372,25.4354.2502,68.3411,30.7921,87.4288,25.5714,7.1097-1.9446,8.9917-11.2418,19.4811-3.509v26c-15.1308,4.5252-32.9895,7.8734-47.5671,13.4328-2.5356.967-5.8732,1.1785-6.4323,4.5473,17.7586,1.4498,37.5166-3.6132,53.9994,4.02v100c-12.0362-5.0294-21.0667,4.9508-32.9721,4.1259-16.1122-1.1164-22.252-19.4174-23.017-33.1827-.9548-17.1803,13.6561-36.9458-9.9179-44.026-5.9755-1.7947-12.2126-1.2952-18.2136-.0277-16.815,3.5516-43.0985,31.6469-56.2999,4.531-13.7429-28.2283,16.9283-65.7605-43.5718-43.4075-1.591,1.6364,10.9927,12.8825,12.7849,16.1942,5.0979,9.4198,6.4403,18.985,3.8326,29.4291-2.0131,8.0626-5.0533,16.5052-14.0311,12.8096-18.646-7.6752-12.9915-24.1039-14.6299-39.4101-3.7962-35.4637-22.2825-19.2078-45.207-15.2787-12.7745,2.1894-27.736.5085-40.7072,6.3275-2.0796,2.8796,7.9501,22.5827,7.9501,26.9154v51c40.5724,5.5598,16.6273-45.869,25.0425-65.958,1.0606-2.5318,9.3723-9.353,12.2662-9.6257,9.9517-.9378,18.0146,20.5304,16.7191,28.478-1.1074,6.7934-10.6456,9.9817-14.5762,15.5581-17.6789,25.081,24.6519,70.7209-22.6719,79.3274l-106.7796,12.2398c.9396,3.4421,15.1287,9.9805,16.9999,9.9805h32c4.444,0,15.5778-6.5695,19,2h-107c-8.4697,0,.9354-19.4197-7.9759-22.0341l-77.0194-29.99,13.9971-8.0088c-5.1323-14.5692-17.5189-18.9098-32.0083-19.9785-1.1135-4.6084.873-3.2819,2.5282-4.5716,4.7804-3.725,11.5797-5.2166,15.4436-10.4178-4.2006-5.4933-12.8798-9.0765-11.9554-16.9891,12.1656-1.2216,23.7174,3.8723,35.5394,5.4566,2.1693.2907,6.8936,2.2111,6.4359-1.4417-29.6816-11.5646-56.5872-34.5311-89.229-37.7828-36.8655-3.6725-72.6607,12.8909-108.7462,15.7678-1.2556,4.6483,1.1084,3.3493,2.5327,4.5753,4.6538,4.006,19.8963,12.0091,21.163,16.8632-5.0938,15.3207-1.5765,32.9963-3.8233,47.4339-2.4758,15.9085-27.7848,15.3103-41.2441,20.7559-13.6357,5.517-24.8055,15.4622-37.6603,22.3193-.117-6.0695,13.8481-12.1147,14.8136-15.1797.8193-2.6008-.9751-6.646-2.7792-6.7289-3.6693-.1685-51.8227,37.9365-60.9509,41.012l-1.0329,6.9686,20.9616-7.0393c-18.5854,16.3331-35.24,38.3148-53.9654,54.0345-2.8682,2.4078-19.3647,14.5197-21.2499,14.8049-12.8442,1.943,7.9602-19.3782,5.2152-21.8191-16.1647,1.1152-33.0438-3.4414-48.9075-4.0929-43.1259-1.771-87.3437,9.3161-130.1017,14.0631-15.616,1.7337-80.6902,2.9729-88.8737,9.1281-6.4921,4.883-4.0345,16.0974-2.1142,22.8775-26.0087.875-41.3063,4.2582-66.521-4.4583-42.9648-14.8527-85.3591-43.3555-127.4967-58.5033-35.9611-12.9275-56.6441-1.2282-91.0708-2.9301-15.4683-.7647-29.2658-8.3315-44.3024-.4935-4.7475,2.4747-6.9588,7.0941-10.7602,9.2409-4.1129,2.3227-79.6495,12.1154-90.8613,13.1405-34.1315,3.1207-39.9208-10.9169-62.3855-31.5775-73.7241-16.9851-136.5628-18.6595-210.6422-3.452-8.716,1.7893-39.3744,6.7366-44.5311,10.9399-7.058,5.7531-1.6204,40.1226.2537,49.4676.5394,2.6898.4027,3.5592-2.6358,2.6101-5.8019-1.8124-28.1187-23.9238-30.0391-23.9345l-5.0282,9.9595-11.2466-7.8515-10.7015,7.8511-10.0243-31.9951v30c-24.2285,6.6414-53.5477,8.1766-79.0944,8.0963-10.4324-.0328-20.4002-3.0962-31.9773-2.1671-9.8096.7872-18.7433,5.5432-28.9284,4.0709v-33c0-.6442,6.4897-5.5095,7.5896-10.4104,4.2239-18.8212-4.302-52.6909,24.4-52.583,2.9177,9.072-5.6696,51.2061-.1282,55.1322,6.4651,6.7692,27.3891-12.9177,28.1303-16.1676.7003-3.0708-4.1429-6.3055-5.9544-4.9584-3.0919,2.2992-6.8711,21.087-17.1371,12.013l7.5659-41.5481c5.9845-4.2692,23.5341-4.1739,23.5341,4.5223v51c2.7357.086,3.8701.6656,6.0979-1.3282,15.1953-13.5995-11.0972-54.2096,17.862-61.7661,37.4835-9.7807-1.9933,53.7705,7.8508,66.2919,2.903,3.6925,10.9975,6.8492,12.1983-.19,1.4324-8.3969-1.549-41.6891,5.9769-46.1738,3.6478-2.1738,8.395,4.674,7.977-1.7637-.4825-7.4302-6.0745-17.2047-6.903-25.1243l-11.0584-1.9468c2.65-11.7486-6.2683-11.8308-11.993-19.0076-21.6856-27.1859,22.6545-58.6719,3.7743-91.7739-5.5299-9.6953-7.6612,14.4031-13.7575,14.777l-16.0124-25.0076c-17.2069-1.1481-40.4185-4.9945-54.1115,7.9142-17.1345,16.1531-5.8117,42.5229-8.152,63.8474-1.4075,12.8247-7.0522,26.7474-15.7391,36.2614l9.9797-2.9997c-2.3881,22.9087-4.1006,46.0336-5.9687,69.0108-.6324,7.7787.8414,16.1518-.1966,23.8034-.7522,5.5452-18.4223,43.0892-20.824,43.1367l-22.0007-27.9209c-7.4262,14.9668-6.2223,34.4473-28.9965,27.9427-2.8265-2.7734,8.9191-22.2908,1.0374-19.9526l-45.036,24.9971c6.5465,12.3391,27.6467,5.7634,24.0147,26.9723l25.9601-19.9998c-1.123,16.7149-7.3876,33.3787,7.0707,46.0038.7668.1919,12.7461-8.2508,12.9962-9.0006,4.1527-12.4525-14.7095,3.4896-18.0459.9768,2.778-14.3397,6.3965-25.4257,18.0605-35.0752,30.3529,6.0207,13.4879,46.956-11.075,49.1039-19.5158,1.7066-26.6859-9.6355-33.0112-25.9941l-2.9709,17.9894c-2.8731,6.0281-28.0114,9.5774-33.0266,7.0199-4.0372-2.0587-4.6763-10.1026-5.4159-14.5857-3.4492-20.9069-8.815-63.2816-8.2258-83.4954.4308-14.7789,14.2205-21.4706,27.1951-15.467,6.8093,3.1508,12.8751,26.1432,23.4271,24.53,5.833-.8918-2.9935-13.9723-.0444-19.9912,1.6816-3.432,14.4718-8.7934,18.4736-11.5502,1.7654-1.2162,3.713.3229,2.6023-4.454l-115.9842-8.0343,11.9521-24.9982-15.9473,7.0118,5.9797-12.9997-2.9638-.9742c-17.3883,16.252-41.4652,29.262-58.0743,45.9359-10.2871,10.3273-8.9947,15.2051-14.9518,24.0482-.079.1173-1.7945,1.8239-2,2-3.6824,3.1551-16.3531,6.5792-21.5085,7.4914-12.8195,2.2684-29.196,2.5842-41.6058-1.3761-9.0872-2.9-15.8674-9.7628-24.8632-12.1192-7.0668,28.4021-31.1099,6.6464-46.4578,1.4392-34.8323-11.8178-41.1622,10.1022-66.5613,10.1483-15.1951.0276-23.0258-10.2551-35.0516-14.5356-23.276-8.285-50.977-2.6439-71.9337,8.9589-5.954-5.7411,13.0587-16.7627,2.9783-16.0462-7.2931.5184-15.0044,3.6088-22.9954,2.0588,1.4685,4.0702,2.8879,9.7237,3.064,13.9546.0615,1.4774,2.9233,2.7354-2.0439,2.028-18.9175-2.6941-50.7002-36.4095-60.9724-8.9885,6.1608,6.3493,14.5026,2.6566,20.9005-1.0291l10.9921,37.0739,38.0611,8.961c.5923,5.2176-.08,3.1577-2.9234,4.036-8.4506,2.6101-17.3351,1.8776-26.0625,1.9613l-23.0167,3.9832h51c.5847,0,9.1621,4.9946,10.0888,5.9112,5.0726,5.0164,15.1844,59.7993,12.9209,62.098-33.3995.9554-65.3702-3.7981-98.7572.2434-36.34,4.399-70.0408,18.9855-105.2417,27.7374-1.2861-5.1552,4.6755-5.32,8.0722-6.8696,32.8603-14.9907,70.4019-25.1263,103.917-39.1204v-36l-45.9904,6.0199,15.9803,1.9906c2.261,1.9131-8.3496,11.6389-9.9665,13.0129-14.4186,12.253-27.987,14.2658-46.0216,8.9952l9.9264,10.8367c-31.9974,35.8679-57.9108-13.6009-91.4385-18.4121-16.1003-2.3104-15.053,7.9534-26.3493,10.6922-13.1016,3.1764-22.7528,2.936-20.353-12.9221-29.1924-8.6204-38.8535,24.4768-56.8685,39.7521l9.0793,16.013c-26.4407,10.0853-51.4804,7.711-79.0806,7.9393-6.3642.0526-12.5065,2.2502-19.9763,2.1873-24.3503-.205-44.696-7.9901-69.8615-8.0151-22.5337-.0223-45.1316,1.4292-67.0685-4.0812-1.2438,14.3694-.6058,30.8799-2.0329,44.9693-1.985,19.598-6.9615,35.6482-5.9601,56.0018,4.0459,82.2307,8.4475,156.9763,1.963,240.0011-1.5547,19.9061-6.853,40.1063-8.0632,59.9368-1.8826,30.8503,4.4011,62.1265,2.0821,93.0821h-76l.0154-3.9615c2.7439.384,9.9846-5.9296,9.9846-7.0385v-77h-37c-5.005,0-8.4948,8.4219-9.0363,12.9637-1.5039,12.6144-1.7672,51.8651-.0761,64.1484.7147,5.1909,3.8145,6.3518,4.1123,10.8878h-71c-2.8545-1.7563-2.7603-3.9876-3.1018-6.8982-3.0876-26.3147,2.6844-57.0613,2.5173-83.6864,9.833-16.5821,36.4179-15.3862,46,1.1692l7.5592,19.4003,6.1955-33.8095,73.8495-5.1953-6.9184-5.0815c-17.0937,3.2996-65.5111-9.3313-78.2068-2.0133-5.1832,2.9877-5.0618,10.1887-12.2617,11.6345-11.3132,2.2719-21.6313-2.1816-32.6344-3.5375l5.4594-13.0154c-17.2498-13.8742-6.7458-30.8551-3.6615-48.1706.9762-5.4804-.3375-11.4338.6766-17.3234,2.0161-11.7094,22.6778-40.0321,21.6948-46.1998-7.8228-6.7723-18.0239-8.7023-28.1677-9.2731v-34c-2.9433-.3476-3.6105,5.2322-3.8159,7.1773-1.7238,16.3306,5.2104,30.2878-17.1857,32.8209-11.6428,1.3169-53.6752.4569-59.9864-10.0103-2.8474-4.7225-1.6873-48.529,2.1425-53.8331,5.1225-7.0945,27.0793-14.5583,30.5456-2.7355,4.5817,15.6273-23.5677,46.3111-21.6835,53.4946.3172,1.2093,3.1792,3.6556,4.9495,3.0743,16.7006-12.5969,18.2612-42.8836,41.0218-46.0105.6081-4.8087-16.8469-2.2497-11.9718-7.9389,1.8369-2.1437,15.0287-7.1416,17.0579-12.0778,1.5924-3.8737-3.1349-9.0043-.1362-13.9934l22.1387-7.8914.9325-22.0853-48.687,2.331c-5.5414,5.5373-6.5531,13.2045-11.6708,20.3292-7.8913,10.9859-19.8217,17.9428-33.6506,17.3288-1.3287-.9748,9.1511-26.9617,9.6408-31.5169,1.1359-10.566-8.2508-18.3964,8.4149-23.6078-1.0093-11.1166-4.9334-7.4556-10.8036-11.0719-8.9975-5.5429-9.9342-20.1552-9.2328-29.7828l10.0024,10.9801-8.0378-42.9902c-4.9713.8178-8.9335,3.5394-13.988,1.0516-6.0382-2.9719-4.5516-14.9738-11.9966-15.0422v-110c9.0384,3.849,13.0716,13.8082,22.5995,18.4005,19.1415,9.2261,33.4933,2.5848,49.0735,24.9265,8.0021,11.4749,12.388,17.6948,21.2016,28.7985,6.742,8.4939,2.9865,17.232,20.085,13.8261,14.4226-2.8729,6.1093-31.4739,20.0219-37.4017,12.148,9.2401,21.8583-.8442,32.1437-2.4248,13.854-2.129,28.5908,1.5005,41.7925,1.9575,36.7035,1.2704,73.3489,2.409,110.0358,3.8713,8.2595-1.6104,9.2947-12.7863,9.0467-19.9538h-67c-5.8189,0-15.7324,31.5032-24.35-2.0542-40.2179-4.5239-81.219-1.9482-121.4344-6.1793-12.1342-1.2767-13.5005-8.5745-2.3187-9.8696,37.6732-4.3633,80.1288,3.0274,118.0206,4.1856,14.319.4377,28.7661-.473,43.0724-.1028.4676-3.4904-4.5372-1.8787-6.9694-1.9794-24.5903-1.0179-49.4614-.7596-73.938-4.0828-20.5951,4.0588-85.7816-9.2779-100.1275,2.0316-6.2265,4.9087-5.0781,16.1226-17.4831,13.7409L0,590ZM2583.5121,279.5089c-5.6379,5.8623-23.7842-5.3781-21.2517-14.1153,2.2591-7.7941,16.8681-1.6088,13.6278-22.2825-1.0066-6.4224-6.8491-11.0567-2.8959-19.1258,3.6672-7.4851,25.056-7.5931,27.0049-18.9112-22.2513-21.958-47.804-19.6242-71.0867-1.056l9.1015,65.9891c7.7195,1.0399,3.2358-12.6178,8.9879-15.9667,2.9632.0338,6.6867,18.2701,6.2183,21.0723-.8963,5.3618-31.0425,19.3833-36.2564,24.9223-.8373.8895-2.4864,1.691-2.5852,2.9382,12.2243,27.3364,26.1648,19.0564,48.5908,18.8707,23.2787-.1928,45.3899,10.8992,54.5695-20.9233-11.9971-6.9753-21.3723-15.4555-23.3628-30.0948-1.8708-13.7592,5.793-42.0331-12.1543-44.8305-5.2636,11.8898,10.1528,44.5083,1.4921,53.5136ZM249.9848,312.0384c-13.7595-6.7191-21.5382-24.3745-39.9799-16.0143l3.9931,5.9543-23.9932,8.0456c5.0761,6.1719,13.1799,8.0986,19.066,13.9052,14.1283,13.9376,22.3083,36.1896,20.9493,56.0702l9.8075-10.8391-9.7485-47.0333,18.7443-6.0016,1.1615-4.087ZM2962.0109,342.0086l-132.0264,15.9979.0042,5.9847,132.0267-15.9988-.0045-5.9839ZM2612,392h43c6.4808,0,20.1403-14.6882,18.1628-22.0885-2.0362-2.8456-55.1314-17.2204-62.195-17.8792-26.2555-2.4488-42.3488,5.3887-66.6004,9.3351-26.0185,4.234-52.229,7.3719-78.3666,10.6524,3.3912,6.8818,6.1034,16.4811,2.9479,23.9432-3.8817,9.1796-32.6022,15.879-30.9481,23.0101,14.4382,9.9484,29.4997,15.6117,47.104,15.1152,39.5473-1.1154,78.2083-15.5043,119.8741-14.0686,8.1036.2792,56.8732,9.802,56.6226-2.9919-4.769-10.9167-6.0694-4.9141-12.2848-5.7104-11.6741-1.4956-22.3183-9.6242-32.9209-14.7998-2.7134-1.3245-5.4872,1.2902-4.3957-4.5175ZM219.9797,371.99v-9.98h-1.9594v9.98h1.9594ZM202,432h50l9.1441-30.0089c-2.6218-4.2108-20.8858-7.9211-25.7373-11.8629-3.0676-2.4923-2.5261-7.0911-3.6834-7.8505-2.8703-1.8834-10.6734,2.5632-12.7233-6.298l-2.8659,11.1556c-11.9882-.1893-39.7617,5.9624-41.9301,20.1915-1.1999,7.8739,38.1973,18.4663,45.7953,14.6932-2.3994,7.5199-18.6497,1.2735-17.9994,9.98ZM2574.0242,509.998c3.9505-.001,7.449-2.0894,9.7313-5.2435,5.2472-7.2514,5.9744-50.2258,4.1936-59.7041-1.5187-8.0833-13.2183-13.7582-19.9657-8.0608l-2.1478,5.9486,8.1885,67.0597ZM2534.0242,513.9953c15.1527-9.6136,13.5542-42.5608,12.0682-59.0877-1.0702-11.9021-12.8974-21.5104-20.2839-12.0926-6.221,7.9316,7.0685,58.6398,8.2157,71.1803ZM2492.0195,519.9999c19.8139-10.7833,17.1781-45.2306,13.499-64.5195-2.9422-15.4257-18.4455-9.125-19.6231-2.4426l6.124,66.9621ZM295.9904,466.0101c-38.2508-9.2738-74.2841-7.25-113.0729-7.9275-9.7994-.1712-18.6019-3.5122-29.7353-1.9-15.2634,2.2103-23.3744,17.1588-23.1853,31.8083l168.0024,9.9992c2.4005-8.9135-8.8869-13.6167-10.071-21.0962l8.0621-10.8837ZM1419.9776,529.9879l24.0022-73.9876c-11.1546,3.0947-43.5931,43.5342-37.1499,52.0882,1.5699,2.0843,7.55,1.4965,8.8589,5.2222l4.2889,16.6772ZM3172.0046,474.0327l-51.9924-16.0245c-.1214,4.4902-1.43,4.3883,2.4956,6.5141,12.0683,6.5353,32.0475,8.6054,44.8994,15.177l2.5333.2957,2.0641-5.9624ZM1618.0195,549.9999c3.6264-1.3987,6.6735-10.5384,7.1576-13.9549,1.5534-10.9624-32.8333-48.9773-40.1968-60.0049,9.3151,25.3597,32.2322,45.6824,33.0392,73.9598ZM307.9953,512.0241c-9.3728-1.2601-21.9596-5.9739-31.0909-6.0764-8.8159-.0989-17.1682,5.6078-24.0426,5.926-16.958.785-48.6989-6.5866-67.8728-7.8628-8.9573-.5962-24.5297,2.0488-29.7166,1.5242-5.2114-.5271-8.6172-8.0727-18.2295-7.6745-10.7242.4442-22.9705,15.3798-21.0517,26.1366,17.5682,3.9597,31.0505-8.6372,46.9277-10.0777,28.3243-2.5698,70.0771,5.4139,99.9987,6.1629,13.4634.337,37.6402,3.9342,45.0778-8.0583ZM701.9997,599.9799l-32.9904-75.9706-43.008,87.9668,25.1042,2.2722,20.9149-52.2516c6.26-5.3215,14.3764,16.3186,14.0581,20.8786-.2746,2.6127-19.6516,1.9883-14.0818,7.1038l30.0029,10.0008ZM175.0001,526.065c-5.0966,4.4451-10.5743,9.769-10.8592,17.0927-.2601,6.6875,2.0047,33.7468,4.0097,39.6913,1.0941,3.2437,1.9145,5.0917,4.8497,7.1153,10.9569-7.4894,12.6011-18.1361,13.0745-30.8725.4713-12.68.2192-25.251-11.0749-33.0267ZM219.2819,528.1498c-18.1883,12.5282-7.9298,35.9623-8.905,54.4736,20.564,24.4295,20.9597-27.4826,19.7464-39.7449-.7267-7.3444-3.4769-11.942-10.8414-14.7286ZM265.3737,530.3314c-1.1929.1055-8.6459,3.803-9.3986,4.6491-3.1564,3.5483-2.7122,38.9638-1.4893,45.5345,3.2242,17.3227,17.9661,14.0021,19.5909-5.4384.7078-8.4681,3.195-45.7977-8.703-44.7452ZM784.0103,612.0101l3.1523-78.1362c-9.1779-1.5436-22.5624-3.6741-32.0803-3.9564-7.9511-.2358-20.726-1.4055-27.0354,3.1294-11.781,8.4676-3.3757,25.135-3.94,35.8837-.5839,11.1223-10.4451,24.5022-5.1273,37.0959l17.009,7.9725c2.9539-19.5145,6.0736-45.9974,31.5058-31.0926l-3.5041,29.1027,20.02.0011ZM226,756h-20v56h20v-56ZM172,860h90v-4h-52l32.0153-4.0066-1.0453-6.0255c-13.9423,4.7221-66.8448,4.874-75.0622,13.4948-1.6587,1.7402-4.3769,7.0294-4.0197,9.4224,13.2053,10.1877,25.0028,6.2365,40.1022,5.1356-1.1738,3.9269-7.1694,2.9897-10.0998,6.8715-1.994,2.6415-3.2442,8.9047-3.6597,12.3387-1.0538,8.7096-1.7714,55.0088.1511,61.3871,2.6904,8.9258,44.641,14.4184,47.4923-3.7437,1.6268-10.3619.1074-72.9517,4.2344-76.7566,5.7442.0576,11.4585-.6831,17.0274-2.0727,3.3597-.8383,5.835,2.0019,4.8535-4.0346l-83.0618-3.9382-6.9278-4.0723Z"/>
    <path class="cls-1" d="M1196,550c4.3808-2.922,23.6176-11.2885,29.4738-13.5262,6.2554-2.3902,23.8878-8.4738,29.5262-8.4738h30c.3481,0,3.1508,2.7006,3,4h-28c6.4922,24.9016,15.1716,47.344-5.9995,67.98,12.9985,2.7133,43.7629-6.3956,52.9477,4.0714,5.3772,6.1278,2.2578,18.9599,3.0726,26.9276.8669,8.4775,8.2104,33.4007-3.421,36.7618-7.7248,2.2322-13.787-10.7488-23.785-11.7071-11.274-1.0806-40.572,17.682-40.8511-4.9758-.0976-7.919,10.5888-48.6546,9.0958-51.1721-20.1787-13.8926-47.8408-23.205-57.0595-47.8859l2-2Z"/>
    <path class="cls-1" d="M3500,1114c-12.828-.929-29.5338-.1971-30.086,15.924l-22.0313-2.9784-12.082,30.8976-25.7033-7.968.7817-5.9964,11.2059-2.7869,2.0025-4.0937c-1.2866-13.6684-18.5694-56.8613-15.791-67.547,3.1882-12.262,28.7758-10.1376,34.866-15.284,7.9345-6.7048.9417-41.1462-1.0326-51.2958l-14.1334-.8621c5.1563,22.0568,1.8509,31.2011-22.6547,24.1435-2.0331-1.2838-4.8584-8.7103-5.2147-11.2865-6.2484-45.1737-1.8293-96.2394-4.1472-141.8463-2.1236-41.7844-12.8375-86.7264-14.0609-127.9362-.338-11.3842,6.0455-24.9246,5.5645-29.785-.5903-5.9644-8.4179-18.0609-9.4533-30.3291-3.2143-38.0854-7.4027-99.1377-4.126-136.0657,2.8069-31.6339,46.8128-8.6886,64.081-2.8791.5851,6.4661-18.1286-4.365-12.0071,2.9965,12.1337,3.7501,23.8446,8.6048,36.0212,2.951l-3.9401-13.8899c11.3109-5.6999,19.1805,2.5834,29.9439,3.9382,1.1039,4.7919-.8991,3.233-2.6168,4.4324-9.9101,6.9198-20.7146,9.5178-19.2901,24.3081,2.6709,27.7307,18.8501,6.4203,33.9038,3.2386v72c-5.1224-1.989-13.8011-8.1277-19.0674-7.856-2.233.1152-14.6874,7.6951-15.7633,9.777-.5894,1.1405-5.2425,23.7778-5.2272,25.1385.1091,9.7389,17.3884,32.7878,7.1608,43.0555-9.1456,9.1814-42.223-1.5341-55.0885-2.0991.4174,3.085,6.9436,4.4941,9.5632,5.4084,9.8121,3.4245,40.3143,8.0458,45.5261,12.4694,8.0951,6.8708-4.0817,12.3597-2.8132,18.6078.7931,3.9062,9.512,12.232,9.7488,16.4608l-24.027,5.0602,16.7362,6.2135c5.6328,3.9275,5.144,7.9749,3.228,13.7605l-12.6941-7.6964-13.2853,10.7599,9.9916,14.9038-13.9481,9.0362c12.3165,5.19,15.8731,5.902,13.9691,21.0098l-46.0298,2.9903c-.0491,1.6831,6.1852,1.8895,8.0781,3.9423,7.5042,8.1376,3.343,62.585,7.7316,75.8445,54.119,9.3098-1.5558,18.6919-1.7506,26.2119,2.776,4.2209,11.0171,6.8126,12.9719,11.0397,4.7185,10.2038-9.4658,13.6016,10.9956,22.9548,16.8866,7.7191,35.8144,7.4072,53.9936,7.0068v78l-2.0857-4.8362c-.724-12.0132-.0906-46.8153-5.0766-55.0013-6.7924-11.1518-36.2245-11.8319-37.7183,5.5295-.9325,10.8377,4.4597,43.2898,1.4059,49.8256-5.1914,11.1107-21.5945,3.3815-29.2071,8.3111-23.677,57.6397,41.0484,32.9252,72.6818,34.1713v8ZM3458,604h-29c-2.839,0-4.6244,7.5851-1.0416,11.0518,2.1374,2.0681,19.8135,7.7227,22.7581,7.1106l7.2835-18.1623Z"/>
    <path class="cls-1" d="M3500,284v12c-17.8529-1.0538-41.4823,9.7745-53.9994-7.98l53.9994-4.02Z"/>
    <path class="cls-1" d="M3500,498v38l-9.9891,5.9904,1.7189-37.7185c-1.5355-2.3699-25.4393-6.4405-27.7296-12.2516l35.9998,5.9798Z"/>
    <path class="cls-1" d="M2188,932c-.6898-16.0268-4.1859-32.1604.0225-47.9878,2.8684-.4757,2.7962,3.5266,3.3627,5.5825,2.3425,8.5004,8.5285,52.3779,11.941,54.5576,4.9575,3.1666,13.2204,2.0937,18.3862-.4491,3.708-10.7426-2.3666-41.6723,4.7699-49.2363,5.2017-5.5133,21.3964,3.4598,27.4827,5.5432.0417-3.8743,7.5018-18.4075,12.0261-14.0182l2.8719,54.146c5.3641,2.5619,18.5226,4.7971,23.1563.8787,5.1117-4.3226.0175-47.8546,1.9694-58.0279.8499-4.4298,3.5586-4.7411,7.0417-6.8877,16.5834,13.6275,1.1448,53.4585,16.2641,63.7605,5.2358,3.5676,16.9835-3.465,19.234-8.333,5.8496-12.6536-5.7048-33.8659,10.455-43.169,3.0399,3.4317,9.3582,4.5668,11.8998,7.7562,5.6341,7.0699,3.9306,22.0791,11.0973,27.8842l6.0329-42.0091,5.9779-.0012,4.1071,55.9043c8.3263-.9485,25.7066,4.4621,27.8451-6.9506,3.0643-16.3534-2.3996-40.3832.3395-57.6605l2.9481-3.0517,6.7614-.2457,6.9925,62.0293c2.856,5.9858,25.0024,7.4415,26.9583-3.0717,1.8413-9.8969.761-26.6822,2.0809-37.9191,1.2317-10.4858,8.5744-41.4967,4.9709-49.0345-1.126-2.3554-5.8418-5.0126-8.436-5.5747-87.0416,6.9001-174.5212,10.3502-261.5392,17.605-13.4616,1.1223-26.9428,2.6871-39.9924,6.0109-4.0432-12.7256-4.6283-22.2424,10.4482-25.5553,32.6651-7.1777,78.5017-4.6088,113.5-8.4999,30.3601-3.3754,51.7771-9.9186,84.1081-8.0595,21.7478,1.2506,75.8943,15.8515,90.6531-3.1793,2.381-3.0702,8.0311-20.5717,6.1945-22.6592-7.3723-.1771-14.0918-4.957-21.1026-5.9077-12.8773-1.7462-24.4616,2.2227-35.7752,1.9121-3.0251-.0831-5.8781,1.3166-5.0373-3.0555,16.6406-13.6949,39.9522-7.1905,59.996-11.0376l-.1511-7.847c-9.1689-1.9067-17.4531-2.3223-26.8479-2.1132-64.9683,1.4458-134.2411,14.067-199.9305,16.0537-9.1512.2768-21.0095.6955-29.9056-.2662-1.9305-.2087-7.5247-.8746-7.1648-3.7936,53.2507-8.5002,107.2544-9.9858,160.9675-14.0428,19.9418-1.5062,40.0841-4.5486,60.0408-5.9592,10.2768-.7264,41.1124,4.0531,44.5834-7.4023,3.2616-10.7642-.2053-21.8356-10.7999-26.4222-6.6486-2.8783-18.2531-1.3018-18.8035-10.1804,10.2605-1.3294,20.5233-7.21,25.9949-15.9915l-27.9859-7.0145c10.3523-7.9424,22.6614-13.3166,33.3525-20.6472,1.8942-1.2988,5.406-2.1216,4.6322-5.3378-.3387-1.408-12.0032-7.7073-14.0068-8.1968-7.1028-1.7356-53.7324,23.9522-54.0184,18.1433,2.0588-13.6278,4.936-30.9185,21.5701-32.611,5.0027-.509,8.6922,1.8501,13.3631,1.7171,25.8605-.7359,18.3812-22.3234,26.2332-27.9418,5.6698-4.0569,18.542-1.4277,25.8449-2.1551,48.2481-4.8055,96.3514-13.6446,145.0305-11.9718l.0045,5.9849-24.0034,3.9842c20.5843,6.9427,30.5909,15.5743,54.0771,11.1127,24.9696-4.7433,26.8731-23.2203,40.9315-37.0698,10.7719-10.6118,28.3761-17.0286,39.9792-26.0208,23.1575-17.9465,38.1259-35.4463,66.9667-49.0333,8.3023-3.9112,17.7279-4.6868,23.8798-8.1202,4.4677-2.4935,7.2405-8.3849,12.7553-11.2447,9.5423-4.9483,18.9147-3.3224,29.202-3.8037l6.1662-16.9198c6.2999-3.9761,14.2314,7.4803,19.9144,10.2389,22.6338,10.9869,32.3648-9.0567,42.8089-9.0434,15.0506.0192,53.4178,11.7999,70.1501,16.0832,20.0305,5.1276,43.3727,10.9978,62.7111,17.2889,34.6475,11.2712,42.5142,52.3879,49.8775,84.1224,3.4288,14.7775,7.6944,25.3409.5398,40.4272-4.5968,1.1484-3.2766-.8932-4.5478-2.5207-13.7255-17.5725-26.0145-36.6007-39.5301-54.3683-5.4115-4.8691-13.2232-1.7281-19.4353-4.5647-3.1014-1.4162-13.5581-14.9198-20.6351-19.3649-24.5705-15.4331-85.0748-17.1302-114.9178-17.2747-15.7295-.0762-36.7738-.638-51.4621,4.5417-10.2936,3.63-17.5302,11.0749-26.6578,15.3423-21.1223,9.8753-35.9635,8.2216-52.7819,29.2181-3.403,4.2484-4.5269,10.5821-8.1021,13.8979-3.4588,3.2078-11.2558,4.996-15.7753,8.2247-24.6176,17.5866-15.1609,51.1185-44.09,63.8723,21.1936,15.6375,4.7711,36.2318,5.9837,57.0009l18.8541-10.0807c9.2795,14.3927-2.7711,20.4215-15.8637,22.0918-6.7352.8592-17.4438-3.035-21.009,3.9588,12.913,3.7348,13.1329,22.7589,16.0178,34.0331,4.9103.6282,3.1663-.0443,4.1822-2.7939,2.2038-5.9649,2.5258-13.1532,4.8379-19.1689l6.9505-2.0317,3.8446,59.8386c-14.8411,3.1995-39.0249,6.8624-41.7081-12.9793-1.3211-9.7694,3.8316-21.2598-7.5505-26.443l-78.5655-4.4136c-.8314,4.5168.2002,3.1938,2.5413,4.4668,6.9288,3.7679,17.7786,5.0125,25.3933,7.6179l.0576,5.8759-23.9905,8.0064c4.7565-.3505,38.9057,10.4113,28.7068,16.031l-20.7182,4.0115,16.0213,14.9595-16.0073,9.0581,1.2377,4.1289,10.7085,6.8329-17.4775,11.9198,5.3981,17.848-68.8716,21.2798c-4.1896.2129-2.5919-.0088-3.0235-2.9813-2.144-14.7634,1.234-46.9545-6.2949-57.757-9.4248-13.5228-19.6129-4.14-30.6558-5.2352-2.8257-.2802-5.7475-1.3283-3.029-4.0443,10.0774-3.6409,27.1974-1.4142,30.0418-14.0107,4.7253-.132,6.8262,4.5124,11.362,5.5669,11.2251,2.6098,28.0462,1.2225,16.6546-12.6575-12.5216-15.2568-74.9763-8.2125-90.0559,6.0814,27.9334,13.1672,31.282,42.2805,33.9819,69.8085l-11.7877,20.1342,11.9776,30.9207c3.4991,2.5786,44.4693-9.7232,54.4019-7.4465,9.3251,2.1375,14.0968,13.9086,19.4612,20.5298,6.7091,8.281,24.5766,17.9608,5.9434,26.0311-8.7661,3.7967-19.0054,3.8888-27.9873,1.0128v51c0,13.1497-35.8494,8.2947-44.9685,9.0315-18.4327,1.4894-31.1142,7.7427-47.0268,15.9926l6.9891,5.9856-27.0135-.9902c-6.4632-6.1541-8.0864-27.4984-15.4109-30.5891-9.8693-4.1646-45.7371-3.9212-54.4886,2.6504-13.6003,10.2126-1.7831,95.4721-2.072,114.9277l-10.0193.0015-8.019-124.0024c-5.1572-.5924-3.1668.0161-4.0321,2.9054-9.5878,32.016-.5716,74.1713-4.376,107.6506-2.4174,10.8092-22.1383,13.9379-23.5606-1.545-2.0212-22.0032.5405-44.7275-2.2479-67.7728-1.6979-14.0324-9.0836-50.2048-16.8725-61.1275-4.8228-6.7633-33.8471-6.167-38.9808.7823-7.255,9.8208-10.8084,66.2188-9.875,80.0737,1.4529,21.5656,10.376,45.6486,11.773,66.2491.1365,2.0126,1.3718,6.4207-2.7708,4.7586-12.0133-4.8199-3.2854-28.4408-14.038-35.9721l-2.9376,25.1164c-9.9522-2.788-29.1314,2.1194-36.1472-6.5629-12.508-15.4792,6.3386-82.1425-1.4426-106.0262-5.4119-16.6114-25.7423-19.1005-40.4535-15.5464l26.1988,17.9759-.217,7.0408c-13.1787-.9224-22.9787-9.9024-33.9797-15.0191-5.3797-2.5021-18.0438-3.8434-21.4891-7.4968-5.4414-5.7699-3.4228-31.4919,6.4779-31.4919h55c1.4231-10.6565,6.6398-18.6268-6.7201-22.3856-12.8623-3.6188-18.8416,5.5477-24.3985-13.4968-1.6058-5.5035.7508-8.4062-2.8814-12.1176.777,18.0546,7.7563,36.5231-18.0042,32.007,1.7058-8.3607-3.681-17.5936-3.6503-25.1176.0386-9.468,14.4878-14.2124,21.6545-6.8894ZM2998,490h-104v2h104v-2ZM2559.8101,683.8062c.8451-5.1869-.6524-12.6684-6.8022-13.8012-12.5089-2.3043-33.6962,3.5937-47.0058,4.0166,12.3377,14.2504,37.0381,17.545,53.808,9.7846ZM2530,760c5.7412-3.3147,21.8363.9116,21.8993-6.8075.0515-6.3024-3.324-17.2332-3.8781-24.2138-1.1093-13.9751,5.5328-42.7139-18.0212-29.9787v61ZM2460,968c.7223-7.6231,6.0041-17.2576-3.4019-21.5968-22.3129-3.7171-54.5346,3.6146-75.5552-.4461-7.529-1.4544-7.1059-9.4288-12.0425-13.9172-11.6853,20.8373-1.7688,44.7617,3.0211,65.9579,6.7739-5.8601,8.7411-14.9949,15.9155-21.0609,2.6231-2.2178,14.6882-8.937,17.063-8.937h55ZM2341.9905,969.9898c-2.3535-7.1947-4.4813-17.0967-12.8755-18.1048-14.357-1.7242-53.5685-.522-67.6937,2.5363-6.9165,1.4975-9.6149,8.5613-11.4383,14.679,2.0433,6.3856,9.0983,8.475,14.8786,9.0199,23.0723,2.1749,53.317-8.7204,77.1289-8.1304ZM2566,1024c.1514-1.2983-2.6514-4-3-4h-36c-.3486,0-3.1514,2.7017-3,4h42Z"/>
    <path class="cls-1" d="M1802,794c12.5091-5.1111,16.4179-6.8928,17.7761-21.2125,1.5681-16.5331-2.042-29.9096-14.769-40.7966-3.8839-3.3223-10.1766-2.4907-9.0138-7.9791l24.0096-4.023-6.0053-7.9701c29.397-10.9709,58.0327-3.91,87.9925-.0392l-9.9834-7.0055,5.0074-4.9601c28.1084-1.0442,55.897-2.5188,84.0692-2.0952,6.8091.1024,11.6405,2.5797,19.6959,1.8566,15.8916-1.4265,7.0418-10.6445,15.3216-16.674,22.8942-16.6717,79.1919-7.2816,105.9004-3.0921,2.0323,7.1396-9.2029,2.5587-9.986,7.9654,24.7401,7.2381,22.9955-.1497,29.3036-20.0641,25.7144,3.0958,52.6658,1.3374,77.2019,10.569,3.8208,1.4376,27.3734,12.0463,23.4722,17.4977l-7.9779,3.9976c2.5329,1.0272,13.5973,3.0637,11.9658,6.9949-.6934,1.6709-11.0678,11.314-13.3174,12.6936-7.8301,4.8018-12.9198,3.1486-20.1167,5.8833-11.5627,4.3936-13.9914,16.0554-31.1375,12.0397-3.5143-.8231-6.7241-4.829-8.4153-4.9425-4.7996-.3221-11.3893,11.0058-16.9206,12.5248-6.0087,1.6501-11.6896-4.7304-16.9903-4.9093-3.5444-.1197-23.0015,6.5191-23.0443,8.7384,6.6353,6.0376,9.1184,15.0849,1.0673,21.1091l-45.106,7.8932h31l2.0196,4.0002c-9.5948,7.6136-14.5788,18.7457-15.1134,30.9527-.333,7.6036,2.1104,13.434,2.1761,19.9645.9791,97.3386,5.321,194.6645,3.8301,292.1639-.1603,10.4805,3.8059,25.6068-5.9654,33.8657-19.0282,16.0829-65.6995,9.0942-88.905,9.0111l-9.0288-8.971c27.9634-1.6568,32.368-7.0366,34.0825-33.8914,1.3229-20.7209.3138-61.6166-2.05-82.1412-2.4888-21.6097-34.6952-13.6229-37.6257-3.5345l1.5713,104.5902-7.7719-.2375-4.2431-17.7673-25.8903,13.1594c-9.7057-2.1918-8.4524-12.3369-8.1587-20.2562.7892-21.2797,3.2324-44.2543-.0572-65.7784-4.0937-26.7858-33.9168-15.7667-51.9105-12.1706l-1.7037,2.2971c.5816,23.9964,1.544,47.7759,1.6586,71.8247.0454,9.5204,5.0856,21.516-2.8488,30.6057-16.2074-5.8278-38.5522-5.2055-41.1128-26.6399-5.0617-42.3713,19.8898-103.0386-53.0875-77.1814-1.6375,2.2773-1.1463,15.2942-.9444,19.2202.7261,14.1232,4.1935,32.1421,4.2381,45.908.0239,7.3563-4.2076,17.8476-11.639,20.5247-8.7289,3.1446-22.6786,4.1408-27.0153-6.0227-6.5094-15.2556,2.0763-59.3449-1.5502-78.4505-1.6943-8.9261-15.6045-12.6272-16.0342-14.3736-5.9038-23.9967,12.7425-24.663,22.1126-35.6391,10.2266-11.9796.3651-17.858-3.0352-27.0307-15.0231-40.526-5.2682-38.1603,30.9823-52.0012l-1.9875,52.0065,54.0073-4.0073v-41l39.9884-12.9918,4.0014,54.0024,54.0194-4.0196c-8.3387-31.2017,2.8526-55.8661,38.0005-52.0013l.0008,10.0002,7.9881-3.9705-3.9883,45.9762,35.9898-1.9956v-90l-234.7321,13.8315c-4.4706-2.0822-4.8892-7.8547.1177-9.4459,10.2778-3.2663,25.7065-3.0801,37.5035-6.4965,12.5986-3.6485,23.1241-10.9391,36.6196-13.3804,26.3924-4.7743,56.7134-1.7478,83.4088-6.5912l71.7522.1647c4.3821-1.0173,5.0842-21.7131-.6419-25.1013-10.1405-6.0003-17.9532,6.5815-25.1766,7.0258-4.9341.3035-15.3542-4.4857-25.9428-4.0804-52.2766,2.0008-108.8118,11.4327-161.9201,14.0453-3.76.185-19.7454,1.9268-15.0248-5.0075l230.0464-18.9535v-10.021c-71.353,1.549-142.2904,14.015-213.7985,11.8291l1.0406-7.5675,92.7383-10.2711c.4671-3.4907-4.5363-1.8793-6.9699-1.9798-12.1161-.5008-25.9869-.536-38.1029-.0827-13.3842.5007-57.1962,10.4296-60.8612-8.9688-2.0287-10.7376,2.3331-22.2566,1.9538-32.9393l11.9898,3.9905v38ZM1994.0201,781.9995c5.6038-5.3866,18.3874-7.0225,19.9381-15.0412,1.8813-9.7284,1.5966-48.5242-11.2315-50.809-16.6916-2.9728-8.2944,56.4825-8.7066,65.8502ZM1962.2362,720.2276c-1.6541,1.9304,2.676,45.0705,3.8373,50.6988.713,3.4559,2.3835,4.9244,4.9288,7.0365,12.5853-11.7894,7.047-23.3383,6.8186-36.9521-.2176-12.9736,8.603-28.0218-15.5847-20.7832ZM1944,724c-5.6735-.3404-13.5856-4.98-17.0391,2.0172-3.8001,7.6995,8.164,41.3915,9.1358,51.928l5.756-.065c-.6311-2.4047,2.1474-5.8158,2.1474-6.8803v-47ZM1911.7105,779.7001c-1.2267-7.5465,2.2584-16.1543,2.2888-22.6994.0131-2.8065-1.9174-24.4519-2.3272-25.674-2.2803-6.8009-17.4582-8.507-17.7621,3.5684-.3318,13.1821,8.16,33.0432,8.1013,47.1143l9.6992-2.3093ZM1830.2415,732.2251c2.1777,17.2186-1.492,41.6851,12.7584,53.7401,9.0042.0579,8.0651-39.8224,6.5721-46.5381-2.4437-10.9922-10.5676-10.2898-19.3305-7.202ZM1880,732c-7.7807-2.9179-17.3679-4.1068-17.7026,6.9007-.4075,13.403,7.1673,32.9902,7.72,47.1006,1.5226,1.3601,9.9826-3.9214,9.9826-5.0013v-49ZM1991.9994,784.0199l-50.9803,3.9989-17.0091,3.9609c18.2831-.2635,38.7361.2282,56.8104-2.1593,3.6166-.4777,9.8224-1.7456,11.179-5.8005ZM1915.3962,962.4667c-1.6827.2616-3.7156,3.0827-6.481,3.4529-16.0706,2.1512-28.1271-.7057-38.8797,15.0821,17.2303,16.7735,41.2459,4.7298,62.5604,6.5931,18.1044-8.7005-10.075-26.2358-17.1998-25.1282ZM2017.7742,962.2406c-17.1952,2.7111-46.2641-4.4831-49.9396,18.4874,4.4756,3.1432,9.6104,7.1618,15.1812,7.4018,2.8256.1217,26.6303-3.6435,29.5793-4.536,8.3068-2.5139,8.0239-14.8701,5.1792-21.3533ZM1841.7158,972.2877c-3.1309-5.0239-55.2889-2.8096-62.5487,3.8776-13.6001,12.5274,7.3829,22.4111,19.7614,21.8441,4.9882-.2285,38.772-7.0136,41.1002-8.9819,3.5068-2.9647,1.9821-12.1402,1.6871-16.7398Z"/>
    <path class="cls-1" d="M1715,1182c-2.9156-.6301-43.1336-38.0461-43.121-41.0289,9.1733-13.0662,32.3626-24.7948,39.854-38.238,4.8528-8.7083,9.1799-35.6535.9703-42.4356-21.7283-17.9503-42.0368-16.5581-68.83-17.1709l-5.7971-30.2029-28.0858-2.9357c-1.7442-11.5541,15.6642-7.9845,20.0089-15.9679l-43.9892-8.04c3.084-8.7129,10.984-13.2163,9.2006-24.019-.9577-5.8016-15.7391-30.3907-19.9514-36.2204-12.8045-17.721-31.6727-28.9086-51.2393-37.7403-2.9613,3.7438,16.7921,40.074,13.9596,47.9994-.5849.8097-10.5251-9.3369-12.9791-9.2972-1.2261.0198-3.0007,2.8214-5.58,2.8197-7.5634-.0051-12.1559-8.6565-16.4189,2.4398l-6.0019-5.9134-11.9757,11.9376-10.025-13.9516c-4.9979,5.4837-12.1719,11.7987-20.0494,12.1157-6.2383.251-9.9681-3.5246-15.886-4.2097-9.1135-1.055-17.1603,2.3504-26.0867,2.2009-11.9841-.2008-40.8279-1.7213-51.4983-4.6202-11.9416-3.2443-63.5259-46.7106-70.3888-57.6112-2.6976-4.2847-2.7398-5.9605-3.1845-10.8155-2.5016-27.3132-1.4026-78.6331,2.2712-105.918.6022-4.4726,15.8278-43.4044,17.8612-45.1613,5.0806-.8239,3.0977.4166,4.1554,2.78,4.212,9.412,3.0698,20.8659,16.7727,21.3962,11.409.4415,27.7343-9.1896,40.5807-11.6449,17.4715-3.3393,45.8094-7.2572,63.4791-8.5209,16.0829-1.1503,55.5278-3.6583,69.9822-2.0264,7.0909.8006,13.2792,5.5836,18.0864,5.9099,5.3685.3644,13.7111-3.3819,19.9312-3.8672,8.4559-.6597,40.0273-.8127,47.8066.131,14.5358,1.7633,27.3431,14.8639,43.1676,11.8469l-19.9798,29.0016c34.6803,12.6754,20.8664-21.0458,24.0408-37.9789,2.7435-14.6341,32.0894-10.0163,42.9178-11.0641l41.0315-3.9698-.1436,7.8545-13.8517,4.1118c22.5618,5.0142,14.0309,32.8939,13.8899,48.9298-1.0384,118.074,2.4905,236.0107,2.1276,354.0631,2.3365,26.0676,9.5942,25.039,21.9557,42.0442,3.8708,5.325,10.0917,17.6619,5.0122,22.9879h-34ZM1536,742v54l18.7193-1.8235c6.3676-8.3738,1.1652-17.0466,1.1027-25.1853-.1271-16.5666,8.2479-33.5759-19.822-26.9912ZM1595.8978,740.11c-6.2821.6213-18.3595-3.4702-19.9011,4.8868-1.0619,5.7569-.8355,33.9132.4321,39.5749,2.7413,12.2443,13.4504,13.3739,19.6804,2.5365,5.126-8.9168,1.0027-35.8731-.2114-46.9982ZM1502.0366,742.0117c-10.1935,15.9749-13.4704,42.7602,4.7685,53.9082,16.4072-13.3925,17.1638-46.3322-4.7685-53.9082ZM1416,747v44c0,3.7265,13.2956,12.7982,18.4794.4805,2.1575-5.1266,2.7175-39.8224.5431-43.5041-2.6412-4.4721-17.4367-6.0763-19.0225-.9764ZM1473.7198,744.2802c-6.2167.1209-18.219-3.4473-19.7229,4.7167-.8704,4.7245-.7722,33.5027.4172,37.5892,2.6179,8.9944,14.3891,14.8583,20.4316,3.2567,5.2565-10.0925,1.2354-14.4905,1.0584-22.9376-.1636-7.8091,3.6302-14.0132-2.1843-22.6249ZM1376,800c10.4869,2.9206,21.487,2.111,21.8538-11.1658.1418-5.135.2047-16.8197-.0504-21.6177-.9244-17.3818-2.4255-23.776-21.8033-21.2165v54ZM1669.3276,746.3322c-9.4022,3.1613-9.0634,52.3926,11.2157,49.3432,12.8448-1.9315,19.0124-45.4075,6.0707-49.2855-3.1924-.9566-14.2499-1.0787-17.2864-.0577ZM1434,858h49c7.7263,0-4.3796-11.8827-11.9063-12.0981l-37.0937,12.0981ZM1739.7584,1168.3005l-21.0888-12.0986c-4.0498-.396-6.0061,5.7585-6.7338,8.7184l24.9584,13.1491,2.8642-9.769Z"/>
    <path class="cls-1" d="M3221,976c-.5557-.1405-8.8373-6.5833-8.9678-7.1414,5.2591-18.49,25.3311-13.3033,39.988-15.8586l-27.7691-7.2558c-.9645-4.6975.6425-9.6271-.6741-14.3294-1.7492-6.2473-15.7655-13.8058-9.753-22.5299,2.3868-3.4632,7.4479-3.3721,8.1642-6.8627-15.4107-1.4141-16.3115-20.3604-23.8989-31.1114l.1714-135.6501c1.4764-4.3415,14.0187-4.3409,18.7366-5.3255,3.4489-.7198,5.9558,2.207,4.9914-3.9256l-57.995,9.9988c-2.1121-2.1221,4.0858-29.3338,3.4571-34.7825-.4609-3.9949-6.4209-9.2031-7.9179-13.7573-2.4686-7.5099-3.2429-36.1649-3.6154-46.3861-.9396-25.7849.5159-51.8734.489-77.67l6.5437-5.3602c15.3184,10.8222,22.9455-.2375,37.4896-4.6124,8.686-2.6128,17.8488-3.9539,26.8054-5.1946,36.6136-5.0717,74.2993-4.2825,110.7404-8.2388l-7.9756,4.9834,18.8471,12.9632,2.3251,20.1761-7.1656,4.8439c4.2882,4.3442,8.8765,7.6814,9.872,14.1382,3.9197,25.4251,5.3985,63.565,6.1939,89.8062,1.5734,51.9082-19.4864,27.7966-50.7451,27.8573-20.6129.04-41.9317,10.6237-63.3483,7.2338l.0244,5.9846,104.8672-5.8747c11.9326,1.3608,15.7751,15.6846,9.2483,24.5193-6.1598,8.3381-42.4452-.7222-53.0978-.7955-8.431-.058-60.5115,10.2257-65.6519,14.0247-8.3009,6.1346.3378,24.1171,11.1578,21.8541,4.837-1.0117,8.8232-7.8386,15.4546-5.728.4111,33.833,18.7027,66.8613,15.9713,100.9771-.8934,11.1587-11.0891,28.7972,6.9332,31.134,10.7612,1.3953,38.8884,1.5883,42.6899-11.5198l-6.0307-107.1413c-4.3073-13.0699-35.3361-2.095-44.4873-3.352-3.4181-.4695-5.6751-2.397-5.0588-6.0806l86.0008-6.021,7.9897,242.0103h-93c-.9213,0-8.9585-9.9042-13.8728-12.1272-13.2075-5.9744-43.9809.0256-48.193-9.8439-4.5895-10.7537,27.2651-12.9116,33.4711-14.6436,2.0849-.5819,6.0474-.4813,5.5947-3.3853-9.7232-1.6073-26.3314,2.1918-35,0ZM3335.9951,614.0243c-26.0564-10.8286-69.691-25.9006-79.9857,11.9645,24.1122-4.463,51.0471-3.7646,74.8872-8.0921,2.3871-.4333,4.7359-1.1007,5.0985-3.8725ZM3312,700v-47c0-.7888-2.0995-14.4798-2.4092-15.5911-3.6641-13.148-25.5908-5.6555-25.5908-.4089v65l28-2ZM3336,1002h-52v4h52v-4Z"/>
    <path class="cls-1" d="M428,912v64h82v-64c7.6535-3.4231,11.0116,11.887,13.1709,12.0725l36.8291-8.0725v60h80l-1.9896-57.9932c20.6265,5.7467,37.1181,11.4056,53.9896-6.0068v66h90c-10.84-11.6797-17.9451-21.2414-15.1068-38.1146.5505-3.2727,4.4631-15.8589,6.1088-17.8822,4.3002-5.2869,28.998,3.1833,28.998,12.9968v55l-77.9994,4.02c.7505,3.6179,3.9247,3.7335,6.9169,4.0626,18.8082,2.0687,39.4228,1.7385,58.1259,3.8741,2.5659.293,5.7271.6644,7.8187,2.1812,8.5753,6.2186,4.1623,47.6718-5.8715,55.8526l-.9783-16.0007c-13.2134-.7309-25.5888-2.3903-38.9909-1.9702-10.8261.3394-31.9188,2.1019-41.1428,6.8592-6.5992,3.4036-11.25,11.5556-16.3786,13.6214-5.1064,2.0568-13.6621.08-15.2618,4.7849l5.786,36.7103,7.9758-3.9952v58h-56c.3387-25.6567-.417-51.4016-.0905-77.0793.1093-8.5933,6.2812-21.3498-5.8587-25.9715-18.9333-7.2079-43.0043.7106-62.6808.9998-1.318.3238-5.37,12.0609-5.37,13.0509v93h-55c-2.854-1.7557-2.7601-3.9868-3.1018-6.8982-2.2299-19.0001-.1373-48.0017.0168-68.1833.0411-5.3882,2.5174-9.8344,2.0036-15.6661-.7352-8.3455-5.9858-17.7743-15.0284-19.1426-12.9628-1.9616-38.9111-3.3726-50.9882.7922-8.5888,2.9619-11.0376,18.1265-11.867,26.1329-.9663,9.3271-1.6736,22.3029-2.1174,31.8826-.8462,18.2636.8022,36.807.0718,55.0726l-29.3816-9.5978c-16.3704-8.4415-8.7076-31.3856-8.5252-45.3099.5169-39.4501.8286-78.7883,1.9999-117.9999.424-14.1954-2.8766-54.0264,2.178-63.822,3.992-7.7362,26.7544-14.3663,35.7395-17.2605Z"/>
    <path class="cls-1" d="M900,1058c-4.0515,4.6893-9.9795-15.4671-10.0238-17.9947-6.1476-.1326-6.8892,6.7931-13.0211,7.9497-10.4458,1.9703-25.782-1.2526-36.8683-.0473l-8.2258-37.787-10.6302,1.4211-4.9206-4.9421,3.1723-175.0804c-2.3695-19.6661-23.2493-22.7126-37.5071-34.4947-11.0698-9.1477-22.7613-22.8411-31.9554-34.0464,4.1776-4.7956,17.3751-.6691,19.9601-6.0085,2.2994-4.7496-18.7821-5.1937-19.9285-10.115,2.6754-13.4302,22.7017-21.8761,35.2489-22.6623,9.6318-.6036,19.199,4.3387,28.2493.4793,7.8668-3.3547.1407-17.0147,19.3585-18.7635,22.3667-2.0353,44.5127,5.3019,67.0492.1295l6.0651,33.95,11.8525-17.1128c11.5796-9.5264,34.6291-2.6511,49.2164-2.802,63.7683-.6598,135.4961-12.3409,196.8742,12.9614,7.3475,3.0289,15.5668,7.3117,22.0176,11.9927l-19.9566,7.9995c-15.9208,11.5082-3.1004,55.5121-10.0266,72.9735h-243l-1.0602-7.0605,22.0501-4.9192-33.9899-2.0203v246ZM935.2783,748.1488c-15.6335,5.6082-15.0798,47.4265-3.251,52.822,18.5991,8.4837,17.5256-27.2064,16.0772-38.0754-.8468-6.3545-6.8868-12.2523-12.8262-14.7466ZM988,804v-41c0-9.2979-10.5517-19.5949-19.5334-12.5107-7.0548,5.5644,8.6918,22.1963,9.1238,26.8155.509,5.4436-11.8082,22.134-9.5925,24.6755l20.0021,2.0197ZM1024,750l-18.0109,2.0071c-2.4681,10.3212,11.6184,20.4275,11.7948,28.9534.1923,9.2992-8.8039,16.3804-13.7837,23.02l19.9998,2.0196v-56ZM1062,750c-36.8846,4.838-5.9326,17.824-5.889,32.9983.0276,9.6239-9.8026,13.7013-14.1104,20.9817l19.9995.02v-54ZM1104.0091,751.9909c-10.5821.162-20.6244-3.2447-23.2347,9.9445-.5736,2.8982.6605,33.6952,1.2823,37.0077,1.5728,8.3792,9.8874,7.7964,16.6694,6.7718l2.995-2.9929,2.288-50.7312ZM1140,803v-48c-28.1407-15.5613-16.941,34.7953-16.2254,49.8333,1.9256,2.6816,15.0834,1.8731,16.2254-1.8333ZM909.9895,801.99c-2.9728-13.5507-1.4497-27.2579-1.9897-41.0106-.0952-2.4257,1.5059-7.4403-1.9773-6.9671l-4.0136,47.9971,7.9806-.0194Z"/>
    <path class="cls-1" d="M2102.1256,565.7383c1.4489,2.2258,13.7305,5.2436,16.9613,16.1757,2.7651,9.3564-4.2159,33.796,2.1902,35.8103,41.0927,4.4487,82.6381,5.8391,123.7124,10.2862,20.3491,2.2032,42.3453,8.6698,62.037,9.9647,11.1777.7351,22.3733-2.0686,31.7862-1.8023,12.7797.3615,26.3141,11.8,39.1776,11.8375l-14.4584,20.5216-2.7181,19.692c-12.0174,4.041-33.4001,13.5066-36.7208-5.3171-1.1951-6.7743,1.359-13.0852-1.6054-20.3946-1.0981-2.7075-12.7197-14.6005-15.486-16.5146-16.5582-11.4574-31.5077,3.3315-47.9936,3.5828-10.2161.1557-25.1243-4.5742-36.0253-5.5634-69.8315-6.3369-135.8793-19.9816-205.6971-5.7315l-23.2756,5.694,99.0142-6.1223,38.0917,6.0266.8744,6.1059-137.9926,6.0193,2.0177,9.9704-210.0082,20.0104c-.2698-3.4521-.6483-6.3434,3.3666-7.6162,8.3145-2.6359,28.1277-4.7219,37.9121-6.0879,45.6893-6.379,92.2604-6.7751,137.8552-14.1448,4.534-1.7591,10.1054-6.9643,9.8311-12.1697-63.8032,11.0976-128.5747,15.7672-192.9709,22.0182l.2955-7.6997c6.2817-1.7231,12.3952-5.0261,18.8651-6.1271,31.5957-5.3768,70.5822-4.541,103.5894-8.4114,35.2678-4.1355,70.3276-10.6395,105.2793-16.7207,26.3511-19.8363,6.3506-55.7085,35.3176-76.6825,21.7214-15.7277,39.0596-6.4098,58.346,6.8516l-1.5685,6.5386ZM1991.9901,644.0203h-5.9802v1.9594h5.9802v-1.9594Z"/>
    <path class="cls-1" d="M1090,920c8.1678,2.4949,37.8444,6.72,42.1232,10.8768,10.3222,10.0281-3.4048,44.8489,18.9926,49.0074,14.4078,2.675,30.8954.0532,44.8795,6.1398-15.0791,16.385-39.7035,9.4771-58.9753,5.9537-4.4112,4.6587,3.7803,9.2222,8.0879,9.9145,12.4056,1.9936,37.5122-3.5619,46.8462,3.1549,10.1368,7.2944,3.5888,29.5212,6.0459,40.9529h-49c-.5129,0-8.0853,4.3437-8.9002,5.0998-10.3202,9.5761-4.1838,63.8177-6.056,79.944-2.6446,22.7803-30.8751,11.0588-46.0438,20.9562v-93c0-15.0537-38.8552-11.4778-49.7895-13.2177l-8.2105-65.7823h60v-60ZM1040.01,999.9797l52.7586,3.4612,9.1931-6.4411c-2.802-3.8071-6.0752-5.6757-10.9293-5.194l-51.0225,8.1739Z"/>
    <path class="cls-1" d="M984,980c-17.0169-18.2076-12.834-43.6705-7.9804-66.0017,4.5889-4.7345,6.8474,15.1349,8.0044,16.0205,13.8678-4.6923,28.3903,2.491,37.976-12.0189v225c-1.2706,2.1222-2.8009,2.4848-5.0591,2.9409-13.7237,2.7719-30.8247,3.2887-44.9409,4.0591v-89c0-4.744-8.2385-13-13-13h-51c-1.1268-10.7693-5.2028-35.7082,4.0166-42.9834,10.9082-8.6079,55.2692,1.9218,69.5642-4.4079,3.6923-1.6349,4.5914-9.3063-.5938-8.6869l-61.9424,4.0355c-6.77-2.4026-12.3555-8.5742-11.0446-15.9573h76Z"/>
    <path class="cls-1" d="M795.9979,875.9785c-23.0716,8.1368-39.8784,13.1617-64.9777,12.003-116.3145-5.3698-233.5681-4.4911-349.9377-8.064-7.4831-.2297-62.4293,1.69-63.1496-3.0134,1.0943-10.5586,2.9311-22.8639,15.1849-24.7864,71.8967,1.6109,144.1909-1.6348,215.787-2.213,61.7608-.4988,124.4459,2.2253,186.0762,6.1144,21.5622,1.3606,44.6544,5.2148,61.0169,19.9594Z"/>
    <path class="cls-1" d="M1240,1046c-8.618-8.362-18.5686,27.0575-28,26v-140c2.9613-.4496,2.6584,3.4632,3.3868,5.5922,2.553,7.462,8.8486,36.8278,11.5606,40.4595,2.5063,3.3563,9.1385,1.6571,13.0526,1.9484v-139c0-1.2648,7.6654-5.1935,7.9051-9.9053.1977-3.8855-8.2472-26.096-9.5863-34.4135-2.5565-15.8789-4.8441-45.7935.7943-60.5683,2.1925-5.7452,9.5731-9.5991,11.0904-15.9625,37.3687,12.3495,12.7072,27.8761,12.1862,48.8185-.0958,3.8508,1.7245,12.7011,2.5089,17.1322,1.4513,8.1986,9.3101,25.758,9.2717,30.9416-.067,9.0489-21.1273,18.8231-20.1107,33.8411,6.977,13.6043,5.1773,27.7753,18.9031,37.1536l-1.1542,204.7711c1.9258,17.9514-31.8085,16.7881-31.8085,4.1915v-51Z"/>
    <path class="cls-1" d="M1748,547c-3.1043-24.8047-24.5027-11.9677-39.9899-20.0099l45.771-4.7584,8.3585,59.6296,7.8517.1483c1.4728-1.4178,1.4649-35.2889,2.2067-40.8283.2724-2.0344,1.2906-8.9802,4.772-7.1618,4.8612,2.5391,8.0091,39.1113,12.02,45.9707,9.2238-13.7078,9.9093-35.7333,2.1118-50.092-2.943-5.4195-8.2715-8.0876-9.0944-13.8849,20.6108-5.7979,39.5512-4.209,60.4424-1.463,12.1357,1.5951,39.6633,5.8134,50.1389,9.8611,11.3974,4.4039,24.6858,20.3359,14.4899,31.6771-9.0401,10.0556-73.2272,37.1875-88.6482,41.342-13.4878,3.6337-26.5093,5.2839-40.4203,6.5589-.698-7.4536,10.6541-1.9521,7.9798-11.9788l-69.9803,7.9787c1.2609-5.9065,5.486-9.3425,7.4183-15.5612,4.4811-14.4217.6051-30.1195,6.5972-44.4131,2.7248-.5008,3.0325,3.5751,3.4407,5.5006,2.6504,12.5009,3.5725,27.6463,4.5234,40.4967l10.0107-.0122c-1.1024-12.3579,1.5064-26.9627,0-39Z"/>
    <path class="cls-1" d="M1564,1096l8.2187-36.7813,12.781-15.1785c10.127,18.1422,6.6048,40.6882,6.918,61.0424.3671,23.8579,5.4381,31.0081-11.0914,52.7438-21.0453,27.6738-45.1396,33.7542-58.8505-3.8216l-9.9759,11.9952v-131l4.1387-2.2044c10.9337,9.3252,21.1527-3.069,27.9397-2.009,6.1572.9617,19.9216,14.325,19.9216,20.2133v45Z"/>
    <path class="cls-1" d="M1191.925,893.9633c-4.4078-.0258-8.3864-1.8762-12.8414-2.0552-79.9637-3.2119-169.9402,7.0862-248.0477.0558-8.2118-.7391-17.9525-2.0713-21.5329-10.503-3.5748-8.4184,1.3768-20.0438,11.4634-19.4611,72.398,3.6128,152.3781-4.1368,224.0013,2.0323,15.8974,1.3693,33.3614,7.8665,49.1252,10.9746l-2.1679,18.9565Z"/>
    <path class="cls-1" d="M1295.9891,1130.0188l5.9955-3.9805c-4.5548-.541-11.2832-5.9728-9.8674-10.7755,1.4737-4.9991,11.279-3.2998,9.8961-8.2411-.3011-1.0757-11.3857-7.332-11.8932-18.1861-.5019-10.7333,9.1472-15.0152,9.693-18.1116.3414-1.9372-5.5142-8.9692-6.8002-12.7356-5.8044-17.0004-.6568-34.6431.016-52.0185,20.0453,3.3375,13.8825,11.3707,17.8587,24.1424,3.9419,12.6613,21.3417,14.2444,32.1992,10.3959l1.9738,1.3821c-.5997,21.9548,8.6188,44.2984,1.0621,65.2318-1.7931,4.9673-7.2327,10.8497-7.7656,14.2841-.6664,4.2949,2.0306,16.5488,1.7164,23.6841-.2229,5.0629-2.4519,34.9968-3.947,36.0359-19.8842,6.7041-29.0058-11.8018-43.2588-21.1051l10.8551-19.3641-7.7339-10.6382Z"/>
    <path class="cls-1" d="M951,686c-.7652-.194-3.6002-3.4983-2.9996-3.9801l9.9992-4c-12.9667-.7484-26.1776-2.1766-39.0357-3.9836-2.9697-.4173-4.9822.0622-6.9236-3.0363,14.6463-17.2731,39.873-14.1507,59.9475-10.9774l-25.9878,3.9775h196v2h-84l39.0204,3.9796,102.9885,4.0218-3.0089,11.9986h-246Z"/>
    <path class="cls-1" d="M1749.9851,658.0252c-.343,2.9495-7.1591,4.7358-9.5678,5.3955-6.93,1.8981-13.8891,2.8815-21.1466,2.3504-29.1453-2.133-39.4534-41.5557-64.5119-6.1453-8.8589-1.4802-12.4378-3.1613-12.9295-12.5733-.3825-7.3209,2.4842-37.1844,6.112-42.1144,5.9078-8.0283,10.2887-1.1614,6.3943-18.5822,4.8538-1.7447,8.945-6.8116,14.52-6.3639,3.3655.2702,5.9819,3.2828,8.5789,3.6406,9.295,1.2805,15.6637-4.7011,27.2735,4.6595,15.1373,12.2048,7.2927,32.2688,9.2557,48.7443,2.0498,17.2041,22.8453,16.6681,36.0215,20.9888Z"/>
    <path class="cls-1" d="M1614,592c-13.4774,5.1826-4.8335,27.6947-13.9239,39.0761-5.3958,6.7557-32.2921,10.8149-41.0763,10.9235-17.7333.2191-37.0263-9.4547-54.0253,1.9182-3.637-.326-2.6613-22.1111-14.385-25.5045-3.2074-.9284-12.4665.5311-12.6131-1.4359.9793-12.2204,12.461-22.0854,23.9841-24.1907,17.5713-3.2104,16.6606,28.597,18.0348,40.2498,1.1728,9.9445,5.1419-1.9441,6.306-3.6569,7.8821-11.5989,14.6831-23.8645,22.8945-35.236,13.5549,5.6747,29.6724,12.7158,43.5485,3.6008,4.0905-2.687,5.6503-8.4147,8.5778-9.4223,6.1423-2.114,18.2663.8494,25.3472-.4031,6.4911,16.6708,11.9587,48.2387-12.6692,52.0811v-48Z"/>
    <path class="cls-1" d="M1288,888c2.1282.4998,3.9246-1.9589,6.0297-1.0357,1.1729.5144,17.6695,13.9192,19.9938,16.0122,10.8135,9.7373,21.7859,21.0114,23.8059,36.1941.9374,7.0457-.536,14.214.6481,21.3518,3.7568,22.6456,21.5562,22.8057-20.4679,25.4974.9259,5.3223,12.0628-2.1824,9.9904,5.9802h-29c-2.9117,0-11-13.376-11-17v-87Z"/>
    <path class="cls-1" d="M790.0109,832.0084v5.983c-20.3193-.3758-40.7549.5041-61.0934.0911-99.069-2.012-198.9166-5.7473-297.835-8.165-35.3396-.8637-70.7936,1.8632-105.9652-1.8849-5.5739-16.817,16.828-8.2308,25.8001-7.9504,96.5958,3.0184,193.5855,5.2617,290.0001,8.0003,49.6806,1.4112,99.5887.6784,149.0934,3.9259Z"/>
    <path class="cls-1" d="M314,1006c17.9025-2.1235,46.8579-10.914,60.9997,4.0003,10.3156,10.879,3.1717,35.2704,2.9178,48.9172-.6274,33.722-.5124,67.4176-1.9261,101.0934h-5.9828s-2.4396-98.5799-2.4396-98.5799c-5.0195-14.1282-53.569-5.9105-53.569-18.431v-37Z"/>
    <path class="cls-1" d="M2636,1100c-6.4675,16.1775,6.2152,45.0914-5.0624,57.9378-.9831,1.1198-9.3556,6.0622-9.9376,6.0622h-43v-41c0-1.1788,3.3497-14.5129,4.1812-15.8188,1.0721-1.6838,9.8764-7.1812,10.8188-7.1812h43Z"/>
    <path class="cls-1" d="M1747.99,683.9895c-15.7421-.8992-31.2016-2.3634-47.0725-2.0719-110.0861,2.0219-219.5333,18.2406-330.0231,10.188-3.4229-.2495-6.6139.2108-8.8844-3.1155,19.2848-4.9638,39.3336-2.2061,59.0724-2.9076,51.1969-1.8193,102.7859-1.9092,154-4,36.3263-1.483,140.304-15.2503,167.8707-4.0357,3.0846,1.2549,5.8269,1.5479,5.0368,5.9427Z"/>
    <path class="cls-1" d="M2455.7452,1165.7393c-9.6597,3.1983-20.3474-6.0442-28.8238-5.8745-6.4563.1293-8.7367,7.8857-11.9076,4.1258-6.0467-7.17-6.7492-43.6239-4.9724-52.9491,2.4742-12.985,42.4293-12.8484,48.8352-2.9265,5.812,9.002,1.0167,13.4653,1.1042,20.8869.0459,3.8955,2.19,7.54,2.1032,11.9097-.0563,2.8326-5.2636,24.1311-6.3389,24.8277Z"/>
    <path class="cls-1" d="M2751.5196,879.5247c-6.6888,6.7098-53.2741,1.9977-60.5899-9.4788-3.041-4.6315,9.0141-11.4891,11.0355-15.0453l-11.8947-10.2028,5.9682-9.7643-10.0291-19.0226c14.2191-.2549,29.5007,7.6208,39.7805,17.199,3.2992,3.074,26.1449,30.3268,27.164,32.8762,1.5413,3.8559,1.54,10.4548-1.4345,13.4386Z"/>
    <path class="cls-1" d="M2118,1038v-123l10.9323-12.9493c16.5308,6.1206,10.7031,59.0898,10.9851,75.0317.1633,9.2295,3.3745,17.136,1.9024,27.7438-1.7648,12.7169-14.009,25.519-23.8198,33.1738Z"/>
    <path class="cls-1" d="M3427.8948,398.1138c.3227,13.3958,6.535,33.8809,3.6756,46.4695-4.5781,20.1551-38.6488,13.0353-53.4639,11.3175-4.051-29.3446,17.0031-63.416,49.7882-57.7871Z"/>
    <path class="cls-1" d="M908,1180h-33c-3.8403,0-10.7555-15.3858-9.0201-19.9994-12.9312,9.0241-14.3896,30.8202-34.072,16.6828l.2972-28.4848c18.8854-2.4113,35.884-22.2455,48.8492,1.8062l14.9527-11.0314,11.993,41.0265Z"/>
    <path class="cls-1" d="M3314.0099,431.9896c45.1282-2.5888,10.9152,48.0493-17.5005,36.4936-12.891-5.2423-14.353-24.8955-17.4959-36.5436l31.9779-21.271c1.7978-.0142,6.0741,2.726,7.1557,4.1898,6.5472,8.8604-7.1584,14.5391-4.1373,17.1312Z"/>
    <path class="cls-1" d="M748.0109,798.0086l.0004,5.9829c-3.6555-.1329-7.4191.3365-11.0882.0897-117.5109-7.9053-236.3886-2.69-354.0016-9.9997-5.7093-.3548-11.1308-2.638-16.9368-2.0891l.0045-5.9839,382.0218,12Z"/>
    <path class="cls-1" d="M2387.9904,786.0198c-.907,2.9813-10.3262,3.7496-13.0183,3.9546-59.6862,4.5457-120.4798,10.7727-179.9915,14.0061-10.2855.5588-26.2144,1.9248-34.9706-2.9905,74.7127-13.5408,152.0251-24.6893,227.9804-14.9702Z"/>
    <path class="cls-1" d="M1563.8669,974.1632l.1433,5.8281c-14.9639.546-30.1233-.6743-45.0927-.0738-15.8737.6368-33.9515,3.5192-49.8288,4.1586-11.8959.4791-18.8495.1633-29.0883-6.1088-.5677-.816,9.0778-10.865,11.4092-11.5577,13.322-3.9577,40.7198,2.2219,55.7492-.5887l3.8316,4.173c16.5234-24.8386,17.4697-4.3122,27.8057.2099,7.7134,3.3747,17.2066.217,25.0707,3.9594Z"/>
    <path class="cls-1" d="M1538.0101,414.0097l-21.9989,1.9806,5.9839-7.9663-33.8466-14.2164c.1939-18.4371,19.4808-30.373,36.7107-27.6952,19.0832,2.9658,11.8286,34.1632,13.1509,47.8973Z"/>
    <path class="cls-1" d="M1148,836l.0092,7.9911-103.1045.1042c-28.2338-1.568-57.6322-3.8346-85.8185-4.174-12.1544-.1463-29.9807,3.9227-40.0797,2.06-3.4585-.6379-5.5895-2.1262-5.0065-5.9814h234Z"/>
    <path class="cls-1" d="M1269.9851,1116.0379l-1.2632,4.1277c-2.7964.1242-10.8605,7.4533-8.7217,9.8185,15.1269-2.1036,16.7461,19.5385,11.0309,28.0455-1.0848,1.6147-35.6769,13.3675-37.0202,11.9605,3.0449-17.3232-1.5774-34.9815,17.951-42.9899l-9.9267-10.0025c10.1816-10.6433,16.8061-7.028,27.9499-.96Z"/>
    <path class="cls-1" d="M1178.0109,698.0086v5.9828c-2.3642,2.4865-38.4384-1.9144-44.9284-2.0739-65.129-1.6002-130.092-2.2682-195.0953-5.925l.0019-5.9839,240.0217,8Z"/>
    <path class="cls-1" d="M2987.9997,443.9798l-35.8065-2.1781c-2.0963-19.4166-14.418-41.7033-16.814-60.2413-.3275-2.534-2.4582-2.7831,1.6208-5.5205,6.5552,11.3193,35.5845,28.9872,40.1134,38.0172,1.98,3.9478-4.9553,9.0023-2.7699,16.4996,1.6637,5.7075,11.4872,7.741,13.6561,13.423Z"/>
    <path class="cls-1" d="M2641.9994,562.02c-.7655,3.6637-3.9254,3.6977-6.9244,4.0551-68.8757,8.2094-138.339,12.5429-207.0641,21.9153l-.0195-7.9814c71.5316-3.7027,141.9685-21.4823,214.008-17.989Z"/>
    <path class="cls-1" d="M1447.9978,593.9913l.0128,15.9987,13.9057-3.9296,13.2264,33.8082-4.4005,6.0166-19.7697-15.868c-5.824-2.4315-1.6384,12.6669-2.9623,13.9931l-15.9918-.0277c-.8956-17.0644-10.7045-51.5244,15.9793-49.9913Z"/>
    <path class="cls-1" d="M471.9643,896.0119c8.3812,14.4068,11.9672,57.7915,5.0219,71.9674-3.4899,7.1231-15.7179,2.6416-16.9613-1.4649-4.4788-14.7925-1.8858-43.6185,3.0778-58.4117.7611-2.2684,4.6814-15.1183,8.8616-12.0908Z"/>
    <path class="cls-1" d="M1362,984c-5.2084-7.3981,5.5726-15.2054,11.9117-17.0884,6.4925-1.9285,41.85-1.9001,47.9981.1787,2.0263.6851,12.0723,8.8356,12.0515,9.9103-1.5576,1.5929-10.0209,6.9994-10.9613,6.9994h-61Z"/>
    <path class="cls-1" d="M601.3849,904.2424c2.7178-.7123,3.7723-.2329,5.645,1.7293,4.5879,4.807,4.7216,59.4172.0247,64.068-3.1772,3.1461-8.9197,2.7909-12.2527.1438-4.2206-3.3519-3.4278-35.8161-2.8892-43.2708.4807-6.6531,1.6265-20.6141,9.4722-22.6704Z"/>
    <path class="cls-1" d="M589.5253,686.4871c1.5388,1.466,2.4761,6.4989,5.3689,9.6252,11.0865,11.9813,29.1917,8.8405,43.3574,9.0897,2.8344.0499,12.8582-.2091,13.738,2.7772-33.4959,4.1658-87.7679,11.3553-99.9892-29.959,1.5333-1.1613,35.6918,6.7205,37.525,8.4669Z"/>
    <polygon class="cls-1" points="3343.9964 526.0106 3344.0086 533.9909 3192.9864 548.0794 3188.043 542.9958 3343.9964 526.0106"/>
    <path class="cls-1" d="M1028,1182l10.9995-19.9609c2.8382-.041,4.8821,18.2446,19.7909,14.0833l5.0943-15.2376,27.0855-2.9166-.0775,16.0408,11.1073,7.9909h-74Z"/>
    <path class="cls-1" d="M2982.0114,746.0069c4.6903,25.3898-42.9279,33.6686-47.7292,14.5734-3.9193-15.5875,38.003-17.2242,47.7292-14.5734Z"/>
    <path class="cls-1" d="M731.2937,910.1714c3.4014-.5734,8.0779,5.7988,8.6598,8.8743.9963,5.2662.6878,41.2298-.99,44.9177-1.1852,2.6053-6.0176,5.4161-7.9634,7.9808-11.5528-7.495-9.5525-18.5292-9.0966-31.0393.2589-7.1048,1.4274-29.3912,9.3903-30.7335Z"/>
    <path class="cls-1" d="M2977.993,720.0308c1.1556,4.5875-.895,3.2739-2.5159,4.5471-10.5064,8.2529-29.2093,11.317-35.5899,23.3395-17.0717-6.0122-10.6709-26.2499,4.0935-32.92,13.7165-6.1966,21.3192.8039,34.0123,5.0334Z"/>
    <path class="cls-1" d="M2131.0003,1074.0397c3.2937,3.0778,5.0419,7.3445,6.4444,11.5155,2.9094,8.6524,9.1452,41.2187.5704,45.4453-27.9159,13.7602-13.0146-57.0053-7.0149-56.9608Z"/>
    <path class="cls-1" d="M382,978c-7.7832,16.2603-48.6826,20.5429-61.5247,14.5307-9.9947-4.6792-2.9815-14.5307.5247-14.5307h61Z"/>
    <path class="cls-1" d="M976,1160c-11.0554,30.4588-32.1624,17.306-55.9904,13.9899-4.4189-3.7353,16.6346-13.9899,18.9904-13.9899h37Z"/>
    <path class="cls-1" d="M804,684l-.0092-7.9911c39.0817-.7164,77.8923,3.8911,117.0449,3.987l2.9642,4.0041h-120Z"/>
    <path class="cls-1" d="M338,967c-1.4173,5.0437-11.3195,6.6724-12.1362.0738-2.2642-18.2928,2.3327-39.387,2.3862-57.8239l9.75-5.25c-2.9516,16.263,3.9621,48.9,0,63Z"/>
    <path class="cls-1" d="M749.9905,1077.9893l-17.9808,2.0306,15.9705,6.9499c-4.537,3.3892-15.5951,5.1904-20.9748,5.1877-12.3069-.0062-35.4729-17.3741-19.996-20.1481,4.584-.8216,36.0988-.7855,39.6452.3358,2.6369.8337,3.8832,2.9026,3.3358,5.6442Z"/>
    <path class="cls-1" d="M1773.7832,1181.7744l-14.5108-.0542-2.9877-2.9968,1.7167-36.7308c23.5341-3.094,19.0384,24.4498,15.7818,39.7817Z"/>
    <path class="cls-1" d="M636,1172c-2.2145,4.4315-1.3819,8.9357-6.9673,10.0327-8.5603,1.6813-50.336,1.2206-60.105.1058-4.8674-.5554-4.6195-5.806-4.9278-10.1385h72Z"/>
    <polygon class="cls-1" points="1710.006 576.0085 1696.2631 575.7404 1689.9926 544.0018 1711.1241 545.8726 1710.006 576.0085"/>
    <rect class="cls-1" x="1362" y="956" width="146" height="4"/>
    <path class="cls-1" d="M3431.9741,1053.9747c-8.1523-.6792-15.1988,4.6877-22.7723-.1935-23.3705-15.0624,29.3902-41.0255,22.7723.1935Z"/>
    <path class="cls-1" d="M3447.9852,536.0251c.4626,3.5686-4.4942,1.9428-6.719,1.725-17.1965-1.6833-42.7864-6.2979-59.7061-10.3293-1.9927-.4748-6.0295-.5892-5.5452-3.3957,26.028-10.7458,48.3222,2.5567,71.9703,11.9999Z"/>
    <path class="cls-1" d="M797.8902,1106.1193c1.6362,6.865,5.9622,40.5856-4.517,39.6237-20.2561-1.8594-4.6282-27.0028-5.2694-39.6307l9.7864.007Z"/>
    <path class="cls-1" d="M2258.0092,656.0119l-3.164,7.7801c-11.6213-2.6927-23.8257-2.1769-35.5595-4.0777-8.1554-1.3211-21.9933-1.216-23.2762-11.7033l61.9996,8.0009Z"/>
    <path class="cls-1" d="M500,1174v8h-64l.0039-3.972c3.3265.5876,9.3444-4.028,10.9961-4.028h53Z"/>
    <path class="cls-1" d="M2618.0091,980.0017c-.1153,3.937,1.4508,10.0665-3.3425,11.6651-6.9145,2.3059-28.4443,5.2187-30.3208-4.9603,2.5387-16.8383,21.982-3.9398,33.6633-6.7048Z"/>
    <path class="cls-1" d="M2145.9897,652.007l.024-10.0001c12.133,2.6177,24.6946,2.5555,37.0119,3.9675,3.4867.3997,6.4781-.8454,8.9344,3.0258-14.2282,13.3156-29.6304,2.7919-45.9703,3.0067Z"/>
    <path class="cls-1" d="M774,1160l-9.999-.0196c3.0339-17.9847,3.1753-37.4711,4.0095-55.9704,1.8649-.8583,5.9895,1.7721,5.9895,2.99v53Z"/>
    <path class="cls-1" d="M1531.9901,428.0107l-12.0224,21.9887c-19.0635-19.9851-19.0868-28.738,12.0224-21.9887Z"/>
    <path class="cls-1" d="M1219.98,1135.9995c-13.601-10.2895-9.8747-39.4679,2-49.9989l-2,49.9989Z"/>
    <polygon class="cls-1" points="380 918 380 967 376.9702 969.98 374 970 374 918 380 918"/>
    <path class="cls-1" d="M3218,1018l-.0089-7.9909,36.0185-1.9993.0994,6.8226c-.1999.705-6.608,3.1676-7.109,3.1676h-29Z"/>
    <path class="cls-1" d="M3414,1182c-3.7722-3.2789,14.7723-13.2495,19.014-13.156,5.0858.1121,9.7624,4.9367,11.9762,9.1846,2.0329,1.0528-1.7652,3.9714-1.9902,3.9714h-29Z"/>
    <path class="cls-1" d="M3455.4205,1140.4182c3.6731-1.1081,24.6263-1.5419,24.5396,2.582-9.7805,12.7074-18.6593,14.0705-29.9218,1.9995,1.638-1.6526,2.9868-3.8589,5.3821-4.5815Z"/>
    <path class="cls-1" d="M1193.9798,791.9997c-18.1761-7.1719-15.0205-14.5319-7.9555-29.9949,4.5125,1.6168,8.912,28.7385,7.9555,29.9949Z"/>
    <polygon class="cls-1" points="1930 1180 1893 1180 1890.04 1177 1893 1174 1927 1174 1930 1180"/>
    <path class="cls-1" d="M1294,590v-30c14.3116,4.8842,12.628,23.6481,0,30Z"/>
    <polygon class="cls-1" points="2614.0162 1006.0207 2611.9904 1016.0139 2589.9138 1010.7435 2589.9895 1004.0084 2614.0162 1006.0207"/>
    <path class="cls-1" d="M1786,1148c2.9446.3318,4.7407,7.159,5.4259,9.576,2.359,8.3202,3.2941,15.7366,2.5619,24.4315l-7.9878-.0075v-34Z"/>
    <path class="cls-1" d="M825.9892,1163.9903l-13.7734-6.9495,10.7935-17.0317c3.7692,7.3781,3.0956,15.9415,2.98,23.9812Z"/>
    <path class="cls-1" d="M1365.9895,1154.01l-.3153,24.6641c-13.6139,14.6079-8.7403-24.3891.3153-24.6641Z"/>
    <path class="cls-1" d="M2331.9999,1086.0195c-.7576,3.6412-3.9321,3.7141-6.9266,4.0536-8.5363.9677-25.6166,1.5408-31.0727-6.0531l37.9993,1.9995Z"/>
    <rect class="cls-1" x="1890" y="1160" width="36" height="4"/>
    <path class="cls-1" d="M2315.9899,1070.0106c.3605,4.961.511,3.441-2.9956,3.9443-5.5653.7988-11.4663.5829-16.9937,2.0252,3.8013-7.421,13.1382-6.0576,19.9894-5.9695Z"/>
    <path class="cls-1" d="M331.9863,1176.0068l.0244,5.9846-14.0004-.0019c-1.4868-6.7868,10.4395-3.5333,13.9759-5.9827Z"/>
    <path class="cls-1" d="M1385.99,1181.9895l-9.9797.0003c-.54-9.2928,4.8054-10.2861,9.971-2.9609l.0087,2.9605Z"/>
    <path class="cls-1" d="M3279,222h44l2.9921,4.9727c-.5922,2.5291-45.8114,16.6887-49.0563,16.2523-10.8296-1.4565-6.709-17.3223,2.0642-21.2249Z"/>
    <path class="cls-1" d="M3307.0006,108.0549c1.1308.0063,14.1925,15.4384,14.5312,17.1989.8471,4.4022-7.672,27.6007-12.7603,28.6491-17.3272-1.8663-12.0001-45.9049-1.771-45.8479Z"/>
    <path class="cls-1" d="M3338.022,207.9984c13.1962,3.91,19.6782,8.1095,23.0656,21.9889,2.9146,11.9423-9.5775,7.3996-16.1779,4.102-13.0254-6.5075-8.9695-13.8726-6.8878-26.0909Z"/>
    <path class="cls-1" d="M757.963,538.0119l11.6969,17.01-12.6315,13.0993c-18.7363-10.4429-18.1752-21.5029.9346-30.1093Z"/>
  </g>
  <polygon class="cls-1" points="816.3101 1006.5998 812.2157 1179.6625 908 1180 900 1027 816.3101 1006.5998"/>
  <path class="cls-1" d="M1313.1026,709.7021h-26.5472v284.3617l41.4447-2.0638,17.4262-8.2119s18.1921-23.5056,11.7957-41.7838-18.6262-51.3448-18.6262-51.3448l37.3768-38.7766-14.3668-116.3298,141.4021-23.5539-189.9053-2.2971Z"/>
  <polygon class="cls-1" points="1721.7268 1030.7217 1721.7268 1132.7754 1728.0851 1152 1743.0213 1167.9789 1743.0213 1177 1730.383 1182.5578 1590.2128 1182.5578 1546.9416 1180.3915 1584.9998 1044.0402 1609.9905 1009.988 1641.795 1003.441 1676.383 998.0327 1721.7268 1030.7217"/>
  <path class="cls-1" d="M1651.5054,706.7563l-70.2925,6.9622s19.3403,14.558,19.9147,14.941,3.0638,33.3191,3.0638,33.3191l15.3191,17.0426,20.2979-11.924,9.766-29.0547,8.8085-14.7447-6.8775-16.5416Z"/>
  <polygon class="cls-1" points="1890 1160 1890.04 1180 1930 1180 1927 1174 1926 1160 1890 1160"/>
  <polygon class="cls-1" points="2460 968 2460 1181.7744 2623.8723 1181.7744 2636 1148.3491 2618.1648 1125.8085 2636 1100 2611.9904 1016.0139 2614.0162 1006.0207 2597.0638 988.1327 2595.5319 957.9424 2560.0267 951.0932 2493.6596 951.0932 2460 968"/>
  <polygon class="cls-1" points="2456.5981 946.4032 2456.5981 619.1574 2508.0896 619.1574 2478.3404 750.0617 2482.3438 872.2766 2485.8955 932.04 2456.5981 946.4032"/>
  <path class="cls-1" d="M2014.8044,730.2486v429.7514l50.685-3.8164s19.0553-145.2945,14.5064-152.1753c-4.5489-6.8807-32.2448-270.3701-32.2448-270.3701l-32.9466-3.3897Z"/>
  <polygon class="cls-1" points="3373.4861 554.3397 3414 1182 3500 1182 3500 584.2766 3482.0001 601.7281 3448.0155 581.2128 3373.4861 554.3397"/>
  <polygon class="cls-1" points="3400.3617 1182 3395.766 928.5745 3436.7431 995.2128 3445.5865 1110.1847 3454.9362 1182 3400.3617 1182"/>
  <path class="cls-1" d="M3194.5106,716.0213l10.7234,41.9927s48.6997-20.6809,50.7754-20.9964,95.5225,0,95.5225,0l-7.5233-41.1947-46.0086,13.3047-61.9499-7.1277-41.5394,14.0213Z"/>
  <polygon class="cls-1" points="3188.043 542.9958 3194.5106 566.6596 3316.2979 554.8277 3330.0102 544.99 3344.0086 533.9909 3335.887 532.5429 3188.043 542.9958"/>
  <polygon class="cls-1" points="3279.0136 982.5745 3273.0213 997.9979 3281.8298 1008.0098 3344.0086 1006 3351.5319 985.8815 3279.0136 982.5745"/>
  <polygon class="cls-1" points="2885.8298 499.2553 2894 479.9951 2929.6792 482.9536 2958.1802 479.9951 3033.6596 499.2553 2992.2979 505.383 2916.4681 509.998 2885.8298 499.2553"/>
  <polygon class="cls-1" points="1250.2036 720.1503 1274.0744 730.2486 1271.8085 1092.8085 1262.139 1098.0426 1250.2036 849.8458 1259.8936 817.6437 1250.2036 762.0048 1250.2036 720.1503"/>
  <polygon class="cls-1" points="129.9937 888.1469 74.766 925.8936 59.4468 938.1076 38.766 933.6414 38.766 888.1469 16.5532 861.5544 0 849.8458 0 679.9666 86.2553 752.0504 156.7234 795.0814 139.1064 861.5544 164.1205 894.4764 129.9937 888.1469"/>
  <path class="cls-1" d="M1363.8723,514.3191l-59.7601,15.6687v40.5015l4.2918,35.7722-28.787,18.8661-24.5106-20.6809-6.383-16.9104-38.2979-31.8556-24.4423-8.6809,34.6551-69.1915s62.6426-29.065,65.917-27.8091,82.4234,40.3197,82.4234,40.3197l-5.1064,24Z"/>
  <polygon class="cls-1" points="103.5131 944 126.3404 936.617 128.8936 904 113.0638 889.6383 92.2451 913.9471 92.2451 937.7129 103.5131 944"/>
  <polygon class="cls-1" points="1987.9913 1144.0101 1987.9913 1181.7744 1941.6596 1181.7744 1941.6596 1124.0213 1959.5319 1094.6596 1983.5319 1121.9787 1987.9913 1144.0101"/>
  <polygon class="cls-1" points="1992.0132 1158.987 1982 1158.987 1982 1181.7744 2095.617 1181.7744 2096.2202 1146.4651 2084.6383 1131.4255 2039.1101 1158.1699 2016.4681 1160 1992.0132 1158.987"/>
  <polygon class="cls-1" points="1887.0657 1145.6869 1887.0657 1181.7744 1845.6596 1181.7744 1845.6596 1117.8936 1864.0426 1109.7234 1886 1145.2128 1887.0657 1145.6869"/>
  <polygon class="cls-1" points="3371.875 1015.0033 3217.9911 1010.0091 3214.234 1182 3373.4861 1182 3371.875 1015.0033"/>
  <polygon class="cls-1" points="3364.0103 773.9897 3403.1895 771.0553 3454.9362 1182 3333.7234 1182 3348.0851 876.2979 3351.5319 790.1277 3364.0103 773.9897"/>
  <path class="cls-1" d="M3344.0086,526.0106l32.0062-1.9855,18.3149,10.4642,5.0745,227.8723-15.6689,8.6936-47.7403-21.584s3.2815-107.3649,2.8985-109.6628c-.383-2.2979,5.115-42.1277,5.115-42.1277l-32.0086-51.7021,10.0426-8.9337,21.9661-11.0344Z"/>
  <polygon class="cls-1" points="1271.383 1039.4468 1277.481 1180 1234.0109 1180 1236.6545 1145.7489 1262.139 1138.2259 1254.0426 1131.4255 1255.7459 1117 1255.7459 1093.2999 1271.383 1039.4468"/>
  <polygon class="cls-1" points="1088 1152 1088 1179.6625 1132.9362 1179.6625 1134.0438 1131.0438 1114 1106.388 1088 1152"/>
  <polygon class="cls-1" points="1022 1125.9378 1022 1180.3915 971.3191 1180.3915 972.8511 1140.1596 1001.9574 1121.9787 1022 1125.9378"/>
  <polygon class="cls-1" points="972 1137.2979 971.3191 1163.9903 952.2979 1179.6625 978.0851 1180.3915 991.1064 1167.6809 982.4255 1140.1596 972 1137.2979"/>
  <polygon class="cls-1" points="636 1158 632.5745 1174 625.1064 1183.1382 691.7447 1183.1382 691.7447 1158 664.7447 1116.4255 636 1158"/>
  <polygon class="cls-1" points="562 1162 568.8085 1174 579.1489 1183.1382 386.1335 1183.1382 386.1335 1140.0091 422.3191 1160.0109 444.1489 1172 482.6412 1172 509.0638 1160.0109 545.8298 1157.9682 562 1162"/>
  <polygon class="cls-1" points="886.0182 552.0071 1250.2036 597.9992 1243.0852 524.0093 1051.2192 492.9941 941.0638 488.5319 886.0182 552.0071"/>
  <polygon class="cls-1" points="2075.8419 534.8419 2187.6602 522.8714 2160.01 491.5957 2079.9957 487.766 2050.5532 519.9999 2075.8419 534.8419"/>
  <path class="cls-1" d="M1290.1012,994.0638l8.9549,22.2128,2.9573,90.7451-39.8744,18.9161s.139-129.5761,0-131.874-.4368-144.218-.4368-144.218v-106.2395l12.3722-13.3577,12.4809-20.5464,30.1578,121.2979-26.6119,163.0638Z"/>
  <polygon class="cls-1" points="1240 980 1236.7613 745.6179 1283.4468 802.2619 1274.0744 868.9964 1240 980"/>
  <path class="cls-1" d="M1240,1046l-5.9891,134,38.8967-25.99s-2.6042-57.7802-3.7878-59.7462-29.1197-48.2639-29.1197-48.2639Z"/>
  <path class="cls-1" d="M1362,960l-9.0426-8.8298,4.2645-9.1659,57.3951,13.9957,23.5532-4.0638s23.5532,6,24.1277,6.0638,34.2766-6.9978,34.2766-6.9978l11.4255,4.9978v4l-.8412,5.8209-34.9035,2.2003-23.7447-5.9362-11.6809-2.0851-11.6809,2.6596-7.7881,3.6334-55.3609-6.293Z"/>
  <rect class="cls-2" y="1182" width="3500" height="177.4255"/>
  <path class="cls-2" d="M326.5106,1196.5319c-.766,0-15.5745-15.5745-15.5745-15.5745l15.5745-28.5957,22.7234,30.7765-8.4255,16.9681-14.2979-3.5745Z"/>
  <path class="cls-2" d="M1401.7872,1190.9149s-8.0426-38.8638-9.1915-39.7298-31.9741-8.1599-31.9741-8.1599l-11.508,26.806,2.1204,24.5305,38.2979,3.0638,12.2553-6.5106Z"/>
  <polygon class="cls-2" points="2316.1681 1115.8511 2294.0006 1098.0426 2282.2553 1066.4338 2296.0005 1039.4468 2325.9149 1063 2334.3404 1094.2639 2326.6809 1115.8511 2316.1681 1115.8511"/>
  <path class="cls-2" d="M751.617,1062.7447s-27.3191-3.7396-28.3404-4.04-25.7872,11.6996-25.7872,11.6996c0,0,3.12,30.1277,4.3685,32.4255s26.2698,50.0426,27.5464,50.5532,25.2766,18.0851,28.8511,18.617,23.7447,2.5348,29.1064-2.1688,14.9787-19.0547,14.6383-20.0493,2.9787-15.5791,2.4681-17.8613-5.0113-26.0469-4.2929-28.0795-8.2178-16.8411-11.5369-16.8411-18.0841-9.9574-19.6378-10.2128-17.3835-14.0426-17.3835-14.0426Z"/>
  <path class="cls-2" d="M1304.8936,529.9879s.1915-8.5198-15.5106-.0943-23.9362,7.0851-29.6809,25.4681c-5.7447,18.383,5.9238,18.4693-13.5957,24.1277s-34.1064,17.617-34.1064,17.617l28.1702,13.2128,10.0334-3.6383s3.1794-12.5957,9.6901-15.6809,13.0431-2.1277,14.2769-10.3617-9.8508-15.1277,0-24.3191,30.7232-9,30.7232-9l6.5105-12.6383-6.5106-4.693Z"/>
  <path class="cls-2" d="M1339.0392,586.4535l-1.7201-18.2073s5.617-14.3526-6.8936-3.8845c-12.5106,10.4681-29.617,23.7021-33.4468,25.6383s-16.3404,13.1702-16.3404,13.1702l17.1064,21.9574s17.617-27.5745,28.0851-22.2128,32.6809-12.9149,32.6809-12.9149l-19.4714-3.5465Z"/>
  <polygon class="cls-2" points="1304.8937 547.3191 1280.6383 603.1702 1314.5957 583.2553 1329.1489 568.2462 1304.8937 547.3191"/>
  <polygon class="cls-2" points="122.5106 519.4255 122.5106 624.3617 145.4697 626.6494 141.9149 512.5319 122.5106 519.4255"/>
  <path class="cls-2" d="M146.766,618.4894s17.092-1.7872,17.3545-3.3191,25.0285,3.3191,25.0285,3.3191l82.63,12.1029-38.7173,1.5797-63.317-5.5225-27.5662-.328-1.2848-15.4917,5.8723,7.6596Z"/>
  <polygon class="cls-2" points="219.9797 371.99 219 377.9787 219 389.7234 198.3404 392.7872 218.0203 362.01 219.9797 362.01 219.9797 371.99"/>
  <path class="cls-2" d="M2625.4043,417.8723c.5745,4.0213,2.8723,131.7289,2.8723,131.7289h30.4468l-6.8936-131.7289h-26.4255Z"/>
  <polygon class="cls-2" points="2658.7234 434.6817 2666.1915 549.6012 2676.5319 549.6012 2658.7234 434.6817"/>
  <path class="cls-2" d="M2883.1233,351.5676s-16.953-36.908,10.8767-47.6314c27.8298-10.7234,47.7447-5.3617,65.7447,8.4255,18,13.7872,40.9787,51.6295,40.9787,51.6295l-46.7184-21.9827,4.1752,6.4487-75.0569,3.1104Z"/>
  <polygon class="cls-2" points="3446.0006 286.3191 3473.0003 251.8511 3500 247.2553 3500 278.8511 3446.0006 286.3191"/>
  <path class="cls-2" d="M3390.9229,532.5429l35.0552,16.4788,24.6176.5796s.2553-8.8401,0-8.5292-33.1115-6.5592-33.1115-6.5592l-22.2444-4.0895-4.3169,2.1196Z"/>
  <path class="cls-2" d="M3120.0719,462.8638s14.4371,27.3266,15.9282,27.1557,54.1701-.0195,54.1701-.0195l-18.9351-16.2044-51.1632-10.9318Z"/>
  <polygon class="cls-2" points="1888.2558 1043.2566 1888.2558 1183.8298 1933.7447 1183.8298 1933.7447 1156.6 1888.2558 1043.2566"/>
  <polygon class="cls-2" points="2460 1069.8574 2460 1181.7744 2412.825 1185.3617 2392.7447 1153.766 2398.4894 1103.4075 2422.617 1072.9187 2460 1069.8574"/>
  <polygon class="cls-2" points="588.7671 633.4587 626.8114 610.3191 654.0528 606.8852 647.7021 648.617 604.0426 664.3191 572.6383 654.7447 588.7671 633.4587"/>
  <polygon class="cls-2" points="690.9787 593.8511 667.617 613.9989 669.3076 650.8719 699.7872 635.6022 725.8408 650.3932 752.2869 625.1277 734.6383 610.3191 724.6809 591 717.4111 605.7234 690.9787 593.8511"/>
  <polygon class="cls-2" points="765.0329 603.3501 761.8154 619.7836 794 623.3404 806 614.2483 827.7268 599.3551 881.3191 597.9992 879.4043 577.766 834.5957 562.4468 779.8298 585.8085 765.0329 603.3501"/>
  <polygon class="cls-2" points="1669.3748 522.7554 1638.6596 538.7021 1625.1771 536.045 1647.276 552.8723 1671.4043 541.766 1669.3748 522.7554"/>
</svg>