<?xml version="1.0" encoding="UTF-8"?>
<svg id="Layer_8" data-name="Layer 8" xmlns="http://www.w3.org/2000/svg" viewBox="0 0 3500.0883 2253.9943">
  <defs>
    <style>
      .cls-1 {
        fill: #fff;
      }

      .cls-2 {
        fill: #c31b1c;
      }
    </style>
  </defs>
  <rect class="cls-2" x=".08" width="3500.0083" height="2253.9943"/>
  <polygon points="1405.332 539.8734 1572.1148 522.0277 1683.7138 539.5864 1776.8382 503.8416 3000.8879 382.3985 3048.5905 456.9931 3000.8879 539.5864 2941.2383 574.1767 1373.8839 753.8094 1373.8839 620.1145 1405.332 539.8734"/>
  <g>
    <path class="cls-1" d="M424.148,2253.9943c.6039-128.3135-.7667-256.703-.0914-385.0378.2866-54.4657,8.7409-114.2075-2.7802-167.9092,0-.0001-19.6826-96.7128-124.0425-262.1719-16.976-26.9149-19.8886-21.6678-31.5578-42.9245-3.0264-5.5129-7.3027-12.9673-15.6795-17.0227-7.1026-3.4385-14.2176.6636-22.4111-.5479-13.267-1.9617-26.4869-20.7966-27.9452-33.4725-4.8669-42.3028,19.932-104.5682-51.7989-89.2684,9.3656,21.4873,35.3077,16.7602,39.8218,43.6381,5.6743,33.7863-17.4713,29.0018-35.8705,41.9121-5.6987,3.9987-31.0142,36.4321-34.669,17.1634l.0165-114.2522-38.3725-3.8548c-.4636-2.7038,3.3992-2.789,5.3214-3.258,37.1991-9.0761,61.8982,4.7821,95.4273,7.0823,11.7168.8038,20.4435-2.7217,31.5599-2.9103l138.236,125.8259v-161.2743l9.5764.0178c7.762,54.2409,6.5542,109.3982,9.6367,164.1119l9.5914,52.8109c2.9238.4752,2.2726-3.5829,2.8228-5.7609,5.9334-23.4882,15.0825-58.7977,17.7744-82.0733,1.6374-14.158-1.8968-27.3903,4.3471-40.7874l38.4396,69.0909,26.727-7.6587,1.9636,7.6733c-35.2501-1.3633-29.0789,45.5363,5.7658,38.4085v42.2385h7.6754v-45.1184c0-.4716,1.881-9.1932,3.8136-8.6254-.5108,4.8377,9.6184,17.8602,9.6184,20.145v33.5988l7.6669.0088,5.755-261.1293h9.6146l1.8662,131.5676c-.3301,7.1413,6.1948,10.3732,8.6824,16.2735,9.7566,23.1419-8.4387,28.9253-6.8041,47.047.8254,9.1507,6.3253,14.5947,13.5162,19.2532l-13.3957,13.3816,14.9576,11.8744,4.2127,63.9613,24.9122-15.3556c-.0277,8.6775,6.8844,18.1364,7.6168,26.1519.533,5.8332-1.979,11.0349-2.0126,17.0308-.0991,17.677,10.7733,18.4577,25.7748,18.5479l3.1742,2.5838v39.3586h7.6754v-80.6371h-9.5943v-55.678l5.7778,7.6685c2.797.3482,3.4446-5.029,3.6402-6.8784,2.5911-24.5041-.6535-50.5355.098-74.7869.2829-9.1311,1.608-32.1204,4.4998-39.6551,9.1493-23.839,41.4117-13.6059,45.0122-33.6674,1.5108-8.4179,2.059-26.4046,2.4547-35.955,1.3119-31.6594-2.9839-63.8413,2.8027-95.104l4.1282-3.4673,6.4219,1.5356v244.7913c0,.578,5.8834,8.0151,7.6754,8.6397v-54.7181l3.8445-1.9455,17.5165,69.8522,24.695,2.1619-5.7478-38.3821c10.9047,1.618,16.0571,4.8032,17.3095,16.2686,3.0482,27.9032-3.5233,59.7042,1.8334,87.9755l15.3655,9.0242c-.8668-6.256,1.6438-12.0716,2.0173-18.1595.6826-11.1259-2.4019-54.1056,1.7011-59.7359,6.1941-8.4998,18.237-5.8922,11.1271-24.3112-4.7434-12.2884-15.5941-18.9347-10.9697-36.0279l9.5521,9.5946,17.3797-47.9403,9.1749,2.2221,4.1508,14.9942,5.766-111.3573,11.3229.2213,4.1172,39.069c2.7496,94.7159-3.9507,191.7231-.0788,286.1687.0957,2.3353-1.4488,7.1399,1.8991,6.6904.4904-39.3443-.5566-78.7822-.0596-118.1453.0573-4.5375,2.0088-8.7418,2.0771-13.2812.5881-39.0522,1.1621-78.3101,1.9189-117.1159,1.2293-63.0358-.1387-126.3725,3.7663-189.2012l9.5866,2.8886v377.2666l5.8992-1.1896c4.9198-9.6796,8.3144-22.9629,17.1271-29.5293v49.9182c1.2458.1452,3.8377-2.5454,3.8377-2.8799v-107.5162l6.7446-.9882c1.2629,4.1805,1.5399,8.5745,2.5813,12.8089.6554,2.6646-1.1863,5.3267,3.1188,4.4808l21.2438-46.0218c8.3009,1.1377,18.1207,14.4475,18.1207,22.0406v28.799c0,.2792,2.3174,5.0525,2.869,4.7907l4.8543-11.4995,5.7087-.0109v147.8347c-37.6654-2.2139-35.8573,44.1791,1.9021,40.336l.0281,23.0317c-38.7333-5.3278-39.1621,45.5222-.0113,38.3887v42.2385l9.5943-2.8799v-123.8356l11.5132,1.9199v124.7956h7.6754v-143.9949c0-.6064-6.1304,3.4059-7.483-6.8607-2.9477-22.3743,1.0736-46.6826,1.8057-68.8973,2.5571-77.6008,7.2754-154.9155,9.436-232.4702.1266-4.5429,1.9547-8.7388,2.0771-13.2811,1.3087-48.5699-3.5421-97.7276,3.5627-145.8265l7.8713-1.1275v156.4745c0,13.3292,10.3981,25.4364,12.9748,35.0302,3.4901,12.9944-15.9266,51.3233-13.0551,68.5658l.0995,212.2323,74.4253-83.9077c.617-61.401-1.8357-122.94,10.5905-183.3169l5.1514-18.8446v184.3135l20.0542-23.1331c5.4574-22.8835,2.0322-46.7133,2.893-70.0627,1.5699-42.5847,4.0843-85.8984,5.9149-128.4771,2.41-56.0569,5.0445-112.0619,7.6048-168.082l7.6669.0088v332.1482c7.413,1.9654,7.8807-7.3208,11.1447-12.8533,10.0624-17.0556,27.6231-66.3459,25.2111-85.9219-.4958-4.024-3.6652-6.2299-3.3563-11.0913,1.1639-18.3163,17.3314-69.9176,23.6134-89.7999,15.6775-49.6191,41.6629-94.0984,65.2921-140.1042l.9117-23.0894c8.6669-2.0262,5.1926,5.1687,9.5598,7.6576,2.4044-4.9689,11.8363-23.7557,15.3849-25.895,4.3746-2.6374,13.8917-.1768,19.1698-.9589l-36.4487,60.4677v119.9958h-7.6754v-101.7564c-2.8981.4316-3.5866,3.6214-4.839,5.7183-9.7045,16.2489-21.8051,41.3337-29.4269,58.873-1.6122,3.7099-7.5509,16.6662-7.5879,19.3078-.0552,3.9479,6.8218,6.8357,7.2355,13.1421l-14.5054,78.7174,6.9111,9.4613c-13.0625,6.1614-15.6371,25.3636-17.0631,38.6914-.217,2.0286-1.4369,5.0703,1.6851,4.5458l14.4256-19.1749,1.8999,7.6606c17.7428-16.4432,32.6343-37.4677,38.505-61.3098,1.7862-7.2539,3.5337-37.6116,5.495-40.5745,1.9742-2.9822,7.6736-.7762,10.2736-2.2197,23.6899-34.4685,50.5037-66.7589,74.903-100.7152,14.7701-20.5554,27.3064-52.4002,51.6396-61.6075,6.9354-2.6242,26.5141-8.2825,30.9097-1.0779,1.876,3.0748,5.6688,18.9119,5.6743,22.7199.0346,24.3278-20.3628,29.087-29.4494,45.0144-5.0949,8.9305-7.258,21.0551-10.4699,30.8209-28.8274-10.9289-11.3038-41.1688-15.7481-60.065-.8777-3.7318-7.6398-11.7569-10.1909-7.1866-2.3591,48.293-22.5285,90.0409-49.9988,128.5284-11.8524,16.6059-36.9031,41.9108-42.1138,61.539-4.8102,18.1197-3.3041,42.6988-7.5786,61.5349l-3.3453-.5253-9.1354-22.5321c-1.1653,10.3146-10.2638,21.4528-12.5277,30.6968-1.8786,7.6708-1.5183,19.3132-3.7887,28.825-2.9989,12.5639-13.6483,39.6118-14.3358,49.1577-.4531,6.2915,3.2631,11.4415,3.3895,17.0275.7113,31.431-30.7023,74.9401-35.6315,104.1638-3.0492,18.0776,2.8617,41.3613,1.5451,61.0636-1.7879,26.7562-10.5961,45.7067-25.1313,67.0113l.1075,569.3674H424.148ZM385.7708,1426.5037l-23.1058-.8803c-9.587-23.5779-26.3814-43.6522-42.1826-63.3901-13.504-16.8683-30.285-37.3879-45.9783-51.9125-4.9766-4.606-35.3133-29.6534-39.0443-29.3128-1.8397.168-6.2955,2.502-6.5725,4.3138,3.3858,9.1209,6.2551,18.6053,10.6941,27.3023,5.3983,10.5762,26.7634,41.835,34.8928,49.5647,4.6285,4.4009,11.8982,6.8599,17.2945,11.4948,13.5257,11.6174,26.5732,28.7574,33.4868,45.2117,2.5183,5.9935,6.6734,25.2929,7.7152,26.84,2.0685,3.0716,11.8029,3.2521,15.0396,5.5864,2.4947,1.7991,2.2357,5.5923,4.2056,7.7568,4.91,5.3951,16.9851,6.3109,23.9606,5.824v40.3186h9.5943v-78.7172ZM406.8782,1426.5037h-9.5943v78.7172h9.5943v-78.7172ZM631.3848,1493.7013h-9.5943v77.7572l3.1333,2.6253,6.461.2546v-80.6371ZM575.7379,1583.9381c-18.3059.1711-37.2023-4.1366-36.5829,20.193.4665,18.3214,11.0921,18.7259,26.9983,18.1962l.2616,39.0966,9.323,3.1514v-80.6371ZM596.8454,1583.9381h-9.5943v80.6371l6.461-.2546,3.1333-2.6253v-77.7572ZM700.4638,1797.0505c-41.2074-9.1008-54.674,40.4269-9.5943,40.3186v40.3186h9.5943v-80.6371ZM721.5712,1877.6877v-77.7572c0-3.615-9.5943-3.615-9.5943,0v77.7572h9.5943Z"/>
    <path class="cls-1" d="M1751.9989,2253.9943l.0914-544.3922c-4.2253-78.0809-10.3118-155.7621-30.8059-231.2514l6.5362.022c4.6162-6.7824-6.0603-9.1488-9.3633-13.5088-5.5468-7.3219-7.5258-32.5891-10.3423-43.41-3.2137-12.3471-12.2091-33.5472-13.3435-44.4213-.5413-5.189,2.2166-8.8617,1.2329-14.3452-2.4293-13.5416-14.1293-32.1879-16.939-46.5627l34.5463,23.9725-.0691-137.3447c2.2994-57.9274,3.448-116.6132,5.9149-174.5554.2995-7.0356-2.2346-40.2516,2.828-41.3476l4.7683,2.8698v338.868c0,1.1751-14.5781-.6222-9.1781,17.8395,2.039,6.9711,10.6754,8.0212,16.8536,7.1196v26.879l5.7483.0104.14-50.797-6.0201-2.1031.3947-122.521c1.2429-3.6645,9.861-4.2403,14.1525-6.9588,15.8555-10.0439,18.9445-46.6452,20.2041-64.2616.6165-8.6215-4.5779-33.6034,7.6084-28.8706,3.5603,30.4493,1.9611,61.9318,5.7588,92.1634.4391,3.4956-.7399,3.1284,3.8225,2.8647v-73.9174c0-1.8769,5.1548-14.896,7.1235-16.4179,7.8909-6.1002,25.4937-6.6818,35.0914-9.5011v-134.3952c5.7918-.5827,10.02-.0923,9.6868,6.6272-5.2714,53.9613,6.6949,120.5438-.0032,172.9756-1.4139,11.0681-12.4022,16.5049.1057,31.43l13.237-1.7603v26.879h5.7566v-49.9182c1.6809-.616,7.6754,15.3596,7.6754,16.3194v33.5988h5.7566v-52.7981c0-1.0607-3.4765-3.5794-1.0752-6.7986l8.744-1.8533c.8988.9239,1.0797,22.0334,2.2302,25.6898.7305,2.3217,4.3406,2.5232,6.0536,5.5515,5.1539,9.1107,7.0661,29.1806,10.933,39.7968l3.9078-13.3286,13.3506-.1092c2.5014,2.4938-5.4037,29.1056,5.7464,28.8089v-53.7581l-17.2725-.0089c4.0122-13.1498,2.9459-69.0262,11.6112-75.7346,5.449-3.3625,11.1857-2.94,16.3589.7582-3.2096,15.922-2.6468,25.1313,16.1786,23.1379,2.4635,2.339-5.3723,29.1638,5.7444,28.8082v-53.7581l-17.2786.0091,5.7842-63.3667,7.68,15.3546c5.5985-2.0181,4.4622-12.0886,11.4899-11.5149v112.316c0,.5584,4.7406,8.7026,5.8367,9.5195,3.8104,2.8399,9.8637,1.6298,14.4543,6.6569,10.1741,11.1416,1.5935,43.675,2.6762,58.7771.4139,5.7735,3.9353,13.5585,3.7267,17.2996-.1629,2.9227-4.3676,7.2769-5.6888,11.3214-7.6166,23.3179-12.0429,41.2425.1014,64.4006-28.1455-6.2596-32.5336,28.4326-3.8369,24.9781v28.799h5.7566v-42.2385l1.898.0116c-.7352,2.3792,1.9398,5.5554,1.9398,6.7081v91.1968l20.6446-18.4612-5.2742-29.5369c5.9571,4.9114,11.2696,6.7842,19.1691,5.7596v26.879h5.7566v-51.8382l-15.9979.0793c-15.3727-45.228-10.0241-93.8699-10.8824-141.2105,9.2291-10.2048,24.9845-26.7717,28.8272-2.8659l16.8798-10.9195,4.1965-278.0313c.586-6.2207,6.7301-4.856,11.5163-4.7966v288.9497c0,13.7336,19.0896-10.5301,24.9452-8.6397v130.5554c9.2274-4.6856,13.4628-19.9616,24.9347-15.3673l.0282-53.7614c-1.1943-1.1174-9.1164,2.527-7.6666-2.8088l15.3055-58.617c-6.6109,2.2776-11.6407,8.8724-19.16,7.6697l17.6819-63.8862,7.2534-3.3022v85.437c0,1.1944,2.2703,14.7303,2.7722,16.4257,1.212,4.0939,7.0777,7.9589,6.8452,13.3287l11.367-18.3579,9.7337-320.4887,2.0057-10.4758,7.7012.7346,1.9115,326.2985c-23.0371,4.0247-19.3265,28.7764,3.7162,28.0536v26.879h5.7566v-48.9583c0-.52,2.2361-1.9204,2.888-2.8742l1.2453,3.378,3.5421-1.4638v49.9182h5.7566v-52.7981c0-.6372-2.2847-1.5654-.2588-3.8768,8.7563-7.7811,28.0435-22.2333,33.6918-31.789,7.3289-12.3987,7.4274-40.5001,13.5637-49.8056,2.0898-3.1692,8.4901-.4386,8.662,1.1676-9.4507,42.4744-23.6542,84.4394-32.0601,127.1149-24.5297,124.5328-36.209,258.7662-38.8704,385.4128-3.7339,177.6864-.7083,356.0862,3.8377,533.5827.467,18.2322-.5064,36.5796-.0791,54.7972h-427.9057ZM1826.8344,1445.703v-53.7581l-13.4348-.0089c4.1502-32.0969.0497-64.7328,3.835-96.9836.4158-3.5424-.5857-3.0825,3.8432-2.8439v26.879h5.7566v-53.7581l-9.6055.0098,3.3916-131.0743c-2.1296-11.9339-11.3556-17.2414-20.3904-7.8716-.0101,12.6629-.918,25.5681-.3388,38.2187,1.1336,24.758,6.4945,49.9847,5.9071,74.8854-.5169,21.9137-6.7176,46.4548-7.826,68.9514-1.2913,26.2077.9453,53.3194.2856,79.5537l11.3084,2.1407c.8917,5.4661-3.711,3.1924-5.9881,8.4206-5.438,12.4859,4.7967,21.7618,17.5097,18.4307,2.4889,2.4392-5.3919,29.1261,5.7463,28.8084ZM1934.2905,1173.0727h-5.7566v50.8782l2.9069,2.8607,2.8497.0192v-53.7581ZM1765.4309,1232.5905c-17.1353-1.9042-31.0571,3.4827-22.5852,22.6007l16.8287,4.2784v26.879h5.7566v-53.7581ZM1778.8629,1232.5905h-5.7566v53.7581h5.7566v-53.7581ZM1897.8322,1232.5905c-27.5546-5.3161-35.5544,25.3915-5.7566,26.879v26.879h5.7566v-53.7581ZM1911.2642,1232.5905c-3.6913-.5605-5.1413,1.4948-5.7451,4.8113-.8612,4.7304-.8048,42.176.3198,45.7354.8063,2.552,2.7913,3.7035,5.4254,3.2114v-53.7581ZM2126.1765,1263.3095l-2.8497.0192-2.9069,2.8607v50.8782h5.7566v-53.7581ZM1840.2664,1265.2294l-2.8497.0192-2.9069,2.8607v50.8782h5.7566v-53.7581ZM1755.8366,1328.5871h-5.7566v51.8382h5.7566v-51.8382ZM2041.7467,1359.306h-5.7566v51.8382h5.7566v-51.8382ZM1840.2664,1391.9449c-3.6913-.5605-5.1413,1.4948-5.7451,4.8113-.8612,4.7304-.8048,42.176.3198,45.7354.8063,2.552,2.7913,3.7035,5.4254,3.2114v-53.7581ZM1828.7532,1464.9023c-28.9251-7.3273-34.1111,25.0137-5.7566,24.9591v26.879h5.7566v-51.8382ZM1842.1853,1464.9023h-3.8377v51.8382h3.8377v-51.8382Z"/>
    <path class="cls-1" d="M2674.9704,2253.9943l.0791-438.7836c-6.8809-109.5594-1.5728-222.5554-13.7837-331.7964-11.7183-104.8344-35.8244-209.2796-61.294-311.3261.0746-15.4674,17.0474-19.4562,13.6058-35.5046l7.6559.0017c2.0261,1.9328-4.1726,21.0655,3.8466,19.208v-38.3986h-9.5943v-272.6303l9.6046-.0098,5.7564,113.2762,23.9461-17.2604c3.0299,1.8042,2.4285,3.9581,2.9109,6.7074,1.8238,10.3944,6.2209,44.8411-4.8096,48.954-1.9657-2.6634.3738-4.8577-4.7775-3.8425.4624,4.9167-.6104,8.7048-4.8365,11.5101-5.4926,2.1509-1.6432-10.3247-2.842-11.5094-20.8668-4.4344-25.3877,20.7578-3.8419,19.2099l.0071,21.1079c2.3696,3.119,3.4741-.0369,3.8316-2.8359.4664-3.6526-.712-19.4764.0058-20.1855,11.7858-1.529,6.6691,12.3064,7.6596,20.188.3537,2.8149,1.4818,5.9284,3.8338,2.8334l.0293-19.1889c3.2944.563,14.2213,9.6377,16.3395,5.8105,3.7355-6.7494,1.8788-23.6233,5.1911-31.2874,1.1532-2.6685,2.2141-3.8923,5.2942-3.3137l9.6236,69.1135c-20.8299-4.9026-25.4555,19.5718-3.9305,19.2733.8588.8629-.3722,14.658.08,18.1952.4476,3.5014-.6544,3.1008,3.8412,2.8451v-30.7189c2.2293-.7757,7.6754.8478,7.6754,2.8799v27.839c3.5087-.7117,3.5823-3.7667,3.908-6.6495.7579-6.7078.9214-24.3991.0828-30.9222-.4928-3.8336-4.2238-1.9153-4.1495-5.4922.4477-21.5377,1.7681-43.586,1.9994-65.4921.1211-11.4656,5.8699-22.8526-4.6522-33.5861l-16.3655-7.5911c6.2008-.7452,15.5676-3.3871,20.1752-7.6625,2.1216-1.9686,8.5961-14.4032,8.5961-16.3582v-99.8365c0-3.8129,11.5132-3.8101,11.5132,0v169.914c2.7907.4372,2.6035-3.315,3.2647-5.3529,4.2529-13.1082,6.128-27.5063,10.1942-40.7201,3.41-3.304,6.4498,7.3404,7.1708,9.1067,11.0036,26.9565,4.9098,38.5506-16.7915,56.1465,31.4363,1.3766,24.0978,43.9637,25.0304,66.3342.3589,8.6088,1.5314,15.6273,1.847,22.9502.888,20.602-2.4598,40.7182,5.7667,60.4753,3.4236.4437,1.8682-4.3144,1.6679-6.4631-.877-9.4083-7.3989-53.691-1.7112-57.8604,2.4076-1.7649,3.1266-1.0257,4.8758.9208,3.5175,4.7508-3.4648,20.2776,4.7379,19.2584v-37.4387l-9.7047-3.956,7.8043-96.8398,11.4894,1.9281c.6712.6311-.4324,14.8631.0016,18.2653.4468,3.5027-.652,3.1004,3.8415,2.8452v-40.3186l-13.4394-.0007c-.8875-22.6152,23.142-35.2418,26.3686-57.1404,2.0943-14.2143-1.7681-94.1287,2.4501-98.3451l9.3612.1838c.0717,24.0145,22.5618,45.6235,18.9249,69.4043-1.6085,10.5177-9.8557,18.212-11.0495,29.2554-5.3106,49.1267,5.8298,109.8155,3.9216,161.3582-1.1127,30.055-9.6703,69.2008-7.8151,97.9156.6827,10.5669,5.4031,21.8542,7.5752,32.2498l15.3155,5.3006c2.4945,2.8959-4.1428,20.5967,4.0339,19.0094v-38.3986l-7.69-.0072c-2.4853-2.493,10.972-22.7968,12.9867-28.2918,17-46.3658.1346-144.5732,4.2293-199.2813.474-6.3325,2.4821-12.093,3.93-18.1566,2.8867-.1072,3.2749,6.7123,3.5839,8.854,10.0736,69.8253-.9791,143.582,6.2566,213.5709l9.4054,1.3759c7.8569-19.4703,4.6927-39.5973,5.5959-59.74,4.0297-89.8635,2.2925-181.059,7.6749-270.7117.1832-3.0514,1.5669-19.0851,2.1627-19.8884,1.0797-1.4558,7.5113-2.2109,7.5113.7696v361.9072l15.3509-9.5997v38.3986c10.1335-5.9026,24.7399-16.5525,24.1636-29.7755-.0998-2.2896-2.7726-4.8802-2.9484-7.7585-.4077-6.6763.024-13.3953-.0977-20.0543,2.6304-.5268,4.6146.6711,5.4153,3.2018,1.7448,5.515-3.2625,19.0449,4.1689,17.9078v-40.3186l-9.6055.0098,4.7273-186.3241,4.8782-5.6789v133.4353c0,1.5588,7.182,14.0286,8.6716,14.3947,11.6156-4.5289,11.8425-22.3121,12.5156-33.5142,3.0758-51.1912,2.3171-105.8224,3.8371-157.435.6293-21.3699-2.2354-91.4294,4.7266-106.6265,1.0373-2.2642,1.9499-5.2958,4.7885-5.7687v231.3518c0,8.0543,7.982,23.7197,7.803,30.7848-.1427,5.6306-6.2813,10.8399-7.8009,16.233,8.7488,1.4287,17.2895,3.8608,25.9671,5.7469,2.6544.5769,5.5649-1.6707,4.716,2.887-5.6828,6.525-29.296,11.8041-30.6932,19.2178.1008,17.5751-.0415,36.4091,1.8604,53.8338.6199,5.679,4.1914,9.0617,4.0221,15.2153-.4598,16.7141-11.5605,42.02-15.2902,57.8532-15.8085,67.1099-12.3082,151.7152-25.1047,220.6326l-.0193,824.5915h-259.0461ZM2782.4265,959.9602v37.4387l2.8783,2.8415,2.8783-2.8415v-34.5588l-5.7566-2.8799ZM2772.8322,1115.4747v-40.3186c-1.2456-.1453-3.8377,2.5453-3.8377,2.8799v37.4387h3.8377ZM2636.5932,1117.3946h-3.8377v38.3986h3.8377v-38.3986ZM2943.6107,1163.473v-40.3186c-1.2456-.1453-3.8377,2.5453-3.8377,2.8799v37.4387h3.8377ZM2755.5618,1171.1717c-1.9724-1.8626-14.4649,7.8284-6.7157,11.4618l6.7157-11.4618ZM2841.9111,1180.7524h-3.8377v38.3986h3.8377v-38.3986ZM2728.6984,1232.5905v-37.4387c0-12.848-41.5684,12.3939-5.7537,16.3209l.0053,21.1282,5.7483-.0104ZM2738.2927,1192.272h-3.8377v40.3186h3.8377v-40.3186Z"/>
    <path class="cls-1" d="M.08,1320.9074c3.7933-.0648,5.3883-2.3356,7.6498-4.8217,14.61-16.0608,28.4102-32.9811,43.1999-48.8977l6.7394,28.7581,40.2727-19.1971v60.4779c0,13.8776-5.765,25.2552-14.3674,35.5427-3.988,4.7693-14.1444,17.7466-19.3345,9.5764l6.819-26.879c-3.5557,3.2993-11.6913,6.4101-14.4421,9.5294-4.2698,4.8419-2.6591,18.1625-5.7325,26.9031-6.8894,19.5926-28.5965,30.4486-44.1009,42.2713-3.1619.9927,6.1403-16.1293,6.8015-18.1537,1.4518-4.4451,5.6836-19.5541,5.6836-23.1122v-64.3177L.08,1343.9466v-23.0392Z"/>
    <path class="cls-1" d="M.08,944.6008c77.0673-6.4438,154.0209-18.1251,231.2431-23.0186,16.4875-1.0448,37.7286-2.9869,53.791-2.0269,2.1443.1282,10.5545,1.0257,10.4897,2.9663L.08,963.8001v-19.1993Z"/>
    <path class="cls-1" d="M.08,1238.3503v-36.4787c10.2128.3666,21.907-15.2577,29.2119-3.3051,13.0822,21.4059-5.9702,43.3694-29.2119,39.7838Z"/>
    <path class="cls-1" d="M.08,1138.5139v-42.2385c11.7239,2.1246,11.5299,40.4204,0,42.2385Z"/>
    <path class="cls-1" d="M3250.6282,731.4883l5.7493-.0148c3.9015,15.8859-2.5992,40.3629,10.5286,51.8854,3.2137,2.8207,7.2376,2.9886,10.3417,6.9319,3.197,4.0613,7.9199,21.7564,7.9199,26.6345v75.8373c5.8151-1.9934,1.8289-12.3009,9.5842-11.51l3.8394,78.7177-5.919-1.1513-20.0042-50.6799c-3.9095-1.0343-4.2701,8.4809-4.5461,10.7685-1.1473,9.5078-1.4282,19.9293-2.1521,29.5277l-6.75-1.8714c.3601-13.2394-2.9639-28.7091-3.0132-41.3218-.0714-18.2611,6.9895-36.3326-2.8134-54.6047-7.7119-14.3745-22.5912-10.8863-14.8897-32.4203,5.1731-14.4646,6.8157-.1647,12.1247,3.5079v-90.2368Z"/>
    <path class="cls-1" d="M3212.1618,838.9391c-19.9885-5.1958-55.6869-22.1527-59.2792-45.1708-1.3204-8.4608.4284-40.9897,7.628-45.893,14.1587-9.6429,42.5184,3.2714,48.3823,18.7904,2.7366,7.2427-3.4351,6.7616-5.3789,12.7044-6.7907,20.7615,20.1154,38.5876,8.6478,59.569ZM3184.9373,760.7416c-2.6244-2.6158-9.3684-2.3982-12.9817-2.355l9.6051,44.1462c5.0001.5548,3.0369-.0637,3.8804-2.8136,2.5757-8.3973,6.0271-32.4681-.5038-38.9776Z"/>
    <path class="cls-1" d="M541.1984,1019.4781v32.6388l9.5755-13.4394c.7608,6.9283,4.5534,30.7187-6.6972,30.7187h-73.8761v-35.5187c0-4.9158,10.4675-9.3785,14.8531-10.0977,17.2972-2.8367,38.3904-1.1761,56.1447-4.3018Z"/>
    <path class="cls-1" d="M2490.7592,913.8629c-2.2277,1.9919-21.4833-16.1775-22.7769-6.7603-.1366.9944,4.5175,16.5204,5.444,19.3225,11.4336,34.581,36.3531,65.2666,47.6001,98.2794,1.5591,4.5763,5.3703,14.1315-2.4669,13.8821-2.7756-.0883-23.8603-40.4049-29.721-46.9451-6.1095-6.8177-13.3953-9.9843-19.6272-18.7604-19.5494-27.5305-11.6336-47.5669-15.117-77.0311-.9216-7.7951-9.0862-20.8465-2.7769-26.2691,3.9661-3.4087,5.006-.7381,7.8332,2.0194,11.3312,11.0523,21.2448,29.8211,31.6087,42.2625Z"/>
    <path class="cls-1" d="M2389.0603,907.1621c-3.5686,31.643-26.6807,69.2386-47.0215,93.1071,2.2424-31.0214,24.8288-61.6465-4.7063-87.3452l47.8902-42.2591,3.8376,1.9384c-.8904,11.0772,1.221,23.732,0,34.5588Z"/>
    <path class="cls-1" d="M15.441,1140.426c.7755-20.7009-11.3207-51.077,15.3258-59.5349l-7.6765-1.9026.0194-7.662c27.5708,2.3,43.343-1.9054,43.5914,32.1989.2301,31.594-28.0053,29.6568-51.2601,36.9006Z"/>
    <path class="cls-1" d="M1682.9092,1180.7615l-8.6546,86.4208c-10.9717-3.1607-41.9201-23.2448-40.8163-35.2592,1.2698-13.8222,34.3269-16.4749,41.7674-27.1716-7.8046-9.2027-48.6512,4.6742-51.5489-4.0607l-.235-6.4914,59.4874-13.4378Z"/>
    <path class="cls-1" d="M2574.9043,939.1274l9.8601,164.8181-13.4533-23.9487c-17.3524-45.4873-5.6236-94.0726-3.7897-141.1675l7.3829.2981Z"/>
    <path class="cls-1" d="M99.8604,1065.5759l-13.42,9.5586,30.3746,6.1137c10.25,36.6711-8.2976,47.8601-41.9864,41.0283-8.5749-25.0897-9.3474-56.6466,25.0318-56.7007Z"/>
    <path class="cls-1" d="M238.0186,1098.1953c-.6811-11.5143-5.943-41.408,9.0289-45.6849,6.293-1.7977,29.9402-2.3151,35.0927,2.4992,9.2293,8.6236,3.6784,43.1857-12.4605,43.1857h-31.6612Z"/>
    <path class="cls-1" d="M291.7467,1058.8367c3.2702-15.3301,35.1006-12.5413,46.7393-10.6432,17.4236,43.1702-10.6293,42.9311-44.5136,43.9433-.2546-1.4089-2.2256-3.8004-2.2256-4.5011,0-7.6525-1.3603-22.4221,0-28.799Z"/>
    <path class="cls-1" d="M124.8059,1083.7958c3.4229-15.8597,37.7468-14.1886,49.6229-10.2863,5.8058,41.6936-12.646,48.7799-49.6229,40.0452,1.2519-8.7072-1.7273-21.7555,0-29.7589Z"/>
    <path class="cls-1" d="M182.3717,1067.4764l47.9629-5.7686c.5597,10.4273,3.5298,20.7848,1.4763,31.3277-2.4598,12.629-38.2495,16.4181-49.4391,18.5992v-44.1584Z"/>
    <path class="cls-1" d="M395.3651,1074.1962c-3.4329,16.114-33.2916,11.3423-44.8807,10.6801-3.4546-9.1199-7.344-27.5963-1.2742-35.7422,6.2949-8.448,46.1548-11.7145,46.1548-5.6568-1.2883,9.0115,1.7667,22.426,0,30.7189Z"/>
    <path class="cls-1" d="M405.1575,1076.871c-12.4154-38.6714,4.1652-46.9901,40.2139-45.0159,15.7477,37.8909-4.1287,49.1924-40.2139,45.0159Z"/>
    <path class="cls-1" d="M1903.5921,925.4207c.4975,5.1422.0174,3.084-2.8778,3.7843-32.0918,7.7624-69.8236,9.4997-102.6532,15.3856-1.5564-1.4503,6.6715-20.1716,8.7402-22.9138,13.6733-18.125,32.1078,3.2,48.3338-3.4766,2.6972-1.1099,5.206-5.3662,7.157-5.5835,6.8315-.7607,31.7311,13.4971,41.3,12.804Z"/>
    <path class="cls-1" d="M3108.6326,800.6059l-15.3385,6.7321,27.8044-43.1787c15.1604,10.5579,22.5006,19.4774,15.3291,38.3369-3.0288,7.9652-19.0379,41.9635-23.3985,47.5232-1.237,1.5771.0621,3.4967-4.3965,2.4248v-51.8382Z"/>
    <path class="cls-1" d="M1746.2423,844.7643v28.799l15.4265,2.8045,1.8356,8.705-61.4059-3.8198c.3924-6.4578-2.0678-30.1008,5.0628-32.393l39.081-4.0957Z"/>
    <polygon class="cls-1" points="1214.7182 952.2805 1214.6539 943.6565 1239.654 930.1921 1220.4658 927.3086 1220.4741 921.5937 1267.4593 911.9325 1260.7776 946.5076 1281.8886 946.529 1281.8782 952.2805 1214.7182 952.2805"/>
    <path class="cls-1" d="M665.9379,1038.6845c-1.0404-16.65-10.8845-30.1193,9.966-37.062,18.2618-6.0807,34.0081-4.8723,30.2013,18.7101-2.9958,18.5578-26.8257,13.7723-40.1673,18.3519Z"/>
    <path class="cls-1" d="M560.3686,1305.5512c-4.435,1.1015-3.1547-.897-4.3692-2.432-2.4046-3.0392-18.075-27.8143-18.241-29.5426l19.7504-40.9482c1.7481.0193,14.4458,27.9391,14.4721,31.6109.0749,10.4707-11.6391,29.3463-11.6122,41.3119Z"/>
    <path class="cls-1" d="M867.2256,975.4921c8.2047,18.8794-5.4226,24.6246-18.0522,34.3484l-2.8855-9.5708c-16.7858,6.5304-27.9684,21.488-42.1754.9688,16.4263-21.3845,21.6061-22.9823,42.1658-4.7996-2.007-12.9988,8.6776-21.5587,20.9473-20.9468Z"/>
    <path class="cls-1" d="M197.0712,1205.0591c-9.6451,9.8401-35.2196,9.375-37.479-6.5113-1.0672-7.5037,19.8617-25.7602,26.519-30.4827,12.9134,7.9386,24.2224,23.4634,10.96,36.994Z"/>
    <path class="cls-1" d="M587.2475,1015.6301c1.6028,14.7921,7.0359,29.6754-7.6413,39.367l5.7166,8.6199-23.0064,3.8501-1.8274-47.8946,26.7585-3.9424Z"/>
    <path class="cls-1" d="M792.5551,988.747c9.8012,34.1644-18.8389,33.2754-44.1297,32.6609l1.8137-26.0441,42.316-6.6168Z"/>
    <path class="cls-1" d="M2331.4844,935.0111c1.5494,30.3687-5.675,76.4925-40.2766,84.4568l35.9605-82.0135,4.3161-2.4433Z"/>
    <path class="cls-1" d="M40.6176,1198.2902c5.0155-7.7552,16.7192,7.1473,23.4139,6.9259,9.2941-.3073,18.6727-20.2534,20.5609-4.4023,2.773,23.2794-6.7767,31.6678-29.7126,27.8208-11.3534-1.9043-17.5848-25.2068-14.2622-30.3445Z"/>
    <path class="cls-1" d="M821.3519,1206.6715c-.3995,1.3614-6.4298,4.8066-5.8141,8.6111-3.7121-.5482-9.2579-3.0509-9.6882-6.6271-2.6193-21.7694,4.4763-48.1891,2.59-70.672.2751-7.6339,8.6837-6.8643,12.9123-2.3496v71.0375Z"/>
    <path class="cls-1" d="M3058.5351,896.8179c5.796,12.9079-1.7733,20.7994-4.6029,32.4105-6.002,24.629-.4917,49.2164-3.1119,73.6836-.9502,8.8732-5.5259,24.4452-11.359,8.0216l9.6858-114.3363,9.388.2206Z"/>
    <path class="cls-1" d="M1608.0844,1155.7933c-2.7975-.4886-3.8579-3.4575-4.7769-5.7803-10.5202-26.5889-4.1468-95.7692,1.5145-125.1684.4154-2.1573.3736-7.6227,3.2624-7.2864v138.2351Z"/>
    <path class="cls-1" d="M301.341,1151.9534v31.6789c0,10.4398-28.861,11.4832-36.4487,12.4695l-.0205-6.6999,19.1899-.9798c.2314-6.9044-18.6821-19.794-15.2468-24.8452l32.5262-11.6234Z"/>
    <path class="cls-1" d="M2532.9747,848.6042c2.2294-.7757,7.6754.8479,7.6754,2.8799v122.8756l-2.9069,2.8701-4.7686-2.8701v-125.7555Z"/>
    <path class="cls-1" d="M2442.7883,945.5607l-4.8091,3.0087-5.7607-2.0408c-1.3742-1.6738-11.8838-38.7285-11.9137-41.6496-.0573-5.6023,5.9877-12.3673,10.0115-15.9163,5.7899,4.785,12.472,12.2074,12.472,20.1193v36.4787Z"/>
    <path class="cls-1" d="M251.4417,1173.0698c6.1825,26.869-14.1441,32.4613-35.9865,26.4059l-2.161-20.4345,38.1475-5.9714Z"/>
    <path class="cls-1" d="M2262.4155,1025.2379l-7.541-.1315c-5.7466-36.5412.3456-73.5299,3.9646-110.0028l3.5764-16.5812v126.7155Z"/>
    <path class="cls-1" d="M1157.1524,930.2013c1.4228-1.9626,1.6944-2.0835,3.9284-2.0977,11.7152-.0741,38.2082,5.3871,29.7063,22.2756-1.7902,3.5561-25.2948,10.6115-29.6728,10.7703-2.3619.0857-2.4925-.3195-3.9618-2.1492v-28.799Z"/>
    <path class="cls-1" d="M1141.7925,933.075c7.3478,23.927-4.4235,35.9323-28.5663,32.4293-8.7437-29.4265,3.6552-29.675,28.5663-32.4293Z"/>
    <path class="cls-1" d="M2653.8521,742.9988c-13.9727-2.9926-36.2036-.0929-40.0788-17.8406,6.7352-10.5602,19.2362-14.4884,31.213-12.6159l8.8657,30.4564Z"/>
    <path class="cls-1" d="M2283.5146,767.9783c2.9026,23.7903-16.1189,31.2423-36.1784,24.6726-5.4333-27.6721,15.1481-28.269,36.1784-24.6726Z"/>
    <path class="cls-1" d="M3043.3914,881.243l-5.7145-.0056c-.8088-4.8384-1.7688-9.3229-2.0529-14.3091-1.3816-24.2474-2.2559-64.7932.0976-88.3961.3693-3.7033,1.2807-7.2181,2.8664-10.5742,1.456-3.2656,4.8035.05,4.8035.969v112.316Z"/>
    <polygon class="cls-1" points="1521.7357 877.4032 1521.7357 906.2021 1492.9528 910.042 1492.9528 881.243 1521.7357 877.4032"/>
    <path class="cls-1" d="M1620.9685,860.5352c4.1462-.9595,20.3433-1.8982,21.4137,2.6146-3.2233,17.1049-2.1624,33.9076-25.4055,29.342-6.1317-2.0917-9.6897-28.7907,3.9917-31.9567Z"/>
    <path class="cls-1" d="M1047.3371,946.851c16.5277-2.1855,7.3211,21.8782,1.3061,28.371-9.5227,10.279-35.0443.4445-24.0155-18.2678,2.5608-4.3448,17.6497-9.4342,22.7094-10.1032Z"/>
    <path class="cls-1" d="M1439.2021,886.9898c1.4741,8.7345,5.8812,18.0808,2.8973,26.9016-2.7768,5.7641-19.5644,8.5201-25.7134,7.4658l-2.0891-30.4964,24.9052-3.871Z"/>
    <path class="cls-1" d="M3073.8213,727.8863l-1.5443,8.5095c-16.7994.2637-45.6428,15.2299-51.9609-7.7258,19.2175-7.9027,34.543-11.8842,53.5052-.7838Z"/>
    <path class="cls-1" d="M1069.0926,973.1802c-7.269-24.7736,2.1671-32.9271,26.7789-27.7417,8.3691,21.9412-6.9725,30.3206-26.7789,27.7417Z"/>
    <path class="cls-1" d="M1677.0018,854.5058c10.2193,25.7975.7213,33.7716-24.8994,27.8074-3.3741-2.2742-2.1699-22.1033.4509-23.7898l24.4485-4.0177Z"/>
    <path class="cls-1" d="M1600.4089,867.8035v26.879l-26.6567,1.704c-7.1424-25.5637,1.7747-31.5378,26.6567-28.5831Z"/>
    <path class="cls-1" d="M1454.7774,913.6724c-7.3891-20.893,3.5139-32.4109,24.8678-27.7462,3.1304,2.1698,2.6127,21.1665.0611,25.2614-3.9048,4.9658-18.6219,2.1327-24.9289,2.4849Z"/>
    <path class="cls-1" d="M1404.6736,898.544l-17.2536,7.6813,15.024,9.8673.0694,7.1489-26.7044,5.1974c-6.0991-30.1102-3.1259-40.1968,28.8646-29.8949Z"/>
    <path class="cls-1" d="M982.5361,956.1204l24.9347-3.8325c.8435,9.6529-.9172,19.0576-2.1581,28.5387l-22.7766,4.0928v-28.799Z"/>
    <path class="cls-1" d="M1560.1228,873.5534l-1.7432,24.1947c-3.8899,4.9361-17.0095,2.0629-23.1176,2.5929-6.022-26.3945-1.0115-28.8108,24.8608-26.7875Z"/>
    <path class="cls-1" d="M940.4136,996.3472c-11.0943-18.994,25.606-49.0263,29.7464-19.1605-8.3285,7.8171-17.0221,19.8951-29.7464,19.1605Z"/>
    <path class="cls-1" d="M1889.6366,825.8027c4.2686-.6502,13.9366,8.449,13.2012,11.3797-3.2707,4.7923-17.8172,22.4913-22.9849,20.9071l-10.504-15.9254c.5614-2.8862,17.1495-15.8834,20.2877-16.3614Z"/>
    <path class="cls-1" d="M130.5542,1211.4811l-28.4438-11.8807,3.4305-14.1126c4.0365-2.6576,22.112-.1616,25.2063,3.7048,4.5586,6.9315-1.1362,14.6565-.193,22.2885Z"/>
    <path class="cls-1" d="M734.3906,1002.8019c6.4889,7.7962,6.63,20.9968-4.6185,23.9222-3.0358.7895-17.5219,2.6782-19.7352,1.4148-3.2736-1.8686-.5249-3.2891.3614-5.4175,3.8126-9.1553,10.5313-16.626,13.1185-26.2773,1.3332-.9962,9.8501,5.1278,10.8738,6.3578Z"/>
    <path class="cls-1" d="M3039.5447,671.9795c-.7364-13.9915-1.7802-21.796,14.4201-23.0644,11.8139-.925,14.8539,2.0047,12.4082,14.3782-2.176,11.009-18.3536,8.6595-26.8284,8.6862Z"/>
    <path class="cls-1" d="M654.4043,1007.9479c1.3117,16.4725,7.3798,32.5849-15.2755,34.5231-4.1145-15.1769-5.5727-35.1017,15.2755-34.5231Z"/>
    <path class="cls-1" d="M2260.5159,1142.3532c-.6164-15.9633-2.7396-30.2673.8326-46.1858l6.802-17.1596c2.974,21.7546,8.8468,45.6451-7.6346,63.3454Z"/>
    <path class="cls-1" d="M3325.4555,631.6602c-2.4425-18.3428,5.1699-28.5049,24.1092-21.255,4.4621,19.9753-6.6169,23.3917-24.1092,21.255Z"/>
    <path class="cls-1" d="M2386.9042,750.9244c7.0474,18.0697-1.9055,27.9151-20.6483,24.4927-6.3447-17.0009,3.8215-25.7761,20.6483-24.4927Z"/>
    <g>
      <path class="cls-1" d="M1489.1151,1054.9968c-2.4217-11.4009-26.0448-14.2137-34.53-19.1898,7.9745-3.5192,35.9837-12.6535,42.8358-10.2922,5.3552,1.8455,39.1265,51.4348,46.9717,58.6539l-.5802,4.4171-25.1844-19.0137-4.4135,2.9658c5.2774,34.2746,33.6796,56.1486,46.8252,89.0479,6.8855,17.2322,7.5133,30.9835,11.4566,48.0549,1.7995,7.7904,7.2614,14.7284,6.786,22.9496-19.0201-24.9486-32.6519-53.1631-56.5358-74.9284-17.9651-16.3715-60.8232-34.2926-69.7091-51.2076-8.0766-15.3745-7.0503-31.4994-3.8947-48.2384,40.1416-13.8167,31.7424,34.3997,34.2242,59.1889l5.7482-.0101c-2.5978-17.8238,3.4971-45.934,0-62.3978Z"/>
      <path class="cls-1" d="M1293.0763,1293.6958l-7.3506.3228c-.1724-1.516-.0214-2.9319.3352-4.4317,1.7981-7.5615,16.2129-41.3834,20.3646-48.7536,3.9936-7.0895,7.363-4.7674,9.6773,1.9662l-23.0265,50.8963Z"/>
    </g>
    <path class="cls-1" d="M2225.502,796.3097c-6.3067,6.297-18.8194,1.0588-22.4279-6.529l18.0861-21.7772c5.8822,5.0643,9.7079,22.9484,4.3418,28.3062Z"/>
    <rect class="cls-1" x="928.8081" y="1320.9074" width="5.7566" height="84.477"/>
    <path class="cls-1" d="M610.3423,1044.321c-.9072-1.3015,5.0084-28.9482,6.1101-31.1412,3.3877-6.7432,9.939-2.3911,11.0416,3.4729,2.4611,13.0882,2.0104,37.5422-17.1517,27.6683Z"/>
    <polygon class="cls-1" points="717.7248 1355.4574 715.8246 1411.1535 706.2172 1411.1353 710.0668 1355.458 717.7248 1355.4574"/>
    <path class="cls-1" d="M2446.1548,743.4795c9.0936,9.2552-3.7966,29.5983-18.4387,22.2904-9.9008-12.3331,8.786-32.1147,18.4387-22.2904Z"/>
    <path class="cls-1" d="M1337.8399,904.5589c10.265-5.8398,18.9312,21.2048,8.4665,28.6541-17.6376,12.5552-14.3973-25.28-8.4665-28.6541Z"/>
    <path class="cls-1" d="M2160.7252,787.1593c.4133,12.0979-.5522,20.7041-14.4836,21.2055-9.6037.3456-10.2891-5.8753-8.5725-14.5071,1.5916-8.0032,16.3758-6.6966,23.056-6.6984Z"/>
    <path class="cls-1" d="M1339.444,860.1238h-67.1601l.9879-9.6301c19.5962,3.4733,39.8361,3.048,59.5051,5.7412,2.8873.3953,5.9216.2616,6.6671,3.8889Z"/>
    <path class="cls-1" d="M2454.306,756.4339l19.1609-26.861c7.7443,20.6124,6.3948,34.0462-19.1609,26.861Z"/>
    <path class="cls-1" d="M99.8602,1259.4888l-34.5285,26.8506c-.3028-20.6341,15.682-29.072,34.5285-26.8506Z"/>
    <path class="cls-1" d="M2586.0597,720.307c1.7983-.1423,8.4222,4.0553,9.2722,5.4354,4.0834,6.6303-4.9001,17.8689-9.5886,22.9892-10.3152-6.3028-14.7957-27.2286.3164-28.4246Z"/>
    <polygon class="cls-1" points="1815.3116 796.7559 1757.7468 794.8371 1757.7486 787.1787 1810.5218 791.0085 1815.3116 796.7559"/>
    <path class="cls-1" d="M1926.3171,820.1771l7.7981,13.6825-17.7739,12.6146c-14.5293-8.1827.6355-16.3205,4.8204-26.288l5.1554-.0091Z"/>
    <path class="cls-1" d="M1953.5095,814.0463c8.4496,7.1281,15.3235,9.2638,7.6262,20.1549-4.6111,6.5244-11.1696,12.1632-17.4038,3.9585-5.5237-7.2696,8.9582-16.0825,9.7776-24.1135Z"/>
    <path class="cls-1" d="M2122.3251,787.1698c7.7229,21.2387.9526,26.9491-21.0842,24.9455-2.3627-2.1613,17.8973-27.9799,21.0842-24.9455Z"/>
    <path class="cls-1" d="M2170.3487,798.6171l14.3248-22.86,12.4688,8.5226c-8.1639,8.7584-13.6116,24.1143-26.7936,14.3374Z"/>
    <path class="cls-1" d="M2083.8215,877.5355l-3.8839,22.7079-11.4453-.6412c-4.5779-3.1457.7695-18.8196,1.013-24.1874l14.3161,2.1206Z"/>
    <path class="cls-1" d="M2419.7531,752.6275l-14.462,21.0951c-19.4424-11.7718-6.0015-30.376,14.462-21.0951Z"/>
    <path class="cls-1" d="M2526.2518,727.6801l10.6396,10.5266c-5.3076,6.7092-11.0506,22.1662-20.2952,12.5451-7.2659-7.5618,5.7914-15.8919,9.6555-23.0717Z"/>
    <path class="cls-1" d="M2227.8992,1029.0733c-3.5747-10.4871-9.1486-26.4359,6.3326-28.6122,14.1496,10.5547,4.8179,20.9877-6.3326,28.6122Z"/>
    <path class="cls-1" d="M3232.4143,624.6025l14.3393,9.9278c-15.9984,20.1518-41.0031,5.3427-14.3393-9.9278Z"/>
    <path class="cls-1" d="M2557.2328,723.9599c3.0119-.5203,9.4111,6.3833,8.1215,9.9629-5.576,10.6175-14.3541,21.7024-22.6985,6.3707l14.577-16.3335Z"/>
    <path class="cls-1" d="M2490.7962,758.3548l-5.6686-10.2859,16.188-16.5468c2.3702,3.0382,7.4969,8.173,6.5115,12.0503-.5908,2.3244-14.7646,16.3746-17.0309,14.7823Z"/>
    <path class="cls-1" d="M2731.9673,700.976c3.8231-.979,10.5848,5.0498,10.0275,8.1738-.1793,1.0052-11.8422,14.9171-14.0044,14.5265l-8.8044-8.5082c4.2118-2.8023,8.276-13.0385,12.7814-14.1921Z"/>
    <path class="cls-1" d="M2056.4954,802.7061c12.0659-3.1066,11.552,17.9324,1.5609,22.8256l-10.0129-10.496c1.5276-3.5112,4.6961-11.3626,8.452-12.3296Z"/>
    <polygon class="cls-1" points="2412.0866 898.5224 2412.0866 941.7209 2409.2083 944.5624 2406.33 941.7209 2406.33 901.4023 2412.0866 898.5224"/>
    <path class="cls-1" d="M1853.6979,1148.0944c-4.1174-.5635-14.228,2.8715-11.4934-4.7611,2.0751-5.7918,10.8086,1.8204,11.4934,4.7611Z"/>
    <g>
      <g>
        <path class="cls-1" d="M3497.6305,306.6645l2.4486-.1496.0008,1947.4794h-141.9956c-1.1872-107.8464-2.2702-215.573-2.0103-323.6.4031-167.5818-5.6907-335.2789-15.279-502.9111-7.7026-134.6641-30.089-282.3179-25.0048-414.8041.5963-15.5398.0237-27.1816,0-42.0801-.0392-24.6598.1845-49.3504.0892-73.9866,2.3681-3.1189,3.4742.0357,3.8315,2.8357.7257,5.6862-.5332,12.4207.0062,18.264,4.9807.5464,5.3864-2.7537,5.8436-6.6129,1.1-9.2854-.7344-20.9619-.3508-30.5565l-9.3406-3.1395v-147.8348l7.4476.2405,7.9056,124.562,25.6005-1.6099c6.5375,2.2661,8.586,27.9371,9.0166,35.1218,2.6145,43.6276-5.1258,96.4335-.126,138.3611.438,3.6729,3.3922,12.9667,7.0739,14.174,11.988-1.3992,18.9693-5.8546,16.0149-19.0317l-7.7088.0234,3.7755-164.2448,3.9251-152.5659,5.7356.0015,7.7073,190.0816c5.9833-4.1844,12.0429-4.3247,19.1803-3.8295-1.2637-19.6277,2.392-39.0214,3.906-58.4885.9292-11.9473-5.4962-41.4741,12.4348-41.4571,9.5811.0091,13.3038,5.8078,21.0673-5.6231l4.796,5.7226v-37.4387c0-.598,3.9011-3.5315,4.797-4.7613l2.8921,4.7479.4076,70.6424c2.2323,9.496,9.0799,6.7261,13.029,9.9837,7.7258,6.3731-10.3679,42.2903-9.5943,52.8211l24.927-24.1081v-329.3616l-743.535,78.944c-527.2997,66.0947-1055.827,134.973-1583.745,197.0822-12.2494,1.4411-25.7129,5.9853-37.6705,6.4824-2.1106.0877-5.348,1.0575-4.8268-1.9708l21.0836-8.6542c-5.8955-4.7998-11.4345-1.4441-18.2457-6.7032-14.8922-11.4988-5.8842-48.954-8.7048-66.1677-.8778-5.3574-4.9969-7.5472-5.7498-13.4463-1.6096-12.613-1.0881-42.6663.011-55.8495.2923-3.5059.2875-7.0327,2.4514-10.0227l22.5741-4.3146c.9012-7.4436-3.1226-1.8999-4.7992-1.8999h-30.7018c-13.4408-27.5505-15.1856-61.2248-54.6873-59.4984,9.6665,10.1571,16.9816,18.8936,22.7513,31.9344,15.9642,36.0826,11.5659,67.7485,11.7092,105.2417.1536,40.1866-.107,80.0023-1.9418,119.9811-94.2113,18.8708-188.5174,38.3435-281.9964,60.5462-26.4588,6.2844-52.253,14.8017-78.5815,21.211-16.1668,3.9356-42.6753,4.535-56.3945,12.6915-6.3808,3.7935-12.2696,12.9313-18.6734,17.7949-25.8754,19.652-93.6629,35.3974-125.5307,31.8573-9.42-1.0464-20.8682-6.0178-27.6537-12.6885l20.7713-63.2564-16.7901-30.3327c11.1744-12.1298,19.0095-31.3345,38.0642-31.9909l-23.1289-14.2552-3.812-10.5876-20.9293.0018-5.2044,21.0978c-30.6539,2.3465-62.2005,5.7939-90.756-7.8562-1.9196-7.6914,7.1033-7.3881,9.5175-13.315l-24.9406-3.863v81.5971c0,1.1684-6.8011,6.1712-9.0362,6.3553-10.2694-3.038-22.5984,4.5438-31.4076-2.3662-8.783-6.8895-4.5666-28.2255-8.0329-39.9623-5.2895-17.9101-14.5857-19.4173-12.8867-44.641.915-13.5848,14.6027-43.6234,25.8218-51.063,5.1229-3.3971,18.3453,7.0836,21.2634,11.5681,5.4411,8.3618-.2682,16.5762,10.5213,24.0316,12.4114,8.5761,58.2349,4.4454,75.7932,4.8016,19.8832.4034,41.2289,4.3951,61.3667,2.0414,20.7798-2.4287,11.657-25.3484,22.6899-35.8571,8.727-8.3124,28.4526-6.7138,31.2136,6.9525,2.1047,10.4177-9.1337,30.0968,10.3274,28.8676.2244-35.4997-2.5696-71.1842,7.6832-105.5826-1.0967-.891-19.51,10.3606-22.123,5.8372-3.3608-28.0106,18.5887-51.1717-22.8808-53.943-53.0517-3.5454-108.1107,1.3411-161.588-1.6445-2.9565-1.0327-5.949,1.0186-7.4681,1.5319-1.7649.5964-1.5156-.0249-3.0638,1.1489-.6601.5004-2.3577,2.0269-2.8723,2.6809-.4962.6305-2.3717,1.7103-2.6809,2.4894-1.2836,1.2581-3.0976,3.2594-4.588,5.4387-9.0006,13.1609-21.497,56.1776-26.5302,73.3736-15.4699,52.8535-26.6022,126.2972-16.6048,180.8217,2.8132,15.3427,15.6054,33.2666,19.0113,49.1161-22.5243-24.0286-32.7255-52.5673-34.6131-85.3437-3.9058-67.8216,4.202-122.6221,22.1615-187.2836,9.1608-32.9825,28.8556-103.8264,56.7247-123.7172,24.5338-17.5104,52.1617-7.7335,79.4329-6.7612,43.2829,1.5432,133.916-11.979,169.3051,11.0739,11.0691,7.2105,8.9517,14.7373,15.078,21.3922,7.7344,8.4017,51.2636,1.8279,64.2056,3.9182l-.951-3.8536,118.0841,2.8088c11.6366,2.7611,16.4601,36.043,6.2123,39.0548-20.6958,6.0824-52.1707.4481-74.1235,2.0152-14.0345-23.747-11.4632-42.1433-47.3213-32.3114l12.3584,69.2137,27.9239,1.7913c.6562-12.6031,2.2042-25.1019,15.3891-29.7218,7.9142-2.7731,49.5701-5.702,58.0437-4.3585,13.5614,2.1502,16.1802,9.7171,14.8578,22.5781l27.9315-3.7271c-3.238-36.5128,53.5261-45.0073,52.7449-5.9778l24.9199-2.7109c2.9822-2.1207,2.1958-15.3423,9.5766-21.1675,4.0897-3.2277,9.9535-1.2548,7.7134-9.3635-.448-1.6216-5.9435-2.5979-8.5979-5.1806-8.0127-7.796-6.5912-21.1433-17.7186-28.3494-9.0946-5.8896-29.6101-7.0306-40.9223-9.9335-2.7751-2.3423,17.517-20.4858,21.0838-22.0842,3.368-1.5093,6.8715-2.4751,10.5625-2.8711,21.2846-2.2835,54.6223-.7568,76.8398-.0733,4.9853.1534,10.7425,2.9329,15.244,2.1072,5.4412-.998,4.3992-6.0483,7.5625-9.8483,7.4557-8.9563,31.2034-11.444,42.5999-13.0543,162.5322-22.9654,331.5908-26.8787,494.742-48.323,17.905-.4436,34.9797-1.5339,48.4164,12.1796,2.6149,2.6688,2.2405,10.0056,8.2557,9.0148.0345-7.2931,7.0365-13.6992-1.1653-18.9859-4.5282-2.9188-12.0427-1.2314-10.3295-9.7992l1888.8457-180.7496,2.6143-.2521ZM2853.4243,421.4193v54.7181c-17.1016-20.8865-52.4343-12.4009-63.1115,10.7707-7.5561,16.3983-9.2289,57.1228,3.5874,70.8659,13.8574,14.8594,48.4992,9.6469,55.7111-10.5842l3.7626,12.5863,18.4024-2.8784,1.9174-136.5691c-2.1433-3.0667-18.9965-3.0411-20.2694,1.0908ZM2770.3115,432.5738c-10.1155-13.9786-31.9309,9.6692-18.5199,21.4054,12.0333,10.5305,27.7158-8.6976,18.5199-21.4054ZM2738.2838,439.6696l-19.2783,3.171-19.0985,102.4204c-5.1088.483-3.0941.0555-3.7955-2.8771-7.3689-30.8098-9.9822-64.2521-18.2211-95.0757-3.2517-4.3333-20.2063,1.287-26.0666.8699l-25.7939,104.747-17.1811-97.9865c-2.0572-2.9329-19.2488-2.9473-21.3258-.0516l22.0671,131.7939c2.3863,1.7605,27.2745-1.2551,28.9374-4.4443l23.0325-104.1676,22.0775,99.92,27.4349-2.3637,27.2115-135.9557ZM2540.6601,451.1683l-21.1271.0006-1.9192,57.5974-13.4163-8.6361c-49.8327-10.4318-64.4098,30.3746-59.2778,72.7512,4.6047,38.0224,51.6566,42.6198,68.9033,12.7069l3.8106.9498-.0182,10.5635,20.9058-2.1316,2.1389-143.8016ZM2907.2612,508.877l59.505-6.6923c7.3511-33.9818-12.9441-57.4064-48.5239-46.6304-31.4442,9.5235-37.4973,53.1549-27.3645,80.0653,12.9311,34.3418,75.0419,18.9416,75.754-17.2337-20.6599-4.9466-16.8873,7.5734-27.4214,13.8273-19.1969,11.3969-37.1661-.9901-31.9493-23.3362ZM2300.7927,475.1774v56.638c-5.8399-.6923-7.7468-6.119-13.4178-8.6542-16.9673-7.5849-42.1002-.5127-53.4148,13.7816-13.8181,17.457-16.4231,60.0906-4.5774,78.8021,13.9123,21.9759,57.4709,16.7794,67.597-7.1174l1.8854,13.434,22.1867-3.7381,2.7629-143.1367-3.0239-4.5858-19.998,4.5766ZM2749.9076,474.3117l-2.1135,91.1932,3.1206,6.3999,14.92-1.973,2.893-2.8647c1.0409-21.0204-.4259-42.1491.1876-63.1699.5648-19.353,12.1333-38.1241-19.0077-29.5855ZM2192.8254,484.1462c-11.4218,2.3631-14.1102,16.4698-9.1333,25.6368,26.3241,15.7208,35.1003-31.0092,9.1333-25.6368ZM2160.7259,487.6471l-19.8895.278-3.15,4.5285-1.9067,148.8007c6.5933-2.0526,21.6298.7592,23.0195-6.7204l1.9267-146.8868ZM2427.4492,608.6226c-4.2764-25.8389,16.7569-92.594-20.6052-99.4006-25.6772-4.6779-63.6611,4.5767-63.8446,36.0326,5.6534-.2956,11.8908.9541,17.3917-.846,7.5352-2.4659,6.1063-14.1332,20.1522-16.303,17.2771-2.6689,26.8444.8335,25.8799,19.714-21.3107,8.6657-55.8752,1.7472-65.7617,28.6899-17.7601,48.3998,43.5615,52.4984,64.7187,20.5935l2.7767,12.6276,19.2923-1.1079ZM2204.8497,529.8955c-7.7935-.0745-16.8078-1.0517-23.0263,4.7998v100.7964l23.0263-4.7998v-100.7964ZM2091.6266,633.581c-6.7179,16.1762,15.2008,14.4413,22.7209,6.3945-2.4983-23.0741,6.9442-68.7805-5.7527-87.6887-12.465-18.5629-52.8168-13.4826-69.4152-2.8805-7.9589,5.0837-19.545,19.7391-16.7031,29.5027,2.7066,1.5811,16.7894-.3547,19.794-1.448,6.8131-2.4792,4.8607-14.2409,21.703-16.6767,19.497-2.8197,28.3261,1.9324,25.751,22.8726-27.095,3.6289-68.8205,2.2974-72.7735,37.6137-3.5683,31.8798,26.7186,38.7059,51.0297,27.99l23.646-15.6797ZM1496.8006,597.1027l5.4139,3.2034,61.7078,103.371c4.0922,2.5098,36.1037-.5284,38.5898-3.6832l1.8269-150.0972-21.9001,1.3771-2.8681,2.8903-2.2073,113.966-65.5142-109.1232-39.9872,3.5452-1.9415,153.5857,24.867-2.0212,2.0131-117.0137ZM1842.1853,569.2541v104.6363l21.746-2.2409,2.9388-2.8194c4.8809-24.9169-14.4615-89.3011,26.1763-89.1811,4.4751.0132,16.299,4.9429,16.299,8.8045v77.7572c5.1409.1243,23.1101-.3849,24.6951-5.05,3.3726-9.9266-.9931-46.8842.2821-61.1555.4443-4.9723,2.0358-14.2343,4.7924-18.2441,8.1925-11.917,37.3905-12.0844,37.3905,2.8526v73.9174l23.0173-1.9302c.6868-24.5975,4.5192-53.1146,1.7226-77.5416-4.6025-40.1995-50.4173-34.2716-67.9405-6.9414l-2.8159.0045c-10.5563-24.7514-48.7521-16.2052-60.5034,3.8383-5.211,2.6615-1.8392-10.5059-2.8451-11.5161-8.5351.4238-18.5087-2.3369-24.9552,4.8097ZM1826.5671,592.9859l1.3426-22.896-2.2964-1.5221c-17.8788-2.2323-32.8983,5.5965-41.9618,20.8367l-.9533-17.2775-24.11,3.7199-2.7601,107.6524,23.6736-2.2502,2.9387-2.8194c1.9935-18.3394-1.77-39.3645.2552-57.3435,2.9985-26.62,22.2856-24.887,43.8716-28.1002ZM1674.7817,580.3107c-44.6266,6.0177-58.9135,48.1756-48.5803,87.9321,8.4626,32.5594,48.8961,31.8221,75.0217,23.0009,26.7803-9.0423,36.7737-31.5917,37.4454-58.5769,1.1264-45.2531-21.2642-58.1036-63.8867-52.3561ZM3436.7576,798.6859h-5.7566v38.3986h5.7566v-38.3986ZM3335.0581,877.4032h-3.8377v40.3186h3.8377v-40.3186ZM3438.6765,896.6025c-5.7561-.2159-12.0214-.5713-16.3238,3.8121-3.7234,10.6342,1.217,17.0704,12.4891,15.3886.6679.623-.4408,14.8679-.0067,18.2727.4466,3.5031-.6513,3.1002,3.8415,2.8451v-40.3186ZM3450.1896,896.6025h-3.8377v40.3186h3.8377v-40.3186ZM3360.0032,944.6008c-12.6941-1.7627-25.8123,5.4525-15.3467,18.2374l10.6859,2.7456c3.434,4.9103-3.5642,20.3463,4.6609,19.3356v-40.3186ZM3398.3704,1021.408c-7.1227-1.5937-2.7356,9.3568-3.8176,13.4196,7.1227,1.5937,2.7356-9.3568,3.8176-13.4196Z"/>
        <path class="cls-1" d="M376.0848,654.454l121.4993,1.253c16.1058.5002,34.4322-1.5986,50.0608-.1705,8.796.8038,29.6858,12.4572,31.5841,21.7557-2.688,14.7558-20.0483,30.6446-26.208,43.6086-1.3389,2.818-5.0658,11.5243-7.3863,11.5243h-71.9572v3.8399h35.4989c1.0319,0,4.2998,2.7212,6.6405,2.0301l.0781,5.6214c-12.3074,3.6438-23.5479,4.7036-36.4604,3.8874l4.8796,5.7069c1.9434,4.2628-12.8446,17.3131-17.3527,17.3131h-45.0932c-1.3188-4.4674-4.1828-17.5392-.1283-20.2877l36.5724-6.5673c-10.6027-2.9567-18.8631-11.2476-30.1885-13.0029-16.6741-2.5844-36.5748,1.4285-53.2657-.4626-37.5462-4.2541-11.3029-46.4085-11.7946-68.3896.6265-.614,3.6016-3.7858,4.2128-4.2128.7433-.5192,2.916-1.6769,3.4468-1.9149,1.2488-.5599,3.2553-.9574,5.3617-1.5319Z"/>
        <path class="cls-1" d="M2271.5663,539.9844c30.1302-3.756,30.1634,21.2229,27.3512,44.673-3.2703,27.2705-50.1231,35.2249-53.7706,3.7932-2.5304-21.8048,1.125-45.313,26.4194-48.4662Z"/>
        <path class="cls-1" d="M1678.6166,601.44c33.3078-4.7381,36.1728,16.6385,32.8734,44.3985-3.9122,32.9162-57.5058,41.4724-61.1638,5.9439-2.4662-23.9531.9028-46.4465,28.2904-50.3424Z"/>
        <path class="cls-1" d="M2494.2289,516.8959c28.5077-1.5354,28.5243,37.9786,18.7332,55.3736-8.3734,14.8763-42.5787,18.9985-46.6884-5.3965-3.7726-22.3939,1.1511-48.5335,27.9552-49.9771Z"/>
        <path class="cls-1" d="M2089.7075,599.022c.2327,6.056.3896,12.1474-2.345,17.7931-8.2799,17.0942-51.5453,26.7783-45.2032-1.0731,3.621-15.9018,35.0703-12.6022,47.5483-16.72Z"/>
        <path class="cls-1" d="M2829.9962,482.3118c25.3861-2.5905,23.8706,26.6608,21.3343,44.5288-3.116,21.9513-39.4243,27.3117-45.0182,8.9147-1.7905-5.8887-1.5763-25.0602-.6904-31.6099,1.8243-13.4867,11.2264-20.492,24.3743-21.8336Z"/>
        <path class="cls-1" d="M2403.54,564.959c6.0734,1.0932.9815,15.5556-1.3355,19.3656-7.9305,13.0407-42.5434,21.1802-41.8452.4892.668-19.7966,30.0201-14.9643,43.1807-19.8548Z"/>
        <path class="cls-1" d="M2949.2753,489.484l-42.1281,3.9242c-.3788-25.1378,42.0592-33.1639,42.1281-3.9242Z"/>
      </g>
      <g>
        <path class="cls-1" d="M905.3156,631.1718c-1.8067,1.6763-20.5191,5.9924-23.7384,6.061-17.5105.3731-14.2892-15.0158-21.7281-23.9403l-23.1369-12.3402c16.7476.4595,48.6731-5.9731,63.8741-1.5408,11.0684,3.2273,12.5428,24.5108,4.7293,31.7604Z"/>
        <path class="cls-1" d="M500.9018,871.6626l-15.1074,12.4163c-28.5741,1.2835-59.752-11.6153-86.5727,1.0032l-.0289-19.2084,101.709,5.7889Z"/>
        <path class="cls-1" d="M404.8823,977.1584c-19.8697,5.2172-48.4613,17.9931-53.6604-11.4306l46.8133-3.4198c5.3123,2.7857,7.6431,9.1076,6.8471,14.8504Z"/>
        <rect class="cls-1" x="817.5337" y="599.0228" width="1.8798" height="3.8203"/>
      </g>
    </g>
    <polygon class="cls-1" points="1811.4835 1324.7473 1811.4835 1380.4253 1808.6338 1380.4061 1805.7269 1377.5454 1805.7269 1324.7473 1811.4835 1324.7473"/>
  </g>
  <polygon class="cls-2" points="1301.4823 1363.1543 1248.8474 1318.9943 1306.4704 1215.2857 1380.3949 1151.9543 1482.5089 1132.2338 1586.6425 1194.0582 1653.9545 1286.4656 1643.1655 1363.1543 1482.5089 1281.0099 1357.0587 1309.2071 1301.4823 1363.1543"/>
  <path class="cls-2" d="M2225.0057,1380.4343l-8.3498-148.4577,68.2738-177.4504,79.6244-89.8797,56.3909-36.0646s25.4541,12.9113,34.5711,16.0022,69.0642,55.6517,69.0642,55.6517l30.772,38.3524,30.6907,72.0915-59.1327,60.258-100.8107-53.5436s-105.8747,105.9876-113.5217,106.581-87.5724,156.459-87.5724,156.459Z"/>
  <polygon class="cls-2" points="3016.5396 1104.5168 3016.5396 1021.8191 3056.4687 900.0935 3105.5822 826.0931 3149.1109 809.0179 3204.4335 824.4581 3244.9499 855.8712 3288.024 944.9035 3341.8992 1130.1614 3346.8874 1388.2872 3349.244 1598.4562 3128.5454 1015.3353 3071.6885 1051.6515 3016.5396 1104.5168"/>
  <polygon class="cls-2" points="1191.0855 1293.1591 1177.439 1210.7629 1191.0855 1111.2071 1235.2715 1067.5475 1239.4084 1079.049 1239.4084 1115.8028 1240.235 1132.2338 1223.7821 1198.9092 1212.6757 1258.2709 1191.0855 1293.1591"/>
  <polygon class="cls-2" points="1247.9144 1099.1543 1247.9144 1063.4821 1252.5055 1021.5815 1298.08 1011.6672 1310.3353 1070.2283 1264.7609 1126.9943 1247.9144 1099.1543"/>
  <polygon class="cls-1" points="2389.4512 880.6539 2406.33 901.4023 2413.7579 935.4671 2382.6757 944.5624 2372.7183 912.6081 2389.4512 880.6539"/>
  <polygon class="cls-1" points="2453.0652 891.3628 2442.7883 903.6326 2435.9098 924.6964 2461.5694 935.4671 2463.1013 916.6539 2453.0652 891.3628"/>
  <polygon class="cls-1" points="2349.2365 928.5819 2329.0587 971.8028 2326.7609 986.356 2363.3918 961.8802 2357.3991 928.5819 2349.2365 928.5819"/>
  <polygon class="cls-1" points="2292.7767 1015.8896 2277.3566 1021.3874 2262.4155 1057.2071 2271.6442 1072.9092 2292.7767 1044.3994 2309.1438 1007.0368 2292.7767 1015.8896"/>
  <polygon class="cls-1" points="2532.9747 951.122 2514.8034 977.2298 2547.7396 1021.3874 2540.6502 972.1858 2532.9747 951.122"/>
  <polygon class="cls-1" points="2389.0603 872.6033 2412.0866 898.5224 2400.5734 910.5262 2382.2484 894.4088 2385.5481 880.6539 2389.0603 872.6033"/>
  <polygon class="cls-1" points="2327.1683 937.4544 2325.2289 913.4149 2319.3566 916.7815 2314.5055 974.9943 2319.511 983.133 2327.1683 938.8293 2327.1683 937.4544"/>
  <path class="cls-1" d="M424.2302,1865.6641s-12.0479-120.6272-17.2181-157.3932-36.0956-140.865-54.3899-174.2366-72.6911-123.9123-96.8188-138.274-51.1277-30.1694-70.0851-32.606-43.5442-4.926-66.1019,3.4996-39.3883,14.6386-54.3347,26.4682c-14.9464,11.8296-39.2256,31.3087-48.5328,41.1011s-16.7489,23.5796-16.7489,23.5796v-122.5532l39.9736-26.0426,45.0499,31.4043s27.3544-20.2451,67.9501-19.697,99.6455,34.5513,99.6455,34.5513l65.0353,71.0487,35.234,72.6502,63.5745,34.8698,61.2766,188.0238-16.8511,107.234,4.5957,71.234-41.254-34.8621Z"/>
  <path class="cls-1" d="M1752.9113,1828.59s-1.9914-136.7872-28.576-283.0851c-10.2662-56.4961-47.2915-182.3506-73.9149-235.5319-21.6616-43.2699-75.8298-113.8733-120.2553-136.2133-44.4255-22.3399-73.5319-19.7187-100.3404-17.9655s-68.2449,32.3093-89.617,55.3702c-23.4931,25.3496-60.5965,76.3905-93.4468,163.1489-29.8723,78.8936-49.0213,150.8936-57.4468,196.8511-8.4255,45.9574-20.6178,112.7662-27.5745,178.4681-6.8936,65.1064-9.8735,213.7021-9.8735,213.7021l-32.2542-219.8298,31.4043-209.4706,29.1064-115.1902,55.1489-110.4029,24.5106-54.383,51.3191-68.9362s32.1702-36.0742,68.1702-52.8882,84.2553-17.6687,114.1277-10.7307,59.1971,23.0231,86.6624,47.5338,42.1933,42.317,62.6993,67.4772,65.1064,116.0802,65.1064,116.0802l62.8085,150.4,41.68,225.9574-26.3608,238.9787-33.0836-139.3404Z"/>
  <path class="cls-1" d="M2669.498,1578.8095s-25.0143-221.6175-38.5129-280.9048-32.6923-131.9317-64.1927-202.5932c-17.9967-40.3701-54.0642-97.6355-69.989-109.7214-15.9248-12.086-39.4008-30.1562-64.0589-32.3121-24.6581-2.156-50.5291,9.8735-70.9411,26.8172-17.6943,14.6878-48.2553,49.729-64.3404,86.4949-16.0851,36.766-40.5493,85.0294-49.2853,124.9509s-50.9497,171.3206-59.0102,273.3734c-8.0606,102.0528-27.3152,166.3779-27.3152,166.3779l-59.7781-185.4665,47.8395-97.1718,61.3235-71.234-7.085-45.4432s25.0894-84.3582,43.4023-128.032c18.3128-43.6738,51.2365-97.9641,81.5043-132.1419,30.2679-34.1778,61.5685-47.273,84.2158-50.2677,42.8343-5.6641,84.0571,21.9525,104.2097,44.523,18.4654,20.6809,37.3095,37.9149,57.1441,82.7234,19.8346,44.8085,53.1538,122.1563,53.1538,122.1563l92.1127,231.716,5.5469,311.3617-55.9437-135.2061Z"/>
  <path class="cls-1" d="M3351.7265,1618.6049s-8.0462-261.6928-14.9953-351.4176c-6.9491-89.7248-25.0546-216.1641-46.0129-282.2255-20.9584-66.0614-27.8711-107.4961-59.7447-139.2497-24.1277-24.0368-60.2735-31.9652-84.6383-21.826-36.1486,15.0429-51.4951,53.5083-62.4255,73.6683-15.0628,27.7818-44.8954,116.3145-62.086,181.4517s-41.0138,148.5261-52.0809,213.1083c-11.0671,64.5821-26.6889,247.277-28.3012,339.1779-1.7234,98.234-5.9568,356.7447-5.9568,356.7447l-66.4262-529.0851,65.4894-239.7974,22.9787-42.3676s11.4894-45.2817,27.5745-87.7924c16.0851-42.5106,24.859-88.5925,44.8085-135.7164,19.9495-47.1238,41.3617-94.4538,59.7447-116.2036,25.9171-30.6637,45.5745-40.6757,75.8298-42.1555,33.3549-1.6313,64.7045,13.1221,82.896,33.2155,27.7849,30.6898,59.9551,116.1971,74.1253,172.1016,11.4141,45.0312,45.1915,236.9711,48.6383,239.269,3.4468,2.2979,27.674,252.766,24.7519,256.2128-2.9221,3.4468-7.5179,160.8511-7.5179,160.8511l-36.6514-37.9639Z"/>
  <polygon class="cls-1" points="823.7027 1269.9551 829.8858 1283.9335 831.6119 1437.122 833.6545 1568.8666 819.6119 1573.973 809.1438 1531.8454 823.7027 1269.9551"/>
  <path class="cls-1" d="M1366.5055,1104.4411l9.8298,38.5532-24.6383,38.9362s-26.5532,1.1489-26.2979,0,10.9787-52.0851,10.9787-52.0851l10.0851-24.766,3.8298-9.0638,6.2553-2.1702,9.9574,10.5957Z"/>
  <path class="cls-1" d="M1416.4629,1089.5514s10.0427,14.3791,18.2129,18.9748,28.8362,8.8896,28.8362,8.8896l9.9724,11.4444-45.9574-1.8659-53.299,7.7343,15.0011-32.8407,27.2339-12.3365Z"/>
  <polygon class="cls-1" points="1596.0186 1183.8851 1624.1952 1194.2017 1629.7396 1199.9543 1628.6935 1203.3807 1607.7821 1198.6539 1593.7396 1189.973 1596.0186 1183.8851"/>
  <polygon class="cls-1" points="1679.8679 1236.5141 1688.7183 1219.59 1697.8369 1328.5943 1711.915 1362.287 1679.8679 1332.9517 1653.9545 1270.9092 1642.7609 1236.5141 1679.8679 1236.5141"/>
  <path class="cls-1" d="M1608.8497,1141.2166l1.1665,48.8841,13.2128,7.4681,46.7234-1.7234,7.3856,7.5354-2.0239,9.3157s-19.1489,26.0426-19.7234,26.234-23.5532,1.7234-24.1277,1.7234-35.234-40.4043-35.234-40.4043l-13.7872-22.9787,16.1334-83.4988,5.0611-4.2208,5.2134,51.6652Z"/>
  <polygon class="cls-1" points="1809.4759 1393.7871 1817.3993 1391.9475 1821.9551 1292.1143 1818.5327 1292.1143 1811.463 1290.9385 1809.4759 1286.4656 1806.5961 1318.0156 1806.5961 1324.7543 1798.4281 1324.7543 1793.846 1351.1432 1793.846 1394.8028 1809.4759 1393.7871"/>
  <path class="cls-1" d="M864.6644,1475.4739l5.036-5.0328,16.4222,26.5532,3.7021,38.5532s-37.6596-5.234-38.0426-5.234,6.6383-35.1064,6.6383-35.1064l6.244-19.7332Z"/>
  <polygon class="cls-1" points="718.022 1355.4655 723.8026 1388.1219 735.6757 1418.1645 730.7928 1439.7071 704.846 1439.7071 696.7077 1414.8134 710.36 1355.4661 718.022 1355.4655"/>
  <path class="cls-1" d="M819.5833,1230.8847l2.1204-24.2104-8.8577-7.0949-6.0943,10.6637,1.5028,20.4203c4.6872,6.9266,5.5357,8.5543,5.9732,8.8415s5.3557-8.6202,5.3557-8.6202Z"/>
  <polygon class="cls-1" points="934.9759 1430.4198 934.9759 1397.5863 929.2163 1394.2283 918.7396 1412.3241 912.9949 1445.1645 923.9854 1457.9943 929.2163 1443.4411 934.9759 1430.4198"/>
  <polygon class="cls-1" points="1198.0003 1302.6207 1197.0474 1326.6839 1198.0003 1349.5475 1225.5694 1318.9092 1247.9144 1275.7603 1241.2746 1241.0212 1240.235 1219.1543 1243.4417 1209.6326 1247.9144 1219.1543 1250.846 1233.6326 1257.2289 1281.6326 1238.3392 1326.6885 1197.0474 1373.0368 1174.5055 1363.1543 1170.1651 1324.5262 1183.4417 1298.2283 1192.8885 1300.0156 1198.0003 1302.6207"/>
  <path class="cls-1" d="M1455.2697,1035.8038l-5.4453,22.4097,2.7227,16.2277,20.1713,26.617,1.9149,20.4894s18.383,15.3191,19.1489,15.3191,15.8936-14.1702,15.8936-16.0851-9.9574-52.6596-9.9574-52.6596l.766-18.1915-13.7872-17.234-17.617,1.5319-13.8103,1.5754Z"/>
  <polyline class="cls-1" points="2263.5248 1019.464 2268.8034 1064.8666 2257.0587 1104.4411 2244.8029 1110.6799 2253.6162 1040.1007 2254.4348 1012.3437 2256.8032 996.1858 2260.4346 1004.8666 2263.5248 1018.3985"/>
  <path class="cls-1" d="M3018.7265,982.5832l9.6514-80.3549,5.8794-72c5.0993-9.1915,6.6312-11.4894,6.6312-11.4894l2.5029,10.9787,6.6713,68.9362,8.9534,16.8511-17.3617,41.8635-15.8298,38.3067-7.0982-13.0919Z"/>
  <path class="cls-1" d="M3382.6388,954.1947l-17.5309,66.2496-10.0492,16.5925s12.383,21.8298,12.766,21.4468,43.4043-12.2553,43.4043-12.2553l1.6596-41.8723-20.6809-32.9362-9.5688-17.2251Z"/>
  <path class="cls-1" d="M3154.1879,764.596l-14.9914,20.4089-11.5313,22.9787,28.8191,1.7234s37.0532,2.8723,37.0532,2.0106,3.4468-41.266,3.4468-41.266l-6.9894-16.6596s-12.3511-5.266-12.734-5.1702-11.2021,7.5638-11.6809,7.5638-11.3921,8.4102-11.3921,8.4102Z"/>
  <path class="cls-1" d="M2747.9009,1099.1437l7.2184-4.7077-3.6092,20.1243,14.5274,22.0337-3.4468,30.145-7.0288,24.7996-17.2691-8.9051s-5.9308-57.5005-3.8377-59.4847c2.0931-1.9842,7.8378-19.2033,7.8378-19.2033l5.6081-4.8018Z"/>
  <path class="cls-1" d="M2001.2265,1265.2294l-6.5082,104.1053v8.0426h-6.6997l-24.9477,17.4255-2.8207,85.4043,89.617-31.5957s68.9362-65.4894,63.766-70.6596-53.4255-47.2387-62.0426-53.2045c-8.617-5.9657-50.3641-59.5179-50.3641-59.5179Z"/>
  <polygon class="cls-2" points="1860.8034 1141.2161 1852.6332 1155.7933 1840.2664 1154.4837 1840.2664 1146.0581 1845.9949 1126.9971 1855.9523 1132.2338 1860.8034 1141.2161"/>
  <path class="cls-2" d="M65.3274,1267.188c2.1143-2.9171,15.1356-15.4277,15.1356-15.4277h19.3972l7.9219,11.234-5.6717,6.383-20.8815,8.9362-18.8365,9.9574-3.3763-15.5296,6.3112-5.5533Z"/>
  <polygon class="cls-2" points=".08 1096.2754 2071.697 794.7956 1571.3688 837.0846 1056.6865 917.7217 511.1004 1011.6713 261.5856 1005.1661 16.8201 1028.1178 .08 1051.223 .08 1096.2754"/>
  <polyline class="cls-2" points="1325.3973 907.2071 2869.0587 683.4993 2678.3353 683.4993 2083.8215 754.0774 1677.3379 838.9391 1521.7357 841.9795 1316.1028 907.2071 1316.1028 941.5482 1860.8034 858.1895 1757.7468 921.5781 1481.81 961.1601 1325.3973 977.2395 1285.6543 907.2071"/>
  <polygon class="cls-2" points="1757.7468 921.5781 1791.8688 958.7906 1903.7632 944.5906 1956.8034 916.7618 1815.3116 877.4032 1757.7468 921.5781"/>
  <polygon class="cls-2" points="1247.9144 963.8001 1281.8886 932.1065 1300.8785 935.7563 1300.8785 963.8001 1247.9144 963.8001"/>
  <polygon class="cls-2" points="353.5017 1138.5139 307.329 1232.6009 132.5385 1219.59 85.0588 1229.5318 33.5602 1263.3095 .08 1267.188 .08 1163.473 175.481 1151.9534 327.6119 1121.5033 353.5017 1138.5139"/>
  <polygon class="cls-2" points="596.8454 1196.1017 596.8454 1265.2294 587.2511 1340.6342 552.0001 1320.9074 537.7584 1290.1885 537.7584 1196.1017 596.8454 1196.1017"/>
</svg>