<?xml version="1.0" encoding="UTF-8"?>
<svg id="Layer_4" data-name="Layer 4" xmlns="http://www.w3.org/2000/svg" viewBox="0 0 5599.2247 3447.8725">
  <defs>
    <style>
      .cls-1 {
        fill: #fff;
      }

      .cls-2 {
        fill: #c31b1c;
      }
    </style>
  </defs>
  <rect class="cls-2" x="489.2081" y=".16" width="3500" height="1959.0046"/>
  <g>
    <path class="cls-1" d="M1462.5014,0c6.6474,7.8051,15.0486,13.5439,22.1061,21.0924,7.7916,8.3337,12.651,20.5239,23.9515,24.9871l.0192-46.0795h11.5192c4.1019,175.9579,5.295,351.5557,13.4324,527.0467,1.1727,7.986,10.8674,5.1297,15.3127,7.7262,3.2773,1.9143,11.3657,17.4556,14.6851,18.053,3.5629.6412,13.8442-13.419,21.8283,1.1207.8039,4.3432-1.8987,2.6516-4.7549,2.8527-13.6249.9594-40.9421,2.5581-20.7414,20.7146,18.5198.499,36.6592,2.7065,55.2518,2.3064,88.5623-1.9057,181.7912-13.6121,270.7409-19.1604,158.6784-9.8978,317.4741-18.2508,476.1279-30.7195,10.0268-.788,45.8686.8856,51.0018-6.5947,3.3424-4.8708-.2385-10.26,6.8012-14.3183,3.013-1.7369,30.0043-4.9441,31.2759-3.8775l4.9652,19.0011,7.7308-11.529,6.6579,3.8575c-4.032-13.4862,8.0516-46.9168,2.0725-56.7793-1.6013-2.6414-22.9183-14.7753-19.3225-18.09l21.0988,7.6603,1.9208-32.6404c3.6362-3.6879,62.3718,5.2222,68.7295,1.5156.9833-.5733,2.29-5.5871,5.0464-7.411,6.2609-4.143,60.2051-1.1106,73.0839-1.7943,6.5939-.35,16.6851-1.1099,23.0984-1.8905,3.5294-.4296,3.0821.587,2.8394-3.8499h-167.0285c.4511-2.759,3.5319-3.7133,5.6724-4.8876,10.9099-5.9856,48.8556-18.1524,60.5631-18.1524h29.758c-8.8222-8.5939-19.1404-16.4168-28.9976-23.8004-9.8933-7.4107-40.1227-25.6579-44.4043-34.3118-.8798-1.7783-2.9651-6.0538-.4938-7.187l88.5584,63.1154c224.293,2.4559,450.3687-4.2401,675.6079-1.7382,152.1649,1.6902,306.5532,15.898,458.7904,25.0221,30.4272,1.8236,60.8157,3.0839,91.1733,3.8791-.788,3.829-3.9476,3.2555-6.7407,3.7992-12.3858,2.4112-29.5486,4.5244-42.2365,5.7606-140.8194,13.7198-283.4613,15.5183-424.2507,28.8402-15.3665,1.454-30.905,4.0276-45.9498,7.4374l-8.7757,209.5152-17.2986-.0018,5.8794-206.3001c1.5018-9.4638,12.6446-14.3047,17.1689-22.1899h-204.466c-.9578,0-7.8407,3.5114-8.78,4.6594-6.3897,7.809-3.198,49.1116-3.6199,61.6598-1.1302,33.6163-3.8136,67.7066-4.0476,101.5521-.6372,7.0761-5.7469,9.8636-12.3099,10.3492-165.8387-19.0919-333.2698-25.9445-499.1828-43.8441-10.3763-1.1194-15.3595-1.4954-16.4512-12.3477-2.0406-20.2869,1.5999-41.4556,2.1077-61.4695.5622-22.1577-1.3485-44.3317,1.8302-66.31-8.6115.2363-9.0479,5.1253-9.6662,12.3893-4.5371,53.3017,2.2064,116.3075,2.0887,171.0529-.1778,82.6853-1.9377,166.7493-4.0104,249.4293-.4095,16.3341,3.4259,67.8582-3.9989,78.561-8.3064,11.9735-14.128,6.7292-23.7364,6.8149-21.1636.1887-44.3391,13.8443-65.052,19.5904-52.8048,14.6491-110.9246,23.8455-164.7961,36.7926-72.8647,17.5117-145.4077,37.5245-218.4393,54.1858-183.3791,41.8356-375.2691,69.3938-556.815,115.1468-17.7537,4.4743-85.3607,32.6668-97.4922,25.5353-.9187-.54-10.4291-13.4682-14.7674-14.9726-4.811-27.3792,2.5788-60.0696-16.3438-82.535v66.24c0,5.205-28.8702,10.2203-34.5322,11.5455-206.9729,48.4425-416.455,86.9198-623.5511,134.9428l-6.3108-.4127-38.286-499.3472-15.3311-58.5587,21.0199,413.8295c1.3878,27.2798,4.7221,54.9997,5.918,82.4016.7415,16.9903,3.6672,48.2275,1.8733,63.4702-.3085,2.6211-.5678,5.2505-2.1054,7.496-4.4004,6.426-40.4915,9.4628-49.7537,12.629l-53.7829-927.3383-48.0926-4.7051c-6.1756-1.9918-8.152-8.5619-7.5568-14.5028,15.3475,4.5383,30.3753.2004,45.0277-.089,206.8984-4.0864,413.5455-11.8303,620.2758-15.2016,61.3948-1.0012,113.7596,4.1652,174.6486,9.5011,15.1681,1.3292,35.9944-6.3967,39.2144,14.5429,3.7312,24.2642-.8582,54.0267,4.042,78.5177l13.3791,461.8387c12.5046-11.2646,24.3355-23.8993,35.5252-36.4527,26.6333-29.8792,82.8137-88.5194,98.9346-121.8586,2.269-4.6924,8.2527-29.421,10.7633-29.989,45.3427,5.4869,91.243,21.3378,136.2557,26.7836,68.4539,8.2818,149.5619-9.3873,218.6718-16.9987,177.1785-19.5135,354.3823-38.5783,531.5919-57.8116,22.3737-2.0963,17.9516-23.3311,18.4155-40.1616-30.4985.782-60.8614,6.602-91.2115,9.6005-98.4623,9.7279-197.1907,16.9378-295.6341,26.9056-119.9892,12.1494-240.1227,27.7912-359.988,38.4064-.5811.7522,8.9205,7.7581-.935,9.6352l-75.9111-16.3316-2.7209-62.5589-77.5057-21.3677c-3.7521-14.332-22.5547-47.002,3.0898-49.1468,14.471-1.2103,19.4558,9.5273,21.2996,21.8744,1.1319,7.5801-3.2561,19.8988,6.9817,21.8178,10.2814,1.9272,34.2715.372,46.1018.1334,58.0431-1.1704,116.3329-5.1474,174.6521-5.8159,7.9959-10.3875,29.2735-13.5897,41.3958-10.7068,5.0196,1.1937,10.5536,6.9117,14.2986,6.8256,4.422-.1017,6.1897-6.1976,9.968-7.3175,5.5953-1.6584,9.2027,1.5361,13.1258,1.3646,3.3163-.145,9.4912-5.1006,15.5341-5.4222,9.3526-.4976,23.7593,5.1858,34.289,5.2419,12.4694.0664,27.6152-4.7029,40.2349-5.4477,7.673-.4528,40.2207,2.3911,42.8264-.3727l3.5383-9.2683,19.9395,2.0597c1.5362.5925-15.5963,8.9738-6.857,7.5329,8.2286-1.3568,25.0078-2.2867,31.3828-4.977,3.5667-1.5052,5.9959-9.5952,14.9468-10.1746,7.5382-.4879,21.2212,7.4682,28.3133,5.7846,1.9339-.4591,2.211-4.4186,4.0845-5.9102,7.6082-6.0576,18.3072-1.0076,27.0412.0111,5.3274.6214,12.3853-1.0561,16.9318.0532,1.4888.3632,1.3439,3.8867,2.2835,3.9248,3.9367.1597,9.4877-6.693,15.4155-7.6833,21.8061-3.6429,52.558,3.2384,74.6557-.2192,9.0243-1.412,17.3453-10.0982,28.9102-11.4078,33.8443-3.8326,77.82,4.6762,113.1093-.1629,9.2268-1.2653,19.1478-8.353,29.8208-10.4971,27.6761-5.5601,46.2588,4.9254,36.38-37.1242-38.7809-2.0681-77.3831,3.172-115.9689,5.5299-211.911,12.9497-423.5343,30.4972-635.3772,44.2593-41.5094,2.6966-98.443,10.9909-138.0845,5.4554-7.6188-1.0639-29.2852-5.49-35.224-8.9336-7.2675-4.214-13.0848-18.6548-19.3187-24.84l-10.1022-94.5264-32.5241,1.7858c-.2765-2.7778,4.5194-3.0972,6.6764-3.8443,6.882-2.3837,12.1117-2.9607,19.1866-3.8915,2.7631-.3635,5.6497,1.777,4.8287-2.7784l-160.3711-175.6295c-6.7467-9.5436-6.3597-16.9473,2.1489-24.9901,5.134-1.2007,53.1217,51.5385,61.2348,59.5239,2.9538,2.9073,6.7495,4.6694,9.7006,7.5787,30.4452,30.0135,59.8389,61.1582,91.1239,90.2901,1.6979-9.4321-1.6667-18.9727-1.9799-27.7603-1.4432-40.4991-.9588-80.6967-3.7403-121.0594-.5097-7.3961.9565-15.8597-.1436-22.8964-1.6705-10.6857-14.4312-22.4581-21.9045-29.934-40.5803-40.5949-86.5497-76.1908-127.7488-116.0825-10.1398-9.818-19.2928-20.3373-28.7546-30.7732-.7906-3.8467,1.6359-3.4311,4.3691-2.4427,9.4493,3.417,22.1576,14.0234,33.324,18.5169,18.1019,7.2844,36.0069,8.532,55.4238,9.8525,6.8416.4653,14.6363-.8181,21.1324.0164,3.4992.4495,3.1032-.6602,2.8462,3.8433h-52.7964l-1.9385,3.84c20.1481,23.7441,41.8318,38.3971,73.9427,40.3319l-.9311,3.7931-22.8258-3.653-3.2076,4.685,64.4261,60.4313,4.5008-3.176c-3.8193-42.9258-1.9236-86.8619-8.3747-129.2915-2.9099-6.8907-11.8216-14.0978-19.3139-15.2447-35.7677-5.4753-76.6354-1.5864-113.2329-5.7994-3.3087-.3809-6.3198.5349-8.5437-2.9857-.9119-4.6658,3.7212-2.7109,6.681-2.8466,9.5086-.436,16.6734,1.5347,24.9973,1.8961,27.1978,1.1806,54.4886,1.1863,81.5732,3.8498-8.178-51.1482-76.0685-34.3474-113.2851-42.2366l.0278-5.7471c21.0376,3.7359,38.7368-.7642,60.691,1.7055,5.0735.5708,5.7487,1.0354,2.6516-3.6321h32.6378ZM1349.2286,430.0991l-706.5204,28.7712-.0007,15.3796c229.5655-11.5588,457.1137-26.1107,686.3309-36.522,6.6121-1.849,16.5782-.7497,20.1902-7.6288ZM1381.6322,986.6343l-19.9084-554.6193c-1.7757,1.9316-5.4191,2.6376-6.888,4.6324-5.3037,7.2029-.0893,41.4344.2321,51.9133,5.0763,165.5007,12.9506,330.0369,17.1878,495.4469l2.8218,4.3916,6.5547-1.7649ZM1314.6816,479.99l-622.0502,30.7389,13.452,191.9815c10.4267-4.3074,16.1108-10.8893,28.7026-6.6107,13.9367,4.7355,11.018,20.5993,18.3332,29.6512,3.6508-11.1658,7.4128-23.9153,20.2909-12.6084l9.4392,61.5962c1.1059,17.902,2.4027,80.7886-3.3517,94.5307-4.4888,10.7197-15.4911,8.9647-23.9817,12.4966-13.1482,5.4694-20.8652,18.0253-39.834,12.9645l9.5814,195.8388,616.0173-92.4334-26.5989-518.1459ZM2808.3637,516.4686c-8.8826-17.1968-11.5565-38.6209-36.5073-27.822-11.5563,5.0017-13.3014,21.389-4.9132,29.8618,2.6832,2.7103,29.0267,15.4444,32.6391,15.198,8.87-.605,26.4901-20.9731,25.2105-30.7458-.7283-5.5627-9.811-21.0489-10.7051-8.5901-.1858,2.5888,1.7515,27.4498-5.724,22.098ZM2852.5053,520.3195c10.6386-6.2682,13.137-16.7969,2.8509-24.9498l-2.8509,24.9498ZM1664.5442,702.2636c2.3371,2.3275,8.6147,2.5856,11.9379,2.4383,90.8022-4.024,187.203-17.1216,278.4814-25.0061,159.4744-13.7751,323.2975-24.2723,481.861-44.186,7.3663-.9251,28.9736-2.9032,33.5571-6.7606,5.4593-4.5944,6.0338-31.5195.7481-33.2741-36.3665,1.6041-72.8371,6.4341-109.1861,9.3087-181.955,14.3894-363.4603,30.5656-545.2423,46.0804-43.0719,3.6761-90.0723,3.8438-132.4357,9.6353-13.5357,1.8505-24.4249,1.0467-24.0818,18.1358.0686,3.4156,2.8065,22.081,4.3603,23.6284ZM1865.6621,627.8615c-10.8263-1.5611-20.3176-9.3512-26.866,3.7993,4.7206.1113,9.4274.1768,14.1586-.2199,2.4775-.2078,11.7824-1.0644,12.7074-3.5794Z"/>
    <path class="cls-1" d="M3198.0624,1960.32h-1366.9463l-5.5002-235.8988c232.2584-91.2182,468.5571-171.978,707.2095-245.2594l665.2369,481.1582Z"/>
    <path class="cls-1" d="M1689.0459,1960.32c3.5196-14.5345,1.647-30.2136,1.8409-45.1993.2082-16.0894,3.2477-26.9378-1.7452-44.1765-4.3175-14.9068-18.2838-20.5905-21.0052-40.4334-9.7848-71.3472-4.8033-148.1572-13.6672-218.6518-1.2511-9.9498-5.6899-22.2562-13.3652-28.8739-65.3146-33.4645-141.656-55.3172-206.4966-89.1686-1.781-.9298-4.5725-1.1367-4.7393-3.8733,18.3022-4.3728,35.5696-16.9399,54.5524-17.2255l112.4445,45.059,12.0414.4899c227.6947-67.4212,454.1394-138.9649,681.5031-207.4215,106.05-31.9304,218.7557-70.5927,325.4974-96.8804,4.7642-1.1733,10.0252-1.1008,14.807-2.4734,2.9564,1.5291.2362,3.3398-.9054,4.8561-3.0034,3.9888-18.8608,22.5578-21.9451,24.1334l-799.7019,255.2789,11.4353,464.5605h-38.3974l-25.9445-403.2278c-10.3505,4.2726-49.4322,12.4104-54.4979,20.3799-1.4423,2.2691-2.0376,4.7847-2.1471,7.4527l23.0736,375.3952h-32.6378Z"/>
    <polygon class="cls-1" points="1308.9119 1960.32 1304.1339 1679.9774 1626.1346 1843.1771 1630.9418 1850.3844 1637.2094 1960.32 1308.9119 1960.32"/>
    <path class="cls-1" d="M2130.6156,0c10.2561,11.125,24.4098,14.8625,26.6992,31.8416,1.1604,8.6059,1.1836,25.6185-11.2259,17.0064l-57.7105-48.848h42.2371Z"/>
    <polygon class="cls-1" points="2199.7308 0 2176.7186 13.4389 2172.8527 0 2199.7308 0"/>
    <polygon class="cls-1" points="2155.5739 0 2153.2676 1.2993 2151.7341 0 2155.5739 0"/>
    <path class="cls-1" d="M3250.8588,451.2c6.4008,5.2889,1.2068,13.6675.9797,20.1794-3.027,86.7804,2.8349,203.2232-22.1479,285.0509-5.8683,19.2207-18.7791,39.6287-25.4056,59.0726-8.3779,24.5831-8.2539,59.9534-38.842,67.7034-7.4965-19.4406,1.3209-39.3476-2.8858-59.5139-13.9544,14.1455-35.0977,14.0364-50.9048,22.0516-21.9911,11.1508.9667,22.5027-2.3054,35.9838-2.0754,8.5506-21.2634,17.5312-24.4366,27.4255,10.9741,17.3193,59.0024,10.6153,66.5718,18.6962,5.6129,5.9922,1.1639,35.2885-7.251,40.7109-12.4365,8.014-19.3885-2.66-31.6051-2.9546-11.55-.2785-24.7147,6.9799-37.4454,4.0041l16.329-518.41h159.3491Z"/>
    <path class="cls-1" d="M1875.2725,1395.8207l-126.3012,34.1719-12.4615-1.9548c-71.1042-62.6458-143.8275-123.633-214.5187-186.7316-9.3403-8.3372-20.826-17.6815-29.3823-26.2952-1.6805-1.6918-4.195-1.6425-3.2199-5.3991l108.854-23.5063,277.0296,209.7151Z"/>
    <polygon class="cls-1" points="1719.377 1156.2149 2026.9047 1350.7191 1906.0468 1385.3566 1625.7291 1179.84 1719.377 1156.2149"/>
    <path class="cls-1" d="M2217.0097,276.48c2.5095-2.7956,30.4906,19.3812,34.3581,22.2796,51.7473,38.7806,102.0533,79.7668,152.8694,119.7601,3.6546,4.1825,6.0459,8.7796,6.723,14.3965.9461,7.848,1.2798,37.0638-.0407,44.207-.4043,2.187-.6602,3.8863-3.1511,4.5287l-782.0883,42.4996.2717-7.4301c7.1047-1.1896,12.5358-5.1859,19.8919-6.0061,44.2736-4.9369,95.0633-3.1802,140.2347-5.6759,183.8528-10.1578,367.9972-20.9089,552.0104-31.6318,17.4037-4.1665,10.088-26.1961,11.1937-39.2957-9.502-.9688-22.3773-7.9496-31.5042-7.8956-8.1653.0483-18.2908,7.3116-26.9157,7.7937-7.9046.4419-14.5069-4.0134-21.0848-3.9551-10.6611.0945-31.0553,5.1372-44.0497,5.8644-155.2899,8.6897-311.5113,13.5371-466.6268,19.1012-18.8845.6774-37.7848.6354-56.6264,1.9313l1.1589-5.9175c10.9557-8.1383,78.1044-6.6496,95.8835-7.4351,118.3425-5.2289,236.9769-8.9767,355.116-15.4196,37.6657-2.0542,84.5027-.3782,120.8026-5.9091,14.8814-2.2674,7.6697-24.7082,7.8874-36.4288-5.1179-7.712-70.1888-11.2165-81.6542-5.6831-.6374-7.3664,10.9542-4.665,16.1099-7.8685,1.3663-.849,4.9901-5.5048,4.9901-6.53v-31.68l-19.189-.0101c-1.8849-6.7786,13.4294-10.5887,13.4294-11.5099v-46.08Z"/>
    <path class="cls-1" d="M2332.1971,1261.4632c-.5199,3.1572-3.7452,3.4792-6.1493,4.3827-35.1206,13.1994-77.232,20.4271-113.3862,31.7814-102.5553-55.1133-207.7347-105.4076-310.5514-159.9862-7.8266-4.1546-19.4043-9.5427-26.2813-13.9746-1.8835-1.2138-3.4286.2025-2.4765-4.2975l100.3117-20.7918,358.533,162.8861Z"/>
    <path class="cls-1" d="M2170.9268,1307.549c3.6267,3.7678-9.6396,6.0734-11.5307,6.6814-25.6893,8.2585-63.8766,20.9889-89.5101,25.8278-2.6254.4956-5.1083,1.9194-7.8388.5783l-308.3641-187.0377-3.1921-5.4286,103.6648-22.2466,316.771,181.6254Z"/>
    <path class="cls-1" d="M2625.9371,1178.8569l-97.4418,28.407-8.6126-.0015-407.0641-138.264-7.1591-5.2978,130.9997-26.5451c122.5691,45.2784,246.7192,86.5021,369.1603,132.088,2.3988.8931,21.7985,7.4552,20.1177,9.6133Z"/>
    <path class="cls-1" d="M2478.1072,1219.2231c-.5193,3.1557-3.7471,3.4778-6.1494,4.3828-35.0484,13.2034-78.7084,21.3803-114.8411,31.3144-115.0415-54.8454-238.2776-98.8319-352.5865-154.4263-4.0793-1.984-9.9857-3.7345-12.1431-7.9934l90.2801-20.3857,395.44,147.1082Z"/>
    <path class="cls-1" d="M2862.0834,1107.8606c-.532,3.2109-3.7437,3.4495-6.1673,4.3698-12.259,4.6545-81.1895,24.9014-90.227,24.0016l-416.1968-124.3704,75.2668-14.982,437.3243,110.9811Z"/>
    <polygon class="cls-1" points="2744.9618 1142.4215 2658.0834 1168.8893 2259.7759 1035.3371 2257.3237 1031.0488 2328.7841 1018.0465 2744.9618 1142.4215"/>
    <path class="cls-1" d="M1467.8013,1215.8297c66.9179,73.2197,140.9925,140.0882,212.6558,208.7596,2.7748,2.6589,20.2275,18.8602,18.1817,21.1578l-98.8401,26.9054-46.6674-27.2716c-.3772-10.4361-3.5355-20.5502-2.1451-31.1444,1.077-8.2057,14.0548-35.4724,12.3763-39.4615l-146.9285-162.3045c15.7854-4.6216,34.6971,2.5523,51.3673,3.3592Z"/>
    <path class="cls-1" d="M2963.8267,1079.0616l-74.5609,21.7494c-141.8943-34.2872-284.7068-64.9828-426.5388-99.5053-6.969-1.6963-14.7797-3.2323-21.4996-5.3992-2.0128-.6491-5.7983-.4847-5.3427-3.2466l33.2749-5.6172,494.667,92.0189Z"/>
    <path class="cls-1" d="M2157.4937,268.8h-49.9166c-4.2194-11.2126,1.4743-25.246-4.7997-34.56h-50.8765l-2.7694-38.5104c-3.9395-5.5886-40.6049-2.8775-49.1955-6.4811-6.2562-8.0343,3.8776-33.9966-3.7001-38.5521-8.1683-4.9105-42.8402,4.0555-48.9254-10.5796-7.1779-17.2633,4.5407-45.3073,22.9758-51.1712l172.7661,128.0566c3.4894,2.8383,14.4412,14.522,14.4412,18.1978v33.6Z"/>
    <path class="cls-1" d="M2491.5626,983.0184l46.7249-11.3457c160.1813,29.1734,321.1029,55.4599,481.1829,85.3315l1.9507,5.7018-37.0665,11.8636-492.792-91.5512Z"/>
    <path class="cls-1" d="M2217.0209,65.2718c2.2534-.4389,3.6982.2768,5.6671,1.0488,7.4299,2.9135,42.5104,22.1479,47.9662,26.9111,36.5038,31.8696,80.1456,56.6617,114.2856,87.3066,5.4822,4.9209,11.1642,14.1881,15.3589,17.2801,5.3631,3.9532,14.3983,2.714,14.5593,12.3287.0871,5.1997-3.1239,14.2048-2.9183,20.316l-4.8773.923-191.0636-133.4045c-6.9227-7.8023,1.6665-22.9643,1.0221-32.7097Z"/>
    <path class="cls-1" d="M2412.8283,255.3482c-18.768-3.1931-33.1676-27.4911-52.7006-26.9331-8.028.2293-16.045,7.5864-23.2307.1552-2.743-2.8367-2.3155-7.2316-5.9481-9.3975-14.1303-8.425-43.4445,1.0605-48.2111-24.7317-1.5564-8.4219,2.3575-19.4842.0758-24.9218-2.6657-6.3525-44.4561-39.6794-47.5326-38.9597-5.3907,6.2855-5.8809,15.7553-10.1069,22.5103-1.2331,1.9711.1009,3.3639-4.2967,2.4428l-5.7772-47.9834,195.3621,139.6431,2.3661,8.1758Z"/>
    <path class="cls-1" d="M1740.8823,286.08l-40.3074-52.8097,2.8379-.928c34.7709,27.4622,65.0003,63.1969,98.8817,91.2013,16.4559,13.6015,21.9642,14.5273,43.1523,8.5479,77.4228,2.8824,157.2007-6.2167,234.3838-1.943,5.8168.3221,13.3109,1.2038,19.1004,2.0573,3.3452.4932,3.2314-1.0072,2.8766,3.7842l-83.5835-.0691c-54.5636,8.3033-123.2175-3.6072-176.6404,3.8275-5.8081.8083-9.0414,4.96-14.6485,6.4586-17.2631,4.6138-30.8449-5.9391-46.8063-6.4265-10.236-.3126-24.3121,4.0111-34.4547,4.0661-10.135.0549-34.6657-.8166-44.0251-2.2106-6.8613-1.0219-11.559-7.5559-5.8837-7.5559h98.8732c.5258-3.0001-.2956-4.4409-1.8286-6.8119-7.471-11.5548-32.1902-31.3939-45.7755-34.8608l-36.8701-6.3274h30.7179Z"/>
    <path class="cls-1" d="M1740.8715,412.8171c3.0927,3.5033-2.6006,3.9395-3.8079,4.7359-43.3569,28.5985-81.8379,62.282-122.1973,94.8202-5.5051,3.098-18.0485,4.9261-17.9689-3.5506,22.7466-6.0246,37.5264-29.2595,54.7613-44.1324,19.9035-17.1757,45.5312-28.2003,62.2112-48.7542l-94.6387-85.5613-6.9924,4.6964-28.776-50.9014c1.2856-1.3378,15.4412,10.7933,17.2959,12.4433,42.5617,37.8648,82.8497,78.6769,124.8274,117.2175,3.9883,2.7756,11.7549-5.0128,15.2854-1.0135Z"/>
    <polygon class="cls-1" points="2153.6627 378.2488 2153.6627 385.9112 1719.755 397.4312 1719.755 389.7688 1899.1923 383.9208 2153.6627 378.2488"/>
    <path class="cls-1" d="M1285.8638,11.5279l6.7102,270.7311-6.3036-5.2158c1.4481-28.9601-5.2502-58.277-.4151-86.9522l-4.7552,5.7325-58.5752-60.4895c-1.2265-5.4792,10.0693-6.0552,13.401-3.7692l48.0083,48.915c-3.5206-20.5762-1.2857-41.6389-1.8212-62.479-.6328-24.6232-3.1054-50.2102-3.8992-74.8203-.2809-8.7075-3.9587-34.0049,7.6501-31.6526Z"/>
    <path class="cls-1" d="M2224.6791,199.6899c2.132,2.8028,1.0624,42.0235,1.8871,48.9929.9465,7.9998,5.1088,11.2021,10.6639,16.2153,37.6122,33.9433,88.2643,62.0824,126.5921,96.1193,2.2209,1.9722,16.1673,13.587,7.7033,15.2981l-154.7183-114.1675c-1.6061-2.1496,1.5973-47.1474,2.3528-53.6168.1973-1.6892,2.137-13.2877,5.5192-8.8413Z"/>
    <path class="cls-1" d="M2457.0029,264.97l15.4062,2.9795,4.7784-20.3067c1.875.0939,27.9729,18.5233,30.6521,21.1874,10.3758,10.3171,11.3765,29.1428,20.1991,41.2395l69.0665,59.5492-135.7235-98.4873-4.3788-6.1616Z"/>
    <path class="cls-1" d="M883.3204,1370.29c-1.2184-1.4223-3.3153-5.4557-2.3762-6.8474l22.9954-12.8836c2.5987.6538,40.2513,28.782,43.1146,31.8363,1.2684,1.3531,3.032,2.151,2.5769,4.4682-3.4606,6.4823-11.5966,17.8495-19.7362,16.6832-3.4076-.4882-43.3453-29.4872-46.5745-33.2569Z"/>
    <path class="cls-1" d="M2153.6433,69.111c-4.1738,4.7507-68.1791-51.8502-79.7172-51.6273-8.985.1736-61.8046,53.1945-72.9638,61.3056-4.454,6.0761,15.1087,23.9674,12.5224,26.8099l-24.8005-22.3429c-.7229-4.1404,53.7516-51.0827,61.2694-57.3639,5.5534-4.64,19.7173-18.0928,25.9611-18.0799,3.9426.0082,13.0027,7.2708,16.911,9.8199,11.7448,7.6603,50.5264,33.2858,58.0016,41.8339,2.9138,3.332,3.3546,5.2466,2.8159,9.6446Z"/>
    <path class="cls-1" d="M1698.6382,144.0287c2.6774,2.8134-.1611,3.4751-2.8385,3.8152-21.6412,2.7488-44.6253-4.7104-66.3371-1.0276l2.1225,11.4878-3.5723,1.3656,7.2671,18.8803c-18.9725,3.9653-22.4075-18.524-32.5821-29.7611,5.0287-6.9446,10.0585.9334,15.2746,1.95l-9.5604-10.5596,90.2263,3.8495Z"/>
    <path class="cls-1" d="M2157.4932,215.0208c-3.4526.5415-5.7665-.3137-8.7901-1.7504-9.5678-4.5461-58.168-41.7484-66.9757-50.139-5.098-4.8567-6.8013-7.1665-8.59-14.3749l4.6205-2.805c19.1252,17.0358,41.8341,29.7507,61.4166,46.129,8.4684,7.0828,15.8423,11.069,18.3187,22.9404Z"/>
    <path class="cls-1" d="M1692.8856,240h-77.7547c-.7849,0-4.1686-2.898-.9943-4.8331,14.1129-8.6034,55.4035,2.7597,72.9889-.9461-7.1152-15.5006-28.3186-19.9652-26.8582-40.3006,15.1116,12.0023,36.7531,23.1553,32.6183,46.0798Z"/>
    <path class="cls-1" d="M2453.1535,489.6c-31.4522,11.9295-27.3031-25.8767-14.3986-42.2055,2.8123,3.6708,14.3986,9.9403,14.3986,14.3655v27.84Z"/>
    <path class="cls-1" d="M1268.5948,1299.8208c6.6985-2.5318,32.4835,2.382,23.034,12.4978-13.9552,14.9393-39.4637-14.3847-51.8276-22.0555,9.9834-1.9022,18.2976-9.4919,27.8914-2.0041,8.1392,6.3526.3589,11.156.9022,11.5617Z"/>
    <path class="cls-1" d="M2197.6049,74.6588c-24.3144,5.0585-29.1211-21.3924-19.9764-38.1162,19.9327,5.7,26.3362,18.0932,19.9764,38.1162Z"/>
    <path class="cls-1" d="M1335.6233,1282.3366l-7.5122,5.9643c6.8673-.8918,12.836-2.9039,20.0362-1.7723,10.274,1.6147,13.1664,9.5936,1.2079,12.4611-18.582,4.4558-33.4983-9.7871-44.2732-23.1216,9.6227-6.769,29.1938-8.6234,30.5413,6.4684Z"/>
    <path class="cls-1" d="M1297.3929,1294.0606c10.2963-.6058,24.9168-6.0636,26.8195,8.5162-13.0564,11.7857-33.571-1.6358-44.1214-11.354-1.8719-1.7242-9.4984-7.4514-5.7715-9.6562,7.3298-4.3362,28.327-5.4387,30.7546,5.7701l-7.6813,6.7239Z"/>
    <path class="cls-1" d="M2455.0616,259.2001c-23.6155-1.6695-26.5567-20.4603-21.0842-40.3193,22.0673,5.6576,25.9214,19.4826,21.0842,40.3193Z"/>
    <path class="cls-1" d="M1122.6801,1416.9367c-15.3242,5.1199-31.1945,16.0615-47.4386,8.1067-13.3221-6.5238-1.7872-10.5637,6.5865-13.4256,13.1365-4.4897,31.6467-7.8028,40.8521,5.3189Z"/>
    <path class="cls-1" d="M1009.425,1436.1256c-4.4008-5.9651,23.1742-12.8616,26.1102-13.197,9.5209-1.0874,21.3369-1.8996,27.5954,6.512-15.8688,11.8033-35.6759,17.0076-53.7055,6.685Z"/>
    <path class="cls-1" d="M1059.3243,1363.2233c-15.3959,12.5745-41.103,19.4717-57.5751,4.7506-.8486-4.5588,2.0659-2.3108,4.7187-2.8875,19.1336-4.1595,34.136-12.572,52.8564-1.8631Z"/>
    <path class="cls-1" d="M1316.5762,1344.0367c1.0129,4.4836-.6469,3.0685-2.4596,4.2593-13.4713,8.8493-37.5791,14.9411-49.3232.5036,15.6517-10.4267,34.9392-15.0582,51.7828-4.7629Z"/>
    <path class="cls-1" d="M1178.353,1399.7102c3.0034,3.2684-9.5496,7.832-11.5345,8.5951-13.3746,5.1414-30.1987,9.2474-40.257-3.8256,15.9064-10.7932,34.4395-13.9641,51.7916-4.7694Z"/>
    <path class="cls-1" d="M2199.7308,311.04c3.4648,22.9176-15.6205,16.7711-30.6965,21.136l-5.781-21.136h36.4775Z"/>
    <path class="cls-1" d="M1310.8521,209.2886c1.6934-1.2323,10.3378,6.1017,12.4119,7.7182,2.5449,1.9834,10.9524,8.8379,12.2891,10.7513,5.2214,7.4744,7.5506,26.079-5.6065,17.1211-11.106-7.5614-26.0077-20.9918-19.0945-35.5906Z"/>
    <path class="cls-1" d="M1416.4092,1280.6766c.5971,5.0259-.0657,3.0263-2.7932,3.8411-15.5671,4.6501-33.832,12.8543-47.0717-.9958,12.5116-12.7794,35.1144-10.7691,49.8649-2.8453Z"/>
    <path class="cls-1" d="M1249.3801,1359.3971c.843,4.3665-.2721,3.0417-2.4345,4.2404-12.843,7.1196-35.8113,14.7507-47.4505,2.4169-.8723-4.4649,2.0075-2.3289,4.5437-3.0626,16.2408-4.6983,28.6834-14.3529,45.3412-3.5947Z"/>
    <path class="cls-1" d="M1259.0046,1367.0497c14.805-.121,32.5459-10.9986,44.112,2.8703-11.416,11.7074-37.2417,16.1375-44.112-2.8703Z"/>
    <path class="cls-1" d="M1596.8825,86.4195l-21.0536,8.758c-16.0922.4437-37.1711-3.5227-40.3719-22.1986,5.4583.063,7.3083,5.7474,12.0697,8.0699,11.8992,5.8042,35.6932,3.8058,49.3558,5.3707Z"/>
    <rect class="cls-1" x="1773.5201" y="284.16" width="124.7914" height="3.84"/>
    <path class="cls-1" d="M1696.7253,284.16l-.0131,7.6734c-23.4503-5.7195-47.3413,3.0275-71.0128-1.9231-.8232-1.7903,1.7011-5.7503,2.8706-5.7503h68.1553Z"/>
    <path class="cls-1" d="M2069.1605,151.6797l-47.9772-40.3002c18.4974.6923,44.0623,22.231,47.9772,40.3002Z"/>
    <path class="cls-1" d="M1316.0779,1354.0352c9.6409-1.9795,15.6492.8194,21.5951,8.2054-10.7771,9.0879-25.6594,13.8718-32.605-1.8695.4111-1.7681,8.8277-5.8878,11.0099-6.3358Z"/>
    <path class="cls-1" d="M1220.6035,1378.5731c10.7517-1.1402,28.442-10.1962,34.5232,2.809-9.5248,11.5763-29.1565,12.7687-34.5232-2.809Z"/>
    <path class="cls-1" d="M1089.5384,1344.4289c18.1683-3.638,32.3233,10.2326,7.736,15.6017-12.135,2.6499-28.9474-11.3543-7.736-15.6017Z"/>
    <rect class="cls-1" x="1917.5102" y="284.16" width="99.8332" height="3.84"/>
    <path class="cls-1" d="M1001.7284,1359.3369c-11.5871,3.8257-25.6559,8.1998-34.5173-2.8568,8.9885-10.6722,30.0245-12.8177,34.5173,2.8568Z"/>
    <path class="cls-1" d="M1047.7954,1344.0364c1.0189,4.491-.6641,3.0708-2.4617,4.2584-11.9807,7.915-20.3056,6.435-32.07-.489,5.6725-14.0545,23.9915-10.669,34.5318-3.7694Z"/>
    <path class="cls-1" d="M2178.8015,253.6458c7.0223-5.8845,19.7173,8.1635,22.6177,14.2057-.0318,6.202-20.5497,5.7003-24.8322,3.8874-1.9709-1.1405,1.5159-17.5078,2.2145-18.0932Z"/>
    <path class="cls-1" d="M1091.9621,1338.2166c-11.7656,4.5228-26.8382,11.8053-34.546-2.8315,10.4402-9.2699,26.5168-9.3799,34.546,2.8315Z"/>
    <path class="cls-1" d="M1230.1973,1313.28l1.9199-1.92c11.9925-2.8949,25.9801-8.8702,29.8623,7.7191-7.2774,5.4965-16.8551,6.0734-24.8137,1.6187-3.6776-2.0585-5.4156-6.378-6.9684-7.4178Z"/>
    <path class="cls-1" d="M1230.1973,1313.28c-1.5656-1.0483-23.2759-12.5705-21.114-15.3368l23.0239-5.7734-7.6689,9.5711,15.3578.0383-7.6789,9.5808-1.9199,1.92Z"/>
    <path class="cls-1" d="M1337.7219,1267.2359c11.6385-7.1095,19.9623-5.8185,28.7525,4.7638-10.0711,11.5668-23.8284,10.1129-28.7525-4.7638Z"/>
    <path class="cls-1" d="M1364.5887,1259.5393c10.9679-.851,25.9712-7.2469,30.718,6.6309-10.1542,9.8582-24.3262,4.6703-30.718-6.6309Z"/>
    <path class="cls-1" d="M2179.8634,280.6114h16.6951s3.032,2.8112,3.032,2.8112c5.2939,16.0806-33.6753,12.6412-19.7271-2.8112Z"/>
    <path class="cls-1" d="M1612.2611,527.9901l-.9606,23.0404-18.2115-20.1497c4.6333-5.3171,12.9321-2.1281,19.172-2.8906Z"/>
    <path class="cls-1" d="M1575.7541,128.6398c-7.0955-5.2564-16.9559-12.0811-23.0488-18.2094-2.0326-2.0444-4.5189-3.3221-3.7909-6.7497,13.8786,2.8614,28.8008,7.8036,26.8397,24.9591Z"/>
    <path class="cls-1" d="M1568.0983,468.4614c-2.7447-.5022-6.1293,1.922-8.4232,1.5217-4.2972-.7498-18.0529-24.7835-4.3265-22.2655,2.9704.5449,14.8324,18.4245,12.7497,20.7437Z"/>
    <polygon class="cls-1" points="1546.9388 243.8546 1560.4055 264.9495 1539.3424 261.0413 1543.136 245.0433 1546.9388 243.8546"/>
    <path class="cls-1" d="M2390.7843,385.926c10.1881-2.4564,27.8868,18.801,17.2219,21.1059-2.1003.4539-16.5969-13.8338-18.2166-16.3118-1.5943-2.4392-2.1378-4.0388.9947-4.794Z"/>
    <rect class="cls-1" x="1671.767" y="188.16" width="57.5961" height="3.84"/>
    <path class="cls-1" d="M2199.7187,236.1958l-4.7879,7.6108c-5.1782-6.8702-15.27-9.7486-18.2308-18.1759.5944-3.0619,2.7675-2.3764,5.1186-1.3531,5.9132,2.5735,10.9855,10.5002,17.9,11.9182Z"/>
    <path class="cls-1" d="M2453.1521,431.9794c-12.742,3.6639-20.7707-1.3332-19.1868-15.3301l19.1868,15.3301Z"/>
    <path class="cls-1" d="M1566.1646,234.2501c2.9229,2.5914-9.4603,11.1034-12.5709,11.5797-3.3069-1.5929-12.4302-10.6898-5.6935-11.5931,5.6376-.756,12.4444.5325,18.2644.0134Z"/>
    <path class="cls-1" d="M1587.2923,516.4992c-5.3347,9.9828-21.1878,10.4932-28.788,2.8515l28.788-2.8515Z"/>
    <path class="cls-1" d="M2453.1442,284.1497c-3.0368,2.9294-24.1233-14.4318-21.0994-17.26,9.1361,2.2143,19.9719,6.3485,21.0994,17.26Z"/>
    <path class="cls-1" d="M1977.0169,239.9903l-28.7791,1.9196c1.0257-10.7546,16.9859-2.89,24.4384-7.2839l4.3407,5.3643Z"/>
    <path class="cls-1" d="M2192.0512,382.0612l-26.8779,3.8393c3.4634-9.329,20.8342-11.2468,26.8779-3.8393Z"/>
    <path class="cls-1" d="M1322.3416,40.3097c-10.9688-.037-15.1977-6.9163-13.4104-17.2694,3.3355.6832,15.3726,15.4355,13.4104,17.2694Z"/>
    <rect class="cls-1" x="1877.193" y="238.08" width="59.5159" height="1.92"/>
    <rect class="cls-1" x="1723.6035" y="236.16" width="28.798" height="3.84"/>
    <polygon class="cls-1" points="2161.3238 332.1795 2140.228 337.9134 2140.2046 332.1683 2161.3238 332.1795"/>
    <path class="cls-1" d="M1111.1655,689.28c.6404-.413-1.0208-5.8438,6.6359-5.8933,23.865-.1541,32.4094,23.5554,24.4657,43.716-17.7816,45.1285-86.8991,16.3376-59.8755-28.2177,8.6599,12.8437,20.9424,14.8491,21.1045-3.8358l15.3486,3.8112-7.6792-9.5805,3.8389,5.7412-11.5089-4.7906c.9767-2.3608,6.4284-.1499,7.67-.9506ZM1141.6079,704.9359c-5.164-2.9428-7.7219-2.1208-11.2342,2.5936l9.5926.9593-1.9047,11.5096c5.6272-2.2239,4.0104-10.3454,3.5463-15.0624ZM1130.3541,727.6709l-.0095-9.5813h-1.8809s-1.938,9.5717-1.938,9.5717l3.8284.0096Z"/>
    <path class="cls-1" d="M1015.1836,721.9415c-.277,3.0991,4.1326,2.2451,5.9136,4.6068,3.7551,4.9794-.8587,11.6327,9.424,9.762-15.6704,31.7732-62.2177,29.8868-67.1915-6.7023l17.3042-2.8881-17.2599-7.6798,6.6981-4.8743c11.5849,11.0728,25.5811,4.257,20.1474-11.4323,6.8519-1.0566,9.8242,5.8261,14.4121,9.5481l-4.8184-9.542,11.5097,1.9077-.0107-4.3499c1.0866-7.0726,15.9931,9.5679,15.5135,14.846-.4903,5.3961-7.2819,6.5528-11.6419,6.7982Z"/>
    <path class="cls-1" d="M812.2453,835.7452c-6.9475,8.1221,4.3157,16.1466,3.061,21.137l-13.2397,13.858-3.8278-2.005c4.4221-19.359,2.2193-40.0256,4.076-59.2071.6607-6.825,5.9993-32.4855,13.3072-17.6583,7.9818,16.1944-2.9914,15.7949-3.6937,23.5027-.3468,3.8059,8.9052,8.2878,7.202,14.6709-.9536,3.5739-5.3331,3.8871-6.8852,5.7017Z"/>
    <path class="cls-1" d="M897.9522,627.9363c1.5963,1.5549-1.4907,21.6612-2.3695,25.2846-.4648,1.9164-.5539,5.7872-3.2573,5.3241-3.8649-7.0315-4.6864-13.0598-3.8496-21.1256l3.8439.9626-3.8401-12.4612,9.4726,2.0156Z"/>
    <path class="cls-1" d="M902.4247,604.3367c.4467.9953,7.6636,2.6079,4.3358,9.9998-6.3564,14.1194-12.0835-9.6792-6.7589-17.2047,3.5501-.3321,1.0689,4.1877,2.4231,7.2049Z"/>
    <path class="cls-1" d="M971.0154,702.7006c3.1578-6.458,13.5192-11.2796,19.1598-4.7806-4.9498,4.9847-12.6415,5.0098-19.1598,4.7806Z"/>
    <path class="cls-1" d="M894.2304,560.6303c.1709-7.1686-2.3396-15.8477,5.7327-19.1879-2.2247,5.486-.6004,10.3652-.1677,15.9947l-5.565,3.1932Z"/>
    <polygon class="cls-1" points="825.26 710.2807 830.8538 708.4654 832.765 727.6704 824.0126 710.5132 825.0845 706.5702 825.26 710.2807"/>
    <path class="cls-1" d="M1049.7188,529.929c1.8493,4.8796-10.4726,8.0818-12.2813,7.5967l-3.0534-7.6,15.3347.0032Z"/>
    <path class="cls-1" d="M853.8892,702.7148l-7.6458.0104,1.9245-11.5108c3.0919.1608,6.7922,10.2472,5.7213,11.5003Z"/>
    <path class="cls-1" d="M886.5304,641.2704c-6.7883,1.175-5.4877-9.4417-5.7297-13.4302l5.7297,13.4302Z"/>
    <path class="cls-1" d="M959.4862,706.57c2.8154,2.6979-10.2076,12.8709-9.5802,1.9296l9.5802-1.9296Z"/>
    <path class="cls-1" d="M846.204,693.1105c-4.4374-2.4065-5.8948-10.7914-5.7206-15.3503,5.211,2.468,5.6673,10.3615,5.7206,15.3503Z"/>
    <path class="cls-1" d="M882.6913,558.7297c.5267,5.9113-4.8315,6.2031-9.5891,5.731-1.4342-1.0312,7.9179-7.3827,9.5891-5.731Z"/>
    <path class="cls-1" d="M802.086,777.5997c-.0472-4.2206-1.0977-10.033,3.8011-11.5194.0472,4.2206,1.0977,10.033-3.8011,11.5194Z"/>
    <path class="cls-1" d="M892.2913,545.2908c-1.0723,3.2563-.1278,12.0462-3.811,13.4195,1.1494-3.5713-3.4433-14.8957,3.811-13.4195Z"/>
    <path class="cls-1" d="M869.2377,648.9455c-3.7776-.5902-.7447-14.5024,1.9244-15.3362l-1.9244,15.3362Z"/>
    <path class="cls-1" d="M886.5602,610.5597c.2181-4.3516,1.0889-11.4924,5.7219-13.4385-.8367,4.1067-1.2771,11.5496-5.7219,13.4385Z"/>
    <path class="cls-1" d="M1230.4942,606.415l17.6818.5663,2.8181,2.9405,40.6333,275.1883-52.7114,3.929c-8.9207-.5775-18.0343.5928-26.9258-.1109-4.542-.3595-26.4337-3.8852-29.3378-5.215-5.5884-2.5589-4.7641-9.0329-7.6118-10.114-15.1779-.788-33.3859-5.31-47.6958-1.9372l-.8447,9.6041-4.7744-5.7088-2.8959,9.5707-5.5503-1.8735c-4.9549,7.3143-7.7409,23.3486-15.449,27.6123-4.4617,2.468-13.6559-3.4092-14.619,3.1268-3.2451-1.3344-7.4515-1.3688-10.3852-3.1003-3.4279-2.0232.2093-6.9299-11.5913-2.7191l1.9143,11.5055c-3.0232-.8976-3.5666-4.4196-5.9033-6.6401-2.9586-2.8114-7.733,2.3504-3.6912-6.7951-4.0648,2.5059-3.1822,7.2624-9.5735,5.7744l5.7475,5.7221c-10.8043-.8102-4.8209-10.1227-5.7787-17.2519-3.2468-.2224-1.6989,4.1951-3.6733,6.8501-1.4757,1.9844-5.4766,3.4659-7.8107,4.676l-.3288-5.4761-5.4503-.3059,5.7545-8.6426-5.7334.9664,1.8937-9.5868c-10.942-2.0943-7.6595,13.1984-17.2687,13.4108l5.7576-13.4032-6.8515,1.4938-3.6976-5.3439-8.6288,15.3425c-.9414-8.784,3.7429-18.2797-5.9571-22.3355,3.2413-6.8048.6695-5.2826-2.6928-10.2895-3.0087,3.3301-5.4548,6.6644-10.5583,5.745,1.4913-7.4392,2.3898-11.6558,1.8953-19.1862l-7.6984,7.6397-3.6875-.1344-1.2046-3.7832-8.5041,2.0477-1.8764-8.7822-5.8077,1.0742c2.2368-3.7899,2.7923-10.676.1709-14.223-1.5737-2.1293-5.4972-.7166-5.9549-1.132-.5986-.5433,1.9087-4.2399,1.0102-5.8265-2.4074-4.2509-16.7665-7.4256-12.5318-19.1392-6.4202,1.4973-22.8344-7.9418-25.4153-13.9036-5.108-11.7994,5.3446-22.5934-5.2431-31.2032l6.3018-2.8689,1.3341-3.8208c-8.7921,1.8959-12.7002-15.0455-11.3077-19.8959.5268-1.8349,10.2009-8.0784,12.6928-10.305,1.2684-1.1333,3.7067.1167,2.4509-4.3779l-19.1795-.0207c2.8045-8.6329.5747-14.4677-3.8067-22.092l10.7426,10.1256c13.101-3.0179,28.9103.2762,39.1232-10.1117l-5.7669-.9572c-3.3923-8.1809,21.2291-18.9088,24.5961-16.9083.4415.2623,6.5317,7.1733,6.1221,8.2465-9.8399,8.4752-21.1461,16.6088-34.3617,18.4311-4.9841,16.4073,15.2595,12.6047,18.1751,14.9574,2.6644,2.15,4.8176,11.246,7.6867,15.4751,10.0997,14.8871,25.7897,20.2245,43.0612,21.2655l-2.8396,3.849c14.3979-2.986,33.0727-19.6141,37.9689-33.0707,2.3199-6.3758,1.9279-14.7044,3.6432-19.3966,1.6872-4.6154,22.128-9.6449,25.2482-7.2893,3.9425,24.9705,15.8316,47.2988,43.4933,50.1073l-5.7398-3.8022c18.7562-.1726,34.1659-9.0196,42.2477-25.9201,2.2469-4.6987,3.9227-14.6444,5.5557-17.0441,1.7992-2.6439,10.689-.638,7.8732-10.8021-3.9667.0951-8.3353-.2437-11.4905-2.938-4.7048-4.0174-15.5648-20.3033-15.5771-26.819-.0127-6.6927,4.6313-19.2165-5.5784-20.1573,11.5535,34.3188-8.3694,22.011-27.3049,28.8525-2.0446.7387-4.4004,6.7398-8.2268,7.5962l6.7317-9.5682c-11.7635,2.0037-22.2808.6602-29.8858,11.505l3.1698,8.5878-3.3285,4.5639c-7.4235-2.5444-23.2178,4.9654-28.1298,3.8155-6.4355-1.5066-10.611-16.3366-14.8937-19.7376-6.0794-4.8277-16.9961-4.0963-24.027-6.6271l-1.9683,3.7676c-9.5319-4.6814-17.8058.3074-26.6945.0449-7.2963-.2155-11.6208-5.0127-15.3301-5.1625-10.127-.409-24.7597,14.4745-36.2053,8.5804-15.473-7.968,1.6403-23.6146,3.7279-32.3915,1.1204-4.7104-2.2762-8.7341.7726-13.432l-5.7395,1.9256-.9623-5.7688-14.4108,9.5707,5.74-11.5004-5.7222,3.8405c1.9246-5.1236-4.0969-5.5574-4.0678-8.5674.0995-10.3193,14.3558-9.3845,17.0532-17.789,1.465-4.5646-.526-9.5586,4.2739-13.9461l-9.5979,1.8824c2.4093-11.4092,8.6342-14.1237,19.1767-18.2825,2.1314-.8408,4.974,1.0727,7.5951.0358,8.2048-3.2458,10.3819-6.9608,22.5496-9.827,6.0172-1.4174,7.6747,2.183,12.1139-8.3684-6.2905.5667-13.989-1.0246-19.5895-3.9319-3.7849-1.9647-4.6978-8.956-14.9808-5.7022l1.9457-3.8092-19.7695,1.9666-5.195-9.6492,23.0291-3.836-1.9128,5.7277,42.223-7.6453-13.42,6.6907c1.8212,4.3306,12.2845,2.0455,16.859,4.2596,3.9216,1.8981,2.8619,5.9596,6.1502,6.3004,1.5178-3.5551-3.1935-7.0998-3.2038-8.6518-.007-1.0491,8.3805-17.6578,9.9531-18.2118l1.9336,3.9477,16.2947-5.8552c-6.5452,6.8786-9.3222,10.9149-7.6599,21.1002,8.5389-10.2567,28.9127-26.112,26.8568-1.9291,10.0619.6998,15.1302.1107,18.2757-9.5944,6.6621,1.1965,9.0198,5.8754,16.2699,1.8996-3.6036-5.3242-11.8149-2.2458-7.628-11.4905l-5.7872-1.9056c7.9155-3.6109,21.0407,4.3995,25.8406,3.9049,3.9163-.4036,5.3015-4.9958,9.6854-5.825,26.7914-5.0675,60.4211-.7097,87.8531-5.3609,4.6655,1.1462,8.4011,2.1189,10.5338,6.7685,5.9439,12.9589,5.1365,48.5577,11.0478,58.0728,2.7197,4.3777,32.2921,9.0914,31.9544,24.6754ZM934.5282,595.1897l-.9412-3.8202-4.7706,4.8094,5.7118-.9892ZM937.4362,595.2384l-14.3794,10.5404c5.1844-.7617,13.3885-4.8351,14.3794-10.5404ZM1170.6714,758.4101l-17.0095.2299c-2.672,4.4258-.7457,8.4938-.2386,13.1987,4.4083-3.6873,10.1362-6.0009,14.7538-9.1501,1.7232-1.1752,3.5474.2955,2.4944-4.2785ZM1038.22,789.1099c5.3368.5402,36.8642,3.9561,34.4811-6.6015-.1654-.733-8.8882-11.2313-9.5331-11.6168-11.3151-6.7635-22.1413,8.5656-24.9481,18.2183ZM1090.0374,775.6902c-5.3939-.8196-11.5861,1.2709-11.5001,7.6597l11.5186.0016-.0185-7.6613ZM1028.2934,777.9406l-7.2643-.2538-2.0262,19.1192,17.278-.0162-7.9876-18.8493ZM1049.7196,800.6443c-3.7449-3.8441-14.2968,13.8086-19.1823,14.4041l3.8431,4.7815c-18.542-.7351-12.2326,23.945-30.7095,26.9069l-1.9139-5.7628-1.1085,7.7258c26.7561,7.8192,51.7353-15.2527,79.7894-11.5992l-30.5376-3.9971,5.5885-19.0042c-13.3736-1.9861-10.9468,17.2186-13.3806,20.044-5.5479,6.4406-17.5899,4.0108-10.6464-4.7347,7.1389-8.9916,20.7825-14.8591,18.2578-28.7642ZM1074.6685,815.9904v-7.6609h-1.8809v7.6609h1.8809ZM1156.69,816.2612l-6.3644,7.5143c4.8769,10.9587,13.9874,9.9364,18.0328-1.0849l-11.6684-6.4294ZM1109.2393,842.8665l-1.9326-13.4173-4.9917,7.562-14.1788-1.7911,13.3359,6.7935,7.7672.853ZM1010.3724,833.28v1.92c1.2467-.64,1.2467-1.28,0-1.92ZM1006.5327,835.2v1.92c1.2467-.64,1.2467-1.28,0-1.92ZM988.2844,846.7395l-5.7403-.0095.0095,3.8294,5.7273-1.9423.0034-1.8777ZM1078.5265,850.5777l-15.1123.2222c-1.4151,7.5621-6.6067,13.2475-4.0737,20.87,8.099,1.2173,5.2307-13.026,7.6952-15.3426,4.5073-4.2367,7.5405,15.0173,10.5762,7.6947,1.7969-4.3343-2.4374-8.7558.9146-13.4444Z"/>
    <path class="cls-1" d="M813.5758,768.0098c.4961,3.5811.0066,6.6427-3.8105,7.6698l-.0091-7.6697h3.8196Z"/>
    <path class="cls-1" d="M855.823,606.72c.3099-.472,5.5242-4.1093,5.7407-3.8403-.5759,16.6424,9.998,16.8771,16.347,1.9296.2429,4.22-1.9199,19.8681-3.8182,23.2135-.9634,1.6979-3.9413-.0653-4.4138.4019-2.8603,2.8278-5.5576,9.3016-9.9999,11.9209l3.7853,1.8768c-10.7095,8.4801.287,15.0505-3.8119,25.9641l-7.6561-.0166,1.9189-17.2723c-10.7157,1.7386-8.4587-11.6966-18.9809-.7309-4.4461,12.4182,16.1275,24.3896,13.1906,27.5926-2.4134-4.1979-14.3406-9.3929-15.4852-10.8724-1.6763-2.1666-10.973-51.1305-19.0437-42.8772-.591,4.386,3.8418,5.3091,5.2562,9.1239,3.5461,9.5642,2.3129,23.7528,2.3978,34.0445.2381,28.87-1.3272,54.8754-13.4712,82.046l-11.4631,11.0983c2.9164-7.5602-4.3157-11.0727-5.3958-14.7743-4.4283-15.1757-5.5056-40.9426-4.1817-57.198.9064-11.1287,7.4921-25.9499,7.7513-34.649.4367-14.6564-8.1502-30.2781,6.6262-43.1324l-.967,7.6531,5.7514.0319c-2.7693-14.0928,9.2868-20.9892,16.2016-30.8576,4.9603-7.079,13.7702-23.3582,20.2991-27.4435,1.1724-.7336,3.6435.8238,3.7354.6579.686-1.2383-.625-5.2895.9783-7.6926,1.2356-1.8519,5.6578-2.0113,7.7639-3.7822,5.9325-4.9885,9.9895-12.7475,18.0907-14.5487l42.3615-1.7955c-3.393,3.3831-8.577,3.1635-5.7507,8.63l-2.8641.0102-2.9376-5.7336-8.6071,5.7354-1.901-3.8269c-7.4754,13.1793-16.7514,3.3766-25.4196,7.1642-3.3152,1.4486-23.9201,24.4821-21.6164,27.3796,3.4864,4.385,3.3428-4.9818,5.7299-3.8206l.9622,5.3015c2.3749-1.6961,3.7294-2.2875,2.926,1.4282-1.6644,7.6974-10.3078,5.9746-11.4277,9.8034-.6964,2.3808,1.9662,6.1902,1.7105,9.2397-.3582,4.2713-5.9295,22.8266-3.7351,26.0704l3.8087-1.9455,1.9138,13.4411c2.366-6.2084,4.5568-20.1594,7.7009-24.9485-1.9037,1.9295-7.7343-3.7396-5.7498-5.7502,1.9532-1.9789,7.6874,3.7864,5.7498,5.7502ZM832.8039,595.1997c4.8988-1.4864,3.8483-7.2988,3.8011-11.5194-4.8988,1.4864-3.8483,7.2988-3.8011,11.5194ZM828.9253,597.1102v-3.8204h-1.8808v3.8204h1.8808ZM817.4061,604.7905v-5.741h-1.8809v5.741h1.8809ZM823.1749,623.9903l-3.8099-17.2606c1.4823,3.8985-3.868,18.4419,3.8099,17.2606ZM811.6465,618.2305v-5.741h-1.8809v5.741h1.8809ZM812.6259,620.16v1.92c1.2467-.64,1.2467-1.28,0-1.92ZM832.7778,627.8529l-5.7428-.0034c-.2872,3.6546-.3673,7.2887,2.8794,9.5809l2.8634-9.5775ZM846.2041,639.3502v-3.8204h-1.8808v3.8204h1.8808ZM809.7267,660.4705v-5.741h-1.8809v5.741h1.8809ZM803.9671,710.3998c-.4605-3.3613.1377-12.1672-3.8006-13.4303.1,4.5733-1.6524,11.4991,3.8006,13.4303ZM812.6259,716.16v1.92c1.2467-.64,1.2467-1.28,0-1.92ZM796.3263,731.5196l3.8108-2.9082-2.8795-4.7618-.9313,7.6701ZM811.6576,725.7715l-3.8213-.0017.0095,7.6606,1.8762-.0048,1.9356-7.6541Z"/>
    <path class="cls-1" d="M988.2935,685.4593c-1.155,4.3374-6.0032,4.0952-9.5898,3.8008-2.3726-1.1116,6.9243-4.7804,9.5898-3.8008Z"/>
    <rect class="cls-1" x="882.7206" y="675.8496" width="1.8809" height="9.5808"/>
    <polygon class="cls-1" points="988.2936 706.5792 985.4141 710.3616 982.5438 707.5105 988.2936 706.5792"/>
    <rect class="cls-1" x="892.32" y="616.3296" width="1.8809" height="7.6609"/>
    <polygon class="cls-1" points="972.9255 529.9395 972.922 531.8172 967.1947 533.7595 967.1851 529.93 972.9255 529.9395"/>
    <rect class="cls-1" x="857.7529" y="679.6901" width="3.8196" height="3.8198"/>
    <path class="cls-1" d="M1035.3118,915.8784c1.0634,1.2226,3.8661,2.5025,1.9576,3.7632-.9254-1.1254-3.8544-2.4269-1.9576-3.7632Z"/>
  </g>
  <polygon class="cls-2" points="1051.6337 823.8778 1058.6544 820.7557 1067.2081 826.8834 1073.728 814.3728 1080.438 825.2129 1086.3571 820.6281 1098.6878 837.12 1088.1362 835.22 1068.5904 835.2 1049.8464 837.12 1048.0592 829.4492 1051.6337 823.8778"/>
  <polygon class="cls-2" points="1003.671 846.7368 1003.0592 838.4685 996.3571 844.7877 997.889 846.7368 1000.6485 848.6998 1007.4677 848.6448 1003.671 846.7368"/>
</svg>