<?xml version="1.0" encoding="UTF-8"?>
<svg id="Layer_1" data-name="Layer 1" xmlns="http://www.w3.org/2000/svg" viewBox="0 0 9157.7038 5890.8815">
  <defs>
    <style>
      .cls-1 {
        fill: #fff;
      }

      .cls-2 {
        fill: #c31b1c;
      }
    </style>
  </defs>
  <rect class="cls-2" x="5655.9039" y="145.8034" width="3500.08" height="2141.12"/>
  <g>
    <path class="cls-1" d="M9155.7839,145.7234h1.9199v2142.72h-1929.4677c-5.1146-4.4734-13.2039-6.1475-19.6469-8.1918-54.0752-17.1568-115.3543-37.5207-170.0047-50.7837-16.7082-4.0549-28.8995-2.1676-43.1606-4.8364-9.8717-1.8474-24.672-10.3396-36.6821-13.2354-13.5735-3.2728-26.7566-3.4649-40.0045-6.0727-18.3186-3.6061-35.5059-9.6888-53.3447-14.8215l21.0971-2.8488c-8.1687-7.5-25.9596-16.9437-36.9986-15.9055-7.1656.6739-14.0242,7.3792-23.4603,7.4009-26.3565.0607-49.9989-19.2686-73.5138-26.4734-48.3481-14.8134-102.0542-19.615-150.7128-33.5969-2.893-.8313-9.8998-7.8664-14.8124-10.1466-10.6583-4.9469-23.6162-5.7559-34.4708-9.6868-28.2464-10.2291-42.4367-18.5991-74.0163-23.8986-44.3746-7.4468-92.0338-13.8787-135.7421-25.5286-34.2183-9.1205-56.0612-33.2022-90.8101-35.9043-25.5979-1.9905-51.1726,8.1545-71.0199-15.3746-7.5389-8.9374-17.9284-35.6035-4.6936-43.1245,7.358-4.1814,34.1759-8.4212,43.1164-8.7027,8.7204-.2746,15.6667,1.9494,22.9491,1.9712,157.615.4726,313.2826-6.8815,470.526-11.5201,24.9097-.7348,62.1516-5.6837,86.2056-1.8898,18.0423,2.8457,18.9585,30.7568,15.8471,44.443-2.7874,12.2609-31.9882,60.1129-41.23,68.743-34.6668,32.3719-109.2408,6.7566-152.0907,26.8879l3.2068,5.405c32.7841,1.9899,66.8489-1.5304,99.482.3511,39.7185,2.2899,78.6938,16.0658,119.1303,11.5799,113.1964-11.6118,227.4734-.4413,340.6874-9.6893l-10.4187-11.6454c-4.3747-6.1961-11.8328-25.7859-7.7921-32.4999,1.3103-2.1772,26.3852-18.19,30.2959-19.595,7.2631-2.6095,68.0766-6.8025,44.9089-27.7955-8.9587-8.1178-50.1828-5.5739-63.3901-6.2873l-3.0237-4.9277c.1226-2.8741,16.2487-9.0901,18.9385-11.5697,3.6068-3.3249,4.3187-9.4827,7.7492-13.3701,11.6458-13.197,30.5792-5.162,32.6585-6.7187-3.5892-10.9783-27.8219-21.0613-6.202-28.2621,13.2764-4.4219,29.4522,2.7445,30.6787-17.3218,1.6694-27.3119-34.0379-12.2502-46.4455-27.466-6.4697-7.934-9.397-29.668-.2238-36.5486,5.1501-3.863,21.7901,3.5954,27.0052,7.8165,8.2179-8.8788,3.983-23.8231,20.232-20.3337,21.5804,4.6343,14.9895,23.8916,11.452,39.5747,16.5452-5.4362,13.947-25.009,7.9925-37.7703-13.4992-28.9306-58.0498-14.1422-83.4846-18.2709-14.5149-12.8617-43.4671-68.7806-.7979-54.8818,24.0708,7.8407,49.7514,36.5179,75.1137,16.9943,12.777-9.8356-30.9638-7.7965-33.4015-9.7697,2.6009-23.1507,21.0229-38.067,16.8245-61.9288-.9737-5.5344-4.9559-10.0372-5.4173-15.81-.3748-4.69,2.2619-11.628,1.1292-14.3527-1.1741-2.8241-37.6505-38.0365-43.2264-43.2764-9.5269-8.9529-27.9436-20.802-35.4263-29.8505-2.2851-2.7633-3.3764-5.8717-2.9881-9.4727,5.7294-.7641,9.6676,3.4038,14.0309,6.1083,58.8874,36.4999,116.9811,85.5889,172.1437,127.3645,32.0081,34.5285,78.8335,52.2842,101.2388,98.4343,14.0735,28.9885,5.219,49.3734,4.7767,79.7142,3.7206,7.883,12.7276,6.1503,19.595,9.1924,11.4751,5.0831,10.9225,18.1384,13.6222,28.6169.785,3.0468,3.6912,5.7814,4.3755,9.0641,3.9977,19.1781-9.7978,84.9157-17.2893,104.7403-12.0492,31.8853-43.762,53.2551-57.5568,78.76-10.9515,20.248,5.7868,23.9331,21.5248,29.1848,15.3764,5.131,31.6077,7.3558,47.1241,11.9374l7.7714-10.8254c3.1734-.7338,22.0804,12.1382,28.7262,13.1806,14.6538,2.2985,32.5711-.6035,46.9186-3.7029l-9.5893,9.5613c23.4791.6293,46.4427-7.8875,70.0967-7.81,34.9695.1145,67.4225,13.9089,101.6418,17.5095l237.8365,1.9226,4.1666-9.703c17.5301,13.4085,31.2177,15.1646,52.7889,11.5331l-.0122-5.7528h-30.7179c.8346-2.9918,7.7339-4.9142,10.493-5.8285,16.9802-5.6267,35.2571-6.6971,48.281,7.3044l48.7295-5.3256-1.8891-4.8121-154.0565-20.6528c-7.2191-2.1384-13.3969-8.9491-12.9873-16.7558,8.2618-.5326,16.8234,1.1731,25.006-.9156,7.9621-2.0324,16.6614-11.7591,22.89-13.5884,5.6865-1.6701,11.1152.0661,16.8806-2.3182,5.8495-2.4191,8.1433-10.5983,11.3824-11.7109,5.299-1.8201,11.5257,1.8055,16.9619,1.8153,8.7167.0157,46.7308-23.8486,59.1687-29.3054,15.2843-6.7055,31.4653-11.9438,47.3654-16.9695.6099-2.6838-.3878-3.1563-1.8632-4.8288-28.4615-32.2639-68.2594-28.6141-106.0627-39.8477-3.0273-.8996-10.186-1.8673-11.091-5.2005,83.591-12.8027,169.0017-14.5507,251.5122-33.6199-34.9138-7.4161-71.239,2.8634-106.4931,4.8791-62.5457,3.576-127.306,1.1127-190.2253,1.7617-43.8521.4523-103.3545,7.2431-145.8767,2.0451-7.7398-.9461-12.7075-6.3239-20.0985-7.75-.4597-3.3369,4.3651-1.8096,6.6856-1.8956,41.5995-1.5423,83.4252,1.3248,124.732,1.9989,17.6896.2887,35.4031.3775,52.8755-2.0179-2.4989-5.9578-15.1738-5.21-10.5482-13.4307,15.9627-2.1403,16.5803,7.8193,27.8224,12.4944,8.7709,3.6475,19.8449,3.9642,28.7883.9307l-7.6865-4.7694,9.5599-21.2369c4.1738-2.6402,8.4767,8.0433,18.7878,3.6476,3.5577-1.5167,16.3928-24.6521,26.4023-25.6045-1.9197,19.8116,18.0468,18.1955,22.3539,34.2401l15.0567-1.6369-11.5042-1.9149c17.3601-23.9125-9.8594-23.1864-24.9492-31.6703l19.2034-2.8768-.1544-5.5906-42.1083-11.7043c-1.0224-1.3916,6.387-19.5752,5.8554-23.726-.1791-1.3983-3.5852-.2873-4.0816-3.9576-4.3274-31.9972,3.1803-74.3298.2355-107.7331-2.3674-26.8542-28.1505-32.543-48.7222-19.7694-4.098,2.5446-14.5073,15.792-17.5231,15.0465-5.5167-3.2631-15.7925-26.879-5.8278-26.879h28.798c.3119,0,5.6129-1.883,4.7855-3.816-11.2285-4.1218-25.0532-5.4266-36.9627-3.4039-9.3775,1.5927-16.5253,9.3763-25.0507,13.348-7.6729,3.5745-19.8668,5.0837-26.205,10.2732-16.0549,13.1451,5.7905,42.5723-10.612,52.7083-4.788-1.017-2.8229-29.6001-2.8172-35.5841.0073-7.7248-3.6427-11.4986.4372-20.5337,6.3561-14.0758,22.7397-8.4567,32.1093-16.8318h-70.0752c-1.1693,0-3.6938-3.9598-2.8706-5.7503l202.2915-15.6148c5.9553-2.925-1.006-4.2605-.4396-9.8054.1607-1.5733,5.8107-21.6149,6.4065-22.6287,3.4927-5.9434,10.6468,13.5636,14.4576,10.6556l5.7357-10.5922c-34.5773-5.7617-11.197-45.5591,2.8737-61.4557,11.0951,4.2468-3.4901,36.1196.9797,46.0619,11.8283-2.3103,23.1965-18.6778,24.7811-29.9175,9.2672-65.7363-11.3984-120.8081-71.5034-152.7975-18.9911-10.1075-23.6455-5.3631-42.5296-7.3874-9.5971-1.0288-19.0273-4.7652-28.8372-4.6366-12.0232.1577-23.9587,5.9063-35.5069,8.5332l3.0192,9.5439c-31.7478,29.1558-83.2486,75.8777-35.7114,116.2425,3.9087,3.319,9.2005,4.1678,11.568,8.5685-9.4133,2.3808-23.9495,4.1828-30.4893-5.006-5.3528-7.5211-11.2986-51.41-9.7153-61.1084,2.7183-16.6513,49.2396-50.2596,59.4046-66.326-30.6964,10.5711-56.8163,34.3555-68.6601,64.7557-9.8547,25.2947-6.6587,49.1904-2.3935,75.385-20.5241-13.0891-16.2452-35.1759-12.8599-56.0794,10.1499-62.6739,55.2267-87.8256,110.0773-108.4087l62.1412,8.9583c.9247-5.32-1.1003-3.2363-4.2017-4.3262-16.8596-5.925-34.7046-9.768-51.4929-15.8495,4.0396-10.8885,16.086-24.5787,26.9298-28.749,12.9676-4.987,17.1375,1.5874,23.4058-14.9998,7.9695-21.0886-2.4082-38.8066,1.808-53.8668.3573-1.2761,2.1685-3.9055,3.6353-2.3363l11.4256,6.8573c-1.5335-10.1492-13.0807-15.5662-13.558-25.9516-.5076-11.0453,9.9547-13.4878,9.757-23.9745,12.7407-.7865,19.1045,14.0801,27.3525,17.7527,3.915,1.7432,8.1799.8512,12.1087,3.2505,4.6342,2.8301,6.8256,11.9371,10.444,16.4353,5.4754,6.8068,15.433,7.4649,16.9922,15.8456,1.3192,7.0909-5.6296,10.697-6.9625,17.2413-2.178,10.6936,2.8857,25.2802-8.0975,33.1594-5.6067-13.9523,2.9331-47.9086-5.646-58.3155-1.8105-2.1962-3.5962-1.038-5.8848-1.2108l5.7484,92.8354-3.8499,2.1758,13.4761,22.1021,33.5116-105.6708c34.8236-8.2336,3.3564,30.9818-2.587,43.5174-11.3866,24.016-24.1023,54.8153-19.4103,81.3583l51.2173-137.3231c-.2746-2.5054-16.1098-12.1015-19.5195-14.3867-19.3588-12.9739-74.9296-53.0315-94.3267-55.4274-10.588-1.3078-31.6988-.7278-40.9315,4.7197-14.1457,8.3463-5.6705,29.7958-5.8924,42.1078-1.3844,76.8194-66.088,128.0876-141.0799,121.8896-16.2938-1.3467-65.1098-14.7853-78.3475-23.4068-2.7982-1.8224-4.128-4.2547-5.196-7.2642,57.5328,21.1119,106.0806,39.8359,163.0346,4.6277,33.0261-20.4163,47.5045-41.0104,50.1503-80.4062,1.6694-24.8562-6.8542-49.2779,16.241-66.3179,32.4414-23.9359,74.3185,2.6199,103.6832,19.1508l4.778-17.2225-17.2698,7.6693v-26.88l46.103,25.8883,2.0704,12.3408c20.8123,4.6645,41.4219,12.2462,63.1712,11.6812,1.4007-12.6839-14.2454-4.8558-23.9964-5.7479-15.2373-1.3942-60.3344-37.6558-79.5824-47.1286-13.1292-6.4615-30.4639-13.8693-44.234-15.2828,12.0534,8.3324,8.6773,24.5229-5.7592,25.9201.6995-6.2808-1.0924-14.1192.0388-20.102.7054-3.7305,4.3045-4.8726,3.7821-8.6793-37.1614-9.1629-72.2498-2.7802-101.5785,22.2359-27.2197,23.2172,13.0936,32.4016,9.4228-.161l3.8135-.949c.8972,5.6267,17.7617,22.268,13.4662,26.855-4.2285,4.5156-8.4617-9.036-11.5006-5.7389-1.9428,2.1079,11.8582,21.9581,9.3525,29.4275-.8525,2.5412-11.6999,8.2568-15.1205,8.9609v-32.64c-6.1107-3.0167-10.7194,10.6289-11.1051,14.8401-.4764,5.201,2.7525,10.0452,3.215,15.119,3.838,42.1044-21.5307,77.2891-62.7178,86.6285-47.233,10.7103-99.8002-27.2594-134.8172-55.1289,22.2361,9.2961,44.4995,18.7156,66.5678,28.448,6.5565,2.8915,12.4326,7.9335,18.4818,10.3169,24.0235,9.4655,71.4607.7537,85.5349-22.7467,2.3777-3.9702,11.0715-31.5933,11.6529-36.3831,2.1595-17.7914-19.3347-50.8689-16.221-58.3262,1.5661-3.7508,23.3017-22.2746,28.0549-25.8023,47.3547-35.1447,103.4035-33.1567,155.4246-7.9262,17.9439,8.7028,60.3776,48.4096,75.9475,48.9665,12.9665.4638,47.4736-28.8513,41.1799-45.9167,20.4611-1.4671,27.3391-7.3577,31.6773-26.8734,8.61-38.7326,4.5035-82.1113-1.1563-120.9464l-14.8022-2.4852-2.3861-20.6544c-3.0887-.5799-4.1486.6399-5.3062,3.3138-3.0967,7.1528-3.1421,24.6295-4.8587,33.5499-.4105,2.1332-.3811,7.6229-3.2449,7.2772-3.6546-24.3961,4.8603-47.102,5.7207-71.0211l-6.3481,19.5422-18.6033,139.8172-5.7764-1.1429c1.0139-24.1541-1.2769-48.6477.0482-72.7672,2.1079-38.3681,11.2611-76.881,13.4018-115.2373.7026-12.5892-3.1205-61.9691,4.9713-68.006,6.2751-4.6815,11.8541.2303,16.2382,4.5918,3.9756,3.9551,5.4146,9.613,9.5269,12.5529v-53.76c-3.3591.303-1.6575,4.6327-4.6708,7.809-4.5321,4.7771-30.0633,13.9851-31.506,18.4117-2.4246,24.7712-2.3225,49.7602-4.1589,74.5608-1.1487,15.5135-5.1108,32.6113-5.8221,47.9392-1.3919,29.9968,9.3951,67.6008-11.4191,93.1987,3.1522-66.8821,6.6534-133.8731,9.5997-200.62.5759-13.0462,3.5881-29.5807,3.6426-42.4803.02-4.739-2.851-14.2856-8.4583-14.2418-7.3358.0573-11.333,17.0498-17.0981,17.2452-12.929-5.5093-27.2926-2.0498-40.0405-4.2035-7.7215-1.3045-14.5226-8.7453-19.7456-9.0815-8.1422-.5241-23.4693,3.5795-32.4727,3.8616-13.504.4231-31.1072,1.0244-44.3046-.0106-13.4033-1.0512-28.3754-8.8632-38.5465-9.5958-9.6864-.6977-30.5942,12.2869-33.3756-.0494,24.9933-7.8619,51.8812-4.7971,77.8294-5.7041,45.3476-1.5851,106.9101,2.5781,149.5517-4.0381,7.889-1.224,33.1283-14.0985,10.6769-15.2692l2.2629-5.404,20.7618-2.223c-19.0566-9.6823-41.6458-6.6289-62.4599-7.6256-89.2577-4.2741-177.7236,2.1369-266.7032,5.7599-31.4344,1.2799-64.835-.1986-96.1521,1.7613-10.8269.6776-55.0923,9.4987-60.4225,6.8125-4.2053-2.1192-5.4383-14.3066-5.8033-19.1433-5.8126-77.0294-3.1033-155.1831-5.769-232.3106-1.1861-34.319.3268-69.2623-7.6229-102.7937-1.0741-.8148-7.9712,7.0363-10.5217,1.902l-17.2473-59.4478-22.1155,10.5098,15.349.9699-13.4385,17.242c15.4281-1.0272,29.0692,8.7887,28.7785,24.9787-1.0227,1.3559-9.6054-7.2743-10.814-7.4773-2.4977-.4194-5.8361,5.4724-12.7833,3.3425-5.5407-1.6987-8.2289-16.5619-16.7196-12.1657,1.2526,7.8377,31.6323,33.9291,30.7284,38.3508-2.0934,10.2407-27.1793-9.1096-31.3944-8.3053-10.4492,9.3486-19.598,20.8125-33.8557,24.657l-1.957-11.5198c-4.2958,1.1347-2.0931,7.4298-7.6392,5.7611-4.5073-15.9653-11.2088-31.0711-11.5573-48.0016l-7.6506,1.9094c-.7581-.8167.4929-18.1902-.0067-22.1051-.4471-3.5033.6523-3.1012-3.8436-2.8459v79.68c0,2.0317-5.5096,3.6835-7.6507,2.8704-13.1627-51.2319-5.1044-116.7352,23.3901-161.8499,15.1484-23.9841,49.8912-47.6591,75.5012-24.4273,28.1326,25.5202,46.7248,69.2574,50.8044,106.6322l9.8277,181.2045c74.1431-1.5081,149.1146-3.2279,223.5531-1.8013,71.4662,1.3696,147.5301,3.2274,218.5284,11.8567,34.4099,4.1823,68.7476,11.8961,102.511,19.4168,6.2889,28.9089-.5569,59.6706,2.241,88.5227-11.4153,57.413-7.9191,124.118-19.2413,180.6066-3.3496,16.7118-15.4585,20.3285-10.9109,41.972,1.3397,6.376,8.2255,10.6084,7.3634,17.5931l-.2748,535.9326c8.8598,15.6009.7018,42.4573.0721,61.2318-.866,25.8199,4.6681,45.1384,5.9195,69.1191,1.3398,25.6742-5.7981,53.6552-3.6729,78.5528,1.6645,19.4997,13.2024,45.7009,19.4951,64.9833,5.7752,17.6966,5.3226,41.385,29.3206,45.5574,17.0528,2.9649,31.5933.4913,47.8109.0273,135.7116-3.8829,271.6714-12.1066,407.1706-19.0414,4.5439-.2326,8.7414-1.8998,13.2805-2.0786l348.5456-17.1938-.0102-1683.8469ZM7710.1069,452.9103c-1.8723-7.2253-20.949-55.5079-23.9818-55.6287-4.396,3.4207-3.2729,9.3219-2.4014,13.8955l26.3832,41.7333ZM7681.3057,418.3637c-8.7178,8.5748-10.6604,18.0912-24.9007,10.5409,9.4304,18.0639,24.2859,4.8664,24.9007-10.5409ZM7681.325,447.1634c-2.6139-.0704-3.7284-.6538-5.8558,1.2698-3.8954,3.5223-9.3993,20.4943-15.1589,22.6485l-17.3821-.8591c8.8701,14.8766,24.99,18.5483,38.3968,6.7008v-29.76ZM7646.7777,531.634c18.5974-8.0935,28.7544-24.5219,8.6195-38.3813l-8.6195,38.3813ZM8159.3515,1303.4854l-11.3029,12.4899,12.2382,8.6377c6.4913-1.2979-1.7508-17.1693-.9353-21.1275ZM8078.7253,1351.4758c-13.9656-3.3081-4.7147-24.684-18.2388-28.7797-1.4668-.2829-1.1619,1.7722-.9687,2.8788,1.5089,8.6391,12.7986,37.4895,16.9567,46.412,3.334,7.1542,7.1105,14.1984,12.8416,19.778-3.2208-14.9893,3.2549-29.0907.0879-44.2265-.8439-4.033-3.4535-12.0858-8.7367-11.4058l-1.942,15.3432ZM8215.0478,1355.3426c-4.7206-.1114-9.4274-.1767-14.1586.2199-2.477.2077-11.7773,1.0653-12.7048,3.5769,10.3298,3.1775,20.7587,8.489,26.8634-3.7968ZM8261.1344,1464.7743c3.8701,13.7578,6.7467,46.844-7.6104,14.2855l9.502-102.6158c-16.8456,16.459-1.4671,42.7731-20.1441,57.5949-4.4249,3.5116-10.7411,4.619-14.4411,8.5979-6.1287,6.5907-5.5607,18.0496-16.1291,22.2547-12.3672,4.9208-19.2098-1.346-29.8909-5.8787-3.8234,4.0568,12.2449,14.3305,14.8961,14.98,7.1822,1.7596,20.4454-7.1864,21.5593,4.1749l-7.6674,5.7769c39.8662-2.8619,24.0382,26.8247,8.3408,45.8811l-8.18-2.831-5.8989-23.8196-3.8597,30.7142c10.5668.2324,21.5519-6.1233,30.6974,1.914-.3473-16.3905,12.7115-29.8191,24.1534-40.2535l21.9227,30.6439c-3.7024-18.6198-7.6511-38.8546-13.1863-56.9541-.956-3.1261,1.5555-5.4219-4.0638-4.4655ZM8203.5534,1386.0577c-1.327,8.8847-10.3279,22.238-11.2018,30.2257-.8834,8.0741,5.0789,7.7055,8.9985,1.1804,3.925-6.5341,4.3084-17.2125,4.1005-24.7185-.0637-2.2984,1.4145-7.156-1.8971-6.6876ZM8178.5701,1401.4222c-2.6983-.192-3.6919-.611-5.8715,1.2787-2.8898,2.5055-14.303,19.5019-14.9182,23.1884-1.365,8.1802,4.7599,13.3328,6.459,19.6214,4.3913,16.2528-16.0496,37.8778-14.4472,55.7324l39.4473-78.6777c.5749-2.6448-1.0016-13.5104-4.8821-9.6373-.9362.9344-6.9304,21.06-8.7394,24.9704-1.3334,2.8824.2747,4.7411-4.7175,3.8139l7.6695-40.2903ZM8094.0778,1443.6426c-5.2634-15.8034-21.6955-30.4385-38.3782-32.62l38.3782,32.62ZM8163.1925,1518.5236l-14.3797,15.3233c-17.7297-26.2724,2.594-58.2648,2.8606-86.3632-18.8463,24.9895-17.4099,66.7309-10.9292,96.389,4.1448,18.9686,14.6905,38.0246,18.6496,57.199,3.4573-.1904,4.2063-8.155,3.8822-10.4511-.5089-3.6055-6.0566-7.8559-7.8547-13.4266-6.312-19.5545,6.8116-39.1124,7.7713-58.6704ZM8184.3305,1541.5634v-44.16l-13.4392,13.4212,7.4833.2163c4.5133,3.6963-1.7611,27.0394,5.9559,30.5225ZM8253.4367,1602.9836l-18.1376-32.7123-3.9225-26.7784c-13.6437,13.9745-24.9569,32.7113-29.7483,51.8204l24.9186-36.4679c6.809,14.5768,2.468,54.1171,26.8898,44.1382ZM8168.9715,1545.4034c-4.4064-.2356-3.434-.7074-3.8514,2.8378-.7018,5.9617-1.95,17.4524-1.9842,23.0716-.0296,4.878,2.4081,2.6,5.8355,2.8905v-28.8ZM8178.5347,1579.978c-4.5482-.5965-3.0556-.0875-4.0233,2.6306-4.6078,12.9431-4.469,28.6248.2439,41.5005l9.4066-31.7128-5.6272-12.4183ZM8157.4764,1620.2976l-24.5358,68.2303,8.1968,6.5994c6.5164-.086,17.5575-57.9787,18.2061-66.2382.1656-2.1085,1.5445-8.9271-1.8671-8.5915ZM8255.3464,1762.3627c1.096-9.9353,5.3244-19.7661-4.7512-26.4835-10.217,5.3508-18.5348,14.0618-16.3378,26.4747l12.4965-7.7873,8.5925,7.7961ZM8090.2569,1790.2034c-3.033,21.5984,2.2505,49.6679,0,72l-7.6709.0088c-.7078-22.2654-.2811-46.1381-1.827-68.2703-.2295-3.2863.1957-6.3485-2.9908-8.5289-1.0218,19.3109-1.8787,39.2566-1.0305,58.6304.5741,13.1134,11.2654,42.6188-3.7492,46.9947l.0253,2.795c10.951,11.0278,23.2802,30.2738,41.2945,22.1762l9.5442-26.8881c7.8093,2.9752,19.0382,19.1764,24.4826,21.5685,7.9657,3.4998,17.6639-3.3949,26.3768,5.2732l5.5504-141.8489c-13.1766-3.79-28.9086-6.118-31.9563,10.7826l-2.2467,85.8263c1.964,12.5778,10.4392,12.9438,19.0633,19.3298-7.1495,5.1831-13.3502-2.192-20.3859-2.8248-6.3147-.5679-16.6156,5.1971-19.0815-3.7335l1.1234-114.4551c-3.2119-18.938-17.4956-22.676-34.04-16.6705-10.6115,3.8519-20.6421,11.2005-15.9002,23.4333l24.2683-18.8971,21.9346,12.4621-2.0858,10.2785c-3.8063,3.3517-17.8597-15.6741-26.6401-.7341-.9366,1.5937-3.8275,9.6462-4.0586,11.2919ZM8140.1735,1843.0034v-84.48h-1.9199v84.48h1.9199ZM8255.0847,1766.5024l-9.3067-1.3843c-2.7985,1.4369-4.769,7.1324-5.315,10.181-2.3601,13.1772-1.2992,33.3415-2.3914,47.5291-1.9811,25.7331-17.2674,82.225,24.973,77.756-5.6685-8.8933-9.3902-14.5041-7.569-25.8003,3.9445-24.4657.7322-42.5728-.1891-67.2213-.5101-13.6464.7988-27.4386-.2017-41.0602ZM8218.7886,1904.3356c1.3886-13.4531,5.1018-27.6389,5.9396-41.0917,1.2644-20.3045,2.2733-59.4157-.0459-78.835-1.0879-9.1088-6.9169-12.275-14.4275-16.351l-10.095,11.0959c-.7202,21.8481-6.987,45.4447-8.1298,66.7491-.7595,14.1578,7.0868,33.8123-5.9129,40.4209,5.547,14.3337,17.2692,20.8268,32.6716,18.0117ZM8228.4875,1908.2834v46.08c4.7999.319,3.2972.482,3.7937-2.8879,1.0565-7.1713,1.6048-14.8264,1.9848-22.072l14.193,7.8367,6.9378-10.6875-26.9094-18.2693ZM8130.5609,1914.0486c-2.5819-.5184-4.7235.7384-5.4983,3.2222-.7551,2.4207,7.6099,47.1059,9.1415,49.4364,3.9198,3.5241,18.4692-2.357,17.4786-7.5154-1.3198-6.873-10.6685,5.2863-13.4125,2.8526l-7.7093-47.9958ZM8207.3884,1915.9636c-.7751,9.6637,7.0908,18.3778-4.8523,23.025l1.9872,3.8566,13.9142-6.65-11.0491-20.2315ZM8161.4818,1934.9794l-1.1372-11.3234c-4.4488,1.2998-20.4541,17.8856-18.2287,21.0558,5.9311,4.1703,15.8706,3.4878,21.0469,6.8469,2.9351,1.9046,3.5758,6.2981,4.9246,6.7169,6.9366,2.1537,5.4816-8.1144,10.4594-9.6581.4566,1.8344,3.6456,17.4625,7.6846,13.4277l3.0755-19.2635-27.825-7.8023Z"/>
    <path class="cls-1" d="M6759.7882,830.2034c.029-.477-2.2901-2.2344-.2376-3.8404,50.6615-49.5901,127.9795-64.6916,195.7059-77.1579,87.0392-16.0212,179.6114-26.1642,268.2714-25.6531,37.5849.2167,77.4554,5.4636,115.1781,2.089,15.8317-1.4163,26.7161-9.1679,31.0986-24.5799,4.3942-15.4531-.5703-41.302.4092-59.1101,2.6729-48.5957,17.174-84.4464,35.5881-127.6095,4.6036-10.7909,16.1315-45.4594,21.2136-51.745,10.1433-12.5453,30.1962-10.0363,39.2983,2.7929,13.1528,18.5387,10.8819,63.457,9.6644,86.4932-1.0871,20.5677-4.8413,44.7546-10.2232,64.6561-8.5708,31.6936-31.2786,61.1933-22.4732,95.5763,3.9081,2.7598,11.9506-12.8179,14.887-15.3819,23.2124-20.2686,105.5829-28.0086,137.7323-30.6793,6.047-.5023,34.7943-3.0788,37.5553-1.0989l40.0993,193.9554c-1.0975,16.9737-32.9537,8.1368-42.1107,19.2929,9.1213,12.3438,28.5376,3.9025,42.2556,9.545l.9654,4.909c-4.0115,5.2703-7.0055,3.7863-11.5797,3.7863h-27.8381l7.6899,433.9107c27.6103-12.5481,58.9261-13.3671,84.4253,4.8282-27.9227-8.9376-53.0494-3.1069-79.7593,6.5778-3.5937,19.6002-4.3457,37.5381.9574,56.8823,1.1142,4.0644,5.4299,7.9447,5.4319,11.0137.0024,3.57-6.2403,25.3282-5.3047,26.2887,4.9161,1.1239,3.3608-1.3204,4.9693-3.595,2.4569-3.4745,19.4884-39.6034,25.7243-34.7817,8.5037,15.7283-5.6771,27.5511-7.6709,43.1809l7.6707-4.7811c.7119,4.0546,2.9397,7.7022,1.6565,12.0709-2.1461,7.3062-18.7327,8.1998-22.7388,14.7884,24.8826-11.3623,52.3084-4.6594,74.8812,8.6561-25.4049,2.1606-71.2051-15.2516-81.6347,18.1995,17.1688-11.6442,34.1199-21.1461,54.5377-10.3199,1.6366.8678,10.4767,5.8334,7.8666,8.4329-21.2433-4.1655-64.3226-2.3821-59.484,28.7979,4.8702-2.3356,3.0519-10.8637,6.2841-14.8271,7.4966-9.1925,30.7415-14.4521,41.6959-8.1848,4.4751,4.1985-14.6005,6.9059-15.3524,8.6118l24.5805,17.6606c3.5397,11.49-6.5401,18.8827-7.2334,28.6511-.5475,7.7155,5.0251,15.6504,3.773,23.7742l11.4895-3.836c-.3827,22.5704,24.1145,22.9302,35.8143,41.9617,4.0983,6.6665,14.1645,35.04-.3952,25.3534-7.7154-5.1331-5.2662-12.7537-7.4688-19.4088-3.7062-11.1985-19.3568-14.6356-28.5754-19.4216l-12.7862-11.194c-.2554,11.3287,36.5179,42.061,35.6513,48.0491-6.3332,17.9421-6.8351,16.1477-24.1409,11.4794l13.1385,12.7415c-4.8046,14.9738-10.7177,13.1658-22.8182,7.4798-2.7687-1.301-19.2698-11.2506-20.0661-12.573-2.663-4.4223.3911-13.626-2.4297-20.6101-2.6102-6.4628-12.4366-9.5241-16.6039-16.0349-1.8013-2.8143-8.8015-21.0835-8.8459-23.7945l21.1394-.9764-3.8122,15.3481c11.5038-8.7984,15.7061-24.9728,11.4807-38.4015-4.6853-.5916-3.0453.0092-4.0158,2.6758-2.3147,6.36-.927,17.0672-9.2617,14.4912-7.9329-13.4261,5.8693-20.8887,6.9608-31.8823.3081-3.1038-.9631-7.8822-5.1562-6.3971-.8652,7.7195-4.3746,16.7109-12.5441,19.1661-6.4678,1.9438,1.5749-13.8512-.9414-17.2516-8.8654,3.4994-16.087,11.4482-10.4301,20.9369,1.4819,2.4856,5.593,4.6813,5.9013,6.8319.4319,3.0131-4.7219,22.3927-5.1297,28.7922-.8052,12.6344-.2023,29.1885,2.893,41.4241.8443,3.3375.8295,8.3919,4.8457,9.5343l-3.8107-40.3289,6.5775-.0982c2.6454.7352,2.9177,15.8382,3.8604,19.4183,5.0512,19.181,20.0457,25.6144,29.9731,41.0657,5.0337,4.0848,19.2362,3.694,25.889,3.0575,25.9812-2.4856,70.5542-54.76,84.652-76.6223,5.1597-8.0015,13.851-19.6493,13.1968-29.0422-11.386,8.8312-26.6699,16.0109-41.2775,12.4794l43.2763-22.018,5.633,5.6604,40.3553-36.4132,1.9232,7.6376-106.5379,133.4646,13.3399,4.7207,7.9256-24.7583,5.5863-.1533-.0016,8.6437,3.8132.9518,56.6441-86.3751c2.9421,2.3181,2.9396,2.3914,2.075,5.8319-1.1172,4.4457-8.8689,17.8697-11.6047,22.9992-7.501,14.064-39.2041,55.9399-39.4716,66.1461-.0424,1.6184.0856,3.253.0924,4.8523,15.9508-15.5112,27.0027-51.146,43.1367-65.3204,1.6739-1.4706,2.1188-2.4984,4.829-1.8689.2215,3.3187,1.3531,5.5778.474,9.0093-1.5249,5.9524-34.9694,61.1292-39.8324,65.8478-1.8779,1.8221-11.361,8.1017-13.3856,7.6988-7.5976-5.647,3.3868-7.2365,2.8298-13.4358-11.0722-3.0491-15.8691,10.9211-26.0596,11.4841-5.6204.3105-9.0248-4.2929-13.7115-5.3017-15.0304-3.2354-43.4373,7.7575-60.0433,7.2575-4.3321,4.0687,15.547,12.8117,18.7323,13.1256,5.7499.5666,12.2032-7.762,18.2455-9.7427,16.5248-5.4171,65.2265,10.1154,76.3385,24.3937,2.6559,3.4127,2.6294,3.6327-1.0134,6.7732h-31.6778c-.4002,5.0331-.2684,3.1899,2.8929,3.7769,25.0392,4.6497,52.5542,2.7634,77.7271,7.7674l-20.1615,3.7962-14.3717.0296c-.9622,4.4811.5548,3.0828,2.4637,4.2982,3.6985,2.3547,20.9793,12.2117,23.9014,12.6497,5.4634.819,15.8388-7.611,23.0387-8.821,7.1233-1.1971,14.4641-.1342,21.6114-.4469,1.0386,5.4813-1.4684,3.0906-4.1906,4.3442-5.8551,2.6963-35.6797,15.9993-39.318,16.3169-5.9187.5166-28.2024-18.0793-31.3465-14.9014-1.4636,8.099,9.1937,9.2594,7.6704,17.2619l-39.4595,2.0303c-9.5846-1.29-18.287-15.8253-26.3637-19.715-9.8247-4.7315-26.9543-5.8611-37.8387-9.2086-.4986-2.5471,3.4778-3.0002,5.2546-3.3341,8.3415-1.5676,18.7882-1.9532,27.365-2.4174l-3.8411-24.9561c-2.7684-2.8665-20.9845,10.2609-25.8461,10.6479-6.6292.5277-29.8981-5.7499-34.5038-10.7569-4.4434-4.8305-17.1509-29.3466-18.6583-30.2909-2.8575-1.7902-11.8379,1.2684-16.9953-1.2543-3.4512-1.6881-17.6886-22.6621-23.7511-25.8938-.4564-2.3423.3739-4.758-.7096-7.0607-13.8369-29.4042-26.2795-58.2682-23.5274-91.8564l27.8473,77.7158c5.0534.1789-.7438-15.4161-.9382-18.2229-.7926-11.4434,1.5445-25.5609-.139-36.3413-1.2846-8.2262-10.9644-17.3041-11.3858-23.2807-.6308-8.9468,9.5834-12.2391,9.5834-13.3167v-48.96l-9.5987,3.8211,9.5889-21.0912c-7.2404.9884-10.8554,9.5177-19.1797,7.6597,4.691-12.8709,22.2062-10.0677,17.2506-28.7887l-40.2884,9.5893c-.7536-4.2011,1.8648-4.5168,4.8309-5.7091,7.5862-3.0495,31.1497-6.5607,34.5261-13.4674,5.4124-11.0718-5.9738-17.3255-6.2044-20.1492-.125-1.5296,3.9196-6.9691,4.7047-10.1649,5.0233-20.4485-2.1679-62.7212-3.29-85.8792-4.0322-83.2209-8.1562-166.7192-7.6199-249.5012.1774-27.3828-.8312-41.5444-5.3859-67.7338-2.9865-17.172,4.4663-29.3765,3.3475-45.6018-.4039-5.8568-6.9474-38.5277-9.4324-41.906-4.6771-6.3582-23.5179.688-25.1098-9.9435-.796-4.0763,1.6182-2.6241,4.2165-3.4091,8.8131-2.6627,20.0988-1.2544,24.601-10.9818-38.6893-7.886-80.1197-3.4022-118.0885,3.8145l1.9409,3.8423h69.1153c1.8761,1.8767,4.0401,2.5927,1.9614,5.7965-3.7614,5.797-21.5856,11.9381-27.7567,16.4064-16.901,12.2373-12.4724,29.6987-17.426,47.7801,1.0828,6.458,16.0153,14.8063,15.3723,24.9158-.4986,7.8384-12.7385,17.0453-20.2636,18.2481-32.7401,5.2327-21.3805-21.5753-21.9904-41.1368-.6815-21.857-7.7242-45.9291-7.6589-68.182l-5.9299,1.1372c.2612,3.2475-3.6622,9.407-3.6622,11.3547v168.96c0,.4309-3.3129,3.5146-3.8204,2.8794-3.5913-30.1154-17.9061-57.6727-32.3262-83.8503-5.9456-10.7934-34.4171-58.9937-42.5908-63.1417-2.7864-1.414-2.8039-.4195-4.8343.9545-18.6083,12.5926-8.9472,64.1502-44.07,61.6767-29.2101-2.0571-10.7896-39.2692-12.5848-52.7519-1.0256-7.7031-7.8474-11.6881-9.1076-15.9231-4.401-14.7895,12.4453-25.9196,13.0281-40.8648-65.4663-14.6259-122.3255,45.5352-187.2646,23.0941-27.1197-9.3718-30.6729-19.159-65.1227-21.2728-81.1008-4.9764-167.0948,22.1667-247.5086,30.7233-17.2154-1.1535-19.884-25.7096-26.7415-24.6189-10.436,1.66-9.7804,17.7198-12.7783,25.7276-4.0723,10.8778-12.4776,23.0442-13.6069,34.3921-2.2562,22.6709,4.8751,44.8011,5.9349,67.2164,1.1688,24.7222-6.0557,52.4079-3.8931,74.9404,2.1868,22.7845,23.7151,32.7517,18.3344,56.7898-2.0328,2.9013-13.4356,1.9899-17.3878,1.7628-58.8899-3.3846-123.0034-20.7022-176.3312,13.776-39.6848,25.6576-66.5086,62.5163-77.171,109.0637-6.0268,26.3106-6.4901,60.7862-16.2681,85.4907-.8738,2.2077-1.511,5.5914-4.7558,4.8069-2.2804-1.4639-2.5952-3.8592-3.4943-6.1241-26.8376-67.6079-11.2377-170.7923,35.1825-227.1084,19.0424-23.102,86.4897-57.4124,116.0515-66.3405,29.0668-8.7786,61.3877-6.2852,91.2561-3.7777v-254.4ZM7508.5285,875.3332c-1.9807-47.5044-8.9645-97.643-17.8461-144.4031-.4032-2.1229-.3864-7.6262-3.2426-7.275-8.6921,31.224-11.0632,60.5799-7.4628,92.87,1.0746,9.6379,6.5544,46.3957,10.301,53.0585.4695.8349,1.7689,2.0638,2.8804,1.8995,1.783-2.4541-4.7649-20.3188.9515-17.2618l8.4965,19.9607,5.9221,1.1512ZM7616.0398,882.9932c-1.5469-11.1928-19.8709-3.9915-27.7493-3.7507-32.6395.9976-65.6524-2.1102-97.7017,5.9931-3.5007.8851-10.3983.1038-8.9202,5.4377l134.3712-7.6801ZM7703.6708,1608.9138c-4.8045,4.0696-11.3282,7.9827-7.9592,15.1714.5453,1.1635,16.9374,17.7614,18.1461,18.1973,3.0782,1.1102,13.7965-2.8779,18.3663,2.9186-2.6935-5.7651-24.2783-37.0424-28.5531-36.2874ZM7811.876,1743.1634h-26.8782c5.6004,10.3194,20.4989,8.7648,26.8782,0Z"/>
    <path class="cls-1" d="M7051.6019,1234.3486c5.2856,69.8159,18.5735,139.3282,54.1314,200.286,8.3378,14.2936,47.4427,72.8858,58.4663,79.7697,7.7375,4.8318,31.0483,10.9866,16.0696,22.3584l95.0131,87.3512c.2817-13.5728,8.312-28.0435,3.0113-41.4149-6.3743-16.0796-35.5988-21.5996-38.4207-40.2931-.9108-6.0335.6725-11.6752-1.0154-18.1845-2.53-9.757-17.3206-21.3672-11.6035-34.5194,23.7729-13.2637,41.2151,7.5221,64.3174-16.3189,21.5207-22.2088,24.9662-46.3685,56.2221-66.654,34.5373-22.4152,82.9881-12.5531,105.4289-51.9911,8.9527-15.7336-12.8654-15.3052-24.3839-20.5107-5.3517-2.4186-36.8006-22.4133-31.6353-28.8228,28.4262,2.678,52.0433,21.8601,80.6301,23.0464l-1.1609,5.9195c-21.6909,6.8153-11.5632,4.7535-2.0485,11.6764,8.8769,6.4589,11.9033,12.6618,12.8725,23.5987,2.3354,26.3533-2.2757,54.8699-2.0897,80.8095.8049,112.233,11.5159,225.4042,3.9517,337.8489-.8996,13.3723,2.4709,27.6131-6.7397,39.3009-14.9775-19.2085-25.5559-41.7514-41.3349-60.3837-27.7461-32.7631-66.2115-53.0881-100.3842-78.169-95.4349-70.0439-178.8357-131.4344-239.7051-236.4384-39.3068-67.807-56.3907-139.5714-55.3378-218.2607l5.7451-.0043Z"/>
    <path class="cls-1" d="M6628.1202,1552.2806c41.8354,45.9462,87.0945,89.0593,127.7776,136.2135,8.6287,10.0011,56.25,65.99,57.3092,73.3462.3592,2.4946-.1573,5.7806-2.5828,6.2889-2.8199.591-39.6394-30.7514-45.1042-35.4979-74.3764-64.6004-201.178-188.2101-230.4202-282.204-1.9299-6.2033-7.8632-27.8693-7.1055-32.7923.5985-3.8885,5.1962-3.3093,8.0943-.8345,4.5888,3.9184,18.7332,38.4878,23.7047,47.3316,18.365,32.6697,43.2887,60.6498,68.327,88.1484Z"/>
    <path class="cls-1" d="M7909.7776,909.905c-2.854,4.2948-11.1882,4.618-13.0294,10.937-3.9112,13.4232,7.0858,33.0364-2.2668,43.7973-13.6193,15.6699-39.5831-19.6726-47.3833-29.635l-14.6747,5.4013c-8.1586-11.5568-14.1748-3.1514-24.4893-6.4313-6.6281-2.1076-7.5285-8.4962-11.9399-11.265-7.1672-4.4984-18.3448-4.4374-26.3406-7.0903.8371-3.2133,7.9332-4.939,10.728-5.5546,16.6984-3.6779,49.0831-5.3749,66.9331-6.0203,21.6565-.783,41.4967.6007,62.4631,5.8608Z"/>
    <path class="cls-1" d="M7347.2677,1115.3039c-6.8486-.2059-34.3658-6.5359-35.6225-12.4432-.3076-1.446,1.1276-3.9435.2815-6.7337-1.3337-4.3984-36.8984-32.4283-43.5372-37.2798-35.686-26.0783-72.2928-43.9848-115.0198-55.8353,13.7046-13.761,15.9628-6.2258,28.3225-3.383,67.3227,15.4848,96.9648,36.4049,145.4673,84.9242,9.7187,9.7221,14.7408,18.0158,20.1082,30.7507Z"/>
    <path class="cls-1" d="M8036.5006,2031.1634c-1.6767,13.3816,7.8624,42.5256,2.849,53.7279-5.0988,11.393-33.955,11.397-44.0748,7.6606-5.834-2.154-14.4504-12.6269-14.4504-18.1885v-43.2h55.6762Z"/>
    <path class="cls-1" d="M8106.8579,1534.5612c12.894,13.1141,14.5371,27.3701,21.4498,42.8688,2.799,6.2755,8.5653,10.6485,10.5518,18.2356,3.0977,11.8311-.5769,19.0843-2.5463,30.3758-8.3215-6.5741-13.1357-23.9427-24.3702-26.4862-5.6448-1.278-15.9867.9074-19.8537-5.5747-5.1969-8.7115,1.7023-19.9737,8.7358-25.5279,4.0916-3.231,9.9196-3.8538,12.4573-7.6618-14.8792-7.8591-24.769-24.8782-43.1789-26.9121-10.1332-1.1195-20.3067.8205-30.2905,1.9206-5.3165,2.0581-2.4695,23.3455-15.7411,21.2094-13.4046-2.1575,6.51-22.8672,11.5151-26.919,23.4183-18.9577,50.333-16.8238,71.2708,4.4714Z"/>
    <path class="cls-1" d="M8078.7377,1620.2834c-10.5992.8161-24.8951,14.1052-35.0834,11.1973-6.382-1.8215-14.1966-23.5946-19.9182-29.4272,11.699-24.3248,18.3625-50.2524,46.375-60.4434,10.0583,17.3553-4.049,34.9735-6.6196,51.6831l40.1903,13.5742-24.9441,13.4159c29.0052,6.6689,4.0574,26.0178,2.0302,39.4859-2.2171,14.7296,12.013,21.6066.8402,35.3847-14.2829-22.491-17.861-51.6643-2.8704-74.8706Z"/>
    <path class="cls-1" d="M7049.6792,1086.5339c-26.5859,71.6334-31.8169,147.9683-21.078,223.541l-5.7786,1.0977c-1.4561-16.1682-8.0437-32.9965-9.581-49-4.6909-48.8323-3.8862-118.5929,19.6126-162.7245,1.7785-3.3402,14.0355-15.7044,16.825-12.9142Z"/>
    <path class="cls-1" d="M7946.2567,1543.4923c-.329,23.9021,29.8902,18.3319,30.8631-2.6597l-13.5826-3.1168c-2.8178-2.7171,11.1249-18.1174,14.3903-20.6514l12.4591,8.3191-5.2622,9.4829c4.0013,5.0176,7.9632,7.2764,6.4887,14.4355-.4686,2.2752-13.1681,27.1413-14.9108,29.4191-6.8338,8.9319-37.2681,15.5721-42.8702,3.1375-5.0745-11.2634,3.6073-15.152,5.7904-22.94,1.6601-5.9225-1.5415-15.5858,6.6343-15.4261Z"/>
    <path class="cls-1" d="M8064.9684,1674.3638l-1.5599,30.3353c1.3364,1.8956,14.3891.4826,15.3246,5.801-6.042.8068-11.3639,5.8265-17.2187,6.9352-13.4455,2.5463-33.2868-15.8558-46.0972-21.3074,12.3414-16.2683,27.3702-34.8399,49.5511-21.7642Z"/>
    <path class="cls-1" d="M7583.4017,1409.0737c-3.9411.8227-4.4587-1.9522-6.1218-4.4183-4.9185-7.2935-11.4775-22.2215-15.3196-30.7592-20.5397-45.6411-34.9338-94.6019-52.4823-141.4145,35.5997,52.2336,53.0681,117.2051,73.9237,176.5919Z"/>
    <path class="cls-1" d="M7205.1857,1050.0355c-34.6156-11.3601-67.0646-11.6883-96.0052,12.4642-20.0774,16.7557-29.5945,39.5721-44.1146,60.5028,6.7956-36.35,42.5798-81.541,80.5188-87.4561,7.7914-1.2147,15.1367.1006,22.0618-.9768,6.7812-1.0551,11.977-7.1437,20.5551-6.5107,11.1816.8252,17.571,11.1515,16.984,21.9765Z"/>
    <path class="cls-1" d="M7155.2714,1025.1029l-38.9689,15.7193c-19.2568,11.5465-33.4172,28.2841-44.5718,47.5852l-25.8623,57.6268c6.2484-59.2899,40.8035-125.0535,109.4029-120.9312Z"/>
    <path class="cls-1" d="M8003.7065,1781.6907c5.8248,35.9584,8.1714,71.9783,7.9277,108.4285-.0268,4.0099-2.2745,8.1495-1.9872,11.3777.397,4.4605,7.3005,8.5137,5.7247,14.4572-27.8382-8.092-13.0571-30.1472-13.2792-48.9822-.0643-5.4483-2.0412-10.1699-2.1483-15.2492-.4945-23.4423-1.6435-46.7529-1.8326-70.1691l5.5949.1371Z"/>
    <path class="cls-1" d="M8034.5808,1491.6434l-1.1446,5.9288-19.9142,5.6587,1.9383,11.3973,28.6955-13.3819c6.5046,17.572-2.8672,14.5356-12.8574,20.7144-8.8034,5.4447-15.1925,13.8806-27.4264,11.9118l3.8307-21.1091h-26.8782c4.0063-10.8802,10.061-17.5848,21.0994-9.6006l.0191-11.5194h32.6378Z"/>
    <path class="cls-1" d="M8157.4523,958.8434l3.8475-1.9465c3.075,2.4459,5.4026,28.7103,5.7326,34.6058,1.6325,29.1637,2.4226,73.1029.1161,101.8376-.2616,3.259.4448,6.4539-3.0092,8.5116-1.9145.9959-6.6869-1.2797-6.6869-2.8484v-140.16Z"/>
    <path class="cls-1" d="M8017.3019,1786.3634c3.2833-22.8576,22.4133-27.5276,40.3293-15.3395,1.4789,4.7398-10.4342,2.5854-13.9525,3.32-27.2572,5.6908-18.8318,29.4527-18.6181,48.4204.0946,8.3964,1.2391,45.6506-1.8306,49.8301l-5.9281,1.1291c2.7814-26.9558-3.7387-61.3314,0-87.36Z"/>
    <path class="cls-1" d="M7410.6137,1284.2737c-31.2455-10.4671-54.2316-44.1806-55.6468-76.7901l55.6468,76.7901Z"/>
    <path class="cls-1" d="M7842.5837,1664.4528c-5.3208,18.7693-19.7669,41.3358.0125,56.6869,4.1129,1.7475,11.9579-18.2723,16.2941-22.1588,2.2352-2.0034,12.3472-7.3682,14.4212-5.7182-6.4505,8.6521-11.1321,27.5878-17.1742,35.0955-3.2762,4.0708-8.4622,3.9415-12.6796,1.4851-2.9322-1.7079-25.7457-25.8162-25.798-27.9157,5.7717-10.4656,11.9316-23.4715,18.8407-33.018,1.722-2.3794,2.0053-5.3395,6.0833-4.4568Z"/>
    <path class="cls-1" d="M6840.4319,950.2136c13.7766.4319,50.5216-13.6133,61.3968-8.6067,2.5104,1.1557,5.1937,5.7539,7.6511,7.6363-14.4049,19.8187-43.3323,3.8036-64.2524,6.715l-4.7955-5.7446Z"/>
    <path class="cls-1" d="M7737.0112,1516.5934c3.9438,4.9472,7.4131-17.3576,13.3757-8.6511-3.6524,5.8705-4.2477,13.658-7.2121,19.6833-.7556,1.5357.2476,3.5214-3.09,2.2426-4.4524-1.7059-23.2684-15.0293-25.1412-19.0621-5.231-11.2642,10.6944-24.4405,21.2192-17.3579l.8484,23.1453Z"/>
    <path class="cls-1" d="M7996.1834,1624.1234c10.233.0396,19.9165,6.0913,14.9103,16.8121l-14.9003,4.3016c.7671-6.4934-1.0986-14.9912-.01-21.1137-4.7705-.0185-22.7933,5.6584-24.9491,3.8295,1.379-7.9635,10.6501-10.6696,13.5722-18.0873,2.3664-6.0071,1.8686-12.119,1.7879-18.3729,37.6673,10.3885,12.5313,16.0824,9.5889,32.6307Z"/>
    <path class="cls-1" d="M7997.6147,1323.173c6.8289,7.0672-.4182,48.0348-16.7802,47.5007-1.9811-17.5558,5.358-33.3698,9.6146-49.9136.9068-.6466,6.1196,1.3305,7.1656,2.4129Z"/>
    <path class="cls-1" d="M7885.7792,1654.8903l39.3319,29.7144c-3.5877,3.1491-12.5073,9.7212-17.1856,7.7426-4.8293-2.0424-21.0159-26.671-23.4297-32.4078-.9622-2.2869-1.5526-4.9814,1.2834-5.0492Z"/>
    <path class="cls-1" d="M7212.8903,1706.6901l14.0204,2.2791c8.7415,3.2344,13.1802,43.0086-4.4941,27.521-9.4774-8.3049-10.5642-17.7326-9.5263-29.8001Z"/>
    <path class="cls-1" d="M7840.6741,886.8434c1.7991,5.1155-9.6652,5.5111-12.5079,5.7388-20.5413,1.6452-42.8262.1376-63.4099,3.3909l-2.7968-9.1297h78.7146Z"/>
    <path class="cls-1" d="M7742.7608,914.6834c.4944-1.5958,6.2524-4.692,8.5159-4.7452,9.8083,2.2253-4.0451,46.9357-2.7636,55.6399l-5.7523-.0147c0-10.0343-2.0256-44.3421,0-50.88Z"/>
    <path class="cls-1" d="M7646.777,575.7933l7.6698-13.411-24.9488-1.9582c-.4545-2.7658,3.3378-2.5932,5.3551-3.2365,20.719-6.6065,29.1998-1.393,40.6745,15.7381.0363,4.9151-24.2826,2.2458-28.7505,2.8675Z"/>
    <path class="cls-1" d="M8005.783,1570.3442l9.6095.0276-.1556,5.5851-17.1133,5.9252c-2.8949-13.9809-7.0592-25.0698,4.7453-36.3487,13.7779,6.9146,13.6013,14.6942,2.9141,24.8108Z"/>
    <path class="cls-1" d="M7823.3952,2159.8034h-74.8749l-.0103-5.7517c22.4602,1.4699,46.9809-7.0416,68.7012,1.3761,2.4356.9439,5.6592,1.0975,6.184,4.3757Z"/>
    <path class="cls-1" d="M7976.9754,1768.1337c-2.7699,8.3106-12.0895,8.2314-16.9828,16.5964-4.2895,7.333-4.4324,16.1725-6.6327,24.106-.5463,1.9697-.4763,5.8101-3.2318,5.3556-8.417-23.5945-1.1755-45.9895,26.8472-46.058Z"/>
    <path class="cls-1" d="M7483.5689,2121.3942c-18.2689-6.9235-5.662-38.9238,5.7498-47.9906l-5.7498,47.9906Z"/>
    <path class="cls-1" d="M7772.9848,1447.9932c3.3143,3.1311,11.0739,33.5794,11.6421,39.3948.3457,3.5379.8311,5.7088-2.5185,8.0858l-18.0523-47.2346c-1.4841-5.2608,7.2217-1.8586,8.9287-.246Z"/>
    <path class="cls-1" d="M7495.0861,1217.0753l-21.2871-8.4517-3.6587-20.3213c9.3738-3.8901,28.2339,25.2512,24.9458,28.773Z"/>
    <path class="cls-1" d="M7638.523,2140.8074c8.0042.8202,23.301,12.2024,9.1257,17.0023-25.8546,8.7546-30.018-1.1866-9.1257-17.0023Z"/>
    <path class="cls-1" d="M7800.3472,1495.4648l2.1615-7.4013c5.8806-5.4759,33.2105,16.4256,32.4034,19.8731-.6665,2.8472-8.8174,5.5271-12.085,4.5802-5.5427-1.6063-11.6082-20.6243-22.4798-17.0519Z"/>
    <path class="cls-1" d="M7913.6097,1662.5231c-12.8261-6.0326-23.5902-15.3479-22.9995-30.7195,13.7097,5.0106,24.9848,14.9262,22.9995,30.7195Z"/>
    <path class="cls-1" d="M7708.1927,1372.6127l-5.7109,20.1769-23.0831-.9975c-1.0702-4.4233.8404-3.1504,2.4267-4.3882,2.2834-1.7818,25.2535-16.0238,26.3673-14.7911Z"/>
    <path class="cls-1" d="M7942.4254,1472.4613c-12.3351,14.9525-34.1518,15.6095-51.823,11.4805-.4603-2.7,3.4074-2.8015,5.3256-3.2624,15.1272-3.6344,31.3528-4.457,46.4974-8.2181Z"/>
    <path class="cls-1" d="M7842.5841,1487.7936l-30.7107-9.6099c-1.7131-1.9699,4.869-14.2022,8.5227-13.364,2.0598,4.1929,26.9022,18.2293,22.188,22.9739Z"/>
    <path class="cls-1" d="M7854.0939,1956.2838c2.3771,21.6579-6.0811,31.0286-24.9011,16.3196l24.9011-16.3196Z"/>
    <polygon class="cls-1" points="7969.3052 2033.0834 7969.3052 2085.8834 7966.3968 2088.7442 7963.5456 2088.7634 7963.5456 2033.0834 7969.3052 2033.0834"/>
    <path class="cls-1" d="M7696.7114,1412.9291c4.1086-2.9999,15.3585,16.5098,18.2349,19.2275l-1.9808,3.8124-21.2522-5.679,4.9981-17.3609Z"/>
    <rect class="cls-1" x="8136.3338" y="1088.4434" width="3.8397" height="74.88"/>
    <path class="cls-1" d="M7959.6957,1962.0339c-10.5447-4.5886-19.8697-12.1988-17.2585-24.9407,15.2559.5674,18.6554,11.2792,17.2585,24.9407Z"/>
    <path class="cls-1" d="M7927.5492,1675.4804c-8.5796-8.6371,9.2848-42.5522,12.6809-2.8255l-4.9203,4.9458c-2.1793.5299-6.2134-.5628-7.7606-2.1203Z"/>
    <path class="cls-1" d="M8050.9276,1243.973c11.1179,2.4742,12.6815,26.0864.0054,25.0863-9.5005-.7495-3.1147-24.3605-.0054-25.0863Z"/>
    <path class="cls-1" d="M7662.1333,591.1658l-1.9365,19.1884c-2.0569,2.3992-14.2828-11.5082-16.3539-13.4816-1.9422-1.8507-7.7723-1.7217-3.7889-5.7188l22.0793.0121Z"/>
    <path class="cls-1" d="M7938.5866,1852.5843l-13.2798-2.0481,3.7013-26.7239c7.2175-5.1625,6.4601,25.8433,9.5785,28.772Z"/>
    <path class="cls-1" d="M8094.1095,1278.5173c-5.7776-17.5059-6.4955-36.6502,11.6603-14.3467.8947,3.0973-9.1182,16.7291-11.6603,14.3467Z"/>
    <path class="cls-1" d="M8006.7681,1251.6506c14.9063,9.2679,8.0007,17.6415-3.8676,24.9149-6.5788-3.22.44-24.1122,3.8676-24.9149Z"/>
    <path class="cls-1" d="M7961.6157,1393.7331l-1.9169,17.2832-21.1066-5.7998c-.8991-4.9905.7128-2.9625,2.7244-3.986,2.7674-1.408,18.9918-8.8593,20.2991-7.4974Z"/>
    <path class="cls-1" d="M7917.459,1414.8529l-2.1133,18.9803-15.1466.2006c-2.8188-2.7354,13.0331-23.6228,17.26-19.1809Z"/>
    <path class="cls-1" d="M7963.5547,1391.7927c-1.9886-1.7633,9.5103-20.1967,14.3588-19.1816,8.8657,13.1316-.1804,21.4392-14.3588,19.1816Z"/>
    <path class="cls-1" d="M7998.09,1651.0086l1.9419,17.2808-17.2972-.0142c-4.7478-5.1188,13.905-18.6045,15.3553-17.2666Z"/>
    <path class="cls-1" d="M7840.0256,1513.088c2.9312-1.0036,14.1213-.8163,14.0491,2.5556l-16.2803,16.2814c-5.5687-3.8886-2.9429-17.0655,2.2312-18.837Z"/>
    <path class="cls-1" d="M7967.374,1599.1285l-23.0082,11.5542c1.9924-10.5918,17.1274-30.1911,23.0082-11.5542Z"/>
    <path class="cls-1" d="M7600.6714,1560.7628c-7.9247-9.5021-10.4464-23.1036-14.4006-34.5191,13.3202,7.3585,16.0945,20.0128,14.4006,34.5191Z"/>
    <path class="cls-1" d="M7973.1508,1672.1327l-3.1236,9.735c-6.4778-2.0789-23.2595-3.429-16.1348-12.6987,4.7662-3.3588,13.4948,3.5873,19.2584,2.9637Z"/>
    <path class="cls-1" d="M7742.7244,1564.6181l11.5464,23.0148c-14.6451,1.1566-16.6012-9.7758-15.3578-22.0649l3.8115-.9499Z"/>
    <path class="cls-1" d="M7944.3362,1962.0384l1.9186,15.3571c-19.3969-3.0009-25.9829-13.1811-1.9186-15.3571Z"/>
    <polygon class="cls-1" points="7940.5155 1407.157 7938.3854 1424.2335 7927.069 1424.4245 7931.1015 1407.3637 7940.5155 1407.157"/>
    <path class="cls-1" d="M7669.3416,916.0983c4.4979,4.4963,1.1032,13.3094.4436,18.743l-13.4055-20.1709c2.5088-2.2141,10.9567-.5767,12.9619,1.4279Z"/>
    <polygon class="cls-1" points="8142.0851 936.7529 8142.0846 961.7321 8134.4262 961.7302 8136.3465 936.7544 8142.0851 936.7529"/>
    <polygon class="cls-1" points="8203.5292 871.4834 8203.5292 877.2434 8175.6911 877.2434 8172.8497 874.3634 8175.6911 871.4834 8203.5292 871.4834"/>
    <path class="cls-1" d="M7871.3824,1464.7725l1.9209,15.3403-15.3407.0004c-1.5412-1.3265,11.3556-17.8036,13.4198-15.3407Z"/>
    <rect class="cls-1" x="8176.651" y="858.0434" width="30.7179" height="3.84"/>
    <path class="cls-1" d="M8205.4404,1858.356l-1.0135,17.3951,10.6079,6.6356c1.7481,3.5678-6.9156,5.6329-9.5872,3.9369-2.4275-1.5411-9.923-23.1588-9.5186-24.951.7719-3.4205,6.6841-3.2958,9.5113-3.0166Z"/>
    <path class="cls-1" d="M8247.6673,1493.5626c-12.4295-6.4025-22.8044-12.5693-18.9819-28.5664,6.7126-10.6609,17.9261,23.5643,18.9819,28.5664Z"/>
  </g>
</svg>