<svg width="1439" height="453" viewBox="0 0 1439 453" fill="none" xmlns="http://www.w3.org/2000/svg">
<mask id="mask0_305_304" style="mask-type:alpha" maskUnits="userSpaceOnUse" x="0" y="0" width="1439" height="453">
<path d="M0 0H1439V452.668H0V0Z" fill="#D9D9D9"/>
</mask>
<g mask="url(#mask0_305_304)">
<path d="M306.386 345.278H394.206V355.803H306.386V345.278ZM315.76 321.103H393.712V331.135H315.76V321.103ZM347.5 284.1H359.176V389.517H347.5V284.1ZM308.688 297.256H400.126V307.617H308.688V297.256ZM390.588 345.278H401.606C401.606 345.278 401.552 345.826 401.442 346.922C401.442 348.019 401.332 349.006 401.113 349.883C400.345 358.325 399.468 364.684 398.482 368.96C397.495 373.236 396.179 376.196 394.535 377.84C393.329 378.937 392.068 379.759 390.752 380.307C389.546 380.746 388.011 381.02 386.147 381.13C384.612 381.239 382.42 381.349 379.569 381.458C376.719 381.458 373.758 381.349 370.688 381.13C370.579 379.595 370.25 377.95 369.702 376.196C369.263 374.332 368.66 372.687 367.893 371.262C370.962 371.591 373.649 371.81 375.951 371.92C378.363 371.92 380.117 371.92 381.214 371.92C382.31 371.92 383.187 371.865 383.845 371.756C384.612 371.646 385.215 371.317 385.654 370.769C386.641 369.672 387.518 367.37 388.285 363.862C389.053 360.243 389.82 354.542 390.588 346.758V345.278ZM285.664 268.641H423.479V413.034H411.309V279.495H297.34V413.034H285.664V268.641ZM292.9 394.286H417.723V404.976H292.9V394.286Z" fill="white"/>
<path d="M182.055 311.071H244.877V322.747H182.055V311.071ZM120.054 402.509C123.563 399.22 127.619 395.328 132.224 390.833C136.829 386.228 141.489 381.349 146.203 376.196C151.027 371.043 155.577 365.945 159.853 360.901L166.596 370.275C162.758 374.88 158.702 379.704 154.426 384.748C150.15 389.681 145.764 394.56 141.269 399.384C136.884 404.099 132.663 408.539 128.606 412.705L120.054 402.509ZM126.797 313.209L133.704 305.15C136.993 306.795 140.502 308.714 144.23 310.906C148.067 312.99 151.74 315.073 155.248 317.156C158.757 319.129 161.662 320.883 163.964 322.418L156.893 331.792C154.59 330.148 151.685 328.229 148.177 326.036C144.778 323.844 141.16 321.596 137.322 319.294C133.595 316.991 130.086 314.963 126.797 313.209ZM116.93 344.456L123.672 336.068C126.962 337.494 130.525 339.138 134.362 341.002C138.309 342.756 142.092 344.565 145.71 346.429C149.328 348.183 152.343 349.773 154.755 351.198L147.848 360.737C145.545 359.202 142.64 357.503 139.131 355.639C135.623 353.665 131.895 351.692 127.948 349.718C124.001 347.745 120.328 345.991 116.93 344.456ZM238.628 311.071H250.962V352.679C250.962 356.077 250.469 358.763 249.482 360.737C248.605 362.71 246.686 364.191 243.726 365.177C240.985 366.054 237.257 366.603 232.543 366.822C227.829 367.041 221.963 367.151 214.946 367.151C214.617 365.397 213.959 363.423 212.973 361.23C212.096 359.038 211.164 357.119 210.177 355.474C214.124 355.584 217.742 355.694 221.031 355.803C224.43 355.803 227.335 355.803 229.747 355.803C232.269 355.694 233.968 355.639 234.845 355.639C236.38 355.529 237.367 355.255 237.806 354.816C238.354 354.378 238.628 353.665 238.628 352.679V311.071ZM175.148 311.071H187.811V389.352C187.811 391.874 188.14 393.848 188.797 395.273C189.455 396.589 190.716 397.466 192.58 397.904C194.553 398.343 197.404 398.562 201.132 398.562C202.228 398.562 204.092 398.562 206.723 398.562C209.355 398.562 212.315 398.562 215.604 398.562C219.003 398.562 222.347 398.562 225.636 398.562C229.035 398.562 232.105 398.562 234.845 398.562C237.696 398.562 239.779 398.562 241.095 398.562C244.494 398.562 246.96 398.014 248.495 396.918C250.14 395.821 251.346 393.628 252.113 390.339C252.881 387.05 253.429 382.336 253.758 376.196C255.293 377.183 257.157 378.169 259.35 379.156C261.652 380.033 263.735 380.691 265.599 381.13C264.941 388.695 263.9 394.615 262.474 398.891C261.049 403.057 258.692 406.017 255.403 407.772C252.223 409.526 247.673 410.403 241.753 410.403C240.766 410.403 238.902 410.403 236.161 410.403C233.42 410.403 230.241 410.403 226.623 410.403C223.005 410.403 219.332 410.403 215.604 410.403C211.986 410.403 208.806 410.403 206.065 410.403C203.325 410.403 201.515 410.403 200.638 410.403C194.17 410.403 189.072 409.8 185.344 408.594C181.616 407.498 178.985 405.414 177.45 402.345C175.915 399.275 175.148 394.944 175.148 389.352V311.071ZM117.259 276.206H262.968V287.718H117.259V276.206ZM154.261 261.898H166.76V303.67H154.261V261.898ZM212.644 261.898H225.307V303.67H212.644V261.898Z" fill="white"/>
<path d="M21.2156 341.989H33.8788V413.199H21.2156V341.989ZM-5.26197 319.294V335.411H57.0673V319.294H-5.26197ZM-17.1029 309.92H69.566V344.785H-17.1029V309.92ZM-31.7396 358.435H78.2823V369.618H-19.4053V405.798H-31.7396V358.435ZM72.1974 358.435H84.6961V392.971C84.6961 396.15 84.2576 398.617 83.3805 400.371C82.613 402.235 80.9136 403.66 78.2823 404.647C75.651 405.524 72.1974 406.018 67.9215 406.127C63.6456 406.346 58.3281 406.456 51.9691 406.456C51.6402 404.811 51.0372 402.948 50.1601 400.865C49.3926 398.781 48.5703 396.918 47.6932 395.273C50.9824 395.383 54.0522 395.492 56.9028 395.602C59.8631 395.602 62.3848 395.602 64.4679 395.602C66.551 395.602 68.0311 395.602 68.9082 395.602C70.2239 395.383 71.101 395.109 71.5395 394.78C71.9781 394.451 72.1974 393.793 72.1974 392.806V358.435ZM20.2289 261.734H32.7276V291.829H20.2289V261.734ZM-42.5938 287.389H94.728V322.747H82.5582V298.243H-30.7528V322.747H-42.5938V287.389ZM-29.1083 267.983L-17.9252 263.378C-15.2939 266.339 -12.7174 269.628 -10.1957 273.246C-7.56437 276.864 -5.53607 279.989 -4.11077 282.62L-15.7872 288.211C-16.9932 285.361 -18.9119 282.017 -21.5432 278.179C-24.0649 274.342 -26.5866 270.943 -29.1083 267.983ZM68.7438 263.214L81.5714 267.654C78.8305 271.163 75.9799 274.726 73.0196 278.344C70.0594 281.852 67.3733 284.867 64.9612 287.389L54.7649 283.278C56.4095 281.523 58.054 279.44 59.6986 277.028C61.4528 274.616 63.0974 272.204 64.6323 269.792C66.2769 267.27 67.6474 265.078 68.7438 263.214Z" fill="white"/>
<path d="M1519.57 266.503V278.179H1502.64V368.795H1489.31V340.344C1483.56 344.291 1476.49 347.087 1466.29 347.087C1445.08 347.087 1433.07 334.917 1427.31 309.92C1444.25 306.795 1451.16 302.19 1451.16 293.309C1451.16 287.553 1448.36 282.291 1443.92 278.179H1421.89V266.503H1519.57ZM1443.76 318.307C1447.71 329.654 1453.96 335.41 1466.13 335.41C1476.32 335.41 1483.72 330.148 1489.31 324.063V278.179H1458.23C1462.34 283.442 1464.32 289.198 1464.32 294.79C1464.32 306.466 1457.9 313.702 1443.76 318.307Z" fill="white"/>
<path d="M1373.38 278.179V266.503H1433.41V278.179H1373.38ZM1398.54 337.877C1390.49 337.877 1379.47 325.708 1379.47 316.498C1379.47 311.564 1382.1 308.111 1389.5 308.111H1438.67V319.787H1406.93V328.668C1406.93 334.753 1403.64 337.877 1398.54 337.877Z" fill="white"/>
<path d="M1358.78 278.179V368.795H1345.46V278.179H1330.82V266.503H1375.72V278.179H1358.78Z" fill="white"/>
<path d="M1316.24 278.179V368.795H1302.92V327.681H1266.58V333.766C1266.58 341.002 1262.8 343.962 1258.68 343.962C1250.3 343.962 1238.95 331.464 1238.95 323.076C1238.95 319.129 1241.58 316.005 1248.98 316.005H1253.26V278.179H1232.54V266.503H1333.18V278.179H1316.24ZM1302.92 278.179H1266.58V316.005H1302.92V278.179Z" fill="white"/>
<path d="M1217.93 278.179V368.795H1204.61V278.179H1189.98V266.503H1234.87V278.179H1217.93Z" fill="white"/>
<path d="M1126.04 371.098C1109.59 354.981 1096.27 338.371 1090.35 327.517C1087.23 321.925 1085.75 316.991 1085.75 312.88C1085.75 307.124 1089.04 303.999 1094.63 303.999C1099.4 303.999 1103.84 306.959 1108.11 311.893C1114.03 307.782 1116.01 300.381 1116.01 293.145C1116.01 287.06 1114.69 281.633 1113.21 278.179H1078.84V266.503H1192.32V278.179H1175.38V368.795H1162.06V326.694C1156.46 328.01 1150.71 328.668 1144.62 328.668C1135.91 328.668 1125.55 327.023 1116.34 322.254C1113.05 324.721 1108.77 326.859 1103.84 328.503C1111.73 339.193 1122.91 350.047 1136.07 362.217L1126.04 371.098ZM1144.46 316.827C1150.71 316.827 1156.3 316.169 1162.06 314.524V278.179H1126.7C1128.51 282.949 1129.33 288.211 1129.33 294.79C1129.33 302.026 1127.68 308.275 1124.23 313.538C1130.97 316.005 1137.06 316.827 1144.46 316.827Z" fill="white"/>
<path d="M1453.53 139.871H1462.05V151.342C1462.05 158.578 1460.73 165.238 1458.1 171.323C1455.55 177.408 1451.93 182.753 1447.24 187.358C1442.64 191.88 1437.13 195.334 1430.72 197.719L1425.29 189.455C1431.05 187.399 1436.02 184.48 1440.21 180.697C1444.41 176.915 1447.66 172.516 1449.96 167.5C1452.34 162.401 1453.53 157.015 1453.53 151.342V139.871ZM1455.38 139.871H1463.65V150.972C1463.65 156.234 1464.8 161.209 1467.1 165.896C1469.4 170.583 1472.57 174.736 1476.6 178.354C1480.71 181.89 1485.48 184.562 1490.91 186.371L1485.36 194.388C1479.35 192.086 1474.09 188.838 1469.57 184.644C1465.05 180.451 1461.55 175.476 1459.09 169.72C1456.62 163.964 1455.38 157.714 1455.38 150.972V139.871ZM1506.94 133.58H1517.18V199.569H1506.94V133.58ZM1480.42 202.899C1491.94 202.899 1500.98 204.749 1507.56 208.449C1514.22 212.15 1517.55 217.33 1517.55 223.991C1517.55 230.569 1514.22 235.708 1507.56 239.408C1500.98 243.109 1491.94 244.959 1480.42 244.959C1468.91 244.959 1459.83 243.109 1453.16 239.408C1446.59 235.708 1443.3 230.569 1443.3 223.991C1443.3 217.33 1446.59 212.15 1453.16 208.449C1459.83 204.749 1468.91 202.899 1480.42 202.899ZM1480.42 211.04C1474.83 211.04 1470.02 211.574 1465.99 212.643C1461.96 213.63 1458.84 215.11 1456.62 217.083C1454.48 218.975 1453.41 221.277 1453.41 223.991C1453.41 226.622 1454.48 228.924 1456.62 230.898C1458.84 232.789 1461.96 234.269 1465.99 235.338C1470.02 236.325 1474.83 236.818 1480.42 236.818C1486.1 236.818 1490.91 236.325 1494.85 235.338C1498.88 234.269 1501.97 232.789 1504.11 230.898C1506.33 228.924 1507.44 226.622 1507.44 223.991C1507.44 221.277 1506.33 218.975 1504.11 217.083C1501.97 215.11 1498.88 213.63 1494.85 212.643C1490.91 211.574 1486.1 211.04 1480.42 211.04ZM1482.64 157.139H1509.04V165.649H1482.64V157.139Z" fill="white"/>
<path d="M1339.08 139.377H1347.47V150.725C1347.47 157.879 1346.2 164.539 1343.65 170.707C1341.18 176.874 1337.65 182.26 1333.04 186.864C1328.44 191.387 1323.05 194.841 1316.88 197.225L1311.33 189.085C1317.01 187.029 1321.9 184.069 1326.01 180.204C1330.2 176.339 1333.41 171.899 1335.63 166.883C1337.93 161.785 1339.08 156.399 1339.08 150.725V139.377ZM1340.93 139.377H1349.2V151.588C1349.2 155.289 1349.86 158.948 1351.17 162.566C1352.49 166.102 1354.34 169.391 1356.72 172.433C1359.19 175.476 1362.07 178.189 1365.36 180.574C1368.65 182.876 1372.3 184.726 1376.33 186.124L1370.91 194.142C1364.99 191.921 1359.76 188.715 1355.24 184.521C1350.72 180.245 1347.18 175.311 1344.63 169.72C1342.17 164.046 1340.93 158.002 1340.93 151.588V139.377ZM1388.3 133.58H1398.54V201.296H1388.3V133.58ZM1395.7 162.443H1414.94V171.077H1395.7V162.443ZM1363.01 204.256C1370.58 204.256 1377.07 205.078 1382.5 206.723C1388.01 208.285 1392.24 210.587 1395.21 213.63C1398.17 216.672 1399.65 220.331 1399.65 224.607C1399.65 228.883 1398.17 232.542 1395.21 235.585C1392.24 238.627 1388.01 240.93 1382.5 242.492C1377.07 244.137 1370.58 244.959 1363.01 244.959C1355.45 244.959 1348.91 244.137 1343.4 242.492C1337.89 240.93 1333.66 238.627 1330.7 235.585C1327.74 232.542 1326.26 228.883 1326.26 224.607C1326.26 220.331 1327.74 216.672 1330.7 213.63C1333.66 210.587 1337.89 208.285 1343.4 206.723C1348.91 205.078 1355.45 204.256 1363.01 204.256ZM1363.01 212.396C1357.5 212.396 1352.73 212.89 1348.7 213.877C1344.76 214.863 1341.72 216.261 1339.58 218.07C1337.44 219.879 1336.37 222.058 1336.37 224.607C1336.37 227.239 1337.44 229.459 1339.58 231.268C1341.72 233.077 1344.76 234.475 1348.7 235.462C1352.73 236.366 1357.5 236.818 1363.01 236.818C1368.52 236.818 1373.25 236.366 1377.2 235.462C1381.14 234.475 1384.19 233.077 1386.32 231.268C1388.46 229.459 1389.53 227.239 1389.53 224.607C1389.53 222.058 1388.46 219.879 1386.32 218.07C1384.19 216.261 1381.14 214.863 1377.2 213.877C1373.25 212.89 1368.52 212.396 1363.01 212.396Z" fill="white"/>
<path d="M1258.06 162.566H1283.09V171.077H1258.06V162.566ZM1280.01 133.58H1290.25V200.062H1280.01V133.58ZM1253.49 203.516C1261.22 203.516 1267.84 204.338 1273.35 205.983C1278.94 207.627 1283.22 210.012 1286.18 213.136C1289.14 216.179 1290.62 219.92 1290.62 224.361C1290.62 230.939 1287.29 236.037 1280.63 239.655C1274.05 243.273 1265 245.082 1253.49 245.082C1241.98 245.082 1232.89 243.273 1226.23 239.655C1219.66 236.037 1216.37 230.939 1216.37 224.361C1216.37 219.92 1217.85 216.179 1220.81 213.136C1223.85 210.012 1228.12 207.627 1233.63 205.983C1239.23 204.338 1245.85 203.516 1253.49 203.516ZM1253.49 211.533C1247.9 211.533 1243.09 212.026 1239.06 213.013C1235.03 214 1231.91 215.439 1229.69 217.33C1227.55 219.221 1226.48 221.565 1226.48 224.361C1226.48 226.992 1227.55 229.253 1229.69 231.145C1231.91 233.036 1235.03 234.516 1239.06 235.585C1243.09 236.572 1247.9 237.065 1253.49 237.065C1259.17 237.065 1263.98 236.572 1267.92 235.585C1271.95 234.516 1275.04 233.036 1277.17 231.145C1279.39 229.253 1280.5 226.992 1280.5 224.361C1280.5 221.565 1279.39 219.221 1277.17 217.33C1275.04 215.439 1271.95 214 1267.92 213.013C1263.98 212.026 1259.17 211.533 1253.49 211.533ZM1226.85 144.928H1235.24V153.932C1235.24 160.757 1233.92 167.171 1231.29 173.173C1228.74 179.094 1225.12 184.315 1220.44 188.838C1215.75 193.278 1210.32 196.691 1204.16 199.075L1198.85 190.935C1203.05 189.455 1206.83 187.44 1210.2 184.891C1213.65 182.342 1216.61 179.423 1219.08 176.134C1221.63 172.844 1223.56 169.309 1224.88 165.526C1226.19 161.744 1226.85 157.879 1226.85 153.932V144.928ZM1228.82 144.928H1237.21V153.809C1237.21 158.578 1238.32 163.224 1240.54 167.746C1242.76 172.269 1245.93 176.257 1250.04 179.711C1254.15 183.164 1258.88 185.878 1264.22 187.851L1259.04 195.992C1252.96 193.772 1247.65 190.565 1243.13 186.371C1238.61 182.095 1235.07 177.161 1232.52 171.57C1230.06 165.978 1228.82 160.058 1228.82 153.809V144.928ZM1202.06 141.721H1261.63V150.108H1202.06V141.721Z" fill="white"/>
<path d="M216.215 229.212L217.325 219.098C222.012 219.098 225.301 218.646 227.192 217.741C229.084 216.837 230.153 215.233 230.399 212.931C230.728 210.629 230.81 207.422 230.646 203.31L228.302 140.529H238.293L240.76 202.2C240.925 206.558 240.76 210.423 240.267 213.794C239.856 217.166 238.787 220.003 237.06 222.305C235.415 224.607 232.907 226.334 229.536 227.485C226.247 228.637 221.806 229.212 216.215 229.212Z" fill="white"/>
<path d="M216.218 229.212C214.08 229.212 211.367 229.007 208.077 228.595C204.87 228.102 201.581 227.28 198.21 226.129C194.921 224.977 192.125 223.374 189.823 221.318L199.937 216.261C202.815 217.412 205.775 218.194 208.817 218.605C211.942 218.934 214.82 219.098 217.451 219.098C219.178 219.098 220.412 219.591 221.152 220.578C221.974 221.483 222.385 222.593 222.385 223.908C222.385 225.224 221.81 226.458 220.658 227.609C219.507 228.678 218.027 229.212 216.218 229.212ZM128.645 229.212L129.878 219.098H155.657C162.81 219.098 168.978 218.81 174.158 218.235C179.421 217.577 183.738 216.631 187.109 215.398C190.48 214.164 192.988 212.602 194.633 210.711C196.278 208.737 197.1 206.435 197.1 203.804C197.1 202.406 196.648 200.884 195.743 199.24C194.839 197.595 193.441 196.197 191.549 195.046C189.658 193.813 187.15 193.196 184.025 193.196C180.078 193.196 176.132 194.224 172.185 196.28C168.32 198.335 164.62 200.926 161.084 204.05C157.63 207.093 154.547 210.217 151.833 213.424C149.119 216.631 146.94 219.427 145.296 221.812L134.565 221.442C137.196 217.166 140.321 212.808 143.939 208.367C147.639 203.845 151.669 199.692 156.027 195.91C160.467 192.045 165.113 188.961 169.964 186.659C174.816 184.274 179.75 183.082 184.766 183.082C189.288 183.082 193.153 184.028 196.36 185.919C199.649 187.728 202.157 190.195 203.884 193.319C205.693 196.444 206.597 199.98 206.597 203.927C206.597 207.792 205.199 211.698 202.404 215.644C199.608 219.509 194.797 222.552 187.972 224.772C184.519 225.923 180.572 226.828 176.132 227.485C171.691 228.143 166.634 228.595 160.96 228.842C155.287 229.089 148.832 229.212 141.596 229.212H128.645ZM140.362 217.001L137.895 140.529H147.886L150.353 208.367L140.362 217.001Z" fill="white"/>
<path d="M86.3672 229.212L87.6006 219.098C91.0542 219.098 93.7678 218.81 95.7413 218.235C97.7148 217.577 99.1948 216.385 100.182 214.658C101.251 212.849 102.155 210.259 102.895 206.887C103.635 203.516 104.54 199.117 105.609 193.689L115.229 195.54C114.9 197.02 114.53 198.664 114.119 200.473C113.708 202.282 113.338 204.091 113.009 205.9C112.763 207.627 112.639 209.148 112.639 210.464C112.639 212.109 113.009 213.589 113.749 214.904C114.489 216.22 116.093 217.248 118.56 217.988C121.027 218.728 124.809 219.098 129.907 219.098C131.634 219.098 132.867 219.591 133.608 220.578C134.43 221.483 134.841 222.593 134.841 223.908C134.841 225.224 134.265 226.458 133.114 227.609C131.963 228.678 130.483 229.212 128.674 229.212C123.329 229.212 119.135 228.76 116.093 227.855C113.05 226.869 110.83 225.43 109.432 223.538C108.034 221.565 107.089 219.18 106.595 216.385L110.296 216.631C108.98 219.263 107.541 221.4 105.979 223.045C104.499 224.69 102.854 225.964 101.045 226.869C99.2359 227.773 97.1391 228.39 94.7545 228.719C92.3699 229.048 89.5741 229.212 86.3672 229.212ZM107.335 252.154C105.609 252.154 104.129 251.537 102.895 250.304C101.744 249.153 101.168 247.755 101.168 246.11C101.168 244.466 101.744 243.027 102.895 241.793C104.129 240.56 105.609 239.943 107.335 239.943C108.98 239.943 110.378 240.56 111.529 241.793C112.763 243.027 113.379 244.466 113.379 246.11C113.379 247.755 112.763 249.153 111.529 250.304C110.378 251.537 108.98 252.154 107.335 252.154Z" fill="white"/>
<path d="M40.3555 229.212L41.5889 219.098C45.7003 219.098 48.9072 218.81 51.2097 218.235C53.512 217.577 55.2388 216.385 56.39 214.658C57.6235 212.849 58.6102 210.259 59.3502 206.887C60.0903 203.516 60.9949 199.117 62.0638 193.689L71.6845 195.54C71.3556 197.02 70.9856 198.664 70.5745 200.473C70.1633 202.282 69.7933 204.091 69.4644 205.9C69.2177 207.627 69.0944 209.148 69.0944 210.464C69.0944 211.698 69.1766 212.849 69.341 213.918C69.5055 214.987 70.1222 215.891 71.1912 216.631C72.2602 217.371 74.0692 217.988 76.6182 218.481C79.1673 218.893 82.8265 219.098 87.5958 219.098C89.3226 219.098 90.556 219.591 91.2961 220.578C92.1184 221.483 92.5295 222.593 92.5295 223.908C92.5295 225.224 91.9539 226.458 90.8027 227.609C89.6515 228.678 88.1714 229.212 86.3624 229.212C81.3464 229.212 77.3583 228.966 74.3981 228.472C71.4379 227.897 69.1766 227.074 67.6143 226.005C66.1341 224.936 65.0652 223.621 64.4073 222.058C63.8317 220.414 63.3794 218.522 63.0505 216.385L66.7508 216.631C65.4352 219.263 63.9962 221.4 62.4338 223.045C60.9537 224.69 59.2269 225.964 57.2534 226.869C55.2799 227.773 52.8953 228.39 50.0995 228.719C47.386 229.048 44.138 229.212 40.3555 229.212ZM71.4379 252.524C69.7111 252.524 68.231 251.907 66.9975 250.674C65.8463 249.523 65.2707 248.125 65.2707 246.48C65.2707 244.836 65.8463 243.397 66.9975 242.163C68.231 240.93 69.7111 240.313 71.4379 240.313C73.0824 240.313 74.4803 240.93 75.6315 242.163C76.865 243.397 77.4817 244.836 77.4817 246.48C77.4817 248.125 76.865 249.523 75.6315 250.674C74.4803 251.907 73.0824 252.524 71.4379 252.524ZM54.5399 252.524C52.8131 252.524 51.333 251.907 50.0995 250.674C48.9483 249.523 48.3728 248.125 48.3728 246.48C48.3728 244.836 48.9483 243.397 50.0995 242.163C51.333 240.93 52.8131 240.313 54.5399 240.313C56.1845 240.313 57.5823 240.93 58.7335 242.163C59.967 243.397 60.5837 244.836 60.5837 246.48C60.5837 248.125 59.967 249.523 58.7335 250.674C57.5823 251.907 56.1845 252.524 54.5399 252.524Z" fill="white"/>
<path d="M-23.9648 229.212L-22.7314 219.098C-17.7977 219.098 -13.1518 218.646 -8.79366 217.741C-4.43555 216.754 -0.447471 215.48 3.17059 213.918C6.87087 212.273 10.0367 210.423 12.668 208.367C15.2993 206.229 17.3139 204.05 18.7118 201.83C20.1919 199.528 20.9319 197.266 20.9319 195.046C20.9319 193.977 20.5619 192.908 19.8219 191.839C19.0818 190.688 17.8073 189.742 15.9982 189.002C14.2714 188.262 11.9279 187.892 8.96769 187.892C7.15866 187.892 5.14408 188.139 2.92391 188.632C0.70374 189.126 -1.43419 189.825 -3.48991 190.729C-5.46339 191.551 -7.10797 192.497 -8.42362 193.566C-6.20345 195.375 -4.14774 197.143 -2.25648 198.87C-0.282994 200.597 1.73159 202.488 3.7873 204.544C5.84301 206.517 8.06317 208.778 10.4478 211.327C12.3391 212.725 14.4359 213.918 16.7383 214.904C19.1229 215.891 21.672 216.713 24.3855 217.371C27.1813 217.947 30.0182 218.399 32.8962 218.728C35.7742 218.975 38.6522 219.098 41.5302 219.098C43.257 219.098 44.4905 219.591 45.2305 220.578C46.0528 221.483 46.464 222.593 46.464 223.908C46.464 225.224 45.8883 226.457 44.7371 227.609C43.5859 228.678 42.1058 229.212 40.2968 229.212C35.7742 229.212 31.1283 228.801 26.3591 227.979C21.672 227.074 17.2728 225.759 13.1614 224.032C9.04995 222.223 5.55524 219.961 2.67724 217.248C1.27935 215.439 -0.283002 213.63 -2.0098 211.821C-3.7366 210.012 -5.62788 208.203 -7.6836 206.394C-9.65708 204.502 -11.795 202.735 -14.0974 201.09C-14.5908 200.679 -15.0841 199.939 -15.5775 198.87C-16.0709 197.801 -16.482 196.691 -16.8109 195.54C-17.1399 194.388 -17.3043 193.525 -17.3043 192.949C-17.3043 191.716 -16.5231 190.236 -14.9608 188.509C-13.3985 186.782 -11.3017 185.138 -8.67035 183.575C-6.03903 181.931 -3.03768 180.574 0.333691 179.505C3.70506 178.436 7.19978 177.901 10.8178 177.901C15.5049 177.901 19.2874 178.6 22.1654 179.998C25.1256 181.396 27.2636 183.205 28.5792 185.425C29.9771 187.563 30.6761 189.866 30.6761 192.333C30.6761 195.951 29.7716 199.569 27.9625 203.187C26.1535 206.723 23.5633 210.053 20.1919 213.178C16.8205 216.302 12.8735 219.098 8.35098 221.565C3.8284 223.949 -1.18753 225.841 -6.69684 227.239C-12.1239 228.554 -17.8799 229.212 -23.9648 229.212Z" fill="white"/>
<path d="M1421.15 58.958C1419.17 58.958 1418.27 60.6848 1418.27 64.0562V83.1332C1423.28 83.1332 1426.98 85.7645 1426.98 91.8494C1426.98 97.5232 1423.2 101.141 1418.43 101.141H1416.13C1413.17 101.141 1410.7 99.4967 1410.7 96.2076V64.0562C1410.7 58.0535 1413.17 52.9553 1420.24 52.9553C1423.04 52.9553 1425.75 54.5999 1428.71 57.9713H1428.88C1431.92 54.6821 1434.55 52.9553 1438.58 52.9553C1444.66 52.9553 1446.8 58.0535 1446.8 64.0562V101.141H1439.24V64.0562C1439.24 60.6848 1438.33 58.958 1436.36 58.958C1432.99 58.958 1431.42 63.974 1428.71 63.974C1426.16 63.974 1424.19 58.958 1421.15 58.958ZM1418.27 95.632C1420.74 95.632 1421.89 94.2341 1421.89 91.9317C1421.89 89.9582 1420.74 88.807 1418.27 88.7248V95.632Z" fill="white"/>
<path d="M1334.82 58.4646V52.9553H1384.4C1392.71 52.9553 1394.6 56.4911 1394.6 63.4806V101.141H1387.03V63.4806C1387.03 59.6981 1385.72 58.4646 1380.62 58.4646H1334.82ZM1336.95 101.47C1332.27 101.47 1329.47 98.51 1328.4 92.5073L1332.68 90.8627C1333.58 93.2473 1334.57 94.4808 1336.05 94.4808C1336.95 94.4808 1337.61 93.8229 1337.61 92.425C1337.61 88.7248 1334.82 83.4621 1334.82 78.1995C1334.82 69.5655 1340.82 64.0562 1352.82 64.0562C1364.91 64.0562 1370.91 68.4143 1370.91 77.0483V101.141H1363.35V77.0483C1363.35 72.1146 1359.9 69.6477 1352.82 69.6477C1345.83 69.6477 1342.3 73.2658 1342.3 78.1995C1342.3 83.051 1345.18 85.8468 1345.18 92.5073C1345.18 98.8389 1341.56 101.47 1336.95 101.47Z" fill="white"/>
<path d="M111.524 91.1855V120.054H104.096V91.1052C104.096 86.2336 103.106 82.7672 101.125 80.7062C99.1712 78.6451 95.7316 77.6146 90.8065 77.6146H75.75V70.7889H90.8868C95.812 70.7889 99.7869 71.4849 102.812 72.8768C105.836 74.2419 108.045 76.4234 109.436 79.4213C110.828 82.3925 111.524 86.3139 111.524 91.1855Z" fill="white"/>
<path d="M62.6634 91.1052C62.6634 86.2336 61.673 82.7672 59.6922 80.7062C57.7382 78.6451 54.2986 77.6146 49.3735 77.6146H36.9268V120.054H29.5391V70.7889H49.4538C56.8415 70.7889 62.128 72.3682 65.3133 75.5267C68.4986 78.6852 70.0912 83.9048 70.0912 91.1855V120.054H62.6634V91.1052Z" fill="white"/>
<path d="M19.6225 113.228V120.054H-23.3789V113.228H6.8947V91.1052C6.8947 86.18 5.89093 82.7003 3.8834 80.666C1.90263 78.6317 -1.53694 77.6146 -6.43532 77.6146H-21.4918V70.7889H-6.35502C1.0327 70.7889 6.31921 72.3682 9.50449 75.5267C12.6898 78.6852 14.2824 83.9048 14.2824 91.1855V113.228H19.6225Z" fill="white"/>
</g>
</svg>
